<svg xmlns="http://www.w3.org/2000/svg" xmlns:xlink="http://www.w3.org/1999/xlink" width="148" height="21" viewBox="0 0 148 21">
    <defs>
        <path id="b7r45vn9va" d="M0.077 0.056L1.186 0.056 1.186 0.579 0.077 0.579z"/>
        <path id="8v6yrmwrfc" d="M0 0L20.992 0 20.992 21 0 21z"/>
    </defs>
    <g fill="none" fill-rule="evenodd">
        <path fill="#000" d="M65.018 4.538c-.11-.192-.313-.31-.532-.31h-.511c-.135 0-.26.075-.318.198l-4.449 8.959c-.093.188-.358.188-.451 0l-4.451-8.96c-.059-.122-.183-.197-.316-.197h-.513c-.22 0-.423.118-.532.31l-.566.99c-.095.171-.103.38-.013.557l5.294 10.543c.088.169.26.276.448.276h1.746c.191 0 .363-.107.448-.276L65.6 6.085c.089-.175.084-.384-.014-.554l-.567-.993zM38.785 4.537c-.11-.192-.311-.31-.53-.31h-.512c-.136 0-.26.076-.318.199l-4.449 8.959c-.093.188-.358.188-.452 0l-4.451-8.96c-.058-.122-.183-.197-.315-.197h-.516c-.218 0-.42.117-.529.309l-.566.99c-.096.172-.104.382-.014.559l5.295 10.542c.087.169.26.276.448.276h1.746c.19 0 .363-.107.448-.276l5.297-10.542c.089-.176.083-.385-.014-.555l-.568-.994zM46.594 4.227H45.8c-.219 0-.42.119-.53.31l-.565.992c-.05.09-.076.19-.076.292v10.57c0 .283.227.513.507.513H46.6c.278 0 .504-.228.504-.509V4.742c0-.142-.057-.27-.15-.365-.091-.092-.219-.15-.36-.15M73.532 6.477h6.914c.19 0 .345-.158.345-.348v-.232c0-.153-.04-.304-.116-.438l-.534-.929c-.108-.187-.306-.303-.52-.303h-7.585c-.219 0-.42.118-.53.31l-.528.921c-.076.133-.116.285-.116.438l-.001 9.34c0 .154.04.305.117.44l.528.921c.11.192.311.31.53.31h7.585c.214 0 .412-.116.52-.303l.534-.932c.076-.133.116-.284.116-.439V15c0-.19-.154-.345-.345-.345H73.53c-.14 0-.253-.114-.253-.255v-2.493c0-.14.113-.255.253-.255h4.683c.229 0 .416-.19.416-.421V9.836c0-.23-.185-.418-.413-.421h-4.686c-.14 0-.253-.114-.253-.255V6.733c0-.14.114-.256.254-.256M93.289 9.462h-4.62v-2.96h4.622c.795 0 1.166.542 1.166 1.412 0 1.027-.371 1.548-1.168 1.548m2.402-4.227c-.946-.95-2.173-.981-2.411-.985l-5.913-.003c-.219 0-.421.119-.53.31l-.565.992c-.05.09-.077.19-.077.292v10.57c0 .283.228.514.508.514h1.462c.278 0 .503-.229.503-.51v-4.701h4.62c1.69 0 3.395-1.175 3.395-3.8 0-1.392-.54-2.225-.992-2.679M107.517 6.488c-2.227 0-4.04 1.833-4.04 4.087 0 2.254 1.813 4.087 4.04 4.087 2.228 0 4.04-1.833 4.04-4.087 0-2.254-1.812-4.087-4.04-4.087m0 10.426c-3.454 0-6.265-2.844-6.265-6.34 0-3.495 2.81-6.338 6.265-6.338 3.455 0 6.266 2.843 6.266 6.339 0 3.495-2.81 6.34-6.266 6.34M144.357 5.47l-.534-.93c-.107-.187-.305-.303-.52-.303h-8.145c-.214 0-.412.116-.52.303l-.534.93c-.076.133-.116.284-.116.438v.231c0 .19.154.348.345.348h3.659v9.924c0 .284.227.514.508.514h1.462c.278 0 .503-.228.503-.509V6.487h3.663c.191 0 .345-.158.345-.348v-.231c0-.154-.04-.305-.116-.438"/>
        <g transform="translate(145.171 4.177)">
            <mask id="j1fdvpzv7b" fill="#fff">
                <use xlink:href="#b7r45vn9va"/>
            </mask>
            <path fill="#000" d="M1.07.056L.894.84H.89L.716.056H.6v1h.084L.68.28h.004l.173.776h.07L1.103.28h.004l-.004.776h.084v-1H1.07zm-.993 0v.137h.185v.863h.084V.193h.18V.056H.077z" mask="url(#j1fdvpzv7b)"/>
        </g>
        <mask id="fw6ij3keid" fill="#fff">
            <use xlink:href="#8v6yrmwrfc"/>
        </mask>
        <path fill="#00B3E3" d="M17.138 18.519c-1.581.632-3.58 1.099-6.29 1.129-2.753.03-4.487-.192-6.527-.845-2.388-.765-3.853-2.65-3.27-5.378.908-4.25 5.191-11.927 9.445-11.927 4.254 0 8.709 7.53 9.643 12.059.514 2.489-.881 4.115-3 4.962m3.703-5.176c-.946-4.579-3.247-8.681-6.655-11.864-2.113-1.972-5.298-1.972-7.41.001C3.37 4.665 1.07 8.768.125 13.345-.448 16.116.61 21 10.71 21c10.102 0 10.703-4.887 10.131-7.657" mask="url(#fw6ij3keid)"/>
        <path fill="#00B3E3" d="M5.212 15.23c-2.164-3.255-.622-7.49-.358-8.797-1.872 3.039-3.862 7.915-2.575 9.8 2.216 3.246 11.213 2.605 11.213 2.605s-6.115-.353-8.28-3.608M13.421 9.239c-.734.436-1.73.1-2.223-.751-.494-.851-.299-1.894.435-2.33.734-.437 1.73-.1 2.223.75.494.852.3 1.895-.435 2.331m1.213-2.86c-.716-1.235-2.148-1.73-3.198-1.106-1.05.624-1.321 2.13-.605 3.364s2.148 1.73 3.198 1.105c1.05-.623 1.321-2.13.605-3.364"/>
        <path fill="#000" d="M121.195 6.511h4.623c.795 0 1.166.542 1.166 1.412 0 1.027-.371 1.548-1.169 1.548h-4.62v-2.96zm5.486 5.106c1.36-.342 2.529-1.521 2.529-3.694 0-1.392-.54-2.225-.992-2.679-.947-.95-2.172-.987-2.411-.985l-5.913-.002c-.219 0-.421.118-.53.31l-.565.992c-.05.089-.077.19-.077.291v10.57c0 .284.227.514.508.514h1.462c.278 0 .503-.228.503-.51v-4.701h2.784l2.476 4.963c.11.212.218.24.432.237l2.036.003c.21 0 .328-.194.246-.35-.043-.083-2.024-4.033-2.488-4.96z"/>
    </g>
</svg>
