<svg xmlns="http://www.w3.org/2000/svg" xmlns:xlink="http://www.w3.org/1999/xlink" width="259" height="37" viewBox="0 0 259 37">
    <defs>
        <path id="1r4rtg2kfa" d="M0.136 0.098L2.09 0.098 2.09 1.02 0.136 1.02z"/>
        <path id="2xv83j4qlc" d="M0 0L36.987 0 36.987 37 0 37z"/>
    </defs>
    <g fill="none" fill-rule="evenodd">
        <path fill="#FFF" d="M114.555 7.996c-.193-.339-.55-.548-.938-.548h-.9c-.237 0-.457.133-.56.35l-7.838 15.785c-.164.33-.63.33-.795 0L95.68 7.798c-.103-.217-.322-.35-.555-.35h-.905c-.386 0-.744.21-.938.548l-.996 1.744c-.168.302-.182.67-.023.982l9.328 18.575c.154.297.457.486.789.486h3.077c.336 0 .64-.189.789-.486l9.333-18.575c.156-.309.146-.677-.026-.978l-.999-1.748zM68.335 7.993c-.193-.337-.548-.544-.933-.544h-.903c-.238 0-.458.132-.56.349L58.1 23.583c-.165.33-.632.33-.796 0L49.462 7.798c-.103-.217-.322-.35-.555-.35h-.908c-.385 0-.74.208-.933.545l-.998 1.747c-.168.302-.182.67-.023.982l9.328 18.575c.154.297.457.486.789.486h3.077c.336 0 .64-.189.789-.486l9.333-18.575c.156-.31.146-.677-.025-.978l-1.001-1.751zM82.094 7.448h-1.397c-.385 0-.741.208-.934.546l-.994 1.748c-.09.157-.136.334-.136.514v18.622c0 .5.4.906.894.906h2.576c.49 0 .887-.402.887-.897V8.355c0-.25-.1-.477-.263-.642-.161-.164-.385-.265-.633-.265M129.556 11.411h12.182c.336 0 .608-.278.608-.613v-.407c0-.27-.071-.537-.205-.772l-.94-1.637c-.19-.33-.539-.534-.916-.534H126.92c-.386 0-.742.208-.935.545l-.93 1.624c-.133.235-.204.501-.204.772l-.002 16.454c0 .273.071.54.207.776l.93 1.624c.192.337.548.545.934.545h13.364c.377 0 .726-.204.915-.534l.941-1.64c.134-.235.205-.502.205-.775v-.41c0-.336-.272-.608-.608-.608h-12.184c-.245 0-.444-.202-.444-.45V20.98c0-.249.199-.45.444-.45h8.251c.404 0 .734-.334.734-.742V17.33c0-.406-.327-.737-.728-.743h-8.257c-.245 0-.444-.2-.444-.45v-4.275c0-.248.2-.452.446-.452M164.365 16.67h-8.14v-5.214h8.145c1.4 0 2.054.955 2.054 2.488 0 1.81-.654 2.727-2.059 2.727m4.233-7.448c-1.667-1.672-3.828-1.728-4.247-1.735l-10.419-.005c-.385 0-.741.209-.934.547l-.995 1.748c-.088.157-.135.334-.135.513v18.623c0 .5.4.905.895.905h2.575c.49 0 .887-.402.887-.897v-8.283h8.14c2.977 0 5.98-2.07 5.98-6.695 0-2.453-.95-3.92-1.747-4.72M189.435 11.43c-3.924 0-7.117 3.231-7.117 7.202 0 3.97 3.193 7.201 7.117 7.201 3.925 0 7.118-3.23 7.118-7.201 0-3.97-3.193-7.202-7.118-7.202m0 18.371c-6.087 0-11.039-5.01-11.039-11.17 0-6.158 4.952-11.168 11.04-11.168 6.086 0 11.038 5.01 11.038 11.169 0 6.159-4.952 11.17-11.039 11.17M254.343 9.637L253.403 8c-.19-.33-.538-.534-.916-.534H238.136c-.378 0-.727.203-.916.534l-.94 1.637c-.135.234-.205.501-.205.772v.407c0 .335.27.614.607.614h6.447v17.485c0 .5.4.906.895.906h2.576c.49 0 .887-.402.887-.898V11.43h6.453c.337 0 .608-.28.608-.614v-.407c0-.271-.07-.538-.205-.772"/>
        <g transform="translate(255.778 7.36)">
            <mask id="nhdzw2ognb" fill="#fff">
                <use xlink:href="#1r4rtg2kfa"/>
            </mask>
            <path fill="#FFF" d="M1.886.098l-.31.794h-.008L1.261.098h-.204V1.11h.148L1.197.325h.008l.305.785h.124l.307-.785h.008l-.008.785h.149V.098h-.204zm-1.75 0v.139H.46v.873H.61V.237h.317V.098H.136z" mask="url(#nhdzw2ognb)"/>
        </g>
        <mask id="yukcad1kyd" fill="#fff">
            <use xlink:href="#2xv83j4qlc"/>
        </mask>
        <path fill="#00B3E3" d="M30.196 32.629c-2.787 1.113-6.307 1.936-11.082 1.988-4.852.053-7.907-.337-11.501-1.488-4.207-1.348-6.79-4.669-5.761-9.476 1.6-7.487 9.146-21.014 16.641-21.014 7.496 0 15.344 13.267 16.99 21.246.906 4.386-1.552 7.251-5.287 8.744m6.526-9.12C35.056 15.441 31 8.213 24.995 2.605c-3.722-3.475-9.333-3.475-13.054.002C5.936 8.218 1.883 15.448.22 23.512-.789 28.395 1.074 37 18.872 37s18.857-8.61 17.85-13.49" mask="url(#yukcad1kyd)"/>
        <path fill="#00B3E3" d="M9.184 26.834c-3.814-5.736-1.097-13.196-.632-15.5-3.297 5.354-6.805 13.945-4.536 17.268 3.904 5.718 19.755 4.59 19.755 4.59s-10.773-.623-14.587-6.358M23.647 16.278c-1.293.769-3.047.176-3.917-1.323-.87-1.5-.527-3.338.766-4.106 1.294-.768 3.048-.176 3.918 1.323.87 1.5.526 3.338-.767 4.106m2.137-5.04c-1.262-2.174-3.785-3.046-5.635-1.947-1.85 1.1-2.327 3.753-1.066 5.927 1.262 2.175 3.785 3.046 5.635 1.947 1.85-1.1 2.327-3.753 1.066-5.927"/>
        <path fill="#FFF" d="M213.535 11.472h8.144c1.4 0 2.054.955 2.054 2.488 0 1.81-.654 2.727-2.058 2.727h-8.14v-5.215zm9.665 8.996c2.397-.602 4.455-2.68 4.455-6.508 0-2.452-.95-3.92-1.748-4.72-1.667-1.673-3.826-1.74-4.247-1.736L211.24 7.5c-.385 0-.741.208-.934.546l-.994 1.748c-.089.157-.136.334-.136.513V28.93c0 .5.4.906.895.906h2.576c.49 0 .887-.402.887-.898v-8.283h4.904c.996 1.998 4.306 8.635 4.362 8.745.193.373.385.422.762.416l3.588.006c.369 0 .577-.341.433-.617-.077-.146-3.566-7.105-4.384-8.737z"/>
    </g>
</svg>
