<?xml version="1.0" encoding="utf-8"?>
<!-- Generator: Adobe Illustrator 23.0.0, SVG Export Plug-In . SVG Version: 6.00 Build 0)  -->
<svg version="1.1" id="Layer_1" xmlns="http://www.w3.org/2000/svg" xmlns:xlink="http://www.w3.org/1999/xlink" x="0px" y="0px"
	 viewBox="0 0 1280 1024" style="enable-background:new 0 0 1280 1024;" xml:space="preserve">
<style type="text/css">
	.st0{fill:#FFFFFF;}
	.st1{fill:#00B3E3;}
</style>
<g>
	<path class="st0" d="M428.5,546.9c-1.1-2-3.2-3.2-5.5-3.2h-5.3c-1.4,0-2.7,0.8-3.3,2l-45.7,91.1c-1,1.9-3.7,1.9-4.6,0l-45.8-91.1
		c-0.6-1.3-1.9-2-3.2-2h-5.3c-2.3,0-4.3,1.2-5.5,3.2l-5.8,10.1c-1,1.7-1.1,3.9-0.1,5.7l54.4,107.2c0.9,1.7,2.7,2.8,4.6,2.8h18
		c2,0,3.7-1.1,4.6-2.8l54.5-107.2c0.9-1.8,0.9-3.9-0.1-5.6L428.5,546.9z"/>
	<path class="st0" d="M158.8,546.8c-1.1-1.9-3.2-3.1-5.4-3.1H148c-1.4,0-2.7,0.8-3.3,2L99,636.8c-1,1.9-3.7,1.9-4.6,0l-45.8-91.1
		c-0.6-1.3-1.9-2-3.2-2h-5.3c-2.2,0-4.3,1.2-5.4,3.1l-5.8,10.1c-1,1.7-1.1,3.9-0.1,5.7l54.4,107.2c0.9,1.7,2.7,2.8,4.6,2.8h18
		c2,0,3.7-1.1,4.6-2.8l54.5-107.2c0.9-1.8,0.9-3.9-0.1-5.6L158.8,546.8z"/>
	<path class="st0" d="M239.1,543.7h-8.2c-2.3,0-4.3,1.2-5.5,3.2l-5.8,10.1c-0.5,0.9-0.8,1.9-0.8,3v107.4c0,2.9,2.3,5.2,5.2,5.2h15
		c2.9,0,5.2-2.3,5.2-5.2V548.9c0-1.4-0.6-2.8-1.5-3.7C241.8,544.3,240.5,543.7,239.1,543.7z"/>
	<path class="st0" d="M516.1,566.6h71.1c2,0,3.5-1.6,3.5-3.5v-2.4c0-1.6-0.4-3.1-1.2-4.5l-5.5-9.4c-1.1-1.9-3.1-3.1-5.3-3.1h-78
		c-2.2,0-4.3,1.2-5.5,3.1l-5.4,9.4c-0.8,1.4-1.2,2.9-1.2,4.5l0,94.9c0,1.6,0.4,3.1,1.2,4.5l5.4,9.4c1.1,1.9,3.2,3.1,5.5,3.1h78
		c2.2,0,4.2-1.2,5.3-3.1l5.5-9.5c0.8-1.4,1.2-2.9,1.2-4.5v-2.4c0-1.9-1.6-3.5-3.5-3.5h-71.1c-1.4,0-2.6-1.2-2.6-2.6v-25.3
		c0-1.4,1.2-2.6,2.6-2.6h48.2c2.4,0,4.3-1.9,4.3-4.3v-14.2c0-2.3-1.9-4.2-4.2-4.3h-48.2c-1.4,0-2.6-1.2-2.6-2.6v-24.7
		C513.5,567.7,514.6,566.6,516.1,566.6z"/>
	<path class="st0" d="M744,553.9c-9.7-9.6-22.3-10-24.8-10l-60.8,0c-2.3,0-4.3,1.2-5.5,3.2l-5.8,10.1c-0.5,0.9-0.8,1.9-0.8,3v107.4
		c0,2.9,2.3,5.2,5.2,5.2h15c2.9,0,5.2-2.3,5.2-5.2v-47.8h47.5c17.4,0,34.9-11.9,34.9-38.6C754.2,567,748.6,558.5,744,553.9z
		 M719.3,596.9h-47.5v-30.1l47.5,0c8.2,0,12,5.5,12,14.4C731.3,591.6,727.5,596.9,719.3,596.9z"/>
	<path class="st0" d="M865.6,672.6c-35.5,0-64.4-28.9-64.4-64.4c0-35.5,28.9-64.4,64.4-64.4c35.5,0,64.4,28.9,64.4,64.4
		C930,643.7,901.1,672.6,865.6,672.6z M865.6,566.7c-22.9,0-41.5,18.6-41.5,41.5c0,22.9,18.6,41.5,41.5,41.5s41.5-18.6,41.5-41.5
		C907.1,585.3,888.5,566.7,865.6,566.7z"/>
	<path class="st0" d="M1244.4,556.3l-5.5-9.4c-1.1-1.9-3.1-3.1-5.3-3.1h-25.3H1175h-25.2c-2.2,0-4.2,1.2-5.3,3.1l-5.5,9.4
		c-0.8,1.4-1.2,2.9-1.2,4.5v2.4c0,1.9,1.6,3.5,3.5,3.5h33.7h3.9v100.9c0,2.9,2.3,5.2,5.2,5.2h15c2.9,0,5.2-2.3,5.2-5.2V566.7h3.9
		h33.8c2,0,3.5-1.6,3.5-3.5v-2.4C1245.6,559.2,1245.2,557.7,1244.4,556.3z"/>
	<path class="st0" d="M1253.6,543.7v0.7h1.9v4.6h0.9v-4.6h1.9v-0.7H1253.6z M1263.8,543.7l-1.8,4.2h0l-1.8-4.2h-1.2v5.3h0.9l0-4.1h0
		l1.8,4.1h0.7l1.8-4.1h0l0,4.1h0.9v-5.3H1263.8z"/>
</g>
<path class="st0" d="M1062.7,618.8c14-3.5,26-15.5,26-37.5c0-14.1-5.5-22.6-10.2-27.2c-9.7-9.6-22.3-10-24.8-10l-60.8,0
	c-2.3,0-4.3,1.2-5.5,3.2l-5.8,10.1c-0.5,0.9-0.8,1.9-0.8,3v107.4c0,2.9,2.3,5.2,5.2,5.2h15c2.9,0,5.2-2.3,5.2-5.2v-47.8h28.6
	c5.8,11.5,25.1,49.8,25.5,50.4c1.1,2.2,2.2,2.4,4.4,2.4c0,0,18.2,0,20.9,0c2.2,0,3.4-2,2.5-3.6
	C1087.8,668.4,1067.4,628.2,1062.7,618.8z M1006.2,566.9l47.5,0c8.2,0,12,5.5,12,14.4c0,10.4-3.8,15.7-12,15.7h-47.5V566.9z"/>
<g>
	<path class="st1" d="M324.1,838H302v-94.5h22.1V838z"/>
	<path class="st1" d="M368.5,743.6c0.6,0.1,1.2,0.2,1.8,0.5c0.5,0.2,1,0.6,1.5,1c0.5,0.4,1,1,1.6,1.8l44.9,56.8
		c-0.2-1.8-0.3-3.6-0.4-5.3c-0.1-1.7-0.1-3.3-0.1-4.8v-50H437V838h-11.4c-1.7,0-3.1-0.3-4.3-0.8c-1.2-0.5-2.3-1.5-3.4-2.9
		l-44.6-56.3c0.1,1.6,0.2,3.3,0.3,4.8c0.1,1.6,0.1,3.1,0.1,4.4V838h-19.3v-94.5h11.5C367,743.5,367.8,743.5,368.5,743.6z"/>
	<path class="st1" d="M526.4,743.5v16.9h-38.8v23.9h32.3v16.9h-32.3V838h-22.1v-94.5H526.4z"/>
	<path class="st1" d="M574.8,838h-22.1v-94.5h22.1V838z"/>
	<path class="st1" d="M619.2,743.6c0.6,0.1,1.2,0.2,1.8,0.5c0.5,0.2,1,0.6,1.5,1c0.5,0.4,1,1,1.6,1.8l44.9,56.8
		c-0.2-1.8-0.3-3.6-0.4-5.3c-0.1-1.7-0.1-3.3-0.1-4.8v-50h19.3V838h-11.4c-1.7,0-3.1-0.3-4.3-0.8c-1.2-0.5-2.3-1.5-3.4-2.9
		l-44.6-56.3c0.1,1.6,0.2,3.3,0.3,4.8c0.1,1.6,0.1,3.1,0.1,4.4V838h-19.3v-94.5h11.5C617.8,743.5,618.6,743.5,619.2,743.6z"/>
	<path class="st1" d="M740.3,838h-22.1v-94.5h22.1V838z"/>
	<path class="st1" d="M839.4,743.5v17.4h-26.6V838h-21.9v-77.1h-26.6v-17.4H839.4z"/>
	<path class="st1" d="M908.6,802.1V838h-21.9v-35.9l-34.2-58.6h19.3c1.9,0,3.4,0.4,4.5,1.3c1.1,0.9,2,2,2.7,3.4l13.4,27.5
		c1.1,2.2,2.1,4.2,3,6.1c0.9,1.9,1.7,3.7,2.4,5.5c0.6-1.9,1.4-3.7,2.3-5.6c0.9-1.9,1.9-3.9,2.9-6l13.2-27.5c0.3-0.6,0.6-1.1,1.1-1.7
		s1-1.1,1.6-1.5c0.6-0.5,1.3-0.8,2-1.1c0.8-0.3,1.6-0.4,2.5-0.4h19.5L908.6,802.1z"/>
</g>
<g>
	<path class="st1" d="M786.1,322.1L786.1,322.1c-13.7-65.8-47.2-124.7-96.7-170.4c-30.7-28.3-77-28.3-107.7,0
		c-49.5,45.7-83,104.7-96.7,170.4c-8.3,39.8,7.1,110,153.9,110S794.4,361.9,786.1,322.1z M732.3,396.4c-23,9.1-52,15.8-91.4,16.2
		c-40,0.4-65.2-2.8-94.9-12.1c-34.7-11-56-38.1-47.5-77.3c13.2-61.1,75.5-171.3,137.3-171.3s126.6,108.2,140.2,173.2
		C783.4,360.9,763.1,384.2,732.3,396.4z"/>
</g>
<path class="st1" d="M558.9,349.2c-31.5-46.8-9-107.6-5.2-126.4c-27.2,43.7-56.1,113.7-37.4,140.8c32.2,46.6,163,37.4,163,37.4
	S590.4,395.9,558.9,349.2z"/>
<path class="st1" d="M695.9,222c-10.4-17.7-31.2-24.8-46.5-15.9c-15.3,9-19.2,30.6-8.8,48.3c10.4,17.7,31.2,24.8,46.5,15.9
	C702.3,261.4,706.3,239.7,695.9,222z M678.2,263.1c-10.7,6.3-25.1,1.4-32.3-10.8c-7.2-12.2-4.3-27.2,6.3-33.5
	c10.7-6.3,25.1-1.4,32.3,10.8C691.7,241.8,688.9,256.8,678.2,263.1z"/>
</svg>
