<?xml version="1.0" encoding="utf-8"?>
<!-- Generator: Adobe Illustrator 22.1.0, SVG Export Plug-In . SVG Version: 6.00 Build 0)  -->
<svg version="1.1" id="圖層_1" xmlns="http://www.w3.org/2000/svg" xmlns:xlink="http://www.w3.org/1999/xlink" x="0px" y="0px"
	 viewBox="0 0 55 37" style="enable-background:new 0 0 55 37;" xml:space="preserve">
<style type="text/css">
	.st0{filter:url(#Adobe_OpacityMaskFilter);}
	.st1{fill:#FFFFFF;}
	.st2{mask:url(#_x36_cjo77jwvb_1_);fill:#F17B4F;}
	.st3{fill:#F17B4F;}
	.st4{font-family:'Roboto-Bold';}
	.st5{font-size:12px;}
</style>
<g>
	<g>
		<g transform="translate(-1433 -3629) translate(1433 3629) translate(0 .056)">
			<defs>
				<filter id="Adobe_OpacityMaskFilter" filterUnits="userSpaceOnUse" x="0" y="0" width="54.2" height="35.1">
					<feColorMatrix  type="matrix" values="1 0 0 0 0  0 1 0 0 0  0 0 1 0 0  0 0 0 1 0"/>
				</filter>
			</defs>
			<mask maskUnits="userSpaceOnUse" x="0" y="0" width="54.2" height="35.1" id="_x36_cjo77jwvb_1_">
				<g class="st0">
					<path id="y245ae3o8a_1_" class="st1" d="M0,0h54.2v35.1H0V0z"/>
				</g>
			</mask>
			<path class="st2" d="M0.1,25.3C0.3,26,0.7,26.6,1.3,27l10.8,8.1l39.8-10.7c1.7-0.5,2.7-2.2,2.2-3.9L49.2,2.4
				c-0.5-1.7-2.2-2.7-3.9-2.2L5.6,10.8L0.3,23.2C0,23.9-0.1,24.6,0.1,25.3"/>
		</g>
		<path class="st1" d="M9.5,22.8c0.3,1.2,1.6,2,2.8,1.6c1.2-0.3,2-1.6,1.6-2.8c-0.3-1.2-1.6-2-2.8-1.6C9.9,20.4,9.2,21.6,9.5,22.8
			 M23.5,20.7c-0.1-0.3-0.3-0.5-0.5-0.7c-0.3-0.1-0.7-0.2-1.4-0.2c-0.6,0-1.2-0.1-1.6-0.2c-0.8-0.2-1.3-0.7-1.5-1.4
			c-0.2-0.6,0-1.2,0.3-1.7c0.4-0.5,1-0.9,1.8-1.1c0.5-0.1,1-0.2,1.5-0.1c0.5,0.1,0.9,0.3,1.2,0.6c0.3,0.3,0.5,0.7,0.7,1.1l-1.3,0.3
			c-0.1-0.4-0.3-0.7-0.6-0.8c-0.3-0.2-0.7-0.2-1.1,0c-0.4,0.1-0.7,0.3-0.9,0.5c-0.2,0.2-0.2,0.5-0.1,0.9c0.1,0.3,0.3,0.5,0.6,0.6
			s0.8,0.2,1.4,0.2c0.6,0,1.1,0.1,1.6,0.2c0.4,0.1,0.7,0.3,1,0.6c0.2,0.2,0.4,0.6,0.5,0.9c0.2,0.6,0.1,1.2-0.3,1.7
			c-0.4,0.5-1,0.9-1.8,1.1c-0.5,0.1-1.1,0.2-1.6,0.1c-0.5-0.1-0.9-0.3-1.3-0.5c-0.3-0.3-0.6-0.7-0.7-1.1l1.3-0.3
			c0.1,0.4,0.3,0.7,0.7,0.9c0.3,0.2,0.8,0.2,1.3,0c0.5-0.1,0.8-0.3,0.9-0.5C23.6,21.2,23.6,21,23.5,20.7 M28,18.5l2.2-0.6l-1.9-2.8
			L28,18.5z M30.8,18.9l-2.9,0.8l-0.1,1.9l-1.3,0.4l0.8-8.2l1.2-0.3l4.8,6.7l-1.4,0.4C31.9,20.5,30.8,18.9,30.8,18.9z M35.7,18.3
			l3.4-0.9l0.3,1l-4.7,1.3l-2-7.5l1.3-0.3L35.7,18.3z M44.5,13.5l-3.1,0.8l0.6,2.3l3.6-1l0.3,1L41,18l-2-7.5l4.8-1.3l0.3,1l-3.5,0.9
			l0.6,2.1l3.1-0.8L44.5,13.5z"/>
	</g>
	<rect x="17" y="11.4" transform="matrix(0.9498 -0.313 0.313 0.9498 -3.8621 11.0515)" class="st3" width="31" height="12.2"/>
	<text transform="matrix(0.9597 -0.2811 0.2811 0.9597 19.6449 23.9109)" class="st1 st4 st5">Deal</text>
</g>
</svg>
