<svg xmlns="http://www.w3.org/2000/svg" xmlns:xlink="http://www.w3.org/1999/xlink" width="55" height="37" viewBox="0 0 55 37">
    <defs>
        <path id="i9hafp1aza" d="M0 0.044L54.21 0.044 54.21 35.138 0 35.138z"/>
    </defs>
    <g fill="none" fill-rule="evenodd">
        <g>
            <g>
                <g transform="translate(-563 -3629) translate(563 3629) translate(0 .056)">
                    <mask id="8uvr4c9jzb" fill="#fff">
                        <use xlink:href="#i9hafp1aza"/>
                    </mask>
                    <path fill="#F17B4F" d="M.108 25.302c.179.667.576 1.276 1.162 1.713l10.823 8.123L51.87 24.48c1.684-.451 2.683-2.183 2.232-3.867L49.218 2.385C48.766.7 47.035-.3 45.35.152L5.574 10.811.257 23.237c-.288.67-.328 1.397-.15 2.065" mask="url(#8uvr4c9jzb)"/>
                </g>
                <path fill="#FFF" d="M9.522 22.846c.33 1.228 1.592 1.957 2.82 1.628 1.228-.33 1.957-1.592 1.628-2.82-.329-1.228-1.592-1.957-2.82-1.628-1.228.33-1.957 1.592-1.628 2.82M23.533 20.666c-.088-.328-.271-.55-.55-.665-.277-.116-.741-.184-1.39-.204-.65-.02-1.183-.093-1.597-.22-.794-.245-1.283-.71-1.467-1.397-.161-.601-.049-1.162.337-1.683.386-.52.97-.885 1.752-1.095.519-.139 1.007-.167 1.465-.085.457.082.85.27 1.177.56.327.292.548.652.663 1.083l-1.29.346c-.105-.39-.309-.662-.612-.817-.303-.155-.682-.171-1.136-.05-.424.114-.728.293-.914.536-.185.244-.234.528-.148.853.074.273.261.467.563.582.302.115.766.181 1.393.198.626.017 1.145.088 1.556.214.41.126.736.31.977.551.24.241.412.553.514.936.167.622.06 1.18-.317 1.674-.378.495-.975.852-1.792 1.07-.54.145-1.062.178-1.568.1-.506-.079-.932-.26-1.277-.545-.346-.284-.58-.66-.706-1.128l1.296-.348c.113.424.341.714.684.871.342.158.774.166 1.297.026.45-.12.765-.303.943-.546.178-.244.227-.516.147-.817M28.015 18.543l2.161-.58-1.91-2.804-.251 3.384zm2.805.368l-2.89.774-.138 1.9-1.348.36.82-8.214 1.162-.311 4.822 6.702-1.353.363-1.075-1.574zM35.741 18.345L39.127 17.438 39.405 18.472 34.722 19.727 32.724 12.268 34.02 11.921zM44.495 13.539L41.432 14.36 42.047 16.655 45.628 15.696 45.905 16.731 41.028 18.037 39.029 10.578 43.871 9.281 44.151 10.326 40.605 11.276 41.157 13.336 44.221 12.515z" transform="translate(-563 -3629) translate(563 3629)"/>
            </g>
        </g>
    </g>
</svg>
