<svg xmlns="http://www.w3.org/2000/svg" width="176" height="22" viewBox="0 0 176 22">
    <g fill="none" fill-rule="evenodd">
        <g fill="#F17B4F">
            <g>
                <path d="M174.91 2.085c-.308.085-.355.079-.456.097-.143.02-.205.023-.272.03-.226.016-.323.018-.456.023l-.298.01.046-.126.5-.019c.074-.004.143-.007.29-.023.046-.005.08-.008.162-.02.077-.018.15-.015.424-.103.583.148.81-1.208.073-1.203-.33-.136-.367-.122-.47-.152-.144-.03-.205-.038-.266-.047l-.141-.019-.205-.02-.363-.03-.046-.124.256.017c.127.01.245.02.443.043l.2.028c.041.007.105.018.183.034.127.037.158.013.576.186 1.039.093.314 1.713-.18 1.418zm-5.213.257c-1.603.045-3.202.112-4.8.19-3.188.143-6.37.331-9.549.541-6.355.41-12.699.9-19.04 1.421-2.335.193-4.668.392-7.001.593-2.806.159-5.609.326-8.409.508 2.29-.202 4.58-.403 6.872-.598 5.756-.49 11.513-.954 17.276-1.38 5.764-.422 11.532-.814 17.317-1.106 1.891-.097 3.782-.18 5.683-.248.922 0 1.845.004 2.769.017l.547.012-1.665.05zm-31.161 2.534l2.289-.078.196-.005-1.14.091-1.388.106-.435.015c-3.871.151-7.727.351-11.58.574.968-.085 1.937-.168 2.905-.251 1.534-.086 3.068-.17 4.603-.249l4.55-.203zm1.046 2.055l-4.529.35c-3.012.226-6.02.47-9.029.722-4.235.348-8.467.715-12.698 1.09-2.756.174-5.511.351-8.266.533 4.507-.402 9.015-.794 13.527-1.172 5.108-.385 10.217-.755 15.326-1.101-1.603.079-3.206.163-4.808.247 1.183-.093 2.365-.189 3.55-.28l5.365-.405 2.613-.095.516-.015-1.567.126zM106.44 9.955l1.14-.103 1.073-.075c-.738.06-1.475.12-2.213.178zm2.874-3.313c3.705-.27 7.412-.528 11.121-.77-.889.08-1.778.16-2.667.242-3.492.227-6.981.468-10.47.717l2.016-.19zm44.914-6c3.196-.14 6.396-.261 9.609-.34 1.61-.032 3.222-.054 4.841-.057.814.003 1.63.01 2.448.025l.21.005-1.223.036-1.486.047-.462-.002c-5.87.014-11.665.254-17.461.53-11.585.576-23.128 1.38-34.664 2.248 12.705-.98 25.415-1.894 38.188-2.492zM143.204 4.76c.117.002.227.002.41.012l.184.014c.04.003.098.01.17.02.12.027.146.002.54.14.247 0 .393.115.47.279l-.24.013c-.076-.129-.199-.212-.375-.194-.312-.11-.345-.094-.441-.116-.134-.02-.191-.023-.248-.028l-.13-.008-.19-.007-.336-.005-.05-.12h.236zm1.255 1.613c-.28.11-.324.107-.417.133-.132.03-.19.039-.252.05-.209.032-.3.04-.424.056l-.279.03.036-.13c.14-.013.284-.029.465-.053.069-.01.134-.017.27-.043.042-.009.073-.014.148-.033.071-.023.14-.026.386-.135.294.052.453-.306.442-.645l.206-.015c-.016.443-.301.93-.581.785zm-54.472 4.877c-1.527.147-3.054.297-4.58.446-6.812.582-13.622 1.181-20.431 1.793l2.235-.28c6.102-.606 12.205-1.2 18.31-1.78 3.718-.276 7.435-.547 11.153-.813-2.23.21-4.458.42-6.687.634zm-35.983 3.618l2.737-.344c1.578-.145 3.157-.289 4.735-.432-2.49.257-4.982.515-7.472.776zm-4.614-3.483c6.322-.717 12.644-1.41 18.969-2.088-5.492.607-10.982 1.226-16.47 1.862l-2.5.226zm31.077-1.64l.65-.043-1.788.183 1.138-.14zm-27.122 7.18c9.49-.713 18.98-1.405 28.47-2.066-20.313 1.654-40.62 3.441-60.922 5.3-2.542.226-5.086.449-7.64.656-2.56.202-5.101.41-7.754.51-.67.021-1.341.037-2.08.015-.373-.015-.756-.032-1.23-.104-.238-.04-.505-.089-.824-.212-.156-.061-.326-.147-.473-.265-.148-.122-.256-.262-.303-.432l-.014-.065-.002-.017c-.089-.122.191-.566.277-.586.107-.096.305-.206.335-.217.063-.032.153-.071.202-.09l.118-.043.097-.031.078-.023c.18-.05.291-.074.4-.098.214-.046.388-.077.564-.108.347-.06.675-.113 1.002-.163.651-.099 1.29-.189 1.93-.276 2.55-.347 5.081-.658 7.617-.965 3.314-.397 6.627-.78 9.94-1.159l.023.012c.035.018.07.03.106.047-.986.116-1.972.23-2.957.347-3.883.464-7.762.934-11.647 1.441l-2.92.394c-.979.138-1.942.274-2.968.451l-.402.075c-.144.029-.28.056-.487.108-.047.013-.116.032-.189.055-.036.01-.101.034-.149.052-.016.005-.072.028-.117.048-.05.023-.082.038-.14.07-.094.054-.18.116-.247.18-.095.078-.22.292-.193.426l.01.059c.016.074.034.116.062.167.108.204.35.36.564.45.441.179.793.215 1.107.255.316.034.6.048.877.056 1.095.028 2.09-.02 3.095-.069 1.996-.107 3.953-.262 5.912-.423 1.956-.163 3.906-.336 5.855-.513l11.679-1.088 23.338-2.16zm-29.62-.792l-.349.04c-.025-.017-.05-.033-.073-.05-.017-.013-.03-.027-.046-.04l.336-.032c.042.03.087.057.133.082zm-.464-1.11c.017-.015.036-.03.056-.044l.392-.026c-.094.053-.18.113-.25.175-.1.078-.232.293-.203.427l.01.059c.01.049.023.084.038.116l-.292.033c-.01-.023-.02-.046-.028-.07l-.014-.066-.003-.016c-.093-.123.203-.568.294-.589zm1.269 1.372l-.506.06c-.052-.015-.107-.033-.162-.052l.464-.052c.07.017.138.032.204.044zm-.915-1.593c.066-.032.162-.072.213-.091l.125-.044.102-.032.082-.024c.19-.052.308-.077.423-.102.225-.047.409-.08.594-.112.367-.064.713-.118 1.057-.17.687-.105 1.361-.2 2.035-.292 2.69-.367 5.36-.697 8.036-1.023 2.776-.334 5.551-.661 8.326-.982l1.921-.145c-.915.109-1.83.215-2.746.324-4.095.49-8.187.99-12.286 1.526l-3.078.415c-1.034.146-2.05.29-3.132.475l-.425.078c-.151.03-.295.058-.513.113-.05.012-.122.032-.199.056-.04.01-.107.034-.158.053-.017.005-.076.029-.124.05l-.046.02-.444.042c.103-.068.214-.127.237-.135zM175.475.677c-.554-.539-1.34-.857-.883-.44-.2-.037-.272-.044-.356-.055-.282-.034-.42-.042-.585-.055-.31-.023-.583-.037-.856-.05-.543-.024-1.066-.039-1.587-.05-1.033-.02-2.062-.027-3.087-.027-2.038.012-4.066.05-6.09.102-8.08.237-16.095.7-24.107 1.213-16.019 1.044-31.993 2.347-47.958 3.728-9.18.8-18.356 1.632-27.529 2.485L81.978 6.04l-6.477.828c11.76-.86 23.524-1.682 35.295-2.433-10.637.863-21.266 1.783-31.891 2.737-16.063 1.443-32.363 3.025-33.364 3.098l18.06-1.223C51.45 10.4 39.304 11.788 27.163 13.22c8.627-.867 17.256-1.711 25.887-2.535-4.399.493-8.798.994-13.198 1.515l-1.836.222-.04.004.026-.002-4.82.585c-2.23.28-4.443.56-6.722.893-.582.088-1.133.17-1.823.3l-.294.06c-.11.024-.227.05-.43.106-.11.034-.212.055-.506.176-.06-.206-.348.095-.606.445l-.836.077.818-.054c-.294.405-.542.86-.355.674.005.036.019.088.037.138-5.974.68-11.947 1.367-17.919 2.063 6.037-.593 12.076-1.173 18.115-1.748l.016.019c.028.029.058.056.089.082-2.063.236-4.126.474-6.19.717l-6.322.763c-2.115.264-4.212.528-6.373.844-.552.084-1.074.16-1.728.286l-.278.058c-.105.023-.216.048-.408.102-.104.034-.2.054-.48.173-.126-.45-1.26 1.483-.926 1.133.009.066.048.193.083.25.038.078.093.154.155.224.127.14.291.256.455.343.163.087.325.15.473.198.299.096.549.143.771.179.444.068.796.088 1.132.105.333.015.643.019.944.02.6-.001 1.166-.018 1.725-.04 2.224-.092 4.348-.255 6.483-.42 4.256-.34 8.477-.72 12.7-1.099 16.864-1.54 33.732-3.025 50.604-4.425 16.87-1.393 33.749-2.725 50.616-3.798-9.25.445-18.508.98-27.766 1.55-9.258.572-18.516 1.185-27.773 1.822 11.695-.981 23.392-1.925 35.091-2.794-9.34.512-18.68 1.074-28.02 1.663 10.975-1.052 21.953-2.068 32.935-3.008 5.491-.47 10.983-.92 16.477-1.335 5.494-.414 10.989-.8 16.484-1.1-7.566.315-15.134.778-22.7 1.279-7.566.504-15.13 1.059-22.693 1.64-15.126 1.164-30.245 2.431-45.36 3.748l-4.703.412c11.34-1.204 22.69-2.362 34.044-3.477 6.62-.571 13.242-1.128 19.864-1.668 8.898-.722 17.798-1.412 26.697-2.04 8.898-.626 17.798-1.202 26.68-1.619-9.74.32-19.507.826-29.27 1.385l-3.075.183c2.997-.252 5.995-.499 8.995-.736l5.691-.443 2.86-.221 1.45-.118.747-.066.396-.039c.142-.015.277-.029.476-.056l.206-.03c.118-.03.138-.005.622-.157.734-.312.885-.698.77-1.061 3.722-.267 7.445-.515 11.169-.73 2.898-.165 5.796-.312 8.692-.418 2.894-.103 5.792-.179 8.665-.129-3.954-.113-7.95-.014-11.938.113-3.99.134-7.982.323-11.973.537-1.603.087-3.206.18-4.808.275-.508-.66-1.64-1.114-1.113-.66-.184-.021-.25-.023-.328-.028-.26-.014-.388-.013-.54-.015-.286-.002-.538.001-.792.005l-1.473.033-2.885.101-1.332.063c.378-.031.756-.064 1.135-.094 7.978-.645 15.961-1.25 23.97-1.684 2.005-.112 4.011-.21 6.021-.282 1.01-.04 2.02-.075 3.033-.099l1.54-.038.795-.018.422-.012.51-.02.22-.016c.128-.018.147.007.676-.102 1.326-.394 1.039-1.13.481-1.672z" transform="translate(-228 -3654) translate(228 3654)"/>
            </g>
        </g>
    </g>
</svg>
