<?xml version="1.0" encoding="utf-8"?>
<!-- Generator: Adobe Illustrator 23.0.0, SVG Export Plug-In . SVG Version: 6.00 Build 0)  -->
<svg version="1.1" id="Layer_1" xmlns="http://www.w3.org/2000/svg" xmlns:xlink="http://www.w3.org/1999/xlink" x="0px" y="0px"
	 viewBox="0 0 444.5 55.4" style="enable-background:new 0 0 444.5 55.4;" xml:space="preserve">
<style type="text/css">
	.st0{display:none;}
</style>
<path d="M130.9,13H125c-2.4,0-4.2,0-5.5,0.1c-4,0.1-7.8,1.8-10.5,4.7c-2.5,2.7-4.2,7.1-4.4,11.7c-0.2,2.5-0.2,5.1,0,7.6
	c0.4,4.9,1.9,8.6,4.4,11.3c2.8,2.9,6.6,4.6,10.6,4.7c1,0,4.2,0,9.6,0h20.9h0.6v-7.6h-0.6l-12,0.1h-0.9c-3.6,0-7.1,0-10,0
	c-4,0-6.3,0-7.4-0.2c-4.4-0.3-7.8-3.8-8-8.2c-0.2-2.5-0.2-5.1,0-7.7c0.4-4.6,4.1-8.7,8-8.9c0.8,0,2.2,0,4.3,0h7.4h19V13h-0.6
	C148.5,13.1,135.2,13.1,130.9,13z"/>
<polygon points="53,21.2 72.1,21.2 72.1,53 79.4,53 79.4,21.2 98.5,21.2 98.5,13.6 53,13.6 "/>
<path d="M41.4,17.8c-2.9-2.8-6.6-4.4-10.6-4.7C29.7,13,26.9,13,23.5,13c-3.7,0-7.1,0-8.4,0.1c-2.8,0-5.5,0.9-7.7,2.6V0H0v53.1h7.3
	v-0.6c0-3.5-0.1-21.3,0-23.5c0.2-4.3,3.5-7.8,7.7-8.3c1.3-0.1,4-0.2,7.3-0.2c3.5,0,6.9,0.1,8.4,0.2c4.3,0.3,7.5,3.8,7.7,8.5
	c0,1.1,0,12.8,0,23.3v0.6h7.3v-0.6c0-3.6,0-21.8,0-23.5C45.8,24.9,44.3,20.8,41.4,17.8z"/>
<path d="M177.2,13.1h13.9c2.9,0,5.9,0.5,8.6,1.5c2.5,0.9,4.8,2.4,6.7,4.2s3.4,3.9,4.4,6.3c1,2.5,1.6,5.2,1.6,7.9v0.1
	c0,2.7-0.5,5.4-1.5,7.9c-1,2.4-2.5,4.6-4.4,6.3c-1.9,1.8-4.2,3.3-6.7,4.2c-2.8,1.1-5.7,1.6-8.6,1.5h-13.9V13.1H177.2z M191.1,49
	c2.3,0,4.7-0.4,6.9-1.2c2-0.7,3.7-1.9,5.2-3.3c1.4-1.4,2.6-3.1,3.3-5c0.8-2,1.2-4.1,1.2-6.2v-0.1c0-2.1-0.4-4.2-1.2-6.2
	c-0.8-1.9-1.9-3.6-3.3-5c-1.5-1.5-3.3-2.6-5.2-3.4c-2.2-0.8-4.5-1.3-6.9-1.2h-9.4v31.7L191.1,49L191.1,49z"/>
<path d="M225,44.3c0.6,1.2,1.4,2.2,2.3,3.1c0.9,0.8,2,1.5,3.2,1.9s2.5,0.7,3.7,0.7c1.8,0.1,3.6-0.3,5.3-1.1c1.5-0.8,2.8-1.8,4-3
	l2.7,2.5c-1.4,1.6-3.2,3-5.1,4c-2.2,1.1-4.6,1.6-7.1,1.5c-2,0-3.9-0.4-5.7-1.1s-3.4-1.8-4.7-3.2c-1.4-1.4-2.4-3.1-3.2-4.9
	c-0.8-2-1.2-4.1-1.2-6.3c0-2,0.3-4.1,1.1-6c0.7-1.8,1.7-3.5,2.9-4.9c1.3-1.4,2.8-2.5,4.5-3.3c3.7-1.6,7.9-1.6,11.5,0
	c1.7,0.8,3.2,1.9,4.4,3.3c1.2,1.5,2.1,3.2,2.7,5c0.6,2,0.9,4,0.9,6.1v0.8c0,0.3,0,0.6-0.1,0.9h-23.2C224,41.7,224.4,43.1,225,44.3z
	 M242.8,36.6c-0.1-1.3-0.4-2.6-0.9-3.8c-0.4-1.2-1.1-2.2-1.9-3.2c-0.8-0.9-1.8-1.7-2.9-2.2c-1.2-0.6-2.5-0.8-3.9-0.8
	c-1.2,0-2.4,0.2-3.6,0.7c-1.1,0.5-2,1.2-2.8,2.1c-0.9,0.9-1.6,2-2.1,3.1c-0.6,1.3-0.9,2.6-1.1,4L242.8,36.6z"/>
<path d="M264.8,53.7c-2.2,0-4.4-0.4-6.5-1.2c-2.1-0.7-4-1.8-5.8-3.2l2.2-3.1c1.5,1.2,3.2,2.1,5,2.8c1.7,0.6,3.4,1,5.2,1
	c1.6,0.1,3.1-0.4,4.4-1.3c1.1-0.8,1.8-2.1,1.7-3.4v-0.1c0-0.7-0.2-1.4-0.6-1.9c-0.5-0.6-1-1-1.6-1.4c-0.7-0.4-1.5-0.8-2.3-1.1
	c-0.9-0.3-1.8-0.6-2.8-0.9c-1.1-0.3-2.3-0.7-3.5-1.1c-1.1-0.4-2.2-0.9-3.1-1.5s-1.7-1.4-2.3-2.4s-0.9-2.2-0.9-3.4v-0.1
	c0-1.2,0.2-2.4,0.7-3.5c0.5-1,1.2-2,2.1-2.7c0.9-0.8,2-1.4,3.2-1.7c1.3-0.4,2.6-0.6,4-0.6c1.9,0,3.8,0.3,5.5,0.9
	c1.8,0.6,3.5,1.4,5.1,2.4l-2,3.3c-1.4-0.9-2.8-1.6-4.3-2.1c-1.4-0.5-2.9-0.8-4.4-0.8c-1.5-0.1-2.9,0.4-4.1,1.2c-1,0.7-1.5,1.8-1.5,3
	v0.1c0,0.7,0.2,1.3,0.6,1.8c0.5,0.6,1,1,1.7,1.3c0.8,0.4,1.6,0.7,2.4,1c0.9,0.3,1.9,0.6,2.9,0.9c1.1,0.3,2.3,0.7,3.4,1.1
	s2.1,0.9,3.1,1.6c0.9,0.6,1.6,1.4,2.2,2.3c0.6,1,0.9,2.2,0.8,3.4v0.1c0,1.3-0.3,2.6-0.8,3.8c-0.5,1.1-1.3,2-2.2,2.8
	c-1,0.8-2.1,1.4-3.3,1.8C267.6,53.5,266.2,53.7,264.8,53.7z"/>
<path d="M283.6,12.3h5v4.9h-5V12.3z M283.9,23.6h4.4v29.6h-4.4V23.6z"/>
<path d="M298.6,23.6h4.4v7.7c0.5-1.2,1.2-2.3,2-3.4c0.8-1,1.7-1.9,2.7-2.7c1-0.7,2.2-1.3,3.4-1.7c1.3-0.4,2.6-0.6,3.9-0.5v4.8h-0.3
	c-1.6,0-3.1,0.3-4.5,0.9s-2.7,1.4-3.8,2.6c-1.1,1.2-2,2.7-2.5,4.2c-0.6,1.9-1,3.9-0.9,5.9v11.8h-4.4L298.6,23.6z"/>
<path d="M324.3,44.3c0.6,1.2,1.4,2.2,2.3,3.1c0.9,0.8,2,1.5,3.2,1.9s2.5,0.7,3.7,0.7c1.8,0.1,3.6-0.3,5.3-1.1c1.5-0.8,2.8-1.8,4-3
	l2.7,2.5c-1.4,1.6-3.2,3-5.1,4c-2.2,1.1-4.6,1.6-7.1,1.5c-2,0-3.9-0.4-5.7-1.1c-1.8-0.7-3.3-1.8-4.7-3.2c-1.4-1.4-2.4-3.1-3.2-4.9
	c-0.8-2-1.2-4.1-1.2-6.3c0-2,0.3-4.1,1.1-6c0.7-1.8,1.7-3.5,2.9-4.9c1.3-1.4,2.8-2.5,4.5-3.3c3.7-1.6,7.9-1.6,11.5,0
	c1.7,0.8,3.1,1.9,4.3,3.3c1.2,1.5,2.1,3.2,2.7,5c0.6,2,0.9,4,0.9,6.1v0.7c0,0.3,0,0.6-0.1,0.9h-23.4
	C323.3,41.6,323.7,43.1,324.3,44.3z M342.1,36.6c-0.1-1.3-0.4-2.6-0.9-3.8c-0.4-1.2-1.1-2.2-1.9-3.2c-0.8-0.9-1.8-1.7-2.9-2.2
	c-1.2-0.6-2.5-0.8-3.9-0.8c-1.2,0-2.4,0.2-3.5,0.7s-2.1,1.2-2.9,2.1c-0.9,0.9-1.6,2-2.1,3.1c-0.6,1.3-0.9,2.6-1.1,4L342.1,36.6z"/>
<path d="M370.2,18.4l-7.5,2.3l-1.1-3.7l9.8-3.4h3.4V54h-4.5L370.2,18.4L370.2,18.4z"/>
<path d="M431.8,53.7c-2.2,0-4.4-0.4-6.5-1.2c-2.1-0.7-4-1.8-5.8-3.2l2.2-3.1c1.5,1.2,3.2,2.1,5,2.8c1.7,0.6,3.4,1,5.2,1
	c1.6,0.1,3.1-0.4,4.4-1.3c1.1-0.8,1.8-2.1,1.7-3.4v-0.1c0-0.7-0.2-1.4-0.6-1.9c-0.5-0.6-1-1-1.6-1.4c-0.7-0.4-1.5-0.8-2.3-1.1
	c-0.9-0.3-1.8-0.6-2.8-0.9c-1.1-0.3-2.3-0.7-3.5-1.1c-1.1-0.4-2.2-0.9-3.1-1.5s-1.7-1.4-2.3-2.4c-0.6-1-0.9-2.2-0.9-3.4v-0.1
	c0-1.2,0.2-2.4,0.7-3.5c0.5-1,1.2-2,2.1-2.7c0.9-0.8,2-1.4,3.2-1.7c1.3-0.4,2.6-0.6,4-0.6c1.9,0,3.8,0.3,5.5,0.9
	c1.8,0.6,3.5,1.4,5.1,2.4l-2,3.3c-1.4-0.9-2.8-1.6-4.3-2.1c-1.4-0.5-2.9-0.8-4.4-0.8c-1.5-0.1-2.9,0.4-4.1,1.2c-1,0.7-1.5,1.8-1.5,3
	v0.1c0,0.7,0.2,1.3,0.6,1.8c0.5,0.6,1,1,1.7,1.3c0.8,0.4,1.6,0.7,2.4,1c0.9,0.3,1.9,0.6,2.9,0.9c1.1,0.3,2.3,0.7,3.4,1.1
	s2.1,0.9,3.1,1.6c0.9,0.6,1.6,1.4,2.2,2.3c0.6,1,0.9,2.2,0.8,3.4v0.1c0,1.3-0.3,2.6-0.8,3.8c-0.5,1.1-1.3,2-2.2,2.8
	c-1,0.8-2.1,1.4-3.3,1.8C434.6,53.5,433.2,53.7,431.8,53.7z"/>
<polygon class="st0" points="445.2,22.9 433.6,22.9 433.6,11.3 429.6,11.3 429.6,22.9 418,22.9 418,26.9 429.6,26.9 429.6,38.5 
	433.6,38.5 433.6,26.9 445.2,26.9 "/>
<g>
	<path d="M397.4,54.7c-5.2,0-9-2.1-12.4-4.9l2.6-3.5c3.3,2.9,6.3,4.3,9.8,4.3c7.2,0,12.1-7.3,11.9-17.6c-2.2,3.5-5.8,6.4-11.3,6.4
		c-8.2,0-14-5.2-14-12.5c0-7.7,5.9-13.7,14.4-13.7c4.6,0,8,1.5,10.5,4.1c3.1,3.1,5,7.5,5,15.6C414.1,45.7,407.3,54.7,397.4,54.7z
		 M398.4,17.3c-6,0-9.6,4.4-9.6,9.4c0,5.2,4,8.8,9.8,8.8c6.1,0,10-4.5,10-9.1C408.6,21.3,404.4,17.3,398.4,17.3z"/>
</g>
</svg>
