<?xml version="1.0" encoding="utf-8"?>
<!-- Generator: Adobe Illustrator 23.0.0, SVG Export Plug-In . SVG Version: 6.00 Build 0)  -->
<svg version="1.1" id="Layer_1" xmlns="http://www.w3.org/2000/svg" xmlns:xlink="http://www.w3.org/1999/xlink" x="0px" y="0px"
	 viewBox="0 0 443.8 117.7" style="enable-background:new 0 0 443.8 117.7;" xml:space="preserve">
<style type="text/css">
	.st0{display:none;}
</style>
<path d="M130.9,13H125c-2.4,0-4.2,0-5.5,0.1c-4,0.1-7.8,1.8-10.5,4.7c-2.5,2.7-4.2,7.1-4.4,11.7c-0.2,2.5-0.2,5.1,0,7.6
	c0.4,4.9,1.9,8.6,4.4,11.3c2.8,2.9,6.6,4.6,10.6,4.7c1,0,4.2,0,9.6,0h20.9h0.6v-7.6h-0.6l-12,0.1h-0.9c-3.6,0-7.1,0-10,0
	c-4,0-6.3,0-7.4-0.2c-4.4-0.3-7.8-3.8-8-8.2c-0.2-2.5-0.2-5.1,0-7.7c0.4-4.6,4.1-8.7,8-8.9c0.8,0,2.2,0,4.3,0h7.4h19V13h-0.6
	C148.5,13.1,135.2,13.1,130.9,13z"/>
<polygon points="53,21.2 72.1,21.2 72.1,53 79.4,53 79.4,21.2 98.5,21.2 98.5,13.6 53,13.6 "/>
<path d="M41.4,17.8c-2.9-2.8-6.6-4.4-10.6-4.7C29.7,13,26.9,13,23.5,13c-3.7,0-7.1,0-8.4,0.1c-2.8,0-5.5,0.9-7.7,2.6V0H0v53.1h7.3
	v-0.6c0-3.5-0.1-21.3,0-23.5c0.2-4.3,3.5-7.8,7.7-8.3c1.3-0.1,4-0.2,7.3-0.2c3.5,0,6.9,0.1,8.4,0.2c4.3,0.3,7.5,3.8,7.7,8.5
	c0,1.1,0,12.8,0,23.3v0.6h7.3v-0.6c0-3.6,0-21.8,0-23.5C45.8,24.9,44.3,20.8,41.4,17.8z"/>
<path d="M177.2,13.1h13.9c2.9,0,5.9,0.5,8.6,1.5c2.5,0.9,4.8,2.4,6.7,4.2c1.9,1.8,3.4,3.9,4.4,6.3c1,2.5,1.6,5.2,1.6,7.9v0.1
	c0,2.7-0.5,5.4-1.5,7.9c-1,2.4-2.5,4.6-4.4,6.3c-1.9,1.8-4.2,3.3-6.7,4.2c-2.8,1.1-5.7,1.6-8.6,1.5h-13.9V13.1H177.2z M191.1,49
	c2.3,0,4.7-0.4,6.9-1.2c2-0.7,3.7-1.9,5.2-3.3c1.4-1.4,2.6-3.1,3.3-5c0.8-2,1.2-4.1,1.2-6.2v-0.1c0-2.1-0.4-4.2-1.2-6.2
	c-0.8-1.9-1.9-3.6-3.3-5c-1.5-1.5-3.3-2.6-5.2-3.4c-2.2-0.8-4.5-1.3-6.9-1.2h-9.4v31.7L191.1,49L191.1,49z"/>
<path d="M225,44.3c0.6,1.2,1.4,2.2,2.3,3.1c0.9,0.8,2,1.5,3.2,1.9s2.5,0.7,3.7,0.7c1.8,0.1,3.6-0.3,5.3-1.1c1.5-0.8,2.8-1.8,4-3
	l2.7,2.5c-1.4,1.6-3.2,3-5.1,4c-2.2,1.1-4.6,1.6-7.1,1.5c-2,0-3.9-0.4-5.7-1.1s-3.4-1.8-4.7-3.2c-1.4-1.4-2.4-3.1-3.2-4.9
	c-0.8-2-1.2-4.1-1.2-6.3c0-2,0.3-4.1,1.1-6c0.7-1.8,1.7-3.5,2.9-4.9c1.3-1.4,2.8-2.5,4.5-3.3c3.7-1.6,7.9-1.6,11.5,0
	c1.7,0.8,3.2,1.9,4.4,3.3c1.2,1.5,2.1,3.2,2.7,5c0.6,2,0.9,4,0.9,6.1v0.8c0,0.3,0,0.6-0.1,0.9h-23.2C224,41.7,224.4,43.1,225,44.3z
	 M242.8,36.6c-0.1-1.3-0.4-2.6-0.9-3.8c-0.4-1.2-1.1-2.2-1.9-3.2c-0.8-0.9-1.8-1.7-2.9-2.2c-1.2-0.6-2.5-0.8-3.9-0.8
	c-1.2,0-2.4,0.2-3.6,0.7c-1.1,0.5-2,1.2-2.8,2.1c-0.9,0.9-1.6,2-2.1,3.1c-0.6,1.3-0.9,2.6-1.1,4L242.8,36.6z"/>
<path d="M264.8,53.7c-2.2,0-4.4-0.4-6.5-1.2c-2.1-0.7-4-1.8-5.8-3.2l2.2-3.1c1.5,1.2,3.2,2.1,5,2.8c1.7,0.6,3.4,1,5.2,1
	c1.6,0.1,3.1-0.4,4.4-1.3c1.1-0.8,1.8-2.1,1.7-3.4v-0.1c0-0.7-0.2-1.4-0.6-1.9c-0.5-0.6-1-1-1.6-1.4c-0.7-0.4-1.5-0.8-2.3-1.1
	c-0.9-0.3-1.8-0.6-2.8-0.9c-1.1-0.3-2.3-0.7-3.5-1.1c-1.1-0.4-2.2-0.9-3.1-1.5s-1.7-1.4-2.3-2.4c-0.6-1-0.9-2.2-0.9-3.4v-0.1
	c0-1.2,0.2-2.4,0.7-3.5c0.5-1,1.2-2,2.1-2.7c0.9-0.8,2-1.4,3.2-1.7c1.3-0.4,2.6-0.6,4-0.6c1.9,0,3.8,0.3,5.5,0.9
	c1.8,0.6,3.5,1.4,5.1,2.4l-2,3.3c-1.4-0.9-2.8-1.6-4.3-2.1c-1.4-0.5-2.9-0.8-4.4-0.8c-1.5-0.1-2.9,0.4-4.1,1.2c-1,0.7-1.5,1.8-1.5,3
	v0.1c0,0.7,0.2,1.3,0.6,1.8c0.5,0.6,1,1,1.7,1.3c0.8,0.4,1.6,0.7,2.4,1c0.9,0.3,1.9,0.6,2.9,0.9c1.1,0.3,2.3,0.7,3.4,1.1
	s2.1,0.9,3.1,1.6c0.9,0.6,1.6,1.4,2.2,2.3c0.6,1,0.9,2.2,0.8,3.4v0.1c0,1.3-0.3,2.6-0.8,3.8c-0.5,1.1-1.3,2-2.2,2.8
	c-1,0.8-2.1,1.4-3.3,1.8C267.6,53.5,266.2,53.7,264.8,53.7z"/>
<path d="M283.6,12.3h5v4.9h-5V12.3z M283.9,23.6h4.4v29.6h-4.4V23.6z"/>
<path d="M298.6,23.6h4.4v7.7c0.5-1.2,1.2-2.3,2-3.4c0.8-1,1.7-1.9,2.7-2.7c1-0.7,2.2-1.3,3.4-1.7c1.3-0.4,2.6-0.6,3.9-0.5v4.8h-0.3
	c-1.6,0-3.1,0.3-4.5,0.9c-1.4,0.6-2.7,1.4-3.8,2.6c-1.1,1.2-2,2.7-2.5,4.2c-0.6,1.9-1,3.9-0.9,5.9v11.8h-4.4L298.6,23.6z"/>
<path d="M324.3,44.3c0.6,1.2,1.4,2.2,2.3,3.1c0.9,0.8,2,1.5,3.2,1.9s2.5,0.7,3.7,0.7c1.8,0.1,3.6-0.3,5.3-1.1c1.5-0.8,2.8-1.8,4-3
	l2.7,2.5c-1.4,1.6-3.2,3-5.1,4c-2.2,1.1-4.6,1.6-7.1,1.5c-2,0-3.9-0.4-5.7-1.1c-1.8-0.7-3.3-1.8-4.7-3.2c-1.4-1.4-2.4-3.1-3.2-4.9
	c-0.8-2-1.2-4.1-1.2-6.3c0-2,0.3-4.1,1.1-6c0.7-1.8,1.7-3.5,2.9-4.9c1.3-1.4,2.8-2.5,4.5-3.3c3.7-1.6,7.9-1.6,11.5,0
	c1.7,0.8,3.1,1.9,4.3,3.3c1.2,1.5,2.1,3.2,2.7,5c0.6,2,0.9,4,0.9,6.1v0.7c0,0.3,0,0.6-0.1,0.9h-23.4
	C323.3,41.6,323.7,43.1,324.3,44.3z M342.1,36.6c-0.1-1.3-0.4-2.6-0.9-3.8c-0.4-1.2-1.1-2.2-1.9-3.2c-0.8-0.9-1.8-1.7-2.9-2.2
	c-1.2-0.6-2.5-0.8-3.9-0.8c-1.2,0-2.4,0.2-3.5,0.7s-2.1,1.2-2.9,2.1c-0.9,0.9-1.6,2-2.1,3.1c-0.6,1.3-0.9,2.6-1.1,4L342.1,36.6z"/>
<path d="M370.2,18.4l-7.5,2.3l-1.1-3.7l9.8-3.4h3.4V54h-4.5L370.2,18.4L370.2,18.4z"/>
<path d="M431.8,53.7c-2.2,0-4.4-0.4-6.5-1.2c-2.1-0.7-4-1.8-5.8-3.2l2.2-3.1c1.5,1.2,3.2,2.1,5,2.8c1.7,0.6,3.4,1,5.2,1
	c1.6,0.1,3.1-0.4,4.4-1.3c1.1-0.8,1.8-2.1,1.7-3.4v-0.1c0-0.7-0.2-1.4-0.6-1.9c-0.5-0.6-1-1-1.6-1.4c-0.7-0.4-1.5-0.8-2.3-1.1
	c-0.9-0.3-1.8-0.6-2.8-0.9c-1.1-0.3-2.3-0.7-3.5-1.1c-1.1-0.4-2.2-0.9-3.1-1.5s-1.7-1.4-2.3-2.4c-0.6-1-0.9-2.2-0.9-3.4v-0.1
	c0-1.2,0.2-2.4,0.7-3.5c0.5-1,1.2-2,2.1-2.7c0.9-0.8,2-1.4,3.2-1.7c1.3-0.4,2.6-0.6,4-0.6c1.9,0,3.8,0.3,5.5,0.9
	c1.8,0.6,3.5,1.4,5.1,2.4l-2,3.3c-1.4-0.9-2.8-1.6-4.3-2.1c-1.4-0.5-2.9-0.8-4.4-0.8c-1.5-0.1-2.9,0.4-4.1,1.2c-1,0.7-1.5,1.8-1.5,3
	v0.1c0,0.7,0.2,1.3,0.6,1.8c0.5,0.6,1,1,1.7,1.3c0.8,0.4,1.6,0.7,2.4,1c0.9,0.3,1.9,0.6,2.9,0.9c1.1,0.3,2.3,0.7,3.4,1.1
	s2.1,0.9,3.1,1.6c0.9,0.6,1.6,1.4,2.2,2.3c0.6,1,0.9,2.2,0.8,3.4v0.1c0,1.3-0.3,2.6-0.8,3.8c-0.5,1.1-1.3,2-2.2,2.8
	c-1,0.8-2.1,1.4-3.3,1.8C434.6,53.5,433.2,53.7,431.8,53.7z"/>
<polygon class="st0" points="445.2,22.9 433.6,22.9 433.6,11.3 429.6,11.3 429.6,22.9 418,22.9 418,26.9 429.6,26.9 429.6,38.5 
	433.6,38.5 433.6,26.9 445.2,26.9 "/>
<g>
	<path d="M397.4,54.7c-5.2,0-9-2.1-12.4-4.9l2.6-3.5c3.3,2.9,6.3,4.3,9.8,4.3c7.2,0,12.1-7.3,11.9-17.6c-2.2,3.5-5.8,6.4-11.3,6.4
		c-8.2,0-14-5.2-14-12.5c0-7.7,5.9-13.7,14.4-13.7c4.6,0,8,1.5,10.5,4.1c3.1,3.1,5,7.5,5,15.6C414.1,45.7,407.3,54.7,397.4,54.7z
		 M398.4,17.3c-6,0-9.6,4.4-9.6,9.4c0,5.2,4,8.8,9.8,8.8c6.1,0,10-4.5,10-9.1C408.6,21.3,404.4,17.3,398.4,17.3z"/>
</g>
<g>
	<path d="M8.1,113.2c2,0.8,4.5,1.1,7.8,1.1c1.6,0,11.7,0,13.7-0.1c-0.4,0.6-0.9,1.7-1,2.4H16c-7,0-10.9-1.1-13.3-5.6
		c-0.4,2.5-1,4.7-1.9,6.5c-0.4-0.3-1.4-0.9-1.9-1.2c1.9-3.3,2.2-8.4,2.3-14.2l2.2,0.1c0,1.6-0.1,3.2-0.2,4.7
		c0.7,2.2,1.6,3.8,2.8,4.9V99.7h-6.3v-2.2h5.9v-4.1H0.4v-2.2h5.2v-4h2.3v4H13v2.2H7.9v4.1h5.8v1.4c2.9-1.7,4.5-4.3,5-8.2h-4.6v-2.1
		h14.2c0,0,0,0.7,0,1c-0.3,5.9-0.6,8.2-1.3,9c-0.5,0.6-1.1,0.8-1.9,0.8c-0.8,0.1-2.1,0.1-3.6,0c-0.1-0.7-0.3-1.5-0.6-2.1
		c1.4,0.1,2.6,0.1,3.1,0.1s0.8,0,1-0.3c0.4-0.5,0.7-2.2,1-6.5h-5c-0.7,4.9-2.7,8-6.2,10.1c-0.3-0.3-0.8-0.8-1.3-1.2H8.3v4.7h5.1v2.2
		H8.3v6.8L8.1,113.2L8.1,113.2z M15,101.4h12.6v10.2H15V101.4z M17.3,109.5h7.9v-6.1h-7.9V109.5z"/>
	<path d="M49.6,88.1c-0.9,2.6-2,5.1-3.4,7.5v21.8h-2.3V99.2c-0.9,1.3-1.8,2.5-2.8,3.6c-0.2-0.6-1-1.8-1.4-2.4
		c3-3.2,5.9-8.1,7.6-13.1L49.6,88.1z M70.1,114.4v2.1h-22v-2.1h3.2V95.9H57c0.2-0.9,0.4-2,0.6-3.1h-8.1v-2.1h8.4
		c0.2-1.2,0.3-2.4,0.4-3.4l2.6,0.2c-0.2,1-0.4,2.1-0.6,3.2h8.8v2.1h-9.2c-0.3,1.1-0.5,2.2-0.8,3.1h8.1v18.4h2.9V114.4z M53.5,97.8
		v2.8H65v-2.8H53.5z M64.9,102.4H53.5v2.8H65L64.9,102.4L64.9,102.4z M53.5,109.9H65v-2.8H53.5V109.9z M53.5,114.4H65v-2.7H53.5
		V114.4z"/>
	<path d="M110.2,112.6v2.5H81.8v-2.5H110.2z M108.5,90.5v2.4H83.7v-2.4H108.5z M105.9,101.2v2.5H85.8v-2.5H105.9z"/>
	<path d="M134.9,113.8c-4.4,1-8.9,1.9-12.3,2.7l-0.5-2.3c1.5-0.3,3.4-0.6,5.4-1v-10h-5.1v-2.1h5.1v-3.5h-3.4v-1.2
		c-0.5,0.5-1.1,1-1.6,1.4c-0.2-0.6-0.7-1.9-1.1-2.5c2.6-1.9,5.3-5,6.9-8.2l1.9,0.9c-0.2,0.4-0.5,0.9-0.7,1.4
		c2.2,1.3,4.3,2.9,5.6,4.3l-1.3,2c-1.3-1.4-3.4-3.1-5.5-4.4c-1,1.5-2.2,2.9-3.4,4.2h8.3v2.1h-3.6v3.5h4.7v2.1h-4.7v9.6
		c1.6-0.4,3.3-0.7,5-1.1L134.9,113.8z M124.8,105c0.7,2,1.2,4.5,1.3,6.2l-1.8,0.5c-0.1-1.7-0.6-4.3-1.2-6.3L124.8,105z M130.9,110.6
		c0.5-1.6,1.1-4.2,1.4-5.9l1.9,0.5c-0.5,2-1.1,4.4-1.7,5.9L130.9,110.6z M148.8,115.4c0.4,0,0.7,0,0.9-0.1s0.4-0.3,0.5-0.7
		c0.1-0.5,0.1-1.5,0.2-2.8c0.5,0.4,1.3,0.8,2,1.1c-0.1,1.3-0.2,2.7-0.4,3.2c-0.2,0.6-0.6,0.9-1.1,1.1c-0.4,0.2-1.3,0.3-1.8,0.3h-2
		c-0.7,0-1.6-0.2-2-0.6c-0.6-0.4-0.8-1-0.8-2.7V109h-2.8c-0.4,5-2,7.4-8,8.7c-0.2-0.6-0.8-1.5-1.3-1.9c5.4-1.1,6.7-2.7,7-6.8H136
		v-9.4h14.6v9.4h-4v5.4c0,0.5,0,0.8,0.2,1c0.2,0.1,0.4,0.1,0.7,0.1h1.3L148.8,115.4L148.8,115.4z M134.1,95.7h5
		c-0.3-1-0.7-2.3-1.2-3.3l2-0.4c0.6,1.2,1.2,2.7,1.4,3.7h3.6c0.5-1.1,1.1-2.6,1.4-3.7l2.3,0.5c-0.5,1.1-1,2.2-1.5,3.1h5v2h-18V95.7z
		 M151.4,91.7h-16.3v-1.9h7.1c-0.4-0.7-0.8-1.5-1.3-2l2.1-0.6c0.6,0.8,1.3,1.8,1.7,2.6h6.7V91.7z M138,103.3h10.3v-2.2h-10.2v2.2
		H138z M138,107.2h10.3v-2.3h-10.2v2.3H138z"/>
	<path d="M176.6,112.7c-4.7,1.1-9.6,2.2-13.2,3l-0.6-2.3c2.5-0.5,5.9-1.2,9.5-1.9l-1.7-0.5c0.6-1.8,1.2-4.7,1.5-6.7l2.3,0.6
		c-0.6,2.2-1.3,4.8-1.9,6.5l3.8-0.8L176.6,112.7z M176.1,91.4h-12.9v-2.2h12.9V91.4z M175.4,103.3h-11.3v-8.8h11.3V103.3z
		 M166.2,111.2c0-1.7-0.5-4.2-1.3-6.1l2-0.5c0.8,1.9,1.3,4.5,1.4,6.1L166.2,111.2z M173.1,96.5h-6.8v4.8h6.9L173.1,96.5L173.1,96.5z
		 M183.3,113.2c-1.7,1.7-4.7,3.4-7.2,4.3c-0.4-0.4-1.1-1.2-1.6-1.6c2.5-0.9,5.3-2.5,6.7-3.9L183.3,113.2z M182.6,94.1
		c0.2-1,0.5-2.1,0.7-3.1h-6.2v-2.1h15.8V91H186c-0.3,1.1-0.6,2.2-1,3.1h6.8v17.1H178V94.1H182.6z M189.5,96.1h-9.2v3.2h9.2V96.1z
		 M189.5,101h-9.2v3.2h9.2V101z M189.5,106.1h-9.2v3.3h9.2V106.1z M187.9,112.1c1.9,1.2,4.4,2.9,5.6,4.1l-1.9,1.3
		c-1.2-1.2-3.6-3-5.5-4.2L187.9,112.1z"/>
	<path d="M254.9,99.5c0,5.2-0.5,12.6-3.5,17.7c-0.4-0.4-1.5-1-2-1.3c2.9-4.8,3.2-11.5,3.2-16.4v-9.4h12.6c-0.2-0.8-0.5-1.7-0.8-2.4
		l2.5-0.5c0.4,0.9,0.8,2,1.1,2.9h11.5v2.1H255v7.3H254.9z M265,113.9c-2.8,1.3-6.5,2.7-9.1,3.7c-0.3-0.5-0.9-1.3-1.3-1.7
		c2.6-0.9,6.4-2.4,8.5-3.5L265,113.9z M279.6,100.1v1.6h-23.8v-1.6H279.6z M260.7,99v-2.8h-4.2v-1.6h4.2v-1.9h2.3v1.9h8.5v-1.9h2.4
		v1.9h4.2v1.6h-4.2V99H260.7z M277.3,112.2h-19.8v-9.4h19.8V112.2z M259.8,106.7h6.5v-2.3h-6.5V106.7z M259.8,110.6h6.5v-2.3h-6.5
		V110.6z M263.1,96.2v1.6h8.5v-1.6H263.1z M274.9,104.4h-6.4v2.3h6.4V104.4z M274.9,108.2h-6.4v2.3h6.4V108.2z M270.7,112.3
		c3.1,1.1,6.6,2.5,8.7,3.5l-1.2,1.7c-2.1-1.1-5.4-2.5-8.5-3.6L270.7,112.3z"/>
	<path d="M317.8,114.3c0,1.6-0.4,2.4-1.6,2.7c-1.2,0.4-3.3,0.4-6.7,0.4c-0.1-0.7-0.6-1.7-1-2.4c2.7,0.1,5.2,0.1,6,0
		c0.7,0,0.9-0.2,0.9-0.9V110H297c-0.8,2.7-2.3,5.3-5,7.4c-0.3-0.5-1.2-1.4-1.7-1.8c4.7-3.6,5.2-8.7,5.2-12.9v-5.8
		c-0.8,0.8-1.7,1.5-2.6,2.1c-0.4-0.6-1.2-1.4-1.8-1.7c4.4-3,7.5-7.1,9.2-10.3l2.7,0.5c-0.3,0.5-0.6,1-0.9,1.6h8l0.4-0.1l1.7,1.1
		c-0.8,1.5-1.9,3.2-3,4.6h8.7v19.6C317.9,114.3,317.8,114.3,317.8,114.3z M297.9,103.5c0,1.5-0.1,3-0.4,4.6h7.7v-4.6H297.9z
		 M300.7,91.3c-0.8,1.2-1.8,2.3-2.8,3.5h8.5c0.8-1,1.7-2.3,2.3-3.5H300.7z M297.9,101.4h7.3V97h-7.3V101.4z M315.4,97h-7.8v4.4h7.8
		V97z M315.4,108.1v-4.6h-7.8v4.6H315.4z"/>
	<path d="M348.6,99.3c2.3,7.3,6.6,13.2,13,15.8c-0.6,0.6-1.4,1.6-1.8,2.3c-6.3-3-10.5-8.8-13.1-16.3c-1.6,6.3-5.1,12.7-13.2,16.3
		c-0.4-0.7-1.2-1.5-1.8-2c8.2-3.6,11.5-9.9,12.8-16.1h-12.2v-2.5h12.6c0.5-3.5,0.5-6.8,0.5-9.4h2.6c0,2.6-0.1,5.9-0.5,9.4h13.6v2.5
		H348.6z"/>
	<path d="M383.5,107.4c-0.7-1-2.1-2.7-3.4-4.1v14.1h-2.4V104c-1.5,1.5-3,2.8-4.6,3.8c-0.2-0.7-0.8-1.9-1.1-2.3
		c3.6-2.2,7.5-6.1,9.6-10.2h-8.7v-2.2h10l0.5-0.1l1.3,1c-1,2.4-2.4,4.8-4.1,7c1.3,1.2,3.8,3.9,4.5,4.6L383.5,107.4z M379.4,92.9
		c-0.6-1.2-1.8-3-3-4.3l1.8-1.2c1.2,1.2,2.5,2.9,3.1,4.1L379.4,92.9z M399.9,115.1c0.7,0,0.8-0.4,0.9-4.1c0.5,0.4,1.4,0.8,2.1,0.9
		c-0.2,4.3-0.8,5.3-2.7,5.3h-2.7c-2.2,0-2.8-0.7-2.8-3v-7.8h-2.8c-0.6,5.4-2,9-7.8,11c-0.2-0.6-0.9-1.4-1.4-1.8
		c5.2-1.6,6.5-4.7,6.9-9.2h-3V88.6h14.3v17.8H397v7.7c0,0.8,0.1,0.9,0.8,0.9h2.1V115.1z M388.8,94h9.6v-3.2h-9.6V94z M388.8,99.3
		h9.6V96h-9.6V99.3z M388.8,104.5h9.6v-3.3h-9.6V104.5z"/>
	<path d="M422.7,112.6c2.2-0.3,4.5-0.6,6.7-0.9l0.1,2.2c-5.7,0.9-11.7,1.7-15.8,2.3l-0.3-2.4c1.9-0.2,4.3-0.5,7-0.9v-4.8h-5.9v-2.2
		h5.9v-3.7h-5.9V89h14.2v13.2h-5.9v3.7h5.9v2.2h-5.9v4.5H422.7z M416.5,94.6h3.9V91h-3.9V94.6z M416.5,100.1h3.9v-3.6h-3.9V100.1z
		 M426.4,91h-3.9v3.6h3.9V91z M426.4,96.5h-3.9v3.6h3.9V96.5z M443.8,99.9c-0.8,2.7-1.8,5.8-2.8,7.8l-2-0.6c0.6-1.3,1.3-3.3,1.9-5.2
		H437v12.6c0,1.4-0.3,2.1-1.3,2.5s-2.7,0.4-5.1,0.4c-0.1-0.7-0.5-1.7-0.8-2.4c1.9,0.1,3.7,0.1,4.2,0c0.5,0,0.7-0.2,0.7-0.6v-12.5
		h-5.4v-2.3h8.6c-1.8-1.6-4.5-3.6-6.9-4.8l1.6-1.5c1.1,0.5,2.2,1.2,3.3,1.9c1.3-1.2,2.6-2.6,3.6-4h-9.7V89h11.5l0.5-0.1l1.6,1.1
		c-1.5,2.2-3.6,4.6-5.7,6.4c1.2,0.8,2.2,1.7,2.9,2.4l-0.7,0.7h2l0.4-0.1L443.8,99.9z"/>
</g>
</svg>
