<?xml version="1.0" encoding="UTF-8"?>
<svg width="375px" height="93px" viewBox="0 0 375 93" version="1.1" xmlns="http://www.w3.org/2000/svg" xmlns:xlink="http://www.w3.org/1999/xlink">
    <!-- Generator: Sketch 51.3 (57544) - http://www.bohemiancoding.com/sketch -->
    <title>Group 13</title>
    <desc>Created with Sketch.</desc>
    <defs></defs>
    <g id="Page-1" stroke="none" stroke-width="1" fill="none" fill-rule="evenodd">
        <g id="Group-13" transform="translate(-1.000000, 0.000000)">
            <g id="Logo-Copy">
                <path d="M120.986323,37.5240819 C114.081999,37.5728923 107.540818,37.624027 105.720504,37.46365 C102.031609,37.1405718 99.5677486,34.7000526 99.2827498,31.1113272 C99.0873878,28.7544829 99.0873878,26.7997433 99.2689596,24.9403001 C99.6091194,21.4445469 102.495881,18.1114949 105.720504,17.9557665 C106.87199,17.8953346 109.965606,17.8999832 115.559855,17.9255506 L131.846154,17.9557665 L131.846154,11.1269614 C131.846154,11.1269614 118.871816,11.1060426 114.976067,11.0920968 C109.735768,11.0688538 107.104126,11.0665295 105.435505,11.1269614 C101.767295,11.2640953 98.6897686,12.5866243 96.2994566,15.0434136 C94.0355554,17.363069 92.6841097,21.0470909 92.4841509,24.7892203 C92.3692321,26.7997433 92.3347564,29.4331797 92.4841509,30.9997606 C92.8610848,35.0138336 94.1481758,38.1679142 96.2994566,40.3736787 C98.6047286,42.7421444 102.109753,44.2459691 105.440102,44.2901309 C108.172872,44.3296441 131.846154,44.2901309 131.846154,44.2901309 L131.846154,37.46365 C131.846154,37.46365 124.654533,37.493866 120.986323,37.5240819" id="Fill-1" fill="#FFFFFF"></path>
                <polygon id="Fill-3" fill="#FFFFFF" points="47.3846154 11.7692308 47.3846154 18.5703501 63.3896309 18.5703501 63.3896309 44.3076923 70.1488306 44.3076923 70.1488306 18.5703501 86.1538462 18.5703501 86.1538462 11.7692308"></polygon>
                <path d="M40.2667692,24.5075088 C40.2136923,20.8384858 38.9306154,17.6959281 36.4383077,15.1517319 C33.8306154,12.489255 29.8567692,11.3829819 27.2629231,11.2461473 C24.9990769,11.1209088 16.096,11.1603358 14.0006154,11.2461473 C11.0536923,11.373705 8.90984615,12.248055 7.83446154,13.0597858 C7.82061538,13.0690627 7.81138462,13.0644242 7.81138462,13.0481896 L7.81138462,0.658858846 L0.999076923,0.658858846 L0.999076923,44.3601242 L7.80215385,44.3601242 C7.80215385,44.3601242 7.66369231,26.4742165 7.816,24.5283819 C8.09292308,21.0588127 10.7029231,18.3453127 14.0329231,18.0530896 C16.7098462,17.8188473 24.7290769,17.8814665 27.2421538,18.0577281 C30.7036923,18.2942896 33.2513846,21.0124281 33.4544615,24.6652165 C33.5167692,26.0080512 33.4475385,44.3601242 33.4475385,44.3601242 L40.2667692,44.3601242 C40.2667692,44.3601242 40.2783077,26.0845858 40.2667692,24.5075088" id="Fill-5" fill="#FFFFFF"></path>
                <polygon id="Fill-8" fill="#FFFFFF" points="150.538462 11.8637411 154.572543 11.8637411 163.957017 39.2671391 172.966389 11.7692308 176.017839 11.7692308 185.027211 39.2671391 194.411686 11.8637411 198.307692 11.8637411 186.575948 45 183.432449 45 174.423077 18.3019722 165.365379 45 162.270205 45"></polygon>
                <polygon id="Clip-11" points="1 45 373.461538 45 373.461538 0.692307692 1 0.692307692"></polygon>
                <path d="M204.084508,44.3076923 L207.717677,44.3076923 L207.717677,19.7780897 L204.084508,19.7780897 L204.084508,44.3076923 Z M203.846154,14.4170382 L208,14.4170382 L208,10.3846154 L203.846154,10.3846154 L203.846154,14.4170382 Z" id="Fill-10" fill="#FFFFFF"></path>
                <polygon id="Fill-12" fill="#FFFFFF" points="216.307692 44.3076923 219.769231 44.3076923 219.769231 9.69230769 216.307692 9.69230769"></polygon>
                <path d="M238.807692,41.7767144 C239.920887,41.7767144 240.997658,41.549916 242.033453,41.0986102 C243.069248,40.6473044 243.998049,40.0104363 244.819855,39.1834241 C245.639385,38.3587028 246.28818,37.3782009 246.768515,36.2396273 C247.248851,35.1033447 247.48788,33.8364812 247.48788,32.434455 L247.48788,32.3405284 C247.48788,30.9385023 247.248851,29.6693479 246.768515,28.5330652 C246.28818,27.3967826 245.639385,26.4231533 244.819855,25.6144683 C243.998049,24.8034923 243.069248,24.1734969 242.033453,23.7221911 C240.997658,23.2708853 239.920887,23.044087 238.807692,23.044087 C237.662627,23.044087 236.572197,23.2548491 235.536402,23.6763733 C234.496054,24.0956066 233.601401,24.7026931 232.843335,25.4976327 C232.08527,26.2902815 231.479729,27.2662017 231.03354,28.4162297 C230.585075,29.5685486 230.359704,30.8766482 230.359704,32.3405284 L230.359704,32.434455 C230.359704,33.8662628 230.585075,35.1583261 231.03354,36.310645 C231.479729,37.4629639 232.0921,38.4434659 232.8661,39.2544418 C233.637824,40.0631268 234.537031,40.6862496 235.55689,41.1215191 C236.579026,41.5590796 237.662627,41.7767144 238.807692,41.7767144 M238.158898,45 C236.733826,45 235.333796,44.7205111 233.95653,44.1592425 C232.579265,43.5979738 231.34997,42.7801252 230.266369,41.7056967 C229.182768,40.6312681 228.317709,39.3231686 227.666638,37.781398 C227.015567,36.2396273 226.692308,34.4733493 226.692308,32.4802729 L226.692308,32.3863463 C226.692308,30.4253424 227.015567,28.665937 227.666638,27.1081301 C228.317709,25.5503233 229.182768,24.235351 230.266369,23.1609225 C231.34997,22.0864939 232.579265,21.2617726 233.95653,20.6844677 C235.333796,20.1094537 236.733826,19.8230922 238.158898,19.8230922 C239.272093,19.8230922 240.291952,19.9628366 241.223029,20.2423255 C242.149553,20.5218144 242.985019,20.8952299 243.727149,21.3625719 C244.469278,21.829914 245.143114,22.3751464 245.748656,22.9982691 C246.349644,23.6213918 246.884615,24.2742962 247.349016,24.959273 L247.349016,10.3846154 L250.923077,10.3846154 L250.923077,44.4868401 L247.349016,44.4868401 L247.349016,39.6278573 C246.852745,40.3449066 246.304115,41.0298834 245.70085,41.6827878 C245.097585,42.337983 244.426025,42.9061243 243.681619,43.3895026 C242.937213,43.8728809 242.110853,44.2600417 241.197988,44.5555669 C240.285123,44.851092 239.272093,45 238.158898,45" id="Fill-13" fill="#FFFFFF"></path>
                <path d="M260.461055,23.1341875 L257.153846,23.1341875 L257.153846,19.9749295 L260.461055,19.9749295 L260.461055,17.851797 C260.461055,15.0857116 261.160437,12.9949581 262.559201,11.5795365 C263.800261,10.321384 265.525861,9.69230769 267.733714,9.69230769 C268.57023,9.69230769 269.292467,9.74087608 269.898141,9.83570008 C270.506101,9.93052408 271.102633,10.0854804 271.692308,10.3075073 L271.692308,13.4667653 C271.040922,13.2771174 270.448962,13.1290994 269.923283,13.0180859 C269.393032,12.9093853 268.819356,12.8538785 268.197683,12.8538785 C265.40244,12.8538785 264.003676,14.5815255 264.003676,18.0391322 L264.003676,20.0211851 L271.646596,20.0211851 L271.646596,23.1341875 L264.049387,23.1341875 L264.049387,44.3076923 L260.461055,44.3076923 L260.461055,23.1341875 Z" id="Fill-14" fill="#FFFFFF"></path>
                <path d="M276.776816,44.3076923 L280.409985,44.3076923 L280.409985,19.7780897 L276.776816,19.7780897 L276.776816,44.3076923 Z M276.538462,14.4170382 L280.692308,14.4170382 L280.692308,10.3846154 L276.538462,10.3846154 L276.538462,14.4170382 Z" id="Fill-15" fill="#FFFFFF"></path>
                <path d="M289,19.8260763 L292.699696,19.8260763 L292.699696,26.2193497 C293.150073,25.2091522 293.711276,24.2779125 294.383305,23.4256309 C295.057692,22.5733493 295.828757,21.8395046 296.694142,21.2240968 C297.557168,20.6063668 298.502725,20.132619 299.528453,19.8028533 C300.554182,19.4707654 301.660082,19.3383947 302.846154,19.3987743 L302.846154,23.3304169 L302.558478,23.3304169 C301.212062,23.3304169 299.938744,23.5672908 298.736166,24.0410386 C297.533588,24.5147865 296.48428,25.2254082 295.585883,26.1705816 C294.687487,27.1180773 293.982446,28.2861908 293.470761,29.6749222 C292.959076,31.0636536 292.699696,32.6915812 292.699696,34.5517381 L292.699696,44.3076923 L289,44.3076923 L289,19.8260763 Z" id="Fill-16" fill="#FFFFFF"></path>
                <path d="M324.770319,30.7208945 C324.678668,29.6135543 324.442668,28.5620463 324.069193,27.5663707 C323.695718,26.570695 323.19164,25.693663 322.550088,24.9329482 C321.913117,24.1745597 321.134089,23.5743627 320.215294,23.1323572 C319.296498,22.6880253 318.24481,22.4670225 317.06252,22.4670225 C316.033744,22.4670225 315.069124,22.6740672 314.164076,23.0835039 C313.263611,23.495267 312.468543,24.0722005 311.783457,24.8143046 C311.096079,25.558735 310.527846,26.428788 310.076468,27.4244636 C309.627381,28.4201393 309.338682,29.5205005 309.212663,30.7208945 L324.770319,30.7208945 Z M310.195613,37.1253222 C310.690526,38.1372823 311.332078,38.9910509 312.111107,39.6866281 C312.887844,40.3822052 313.758523,40.9126119 314.725435,41.2755217 C315.690055,41.6384315 316.702792,41.8198864 317.761354,41.8198864 C319.44543,41.8198864 320.886633,41.5058298 322.084962,40.873064 C323.283291,40.2402982 324.380804,39.4004876 325.379794,38.3582851 L327.620646,40.3984896 C326.406278,41.7896439 325.020066,42.9039632 323.4643,43.7414474 C321.903952,44.5812579 319.97242,45 317.667412,45 C316.019996,45 314.46194,44.6905961 312.995533,44.0741147 C311.533709,43.4576333 310.255186,42.5899066 309.164546,41.466282 C308.076198,40.3426573 307.212393,38.9910509 306.573131,37.4091363 C305.93387,35.8295481 305.615385,34.089442 305.615385,32.1911445 C305.615385,30.420796 305.904083,28.7528066 306.481481,27.1871765 C307.056587,25.6215463 307.858528,24.2629608 308.885013,23.1090937 C309.913788,21.9529002 311.137321,21.0432994 312.55332,20.380291 C313.969319,19.7172827 315.520502,19.3846154 317.202287,19.3846154 C318.978013,19.3846154 320.565856,19.7242618 321.965816,20.4035545 C323.370359,21.0828472 324.552649,22.0087325 325.517269,23.1788841 C326.484181,24.3490356 327.215093,25.7262318 327.714588,27.3058201 C328.211791,28.8877346 328.461538,30.5789874 328.461538,32.3819048 L328.461538,32.949533 C328.461538,33.1402933 328.4455,33.3775805 328.415713,33.6613945 L309.258488,33.6613945 C309.384507,34.9594951 309.696119,36.1133622 310.195613,37.1253222 Z" id="Fill-17" fill="#FFFFFF"></path>
                <polygon id="Fill-18" fill="#FFFFFF" points="349.230769 11.0769231 373.224347 11.0769231 373.224347 14.5413233 352.977004 14.5413233 352.977004 25.7936394 371.089621 25.7936394 371.089621 29.2603679 352.977004 29.2603679 352.977004 40.8432921 373.461538 40.8432921 373.461538 44.3076923 349.230769 44.3076923"></polygon>
            </g>
            <path d="M17.872,71.2 L17.872,88 L16.12,88 L16.12,80.248 L5.608,80.248 L5.608,88 L3.832,88 L3.832,71.2 L5.608,71.2 L5.608,78.688 L16.12,78.688 L16.12,71.2 L17.872,71.2 Z M28.336,88.12 C27.1199939,88.12 26.0240049,87.8440028 25.048,87.292 C24.0719951,86.7399972 23.3040028,85.9760049 22.744,85 C22.1839972,84.0239951 21.904,82.9200062 21.904,81.688 C21.904,80.4559938 22.1839972,79.3520049 22.744,78.376 C23.3040028,77.3999951 24.0719951,76.6400027 25.048,76.096 C26.0240049,75.5519973 27.1199939,75.28 28.336,75.28 C29.5520061,75.28 30.6479951,75.5519973 31.624,76.096 C32.6000049,76.6400027 33.3639972,77.3999951 33.916,78.376 C34.4680028,79.3520049 34.744,80.4559938 34.744,81.688 C34.744,82.9200062 34.4680028,84.0239951 33.916,85 C33.3639972,85.9760049 32.6000049,86.7399972 31.624,87.292 C30.6479951,87.8440028 29.5520061,88.12 28.336,88.12 Z M28.336,86.608 C29.2320045,86.608 30.0359964,86.404002 30.748,85.996 C31.4600036,85.587998 32.015998,85.0080038 32.416,84.256 C32.816002,83.5039962 33.016,82.6480048 33.016,81.688 C33.016,80.7279952 32.816002,79.8720038 32.416,79.12 C32.015998,78.3679962 31.4600036,77.788002 30.748,77.38 C30.0359964,76.971998 29.2320045,76.768 28.336,76.768 C27.4399955,76.768 26.6360036,76.971998 25.924,77.38 C25.2119964,77.788002 24.652002,78.3679962 24.244,79.12 C23.835998,79.8720038 23.632,80.7279952 23.632,81.688 C23.632,82.6480048 23.835998,83.5039962 24.244,84.256 C24.652002,85.0080038 25.2119964,85.587998 25.924,85.996 C26.6360036,86.404002 27.4399955,86.608 28.336,86.608 Z M46.432,81.472 C48.1440086,81.872002 49,82.9039917 49,84.568 C49,85.6720055 48.5920041,86.519997 47.776,87.112 C46.9599959,87.704003 45.7440081,88 44.128,88 L38.392,88 L38.392,75.376 L43.96,75.376 C45.4000072,75.376 46.5279959,75.6559972 47.344,76.216 C48.1600041,76.7760028 48.568,77.5759948 48.568,78.616 C48.568,79.3040034 48.3800019,79.8919976 48.004,80.38 C47.6279981,80.8680024 47.1040034,81.2319988 46.432,81.472 Z M40.048,80.992 L43.84,80.992 C44.8160049,80.992 45.5639974,80.8080018 46.084,80.44 C46.6040026,80.0719982 46.864,79.5360035 46.864,78.832 C46.864,78.1279965 46.6040026,77.6000018 46.084,77.248 C45.5639974,76.8959982 44.8160049,76.72 43.84,76.72 L40.048,76.72 L40.048,80.992 Z M44.056,86.656 C45.1440054,86.656 45.9599973,86.4800018 46.504,86.128 C47.0480027,85.7759982 47.32,85.2240038 47.32,84.472 C47.32,83.7199962 47.0720025,83.1640018 46.576,82.804 C46.0799975,82.4439982 45.2960054,82.264 44.224,82.264 L40.048,82.264 L40.048,86.656 L44.056,86.656 Z M58.288,79.84 C59.8720079,79.8560001 61.0799958,80.2079966 61.912,80.896 C62.7440042,81.5840034 63.16,82.5759935 63.16,83.872 C63.16,85.2160067 62.7120045,86.2479964 61.816,86.968 C60.9199955,87.6880036 59.6400083,88.0400001 57.976,88.024 L52.984,88 L52.984,75.376 L54.688,75.376 L54.688,79.792 L58.288,79.84 Z M65.272,75.376 L66.976,75.376 L66.976,88 L65.272,88 L65.272,75.376 Z M57.88,86.728 C59.0480058,86.7440001 59.931997,86.5080024 60.532,86.02 C61.132003,85.5319976 61.432,84.8160047 61.432,83.872 C61.432,82.9439954 61.136003,82.2560022 60.544,81.808 C59.951997,81.3599978 59.0640059,81.1280001 57.88,81.112 L54.688,81.064 L54.688,86.68 L57.88,86.728 Z M71.824,75.376 L73.528,75.376 L73.528,85.408 L81.952,75.376 L83.464,75.376 L83.464,88 L81.76,88 L81.76,77.968 L73.36,88 L71.824,88 L71.824,75.376 Z M77.56,73.552 C76.4719946,73.552 75.6080032,73.2800027 74.968,72.736 C74.3279968,72.1919973 74.0000001,71.424005 73.984,70.432 L75.208,70.432 C75.2240001,71.0560031 75.4479978,71.5559981 75.88,71.932 C76.3120022,72.3080019 76.8719966,72.496 77.56,72.496 C78.2480034,72.496 78.8119978,72.3080019 79.252,71.932 C79.6920022,71.5559981 79.9199999,71.0560031 79.936,70.432 L81.16,70.432 C81.1439999,71.424005 80.8120032,72.1919973 80.164,72.736 C79.5159968,73.2800027 78.6480054,73.552 77.56,73.552 Z M105.352,75.376 L99.04,89.512 C98.5279974,90.6960059 97.9360034,91.5359975 97.264,92.032 C96.5919966,92.5280025 95.7840047,92.776 94.84,92.776 C94.231997,92.776 93.6640026,92.680001 93.136,92.488 C92.6079974,92.295999 92.1520019,92.0080019 91.768,91.624 L92.56,90.352 C93.2000032,90.9920032 93.9679955,91.312 94.864,91.312 C95.4400029,91.312 95.931998,91.1520016 96.34,90.832 C96.748002,90.5119984 97.1279982,89.9680038 97.48,89.2 L98.032,87.976 L92.392,75.376 L94.168,75.376 L98.92,86.104 L103.672,75.376 L105.352,75.376 Z M114.52,75.28 C115.704006,75.28 116.775995,75.5479973 117.736,76.084 C118.696005,76.6200027 119.447997,77.3759951 119.992,78.352 C120.536003,79.3280049 120.808,80.4399938 120.808,81.688 C120.808,82.9520063 120.536003,84.0719951 119.992,85.048 C119.447997,86.0240049 118.700005,86.7799973 117.748,87.316 C116.795995,87.8520027 115.720006,88.12 114.52,88.12 C113.495995,88.12 112.572004,87.9080021 111.748,87.484 C110.923996,87.0599979 110.248003,86.4400041 109.72,85.624 L109.72,92.656 L108.016,92.656 L108.016,75.376 L109.648,75.376 L109.648,77.872 C110.160003,77.0399958 110.835996,76.4000022 111.676,75.952 C112.516004,75.5039978 113.463995,75.28 114.52,75.28 Z M114.4,86.608 C115.280004,86.608 116.079996,86.404002 116.8,85.996 C117.520004,85.587998 118.083998,85.0080038 118.492,84.256 C118.900002,83.5039962 119.104,82.6480048 119.104,81.688 C119.104,80.7279952 118.900002,79.8760037 118.492,79.132 C118.083998,78.3879963 117.520004,77.8080021 116.8,77.392 C116.079996,76.9759979 115.280004,76.768 114.4,76.768 C113.503996,76.768 112.700004,76.9759979 111.988,77.392 C111.275996,77.8080021 110.716002,78.3879963 110.308,79.132 C109.899998,79.8760037 109.696,80.7279952 109.696,81.688 C109.696,82.6480048 109.899998,83.5039962 110.308,84.256 C110.716002,85.0080038 111.275996,85.587998 111.988,85.996 C112.700004,86.404002 113.503996,86.608 114.4,86.608 Z M129.688,88.12 C128.471994,88.12 127.376005,87.8440028 126.4,87.292 C125.423995,86.7399972 124.656003,85.9760049 124.096,85 C123.535997,84.0239951 123.256,82.9200062 123.256,81.688 C123.256,80.4559938 123.535997,79.3520049 124.096,78.376 C124.656003,77.3999951 125.423995,76.6400027 126.4,76.096 C127.376005,75.5519973 128.471994,75.28 129.688,75.28 C130.904006,75.28 131.999995,75.5519973 132.976,76.096 C133.952005,76.6400027 134.715997,77.3999951 135.268,78.376 C135.820003,79.3520049 136.096,80.4559938 136.096,81.688 C136.096,82.9200062 135.820003,84.0239951 135.268,85 C134.715997,85.9760049 133.952005,86.7399972 132.976,87.292 C131.999995,87.8440028 130.904006,88.12 129.688,88.12 Z M129.688,86.608 C130.584004,86.608 131.387996,86.404002 132.1,85.996 C132.812004,85.587998 133.367998,85.0080038 133.768,84.256 C134.168002,83.5039962 134.368,82.6480048 134.368,81.688 C134.368,80.7279952 134.168002,79.8720038 133.768,79.12 C133.367998,78.3679962 132.812004,77.788002 132.1,77.38 C131.387996,76.971998 130.584004,76.768 129.688,76.768 C128.791996,76.768 127.988004,76.971998 127.276,77.38 C126.563996,77.788002 126.004002,78.3679962 125.596,79.12 C125.187998,79.8720038 124.984,80.7279952 124.984,81.688 C124.984,82.6480048 125.187998,83.5039962 125.596,84.256 C126.004002,85.0080038 126.563996,85.587998 127.276,85.996 C127.988004,86.404002 128.791996,86.608 129.688,86.608 Z M147.784,81.472 C149.496009,81.872002 150.352,82.9039917 150.352,84.568 C150.352,85.6720055 149.944004,86.519997 149.128,87.112 C148.311996,87.704003 147.096008,88 145.48,88 L139.744,88 L139.744,75.376 L145.312,75.376 C146.752007,75.376 147.879996,75.6559972 148.696,76.216 C149.512004,76.7760028 149.92,77.5759948 149.92,78.616 C149.92,79.3040034 149.732002,79.8919976 149.356,80.38 C148.979998,80.8680024 148.456003,81.2319988 147.784,81.472 Z M141.4,80.992 L145.192,80.992 C146.168005,80.992 146.915997,80.8080018 147.436,80.44 C147.956003,80.0719982 148.216,79.5360035 148.216,78.832 C148.216,78.1279965 147.956003,77.6000018 147.436,77.248 C146.915997,76.8959982 146.168005,76.72 145.192,76.72 L141.4,76.72 L141.4,80.992 Z M145.408,86.656 C146.496005,86.656 147.311997,86.4800018 147.856,86.128 C148.400003,85.7759982 148.672,85.2240038 148.672,84.472 C148.672,83.7199962 148.424002,83.1640018 147.928,82.804 C147.431998,82.4439982 146.648005,82.264 145.576,82.264 L141.4,82.264 L141.4,86.656 L145.408,86.656 Z M165.376,82.216 L154.816,82.216 C154.912,83.5280066 155.415995,84.587996 156.328,85.396 C157.240005,86.204004 158.391993,86.608 159.784,86.608 C160.568004,86.608 161.287997,86.4680014 161.944,86.188 C162.600003,85.9079986 163.167998,85.4960027 163.648,84.952 L164.608,86.056 C164.047997,86.7280034 163.348004,87.2399982 162.508,87.592 C161.667996,87.9440018 160.744005,88.12 159.736,88.12 C158.439994,88.12 157.292005,87.8440028 156.292,87.292 C155.291995,86.7399972 154.512003,85.9760049 153.952,85 C153.391997,84.0239951 153.112,82.9200062 153.112,81.688 C153.112,80.4559938 153.379997,79.3520049 153.916,78.376 C154.452003,77.3999951 155.187995,76.6400027 156.124,76.096 C157.060005,75.5519973 158.111994,75.28 159.28,75.28 C160.448006,75.28 161.495995,75.5519973 162.424,76.096 C163.352005,76.6400027 164.079997,77.3959952 164.608,78.364 C165.136003,79.3320048 165.4,80.4399938 165.4,81.688 L165.376,82.216 Z M159.28,76.744 C158.063994,76.744 157.044004,77.1319961 156.22,77.908 C155.395996,78.6840039 154.928001,79.6959938 154.816,80.944 L163.768,80.944 C163.655999,79.6959938 163.188004,78.6840039 162.364,77.908 C161.539996,77.1319961 160.512006,76.744 159.28,76.744 Z M169.168,75.376 L170.872,75.376 L170.872,80.968 L178.816,80.968 L178.816,75.376 L180.52,75.376 L180.52,88 L178.816,88 L178.816,82.432 L170.872,82.432 L170.872,88 L169.168,88 L169.168,75.376 Z M190.792,79.84 C192.376008,79.8560001 193.579996,80.2079966 194.404,80.896 C195.228004,81.5840034 195.64,82.5759935 195.64,83.872 C195.64,85.2160067 195.196004,86.2479964 194.308,86.968 C193.419996,87.6880036 192.136008,88.0400001 190.456,88.024 L185.368,88 L185.368,75.376 L187.072,75.376 L187.072,79.792 L190.792,79.84 Z M190.36,86.728 C191.528006,86.7440001 192.411997,86.5080024 193.012,86.02 C193.612003,85.5319976 193.912,84.8160047 193.912,83.872 C193.912,82.9439954 193.616003,82.2560022 193.024,81.808 C192.431997,81.3599978 191.544006,81.1280001 190.36,81.112 L187.072,81.064 L187.072,86.68 L190.36,86.728 Z M205.168,75.376 L206.872,75.376 L206.872,85.408 L215.296,75.376 L216.808,75.376 L216.808,88 L215.104,88 L215.104,77.968 L206.704,88 L205.168,88 L205.168,75.376 Z M227.824,81.424 C228.720004,81.632001 229.411998,81.9919974 229.9,82.504 C230.388002,83.0160026 230.632,83.6399963 230.632,84.376 C230.632,85.1120037 230.380003,85.7679971 229.876,86.344 C229.371997,86.9200029 228.688004,87.3639984 227.824,87.676 C226.959996,87.9880016 226.008005,88.144 224.968,88.144 C224.055995,88.144 223.160004,88.0120013 222.28,87.748 C221.399996,87.4839987 220.632003,87.0960026 219.976,86.584 L220.552,85.312 C221.128003,85.7440022 221.799996,86.0799988 222.568,86.32 C223.336004,86.5600012 224.111996,86.68 224.896,86.68 C226.064006,86.68 227.019996,86.4600022 227.764,86.02 C228.508004,85.5799978 228.88,84.9840038 228.88,84.232 C228.88,83.5599966 228.576003,83.0360019 227.968,82.66 C227.359997,82.2839981 226.528005,82.096 225.472,82.096 L223.312,82.096 L223.312,80.848 L225.376,80.848 C226.320005,80.848 227.079997,80.6680018 227.656,80.308 C228.232003,79.9479982 228.52,79.464003 228.52,78.856 C228.52,78.1839966 228.196003,77.6560019 227.548,77.272 C226.899997,76.8879981 226.056005,76.696 225.016,76.696 C223.655993,76.696 222.312007,77.0399966 220.984,77.728 L220.504,76.408 C222.008008,75.6239961 223.567992,75.232 225.184,75.232 C226.144005,75.232 227.011996,75.3719986 227.788,75.652 C228.564004,75.9320014 229.171998,76.3279974 229.612,76.84 C230.052002,77.3520026 230.272,77.9439966 230.272,78.616 C230.272,79.2560032 230.052002,79.8239975 229.612,80.32 C229.171998,80.8160025 228.576004,81.1839988 227.824,81.424 Z M239.704,88.12 C238.487994,88.12 237.392005,87.8440028 236.416,87.292 C235.439995,86.7399972 234.672003,85.9760049 234.112,85 C233.551997,84.0239951 233.272,82.9200062 233.272,81.688 C233.272,80.4559938 233.551997,79.3520049 234.112,78.376 C234.672003,77.3999951 235.439995,76.6400027 236.416,76.096 C237.392005,75.5519973 238.487994,75.28 239.704,75.28 C240.920006,75.28 242.015995,75.5519973 242.992,76.096 C243.968005,76.6400027 244.731997,77.3999951 245.284,78.376 C245.836003,79.3520049 246.112,80.4559938 246.112,81.688 C246.112,82.9200062 245.836003,84.0239951 245.284,85 C244.731997,85.9760049 243.968005,86.7399972 242.992,87.292 C242.015995,87.8440028 240.920006,88.12 239.704,88.12 Z M239.704,86.608 C240.600004,86.608 241.403996,86.404002 242.116,85.996 C242.828004,85.587998 243.383998,85.0080038 243.784,84.256 C244.184002,83.5039962 244.384,82.6480048 244.384,81.688 C244.384,80.7279952 244.184002,79.8720038 243.784,79.12 C243.383998,78.3679962 242.828004,77.788002 242.116,77.38 C241.403996,76.971998 240.600004,76.768 239.704,76.768 C238.807996,76.768 238.004004,76.971998 237.292,77.38 C236.579996,77.788002 236.020002,78.3679962 235.612,79.12 C235.203998,79.8720038 235,80.7279952 235,81.688 C235,82.6480048 235.203998,83.5039962 235.612,84.256 C236.020002,85.0080038 236.579996,85.587998 237.292,85.996 C238.004004,86.404002 238.807996,86.608 239.704,86.608 Z M255.88,75.688 C257.048006,75.688 258.091995,75.9479974 259.012,76.468 C259.932005,76.9880026 260.647997,77.7159953 261.16,78.652 C261.672003,79.5880047 261.928,80.655994 261.928,81.856 C261.928,83.0880062 261.660003,84.1799952 261.124,85.132 C260.587997,86.0840048 259.840005,86.8239974 258.88,87.352 C257.919995,87.8800026 256.816006,88.144 255.568,88.144 C253.47199,88.144 251.848006,87.4080074 250.696,85.936 C249.543994,84.4639926 248.968,82.432013 248.968,79.84 C248.968,77.1359865 249.483995,75.0640072 250.516,73.624 C251.548005,72.1839928 253.159989,71.2080026 255.352,70.696 L261.016,69.4 L261.304,70.96 L255.976,72.184 C254.167991,72.584002 252.840004,73.2919949 251.992,74.308 C251.143996,75.3240051 250.68,76.8239901 250.6,78.808 C251.112003,77.8319951 251.823995,77.0680028 252.736,76.516 C253.648005,75.9639972 254.695994,75.688 255.88,75.688 Z M255.616,86.728 C256.496004,86.728 257.283997,86.524002 257.98,86.116 C258.676003,85.707998 259.219998,85.1360037 259.612,84.4 C260.004002,83.6639963 260.2,82.8320046 260.2,81.904 C260.2,80.9759954 260.008002,80.1600035 259.624,79.456 C259.239998,78.7519965 258.700003,78.204002 258.004,77.812 C257.307997,77.419998 256.512004,77.224 255.616,77.224 C254.719996,77.224 253.924003,77.419998 253.228,77.812 C252.531997,78.204002 251.988002,78.7519965 251.596,79.456 C251.203998,80.1600035 251.008,80.9759954 251.008,81.904 C251.008,82.8320046 251.203998,83.6639963 251.596,84.4 C251.988002,85.1360037 252.535996,85.707998 253.24,86.116 C253.944004,86.524002 254.735996,86.728 255.616,86.728 Z M272.08,75.28 C273.264006,75.28 274.335995,75.5479973 275.296,76.084 C276.256005,76.6200027 277.007997,77.3759951 277.552,78.352 C278.096003,79.3280049 278.368,80.4399938 278.368,81.688 C278.368,82.9520063 278.096003,84.0719951 277.552,85.048 C277.007997,86.0240049 276.260005,86.7799973 275.308,87.316 C274.355995,87.8520027 273.280006,88.12 272.08,88.12 C271.055995,88.12 270.132004,87.9080021 269.308,87.484 C268.483996,87.0599979 267.808003,86.4400041 267.28,85.624 L267.28,92.656 L265.576,92.656 L265.576,75.376 L267.208,75.376 L267.208,77.872 C267.720003,77.0399958 268.395996,76.4000022 269.236,75.952 C270.076004,75.5039978 271.023995,75.28 272.08,75.28 Z M271.96,86.608 C272.840004,86.608 273.639996,86.404002 274.36,85.996 C275.080004,85.587998 275.643998,85.0080038 276.052,84.256 C276.460002,83.5039962 276.664,82.6480048 276.664,81.688 C276.664,80.7279952 276.460002,79.8760037 276.052,79.132 C275.643998,78.3879963 275.080004,77.8080021 274.36,77.392 C273.639996,76.9759979 272.840004,76.768 271.96,76.768 C271.063996,76.768 270.260004,76.9759979 269.548,77.392 C268.835996,77.8080021 268.276002,78.3879963 267.868,79.132 C267.459998,79.8760037 267.256,80.7279952 267.256,81.688 C267.256,82.6480048 267.459998,83.5039962 267.868,84.256 C268.276002,85.0080038 268.835996,85.587998 269.548,85.996 C270.260004,86.404002 271.063996,86.608 271.96,86.608 Z M286.384,75.28 C288.032008,75.28 289.295996,75.6919959 290.176,76.516 C291.056004,77.3400041 291.496,78.5599919 291.496,80.176 L291.496,88 L289.864,88 L289.864,86.032 C289.479998,86.6880033 288.916004,87.1999982 288.172,87.568 C287.427996,87.9360018 286.544005,88.12 285.52,88.12 C284.111993,88.12 282.992004,87.7840034 282.16,87.112 C281.327996,86.4399966 280.912,85.5520055 280.912,84.448 C280.912,83.3759946 281.299996,82.5120033 282.076,81.856 C282.852004,81.1999967 284.087992,80.872 285.784,80.872 L289.792,80.872 L289.792,80.104 C289.792,79.0159946 289.488003,78.1880028 288.88,77.62 C288.271997,77.0519972 287.384006,76.768 286.216,76.768 C285.415996,76.768 284.648004,76.8999987 283.912,77.164 C283.175996,77.4280013 282.544003,77.7919977 282.016,78.256 L281.248,76.984 C281.888003,76.4399973 282.655996,76.0200015 283.552,75.724 C284.448004,75.4279985 285.391995,75.28 286.384,75.28 Z M285.784,86.776 C286.744005,86.776 287.567997,86.5560022 288.256,86.116 C288.944003,85.6759978 289.455998,85.0400042 289.792,84.208 L289.792,82.144 L285.832,82.144 C283.671989,82.144 282.592,82.8959925 282.592,84.4 C282.592,85.1360037 282.871997,85.7159979 283.432,86.14 C283.992003,86.5640021 284.775995,86.776 285.784,86.776 Z M307.096,82.384 L304.36,82.384 L304.36,88 L302.656,88 L302.656,82.384 L299.92,82.384 L296.056,88 L294.016,88 L298.552,81.496 L294.376,75.376 L296.224,75.376 L299.92,80.92 L302.656,80.92 L302.656,75.376 L304.36,75.376 L304.36,80.92 L307.096,80.92 L310.816,75.376 L312.664,75.376 L308.488,81.52 L313.024,88 L310.984,88 L307.096,82.384 Z M326.896,82.216 L316.336,82.216 C316.432,83.5280066 316.935995,84.587996 317.848,85.396 C318.760005,86.204004 319.911993,86.608 321.304,86.608 C322.088004,86.608 322.807997,86.4680014 323.464,86.188 C324.120003,85.9079986 324.687998,85.4960027 325.168,84.952 L326.128,86.056 C325.567997,86.7280034 324.868004,87.2399982 324.028,87.592 C323.187996,87.9440018 322.264005,88.12 321.256,88.12 C319.959994,88.12 318.812005,87.8440028 317.812,87.292 C316.811995,86.7399972 316.032003,85.9760049 315.472,85 C314.911997,84.0239951 314.632,82.9200062 314.632,81.688 C314.632,80.4559938 314.899997,79.3520049 315.436,78.376 C315.972003,77.3999951 316.707995,76.6400027 317.644,76.096 C318.580005,75.5519973 319.631994,75.28 320.8,75.28 C321.968006,75.28 323.015995,75.5519973 323.944,76.096 C324.872005,76.6400027 325.599997,77.3959952 326.128,78.364 C326.656003,79.3320048 326.92,80.4399938 326.92,81.688 L326.896,82.216 Z M320.8,76.744 C319.583994,76.744 318.564004,77.1319961 317.74,77.908 C316.915996,78.6840039 316.448001,79.6959938 316.336,80.944 L325.288,80.944 C325.175999,79.6959938 324.708004,78.6840039 323.884,77.908 C323.059996,77.1319961 322.032006,76.744 320.8,76.744 Z M330.688,75.376 L332.392,75.376 L332.392,80.968 L340.336,80.968 L340.336,75.376 L342.04,75.376 L342.04,88 L340.336,88 L340.336,82.432 L332.392,82.432 L332.392,88 L330.688,88 L330.688,75.376 Z M346.888,75.376 L348.592,75.376 L348.592,85.408 L357.016,75.376 L358.528,75.376 L358.528,88 L356.824,88 L356.824,77.968 L348.424,88 L346.888,88 L346.888,75.376 Z M363.4,75.376 L365.104,75.376 L365.104,85.408 L373.528,75.376 L375.04,75.376 L375.04,88 L373.336,88 L373.336,77.968 L364.936,88 L363.4,88 L363.4,75.376 Z M369.136,73.552 C368.047995,73.552 367.184003,73.2800027 366.544,72.736 C365.903997,72.1919973 365.576,71.424005 365.56,70.432 L366.784,70.432 C366.8,71.0560031 367.023998,71.5559981 367.456,71.932 C367.888002,72.3080019 368.447997,72.496 369.136,72.496 C369.824003,72.496 370.387998,72.3080019 370.828,71.932 C371.268002,71.5559981 371.496,71.0560031 371.512,70.432 L372.736,70.432 C372.72,71.424005 372.388003,72.1919973 371.74,72.736 C371.091997,73.2800027 370.224005,73.552 369.136,73.552 Z" id="Новый-уровень-изобра-Copy" fill="#FFFFFF"></path>
        </g>
    </g>
</svg>