<?xml version="1.0" encoding="UTF-8"?>
<svg width="414px" height="50px" viewBox="0 0 414 50" version="1.1" xmlns="http://www.w3.org/2000/svg" xmlns:xlink="http://www.w3.org/1999/xlink">
    <!-- Generator: Sketch 51.3 (57544) - http://www.bohemiancoding.com/sketch -->
    <title>Logo Copy 2</title>
    <desc>Created with Sketch.</desc>
    <defs></defs>
    <g id="Page-1" stroke="none" stroke-width="1" fill="none" fill-rule="evenodd">
        <g id="Logo-Copy-2">
            <path d="M133.429248,41.6934244 C125.757776,41.7476581 118.489798,41.8044745 116.467226,41.6262778 C112.368454,41.267302 109.630832,38.555614 109.314166,34.5681413 C109.097098,31.9494255 109.097098,29.7774925 109.298844,27.7114445 C109.676799,23.8272743 112.884312,20.1238832 116.467226,19.9508517 C117.746656,19.8837052 121.184006,19.8888703 127.399839,19.9172784 L145.495726,19.9508517 L145.495726,12.3632904 C145.495726,12.3632904 131.079796,12.3400474 126.751186,12.324552 C120.928631,12.2987264 118.004585,12.2961439 116.150561,12.3632904 C112.074773,12.5156615 108.655298,13.9851381 105.999396,16.714904 C103.48395,19.2922989 101.982344,23.3856565 101.760168,27.5435781 C101.63248,29.7774925 101.594174,32.703533 101.760168,34.4441785 C102.178983,38.9042596 103.609084,42.4087935 105.999396,44.8596429 C108.56081,47.4912716 112.455282,49.1621879 116.155668,49.2112566 C119.19208,49.2551601 145.495726,49.2112566 145.495726,49.2112566 L145.495726,41.6262778 C145.495726,41.6262778 137.505036,41.6598511 133.429248,41.6934244" id="Fill-1" fill="#FFFFFF"></path>
            <polygon id="Fill-3" fill="#FFFFFF" points="51.6495726 13.0769231 51.6495726 20.6337223 69.4329232 20.6337223 69.4329232 49.2307692 76.9431451 49.2307692 76.9431451 20.6337223 94.7264957 20.6337223 94.7264957 13.0769231"></polygon>
            <path d="M43.7408547,27.2305654 C43.6818803,23.1538731 42.2562393,19.6621423 39.4870085,16.8352577 C36.5895726,13.87695 32.174188,12.6477577 29.2921368,12.4957192 C26.7767521,12.3565654 16.8844444,12.4003731 14.5562393,12.4957192 C11.2818803,12.63745 8.89982906,13.60895 7.70495726,14.5108731 C7.68957265,14.5211808 7.67931624,14.5160269 7.67931624,14.4979885 L7.67931624,0.732065385 L0.11008547,0.732065385 L0.11008547,49.2890269 L7.66905983,49.2890269 C7.66905983,49.2890269 7.51521368,29.4157962 7.68444444,27.2537577 C7.99213675,23.3986808 10.8921368,20.3836808 14.5921368,20.0589885 C17.5664957,19.7987192 26.4767521,19.8682962 29.2690598,20.0641423 C33.1152137,20.3269885 35.9459829,23.3471423 36.1716239,27.4057962 C36.2408547,28.8978346 36.1639316,49.2890269 36.1639316,49.2890269 L43.7408547,49.2890269 C43.7408547,49.2890269 43.7536752,28.9828731 43.7408547,27.2305654" id="Fill-5" fill="#FFFFFF"></path>
            <polygon id="Fill-8" fill="#FFFFFF" points="166.264957 13.1819346 170.74727 13.1819346 181.174464 43.6301545 191.184877 13.0769231 194.575377 13.0769231 204.58579 43.6301545 215.012984 13.1819346 219.34188 13.1819346 206.306609 50 202.813832 50 192.803419 20.3355246 182.73931 50 179.300228 50"></polygon>
            <polygon id="Clip-11" points="0.111111111 50 413.957265 50 413.957265 0.769230769 0.111111111 0.769230769"></polygon>
            <path d="M225.760565,49.2307692 L229.797419,49.2307692 L229.797419,21.9756552 L225.760565,21.9756552 L225.760565,49.2307692 Z M225.495726,16.0189313 L230.111111,16.0189313 L230.111111,11.5384615 L225.495726,11.5384615 L225.495726,16.0189313 Z" id="Fill-10" fill="#FFFFFF"></path>
            <polygon id="Fill-12" fill="#FFFFFF" points="239.34188 49.2307692 243.188034 49.2307692 243.188034 10.7692308 239.34188 10.7692308"></polygon>
            <path d="M264.34188,46.4185715 C265.578764,46.4185715 266.775176,46.1665733 267.926059,45.6651224 C269.076942,45.1636715 270.108943,44.4560403 271.022061,43.5371379 C271.93265,42.6207809 272.653533,41.5313343 273.187239,40.2662526 C273.720945,39.0037163 273.986534,37.5960902 273.986534,36.0382834 L273.986534,35.9339205 C273.986534,34.3761136 273.720945,32.9659421 273.187239,31.7034058 C272.653533,30.4408695 271.93265,29.3590592 271.022061,28.4605203 C270.108943,27.5594359 269.076942,26.859441 267.926059,26.3579901 C266.775176,25.8565392 265.578764,25.6045411 264.34188,25.6045411 C263.069585,25.6045411 261.857996,25.8387212 260.707113,26.3070814 C259.551171,26.7728962 258.557112,27.4474367 257.714817,28.330703 C256.872522,29.2114239 256.199698,30.2957797 255.703933,31.5735886 C255.205639,32.8539429 254.955227,34.3073869 254.955227,35.9339205 L254.955227,36.0382834 C254.955227,37.6291809 255.205639,39.0648068 255.703933,40.3451611 C256.199698,41.6255155 256.880111,42.7149621 257.740111,43.6160464 C258.597582,44.5145853 259.596701,45.2069439 260.729878,45.6905768 C261.865585,46.1767551 263.069585,46.4185715 264.34188,46.4185715 M263.620998,50 C262.037585,50 260.481995,49.6894568 258.9517,49.065825 C257.421405,48.4421931 256.055522,47.5334725 254.851521,46.339663 C253.64752,45.1458535 252.686343,43.6924095 251.962931,41.9793311 C251.239519,40.2662526 250.880342,38.3037214 250.880342,36.0891921 L250.880342,35.9848292 C250.880342,33.805936 251.239519,31.8510411 251.962931,30.1201446 C252.686343,28.3892481 253.64752,26.9281678 254.851521,25.7343583 C256.055522,24.5405488 257.421405,23.6241918 258.9517,22.9827419 C260.481995,22.3438375 262.037585,22.025658 263.620998,22.025658 C264.857881,22.025658 265.991058,22.1809296 267.025588,22.4914728 C268.055059,22.802016 268.983354,23.2169221 269.807943,23.736191 C270.632532,24.25546 271.381238,24.8612737 272.054062,25.5536323 C272.721827,26.2459909 273.316239,26.9714402 273.83224,27.7325256 L273.83224,11.5384615 L277.803419,11.5384615 L277.803419,49.4298223 L273.83224,49.4298223 L273.83224,44.0309525 C273.280828,44.827674 272.671239,45.5887594 272.000944,46.3142086 C271.33065,47.0422033 270.584473,47.6734715 269.757355,48.2105585 C268.930236,48.7476455 268.012059,49.1778242 266.997764,49.5061854 C265.98347,49.8345467 264.857881,50 263.620998,50" id="Fill-13" fill="#FFFFFF"></path>
            <path d="M288.401172,25.7046528 L284.726496,25.7046528 L284.726496,22.1943661 L288.401172,22.1943661 L288.401172,19.83533 C288.401172,16.7619018 289.178263,14.4388424 290.732445,12.8661517 C292.111401,11.4682044 294.028734,10.7692308 296.481904,10.7692308 C297.411366,10.7692308 298.213853,10.8231956 298.886824,10.9285556 C299.562334,11.0339156 300.225147,11.2060893 300.880342,11.4527859 L300.880342,14.9630726 C300.15658,14.7523526 299.498846,14.5878882 298.914758,14.4645399 C298.325591,14.3437614 297.688173,14.2820873 296.997426,14.2820873 C293.8916,14.2820873 292.337418,16.201695 292.337418,20.0434803 L292.337418,22.2457612 L300.829552,22.2457612 L300.829552,25.7046528 L292.388208,25.7046528 L292.388208,49.2307692 L288.401172,49.2307692 L288.401172,25.7046528 Z" id="Fill-14" fill="#FFFFFF"></path>
            <path d="M306.529795,49.2307692 L310.56665,49.2307692 L310.56665,21.9756552 L306.529795,21.9756552 L306.529795,49.2307692 Z M306.264957,16.0189313 L310.880342,16.0189313 L310.880342,11.5384615 L306.264957,11.5384615 L306.264957,16.0189313 Z" id="Fill-15" fill="#FFFFFF"></path>
            <path d="M320.111111,22.0289736 L324.221885,22.0289736 L324.221885,29.1326108 C324.722304,28.0101691 325.345863,26.9754584 326.092562,26.0284788 C326.84188,25.0814992 327.698619,24.2661162 328.660157,23.5823298 C329.619076,22.8959631 330.669694,22.3695767 331.809392,22.0031704 C332.949091,21.6341838 334.177869,21.4871052 335.495726,21.5541937 L335.495726,25.9226854 L335.176087,25.9226854 C333.680069,25.9226854 332.265272,26.1858787 330.929074,26.7122651 C329.592876,27.2386516 328.426978,28.0282313 327.428759,29.078424 C326.430541,30.1311969 325.647162,31.4291009 325.078623,32.9721358 C324.510084,34.5151706 324.221885,36.3239791 324.221885,38.3908201 L324.221885,49.2307692 L320.111111,49.2307692 L320.111111,22.0289736 Z" id="Fill-16" fill="#FFFFFF"></path>
            <path d="M359.855909,34.1343272 C359.754076,32.9039492 359.491854,31.7356071 359.076881,30.6293008 C358.661908,29.5229945 358.101823,28.5485144 357.388986,27.7032757 C356.681241,26.8606219 355.815654,26.1937363 354.794771,25.7026191 C353.773887,25.208917 352.605344,24.9633583 351.291689,24.9633583 C350.148604,24.9633583 349.076804,25.193408 348.071195,25.6483377 C347.070678,26.1058522 346.18727,26.7468895 345.426063,27.5714495 C344.66231,28.3985944 344.03094,29.36532 343.529409,30.4716263 C343.030423,31.5779326 342.709647,32.8005561 342.569625,34.1343272 L359.855909,34.1343272 Z M343.661793,41.250358 C344.211695,42.3747581 344.924532,43.3233899 345.790119,44.0962534 C346.65316,44.8691169 347.620581,45.4584576 348.694927,45.8616908 C349.766728,46.2649239 350.891991,46.4665405 352.068171,46.4665405 C353.939367,46.4665405 355.540703,46.1175887 356.87218,45.4145156 C358.203656,44.7114424 359.423116,43.7783196 360.533104,42.6203167 L363.02294,44.8872107 C361.673642,46.4329377 360.133407,47.6710702 358.404778,48.6016082 C356.671058,49.534731 354.524911,50 351.963792,50 C350.133329,50 348.402155,49.6562179 346.772815,48.9712386 C345.148566,48.2862592 343.727985,47.3221184 342.516163,46.0736466 C341.306887,44.8251748 340.347103,43.3233899 339.636813,41.565707 C338.926522,39.810609 338.57265,37.8771578 338.57265,35.7679384 C338.57265,33.8008844 338.893426,31.9475629 339.534979,30.2079738 C340.173986,28.4683848 341.065031,26.9588454 342.20557,25.6767708 C343.348654,24.3921114 344.708135,23.3814437 346.281467,22.6447678 C347.854799,21.9080919 349.578335,21.5384615 351.446985,21.5384615 C353.420015,21.5384615 355.184285,21.9158464 356.739796,22.6706161 C358.300399,23.4253858 359.614054,24.4541473 360.685855,25.7543156 C361.760201,27.054484 362.572326,28.584702 363.12732,30.3398001 C363.679768,32.0974829 363.957265,33.9766527 363.957265,35.9798942 L363.957265,36.6105922 C363.957265,36.8225481 363.939444,37.0862005 363.906348,37.4015495 L342.620542,37.4015495 C342.760564,38.8438834 343.106799,40.125958 343.661793,41.250358 Z" id="Fill-17" fill="#FFFFFF"></path>
            <polygon id="Fill-18" fill="#FFFFFF" points="387.034188 12.3076923 413.693719 12.3076923 413.693719 16.1570259 391.196671 16.1570259 391.196671 28.6595994 411.321801 28.6595994 411.321801 32.5115199 391.196671 32.5115199 391.196671 45.3814356 413.957265 45.3814356 413.957265 49.2307692 387.034188 49.2307692"></polygon>
        </g>
    </g>
</svg>