<svg width="19" height="21" viewBox="0 0 19 21" fill="none" xmlns="http://www.w3.org/2000/svg">
<g clip-path="url(#clip0_2_88)">
<path fill-rule="evenodd" clip-rule="evenodd" d="M3.47143 3.57697L4.24303 1.23233C4.33092 0.930735 4.16186 0.613177 3.86516 0.523668C3.56846 0.434159 3.25721 0.606335 3.16932 0.9085L1.83416 5.17505L1.83304 5.17961V5.18189C1.83024 5.18987 1.828 5.19843 1.82632 5.20698C1.82552 5.21045 1.82464 5.21384 1.82377 5.21722C1.82222 5.22327 1.82068 5.22926 1.8196 5.23548L1.81848 5.24004C1.81736 5.24537 1.81674 5.25069 1.81612 5.25601C1.81581 5.25867 1.8155 5.26133 1.81512 5.26399C1.81477 5.26668 1.81436 5.26943 1.81395 5.2722C1.81306 5.27823 1.81215 5.28435 1.81176 5.29022V5.29421C1.81102 5.30219 1.81077 5.31017 1.81052 5.31815C1.81039 5.32214 1.81027 5.32613 1.81008 5.33012C1.81008 5.33326 1.80994 5.33639 1.8098 5.33953C1.80966 5.34267 1.80952 5.3458 1.80952 5.34894C1.80952 5.35722 1.81001 5.36525 1.8105 5.37336C1.81076 5.37753 1.81101 5.38173 1.8112 5.386C1.8112 5.3917 1.8112 5.3974 1.81232 5.4031V5.40652C1.81329 5.41537 1.81467 5.42423 1.81611 5.43344C1.81634 5.43491 1.81657 5.43639 1.8168 5.43788C1.81717 5.44016 1.81749 5.44244 1.8178 5.44472C1.81842 5.44928 1.81904 5.45384 1.82016 5.4584L1.82128 5.46353C1.82296 5.47151 1.8252 5.4795 1.82744 5.48748C1.82844 5.4913 1.82933 5.49512 1.83021 5.4989C1.83129 5.50356 1.83236 5.50815 1.8336 5.51256C1.83639 5.52168 1.83975 5.53081 1.84311 5.53993L1.84312 5.53994C1.84591 5.54849 1.84871 5.55704 1.85207 5.56558C1.85543 5.57413 1.85934 5.58211 1.86326 5.59008L1.86327 5.5901C1.8642 5.59215 1.86514 5.59422 1.86609 5.59632C1.86909 5.60298 1.87217 5.60982 1.87558 5.61632C1.87842 5.62211 1.88185 5.6276 1.88523 5.633C1.88651 5.63505 1.88779 5.63709 1.88902 5.63913C1.89042 5.64152 1.89179 5.64391 1.89315 5.64629C1.89664 5.65242 1.9001 5.65846 1.90413 5.66422C1.90743 5.66925 1.91092 5.6739 1.91438 5.67849C1.91679 5.6817 1.91919 5.68488 1.92149 5.68816C1.92334 5.69068 1.92512 5.69319 1.92687 5.69568C1.92989 5.69996 1.93286 5.70415 1.93604 5.70811C1.95955 5.73776 1.98642 5.76456 2.01553 5.78907L2.02057 5.79249C2.03345 5.80275 2.04632 5.81245 2.05976 5.82214C2.06466 5.82535 2.06957 5.82834 2.07434 5.83124C2.07719 5.83298 2.07999 5.83469 2.08271 5.83639C2.08528 5.83792 2.08785 5.83953 2.09045 5.84116C2.09465 5.84379 2.09893 5.84647 2.10342 5.84893L2.10622 5.85065C2.11114 5.85351 2.11628 5.85592 2.12136 5.85831C2.12438 5.85972 2.12737 5.86113 2.13029 5.86262L2.13031 5.86262C2.13814 5.86661 2.14597 5.8706 2.15437 5.87402L2.15604 5.87459C2.16104 5.87677 2.16626 5.87849 2.17142 5.88018C2.17435 5.88115 2.17727 5.88211 2.18012 5.88314C2.18135 5.88361 2.18256 5.88408 2.18378 5.88455C2.19139 5.88748 2.1987 5.8903 2.20643 5.89226C2.21183 5.8941 2.21747 5.89546 2.22304 5.89681C2.22613 5.89755 2.22919 5.89829 2.23218 5.89911C2.23492 5.8998 2.23766 5.90055 2.24041 5.90131C2.24667 5.90302 2.253 5.90476 2.25961 5.90595L2.28088 5.90937C2.28368 5.90994 2.28662 5.91037 2.28956 5.91079C2.2925 5.91122 2.29544 5.91165 2.29824 5.91222C2.30057 5.91248 2.3029 5.91287 2.30528 5.91326C2.30805 5.91372 2.3109 5.91419 2.31391 5.9145C2.33071 5.91621 2.3475 5.91678 2.36429 5.91735H2.36989H2.37325L6.32321 5.91906C6.63223 5.91906 6.88302 5.66364 6.88302 5.34894C6.88302 5.03423 6.63223 4.77882 6.32321 4.77882L4.1603 4.77731C5.58986 3.52865 7.45707 2.77273 9.5 2.77273C13.9972 2.77273 17.6429 6.43585 17.6429 10.9545C17.6429 15.4732 13.9972 19.1364 9.5 19.1364C5.00282 19.1364 1.35714 15.4732 1.35714 10.9545H0C0 16.2264 4.25329 20.5 9.5 20.5C14.7467 20.5 19 16.2264 19 10.9545C19 5.68274 14.7467 1.40909 9.5 1.40909C7.21123 1.40909 5.1115 2.22235 3.47143 3.57697Z" fill="white"/>
</g>
<defs>
<clipPath id="clip0_2_88">
<rect width="19" height="20" fill="white" transform="translate(0 0.5)"/>
</clipPath>
</defs>
</svg>
