<svg width="50" height="50" viewBox="0 0 50 50" fill="none" xmlns="http://www.w3.org/2000/svg">
<path d="M49.4169 10.9329C49.7389 10.9329 50 10.6719 50 10.3499V5.8309C50 2.61058 47.3894 0 44.1691 0H38.484C38.1619 0 37.9009 0.261059 37.9009 0.58309C37.9009 0.905122 38.1619 1.16618 38.484 1.16618L44.1691 1.16618C46.7454 1.16618 48.8338 3.25465 48.8338 5.8309V10.3499C48.8338 10.6719 49.0949 10.9329 49.4169 10.9329Z" fill="white"/>
<path d="M0.583091 39.0666C0.261059 39.0666 0 39.3277 0 39.6497V44.1687C0 47.389 2.61058 49.9996 5.8309 49.9996L11.516 49.9996C11.8381 49.9996 12.0991 49.7385 12.0991 49.4165C12.0991 49.0944 11.8381 48.8334 11.516 48.8334H5.8309C3.25465 48.8334 1.16618 46.7449 1.16618 44.1687L1.16618 39.6497C1.16618 39.3277 0.905122 39.0666 0.583091 39.0666Z" fill="white"/>
<path d="M0 10.3499C0 10.6719 0.261059 10.9329 0.583091 10.9329C0.905122 10.9329 1.16618 10.6719 1.16618 10.3499L1.16618 5.8309C1.16618 3.25465 3.25465 1.16618 5.8309 1.16618L11.516 1.16618C11.8381 1.16618 12.0991 0.905122 12.0991 0.58309C12.0991 0.261059 11.8381 0 11.516 0H5.8309C2.61058 0 0 2.61058 0 5.8309V10.3499Z" fill="white"/>
<path d="M49.4169 39.0666C49.7389 39.0666 50 39.3277 50 39.6497V44.1687C50 47.389 47.3894 49.9996 44.1691 49.9996L38.484 49.9996C38.1619 49.9996 37.9009 49.7385 37.9009 49.4165C37.9009 49.0944 38.1619 48.8334 38.484 48.8334H44.1691C46.7454 48.8334 48.8338 46.7449 48.8338 44.1687V39.6497C48.8338 39.3277 49.0949 39.0666 49.4169 39.0666Z" fill="white"/>
<path fill-rule="evenodd" clip-rule="evenodd" d="M25.0728 34.9711C30.539 34.9711 34.9702 30.5399 34.9702 25.0737C34.9702 19.6074 30.539 15.1762 25.0728 15.1762C19.6065 15.1762 15.1753 19.6074 15.1753 25.0737C15.1753 30.5399 19.6065 34.9711 25.0728 34.9711ZM25.0728 33.9293C29.9636 33.9293 33.9284 29.9645 33.9284 25.0737C33.9284 20.1828 29.9636 16.218 25.0728 16.218C20.1819 16.218 16.2171 20.1828 16.2171 25.0737C16.2171 29.9645 20.1819 33.9293 25.0728 33.9293Z" fill="white"/>
<path fill-rule="evenodd" clip-rule="evenodd" d="M13.3519 7.62266C10.1872 7.62266 7.62175 10.1881 7.62175 13.3528V36.7942C7.62175 39.9588 10.1872 42.5243 13.3519 42.5243H36.7933C39.9579 42.5243 42.5234 39.9588 42.5234 36.7942V13.3528C42.5234 10.1881 39.9579 7.62266 36.7933 7.62266H13.3519ZM36.7933 8.6645H13.3519C10.7626 8.6645 8.66359 10.7635 8.66359 13.3528V36.7942C8.66359 39.3834 10.7626 41.4824 13.3519 41.4824H36.7933C39.3825 41.4824 41.4815 39.3834 41.4815 36.7942V13.3528C41.4815 10.7635 39.3825 8.6645 36.7933 8.6645Z" fill="white"/>
</svg>
