<?xml version="1.0" encoding="UTF-8"?>
<svg id="Layer_1" data-name="Layer 1" xmlns="http://www.w3.org/2000/svg" version="1.1" viewBox="0 0 97.3 16.2">
  <defs>
    <style>
      .cls-1 {
        fill: #fff;
        stroke-width: 0px;
      }
    </style>
  </defs>
  <path class="cls-1" d="M41.2,12.6c-2.4,0-4.6,0-5.2,0-1.3-.1-2.1-.9-2.2-2.2,0-.8,0-1.5,0-2.1.1-1.2,1.1-2.3,2.2-2.4.4,0,1.5,0,3.4,0h5.6v-2.3s-4.5,0-5.8,0c-1.8,0-2.7,0-3.3,0-1.3,0-2.3.5-3.1,1.3-.8.8-1.2,2-1.3,3.3,0,.7,0,1.6,0,2.1.1,1.4.6,2.4,1.3,3.2.8.8,2,1.3,3.1,1.3.9,0,9.1,0,9.1,0v-2.3s-2.5,0-3.7,0"/>
  <polygon class="cls-1" points="15.9 3.7 15.9 6.1 21.4 6.1 21.4 14.8 23.7 14.8 23.7 6.1 29.2 6.1 29.2 3.7 15.9 3.7"/>
  <path class="cls-1" d="M13.4,8.1c0-1.2-.5-2.3-1.3-3.2-.9-.9-2.2-1.3-3.1-1.3-.8,0-3.8,0-4.5,0-1,0-1.7.3-2.1.6h0V0H0v14.9h2.3s0-6.1,0-6.8c0-1.2,1-2.1,2.1-2.2.9,0,3.7,0,4.5,0,1.2,0,2.1,1,2.1,2.2,0,.5,0,6.7,0,6.7h2.3v-6.8"/>
  <path class="cls-1" d="M51.9,10.2V3.6h1.3v6.5c0,2.4,1.3,3.8,3.5,3.8s3.4-1.3,3.4-3.7V3.6h1.3v6.5c0,3.3-1.9,5-4.7,5s-4.7-1.7-4.7-4.9h0Z"/>
  <path class="cls-1" d="M63.5,13.9l4.1-3.6c1.7-1.6,2.3-2.4,2.3-3.5s-1.1-2.2-2.3-2.2-2.1.7-3,1.9l-.9-.7c1-1.5,2.1-2.4,4.1-2.4s3.5,1.4,3.5,3.2h0c0,1.7-.9,2.7-2.8,4.4l-3,2.7h6v1.2h-7.9v-1h0Z"/>
  <path class="cls-1" d="M79.3,12.2h-5.9l-.3-.9,6.4-7.8h1.1v7.6h1.7v1.1h-1.7v2.7h-1.2v-2.7ZM79.3,11.2v-5.8l-4.7,5.8h4.7Z"/>
  <path class="cls-1" d="M85,10.7h.6v.9c0-.1.2-.2.3-.4s.2-.2.4-.3c.1,0,.3-.2.4-.2.2,0,.3,0,.5,0s.5,0,.8.1c.2.1.5.2.7.4.2.2.3.4.5.7.1.3.2.6.2.9h0c0,.4,0,.7-.2.9-.1.3-.3.5-.5.7s-.4.3-.7.4-.5.1-.8.1-.4,0-.5,0-.3-.1-.4-.2c-.1,0-.2-.2-.4-.3s-.2-.2-.3-.3v2.1h-.6v-5.6h0ZM87.1,14.4c.2,0,.4,0,.6-.1s.3-.2.5-.3c.1-.1.2-.3.3-.5s.1-.4.1-.7h0c0-.3,0-.5-.1-.7s-.2-.4-.3-.5-.3-.2-.5-.3c-.2,0-.4-.1-.6-.1s-.4,0-.6.1-.3.2-.5.3-.3.3-.3.5c0,.2-.1.4-.1.7h0c0,.3,0,.5.1.7,0,.2.2.4.3.5.1.1.3.2.5.3s.4.1.6.1Z"/>
  <path class="cls-1" d="M90.2,10.7h.6v1.1c0-.2.2-.3.3-.5.1-.1.2-.3.4-.4.2-.1.3-.2.5-.2.2,0,.4,0,.6,0v.7h0c-.2,0-.4,0-.7.1s-.4.2-.5.4c-.2.2-.3.4-.4.6,0,.2-.1.5-.1.8v1.7h-.6v-4.2h0Z"/>
  <path class="cls-1" d="M95.1,15c-.3,0-.6,0-.9-.2s-.5-.3-.7-.5-.3-.4-.5-.7-.2-.6-.2-.9h0c0-.3,0-.6.2-.9s.3-.5.5-.7c.2-.2.4-.4.7-.5s.6-.2.9-.2.6,0,.9.2.5.3.7.5.3.4.5.7.2.6.2.9h0c0,.3,0,.6-.2.9-.1.3-.3.5-.5.7-.2.2-.4.4-.7.5s-.6.2-.9.2h0ZM95.1,14.4c.2,0,.4,0,.6-.1s.4-.2.5-.4c.1-.1.2-.3.3-.5s.1-.4.1-.6h0c0-.2,0-.5-.1-.7s-.2-.4-.3-.5c-.1-.1-.3-.3-.5-.4s-.4-.1-.6-.1-.4,0-.6.1c-.2,0-.3.2-.5.4-.1.1-.2.3-.3.5s-.1.4-.1.6h0c0,.2,0,.5.1.7s.2.4.3.5c.1.1.3.3.5.4s.4.1.6.1h0Z"/>
</svg>