<svg version="1.1" id="Layer_1" xmlns="http://www.w3.org/2000/svg" x="0" y="0" viewBox="0 0 1405 125.3" xml:space="preserve"><path d="M777.5 0c34 0 58.2 26.6 58.2 62.6s-24.2 62.6-58.2 62.6c-34.8 0-58.2-26.6-58.2-62.6S742.8 0 777.5 0zm0 113.8c26.8 0 45.2-21.9 45.2-51.2s-18.3-51.2-45.2-51.2c-27 0-45.2 21.9-45.2 51.2s18.2 51.2 45.2 51.2zM879 89.5c.8 0 1.4.6 1.4 1.4.8 14.7 13.3 24 33 24 21 0 33-9.4 33-24.9 0-36.2-76.8-9.2-76.8-55.9C869.7 14.3 887 0 913.1 0c24.6 0 42.4 11.6 43.2 32 0 .8-.6 1.5-1.4 1.5h-9.6c-.8 0-1.4-.6-1.4-1.4-.9-14.1-13.7-21.7-30.8-21.7-17.5 0-30.7 8.3-30.7 22.6 0 35.3 77.1 7.9 77.1 56.5 0 21.4-17 35.8-46.1 35.8-27.8 0-44.8-13-45.5-34.3 0-.8.6-1.5 1.4-1.5h9.7zm123.6-87.6h12.8c.6 0 1.1.3 1.3.9l46.7 103.6h.4L1110 2.8c.2-.5.8-.9 1.3-.9h12.8c.8 0 1.5.7 1.5 1.5v118.5c0 .8-.6 1.5-1.4 1.5h-9.6c-.8 0-1.4-.6-1.4-1.4l1-100.2h-.5l-45 100.8c-.2.5-.8.9-1.3.9h-7.8c-.6 0-1.1-.3-1.3-.9l-45-99.2h-.5l1 98.6c0 .8-.6 1.5-1.4 1.5h-9.6c-.8 0-1.5-.6-1.5-1.4V3.4c0-.8.6-1.5 1.5-1.5h-.2zM1223.1 0c34 0 58.2 26.6 58.2 62.6s-24.2 62.6-58.2 62.6c-34.8 0-58.2-26.6-58.2-62.6S1188.3 0 1223.1 0zm0 113.8c26.8 0 45.2-21.9 45.2-51.2s-18.3-51.2-45.2-51.2c-27 0-45.2 21.9-45.2 51.2s18.2 51.2 45.2 51.2zm101.5-24.3c.8 0 1.4.6 1.4 1.4.8 14.7 13.3 24 33 24 21 0 33-9.4 33-24.9 0-36.2-76.8-9.2-76.8-55.9 0-19.8 17.3-34.1 43.4-34.1 24.6 0 42.4 11.6 43.2 32 0 .8-.6 1.5-1.4 1.5h-9.6c-.8 0-1.4-.6-1.4-1.4-.8-14.1-13.6-21.7-30.7-21.7-17.5 0-30.7 8.3-30.7 22.6 0 35.3 77.1 7.9 77.1 56.5 0 21.4-16.9 35.8-46 35.8-27.8 0-44.8-13-45.5-34.3 0-.8.6-1.5 1.4-1.5h9.6zm-638.4-3.6h-9.9c-.6 0-1.2.4-1.4 1-4.4 14.1-13.5 23.3-28.3 26-.3.1-.5.2-.7.4l-3 4.4c-.6.9-.4 2.1.5 2.8l4.4 3.1c.4.3.9.4 1.3.4 20.2-4 33.6-17.7 38.6-36.4.2-.8-.3-1.6-1.1-1.7-.2.1-.3 0-.4 0zM627.6 12l3-4.4c.6-.9.4-2.1-.5-2.8l-4.4-3.1c-.4-.3-.8-.4-1.2-.4C597 7 579.4 31.7 579.4 62.7c0 31.4 17.6 55.7 44.8 61.4h.3c.5.1.9-.1 1.3-.3l4.4-3.1c.9-.6 1.1-1.9.5-2.8l-3-4.4c-.3-.4-.7-.7-1.2-.8-20.7-5-33.9-25.1-33.9-50 0-25.4 13.2-45.2 34.3-50 .2-.2.5-.4.7-.7zm18.3-.2c.3.3.6.6 1.1.6 14.4 2.8 23.7 11.9 27.9 25.9.2.6.8 1 1.4 1h9.9c.8 0 1.5-.7 1.5-1.5v-.3C682.8 18.7 669.5 5 649.3 1.1h-.4c-.4 0-.9.1-1.2.3l-4.4 3.1c-.9.6-1.1 1.9-.5 2.8l3.1 4.5z" fill="#fff"/></svg>