<svg version="1.1" id="Logo" xmlns="http://www.w3.org/2000/svg" x="0" y="0" viewBox="0 0 1389 266" xml:space="preserve"><style>.st0{fill:#fff}.st1{fill:#00b3e3}</style><path class="st0" d="M632.33 77.12a5.363 5.363 0 00-4.64-2.68h-4.45c-1.18 0-2.26.65-2.77 1.71l-38.8 77.22c-.81 1.62-3.13 1.62-3.94 0l-38.82-77.22a3.044 3.044 0 00-2.75-1.71h-4.48c-1.91 0-3.68 1.02-4.64 2.68l-4.93 8.53c-.83 1.48-.9 3.28-.11 4.81l46.17 90.87a4.405 4.405 0 003.91 2.38h15.23c1.66 0 3.17-.93 3.91-2.38l46.2-90.87c.77-1.51.72-3.31-.13-4.78l-4.96-8.56zm-228.77-.02a5.32 5.32 0 00-4.62-2.66h-4.47c-1.18 0-2.26.65-2.77 1.71l-38.79 77.22c-.81 1.62-3.13 1.62-3.94 0l-38.82-77.22a3.044 3.044 0 00-2.75-1.71h-4.49c-1.9 0-3.66 1.01-4.62 2.66l-4.94 8.54c-.83 1.48-.9 3.28-.12 4.81l46.17 90.87a4.405 4.405 0 003.91 2.38h15.23c1.66 0 3.17-.93 3.91-2.38l46.19-90.87a4.98 4.98 0 00-.13-4.78l-4.95-8.57zm68.1-2.67h-6.91a5.33 5.33 0 00-4.62 2.67l-4.92 8.55c-.44.77-.67 1.63-.67 2.51v91.1c0 2.45 1.98 4.43 4.43 4.43h12.75c2.42 0 4.39-1.97 4.39-4.39V78.87c0-1.23-.5-2.34-1.3-3.14a4.47 4.47 0 00-3.15-1.3zm234.92 19.39h60.3c1.66 0 3.01-1.36 3.01-3v-2c0-1.32-.35-2.63-1.01-3.78l-4.66-8.01a5.228 5.228 0 00-4.53-2.61h-66.15a5.33 5.33 0 00-4.62 2.67l-4.6 7.94a7.587 7.587 0 00-1.01 3.78l-.01 80.49c0 1.33.35 2.64 1.02 3.8l4.6 7.94a5.342 5.342 0 004.62 2.67h66.15c1.87 0 3.6-.99 4.53-2.61l4.66-8.03a7.597 7.597 0 001.01-3.79v-2.01c0-1.64-1.34-2.98-3.01-2.98h-60.31a2.2 2.2 0 01-2.2-2.2v-21.48c0-1.22.99-2.2 2.2-2.2h40.84c2 0 3.63-1.63 3.63-3.63v-12.02c0-1.99-1.61-3.6-3.6-3.63h-40.87a2.2 2.2 0 01-2.2-2.2v-20.9c0-1.21 1-2.21 2.21-2.21zm193.25-10.7c-8.25-8.18-18.95-8.46-21.03-8.49l-51.56-.02a5.33 5.33 0 00-4.62 2.67l-4.92 8.55c-.44.77-.67 1.63-.67 2.51v91.1c0 2.45 1.98 4.43 4.43 4.43h12.75c2.42 0 4.39-1.97 4.39-4.39v-40.52h40.29c14.73 0 29.6-10.13 29.6-32.75-.01-12-4.72-19.18-8.66-23.09zm-20.95 36.43h-40.29V94.04h40.31c6.93 0 10.17 4.67 10.17 12.17-.01 8.85-3.24 13.34-10.19 13.34zm124.08 64.23c-30.13 0-54.64-24.51-54.64-54.64s24.51-54.64 54.64-54.64 54.64 24.51 54.64 54.64-24.51 54.64-54.64 54.64zm0-89.86c-19.43 0-35.23 15.8-35.23 35.23 0 19.43 15.8 35.23 35.23 35.23 19.43 0 35.23-15.8 35.23-35.23 0-19.43-15.8-35.23-35.23-35.23zm321.27-8.78l-4.66-8.01a5.228 5.228 0 00-4.53-2.61h-71.03c-1.87 0-3.6.99-4.53 2.61l-4.66 8.01a7.587 7.587 0 00-1.01 3.78v2c0 1.64 1.34 3 3.01 3h31.9v85.54c0 2.45 1.98 4.43 4.43 4.43h12.75c2.42 0 4.39-1.97 4.39-4.39V93.91h31.94c1.66 0 3.01-1.36 3.01-3v-2c0-1.32-.35-2.62-1.01-3.77zm7.77-10.66v.62h1.61v3.89h.73V75.1h1.57v-.62H1332zm8.66 0l-1.53 3.54h-.04l-1.52-3.54h-1.01v4.51h.73l-.04-3.5h.04l1.51 3.5h.62l1.52-3.5h.04l-.04 3.5h.73v-4.51h-1.01z"/><path class="st1" d="M247.09 153.01c-8.25-39.46-28.32-74.82-58.04-102.26-18.42-17-46.2-17-64.61.01-29.73 27.44-49.79 62.81-58.02 102.26-5 23.89 4.23 65.98 92.32 65.98s93.33-42.12 88.35-65.99zm-32.3 44.61c-13.79 5.45-31.21 9.47-54.85 9.73-24.02.26-39.14-1.65-56.93-7.28-20.82-6.59-33.6-22.84-28.52-46.35 7.92-36.63 45.27-102.8 82.37-102.8s75.94 64.9 84.1 103.93c4.48 21.45-7.69 35.46-26.17 42.77z"/><path class="st1" d="M110.79 169.27c-18.88-28.06-5.43-64.55-3.13-75.82-16.32 26.19-33.68 68.21-22.45 84.47 19.32 27.97 97.78 22.45 97.78 22.45s-53.33-3.04-72.2-31.1zm82.16-76.29c-6.24-10.64-18.73-14.9-27.89-9.52-9.16 5.38-11.52 18.36-5.27 28.99 6.24 10.64 18.73 14.9 27.89 9.52 9.15-5.38 11.51-18.36 5.27-28.99zm-10.58 24.65c-6.4 3.76-15.08.86-19.39-6.47-4.31-7.33-2.61-16.33 3.79-20.09 6.4-3.76 15.08-.86 19.39 6.47 4.31 7.34 2.61 16.33-3.79 20.09z"/><path class="st0" d="M1170.08 138.13c11.86-2.95 22.05-13.11 22.05-31.84 0-12-4.7-19.18-8.65-23.09-8.25-8.18-18.94-8.51-21.03-8.49l-51.56-.02a5.33 5.33 0 00-4.62 2.67l-4.92 8.55c-.44.77-.67 1.63-.67 2.51v91.1c0 2.45 1.98 4.43 4.43 4.43h12.75c2.42 0 4.39-1.97 4.39-4.39v-40.52h24.28c4.93 9.77 21.31 42.24 21.59 42.78.95 1.83 1.91 2.07 3.77 2.04 0 0 15.39.03 17.76.03 1.83 0 2.86-1.67 2.14-3.02-.39-.72-17.66-34.76-21.71-42.74zm-47.84-44.01h40.31c6.93 0 10.17 4.67 10.17 12.17 0 8.85-3.24 13.34-10.19 13.34h-40.29V94.12z"/></svg>