<svg width="254" height="37" xmlns="http://www.w3.org/2000/svg"><g id="Symbols" stroke="none" stroke-width="1" fill="none" fill-rule="evenodd"><g id="W1366/3_Bussiness-Model/Logo/VIVE-Port" transform="translate(-78)" fill-rule="nonzero"><g id="PORT-Copy" transform="translate(78)"><path d="M112.39 7.936a1.06 1.06 0 00-.92-.53h-.882a.595.595 0 00-.549.338l-7.69 15.272a.436.436 0 01-.782 0L93.872 7.744a.595.595 0 00-.543-.338h-.888c-.38 0-.73.202-.92.53l-.979 1.687a.987.987 0 00-.022.95l9.152 17.974a.88.88 0 00.775.47h3.023a.868.868 0 00.775-.47l9.158-17.974a.987.987 0 00-.026-.946l-.987-1.691zm-45.347-.004a1.055 1.055 0 00-.915-.526h-.886a.595.595 0 00-.55.338l-7.688 15.272a.436.436 0 01-.781 0L48.528 7.744a.595.595 0 00-.545-.338h-.892a1.055 1.055 0 00-.906.526l-.991 1.691a1.001 1.001 0 00-.024.95l9.152 17.974c.153.29.454.471.783.47h3.019a.873.873 0 00.775-.47l9.155-17.974a.987.987 0 00-.025-.946l-.986-1.695zm13.499-.528h-1.37c-.378 0-.728.202-.915.53l-.978 1.691a.987.987 0 00-.132.497v18.02c0 .483.393.876.878.876h2.527a.87.87 0 00.87-.869V8.282a.88.88 0 00-.88-.878zm46.566 3.836h11.952a.594.594 0 00.595-.594v-.396a1.485 1.485 0 00-.198-.748l-.922-1.582a1.041 1.041 0 00-.9-.518h-13.112c-.378 0-.728.201-.918.528l-.908 1.565c-.13.227-.198.485-.198.747v15.921c-.001.264.067.523.198.752l.912 1.57c.19.327.54.528.918.529h13.11c.37-.001.713-.197.9-.517l.922-1.582c.131-.228.2-.487.198-.75v-.395a.594.594 0 00-.595-.594h-11.956a.436.436 0 01-.436-.435v-4.243a.438.438 0 01.436-.435h8.095a.72.72 0 00.72-.718v-2.374a.72.72 0 00-.714-.718h-8.101a.438.438 0 01-.444-.429V11.67a.44.44 0 01.446-.43z" id="Path" fill="#FFF"/><path d="M165.413 9.123c-1.637-1.618-3.766-1.674-4.162-1.68h-10.22a1.06 1.06 0 00-.918.528l-.975 1.692a1.001 1.001 0 00-.133.496v18.02c0 .484.393.876.878.876h2.527a.87.87 0 00.87-.868v-8.011h7.987c2.92 0 5.867-2.004 5.867-6.478-.006-2.382-.94-3.808-1.72-4.575zm-4.162 7.206h-7.977v-5.054h7.99c1.374 0 2.015.923 2.015 2.407 0 1.758-.64 2.647-2.018 2.647h-.01zm24.605 12.704c-5.982 0-10.831-4.838-10.831-10.808 0-5.969 4.849-10.807 10.83-10.807 5.982 0 10.831 4.838 10.831 10.807-.006 5.967-4.852 10.802-10.83 10.808zm0-17.774a6.983 6.983 0 00-6.452 4.302 6.958 6.958 0 001.514 7.595 6.994 6.994 0 007.611 1.509 6.968 6.968 0 004.31-6.44c-.006-3.846-3.13-6.962-6.983-6.966z" id="Shape" fill="#FFF"/><path d="M249.537 9.522l-.921-1.582a1.045 1.045 0 00-.9-.516h-14.074c-.37 0-.712.196-.898.516l-.924 1.582a1.51 1.51 0 00-.198.748v.395c0 .328.266.594.595.594h6.323v16.92c0 .484.393.876.878.876h2.527a.87.87 0 00.87-.868v-16.93h6.344a.594.594 0 00.594-.593v-.396a1.499 1.499 0 00-.216-.746z" id="Path" fill="#FFF"/><path d="M251.077 7.418v.259h.32v1.627h.146V7.677h.311v-.259h-.777zm1.717 0l-.303 1.47-.302-1.478h-.198v1.894h.147v-1.46l.297 1.46h.123l.301-1.46v1.46h.145V7.418h-.21z" id="Shape" fill="#FFF"/><path d="M36.028 22.945A37.929 37.929 0 0024.532 2.72a9.39 9.39 0 00-12.81 0A37.913 37.913 0 00.217 22.945C-.775 27.671 1.055 36 18.516 36c17.46 0 18.5-8.331 17.512-13.055zm-6.402 8.824c-2.734 1.076-6.189 1.873-10.873 1.923-4.757.051-7.758-.327-11.284-1.44-4.127-1.304-6.66-4.518-5.653-9.168 1.572-7.246 8.973-20.335 16.327-20.335 7.354 0 15.055 12.838 16.67 20.558.888 4.247-1.524 7.018-5.187 8.464v-.002z" id="Shape" fill="#00B3E3"/><path d="M9.011 26.163c-3.742-5.55-1.082-12.768-.62-14.997-3.237 5.18-6.676 13.492-4.45 16.708 3.83 5.539 19.381 4.44 19.381 4.44s-10.57-.6-14.311-6.15z" id="Path" fill="#00B3E3"/><path d="M25.297 11.077c-1.24-2.105-3.713-2.947-5.529-1.885-1.815 1.062-2.283 3.632-1.044 5.736 1.239 2.105 3.712 2.947 5.526 1.883 1.814-1.064 2.284-3.635 1.047-5.734zm-2.105 4.872c-1.269.744-2.99.17-3.844-1.28-.854-1.45-.515-3.23.753-3.974 1.269-.744 2.99-.17 3.844 1.282.854 1.452.525 3.228-.753 3.972z" id="Shape" fill="#00B3E3"/><path d="M218.982 20.004c2.353-.584 4.36-2.593 4.36-6.298 0-2.374-.931-3.794-1.714-4.568-1.635-1.618-3.754-1.683-4.163-1.679h-10.222a1.06 1.06 0 00-.915.528l-.974 1.688a.987.987 0 00-.132.496v18.02a.873.873 0 00.876.876h2.527a.87.87 0 00.87-.868v-8.023h4.813c.977 1.932 4.224 8.355 4.28 8.462.198.362.378.41.747.395h3.52a.423.423 0 00.424-.593c-.071-.125-3.494-6.858-4.297-8.436zm-9.483-8.704h7.992c1.374 0 2.014.924 2.014 2.408 0 1.75-.64 2.638-2.02 2.638H209.5V11.3z" id="Shape" fill="#FFF"/></g></g></g></svg>