<svg width="261" height="38" xmlns="http://www.w3.org/2000/svg"><g id="Symbols" stroke="none" stroke-width="1" fill="none" fill-rule="evenodd"><g id="W1920/3_Bussiness-Model/Logo/VIVE-Port" transform="translate(-99)" fill-rule="nonzero"><g id="PORT-Copy" transform="translate(99)"><path d="M115.512 8.156a1.089 1.089 0 00-.945-.545h-.907a.612.612 0 00-.564.348l-7.905 15.697a.448.448 0 01-.803 0L96.48 7.959a.612.612 0 00-.558-.348h-.913c-.39 0-.75.208-.945.545L93.057 9.89c-.173.3-.182.668-.022.976l9.406 18.474a.905.905 0 00.796.484h3.107a.893.893 0 00.797-.484l9.412-18.474a1.015 1.015 0 00-.027-.972l-1.014-1.738zm-46.606-.004a1.085 1.085 0 00-.941-.54h-.911a.612.612 0 00-.564.347l-7.903 15.697a.448.448 0 01-.803 0L49.876 7.959a.612.612 0 00-.56-.348h-.917a1.085 1.085 0 00-.931.541L46.449 9.89c-.172.3-.18.667-.024.976L55.83 29.34a.907.907 0 00.804.484h3.103a.897.897 0 00.797-.484l9.41-18.474a1.015 1.015 0 00-.027-.972l-1.012-1.742zM82.78 7.61h-1.408c-.39 0-.749.207-.942.544l-1.004 1.738a1.01 1.01 0 00-.136.51v18.521c0 .497.404.9.902.9h2.598a.893.893 0 00.894-.892V8.512a.904.904 0 00-.905-.903zm47.858 3.941h12.285a.61.61 0 00.611-.61v-.406a1.526 1.526 0 00-.204-.769l-.947-1.626a1.07 1.07 0 00-.925-.533h-13.476c-.389 0-.748.208-.943.543l-.934 1.608a1.547 1.547 0 00-.203.769V26.89c-.002.271.069.537.203.773l.938 1.614c.195.335.554.542.943.543h13.474c.381-.001.733-.203.925-.531l.947-1.626c.136-.235.206-.5.204-.77v-.408a.61.61 0 00-.611-.61h-12.289a.448.448 0 01-.448-.447v-4.36a.45.45 0 01.448-.448h8.32a.74.74 0 00.74-.738v-2.44a.74.74 0 00-.733-.737h-8.327a.45.45 0 01-.456-.441v-4.27a.452.452 0 01.458-.443z" id="Path" fill="#FFF"/><path d="M170.008 9.376c-1.683-1.663-3.87-1.72-4.278-1.726h-10.504a1.09 1.09 0 00-.943.543L153.28 9.93a1.025 1.025 0 00-.136.51v18.52c0 .498.404.901.902.901h2.598c.494 0 .894-.4.894-.892v-8.234h8.208c3.001 0 6.03-2.06 6.03-6.658-.006-2.447-.965-3.913-1.768-4.702zm-4.278 7.406h-8.198v-5.194h8.212c1.412 0 2.07.95 2.07 2.474 0 1.807-.658 2.72-2.074 2.72h-.01zm25.288 13.058c-6.148 0-11.131-4.973-11.131-11.108 0-6.135 4.983-11.108 11.131-11.108 6.148 0 11.132 4.973 11.132 11.108-.007 6.132-4.987 11.101-11.132 11.108zm0-18.268a7.177 7.177 0 00-6.63 4.421 7.151 7.151 0 001.556 7.806 7.188 7.188 0 007.822 1.551 7.162 7.162 0 004.43-6.618c-.006-3.953-3.217-7.156-7.178-7.16z" id="Shape" fill="#FFF"/><path d="M256.469 9.787l-.947-1.627a1.074 1.074 0 00-.925-.53h-14.465c-.38 0-.732.202-.923.53l-.95 1.627a1.54 1.54 0 00-.203.768v.407c0 .337.274.61.611.61h6.5v17.39a.9.9 0 00.902.9h2.597c.494 0 .895-.4.895-.892v-17.4h6.519a.61.61 0 00.61-.61v-.407a1.54 1.54 0 00-.221-.766z" id="Path" fill="#FFF"/><path d="M258.052 7.624v.266h.328v1.673h.15V7.89h.32v-.266h-.798zm1.764 0l-.312 1.51-.31-1.519h-.203v1.948h.15V8.062l.306 1.5h.127l.31-1.5v1.5h.148V7.625h-.216z" id="Shape" fill="#FFF"/><path d="M37.029 23.582A38.982 38.982 0 0025.213 2.795a9.651 9.651 0 00-13.165 0A38.966 38.966 0 00.222 23.582C-.797 28.44 1.084 37 19.03 37s19.014-8.563 17.999-13.418zm-6.58 9.07c-2.81 1.105-6.36 1.925-11.175 1.976-4.889.052-7.973-.336-11.598-1.48-4.241-1.34-6.845-4.644-5.81-9.423 1.616-7.447 9.223-20.9 16.78-20.9 7.56 0 15.474 13.195 17.134 21.13.913 4.364-1.566 7.212-5.331 8.699v-.003z" id="Shape" fill="#00B3E3"/><path d="M9.261 26.89c-3.846-5.704-1.112-13.123-.637-15.414C5.297 16.8 1.762 25.343 4.05 28.65c3.936 5.692 19.92 4.564 19.92 4.564s-10.864-.618-14.709-6.323z" id="Path" fill="#00B3E3"/><path d="M26 11.385c-1.274-2.163-3.816-3.03-5.683-1.938-1.866 1.092-2.346 3.733-1.073 5.896 1.273 2.163 3.816 3.029 5.68 1.935 1.864-1.094 2.347-3.736 1.075-5.893zm-2.164 5.007c-1.304.764-3.072.175-3.95-1.316-.878-1.49-.53-3.32.774-4.084 1.304-.764 3.072-.175 3.95 1.318.878 1.492.54 3.317-.774 4.082z" id="Shape" fill="#00B3E3"/><path d="M225.065 20.56c2.418-.6 4.482-2.666 4.482-6.474 0-2.44-.958-3.899-1.763-4.694-1.68-1.663-3.858-1.73-4.278-1.726H213c-.388 0-.747.208-.941.543l-1 1.734c-.09.155-.137.331-.137.51v18.52a.898.898 0 00.9.901h2.598a.893.893 0 00.894-.892v-8.246h4.947c1.004 1.986 4.341 8.588 4.398 8.697.204.372.39.421.768.407h3.618a.434.434 0 00.436-.61c-.073-.128-3.591-7.048-4.416-8.67zm-9.746-8.946h8.214c1.411 0 2.07.95 2.07 2.474 0 1.8-.659 2.712-2.076 2.712h-8.208v-5.186z" id="Shape" fill="#FFF"/></g></g></g></svg>