<svg width="225" height="32" xmlns="http://www.w3.org/2000/svg"><g id="Symbols" stroke="none" stroke-width="1" fill="none" fill-rule="evenodd"><g id="W360/3_Bussiness-Model/Logo/VIVE-Port" transform="translate(-50)" fill-rule="nonzero"><g id="PORT-Copy" transform="translate(50)"><path d="M99.902 7.054a.942.942 0 00-.817-.471H98.3a.529.529 0 00-.489.3L90.976 20.46a.388.388 0 01-.694 0l-6.84-13.575a.529.529 0 00-.483-.301h-.79a.946.946 0 00-.817.471l-.87 1.5a.878.878 0 00-.02.844l8.135 15.977c.135.256.4.417.69.418h2.686c.29.001.557-.16.69-.418l8.14-15.977a.878.878 0 00-.023-.84l-.878-1.504zM59.594 7.05a.938.938 0 00-.814-.467h-.787a.529.529 0 00-.488.3L50.67 20.46a.388.388 0 01-.694 0l-6.84-13.575a.529.529 0 00-.485-.301h-.793a.938.938 0 00-.805.468l-.88 1.503a.89.89 0 00-.022.844l8.135 15.977c.136.258.404.42.696.418h2.683c.29 0 .556-.161.69-.418l8.138-15.977a.878.878 0 00-.023-.84l-.876-1.507zm11.999-.469h-1.218a.938.938 0 00-.814.471l-.868 1.504a.878.878 0 00-.118.44v16.019c0 .43.35.778.78.778h2.247a.773.773 0 00.773-.771V7.362a.78.78 0 00-.782-.78zm41.392 3.409h10.624a.528.528 0 00.529-.527V9.11a1.32 1.32 0 00-.177-.664l-.819-1.407a.925.925 0 00-.8-.46h-11.655a.945.945 0 00-.816.469l-.807 1.39a1.338 1.338 0 00-.176.665v14.152c-.001.235.06.465.176.668l.81 1.396c.17.29.48.47.816.47h11.654c.33 0 .634-.175.8-.459l.82-1.407c.116-.202.177-.432.175-.666v-.352a.528.528 0 00-.528-.527h-10.628a.387.387 0 01-.388-.387V18.22a.389.389 0 01.388-.387h7.196a.64.64 0 00.64-.638v-2.11a.64.64 0 00-.635-.639h-7.201a.389.389 0 01-.395-.381v-3.692a.39.39 0 01.397-.384z" id="Path" fill="#FFF"/><path d="M147.034 8.109c-1.455-1.438-3.348-1.487-3.7-1.493h-9.085a.943.943 0 00-.815.47l-.867 1.503a.89.89 0 00-.118.441v16.018c0 .43.35.779.78.779h2.247a.773.773 0 00.773-.772v-7.12h7.1c2.594 0 5.214-1.782 5.214-5.76-.005-2.116-.835-3.384-1.529-4.066zm-3.7 6.405h-7.09v-4.492h7.102c1.221 0 1.79.821 1.79 2.14 0 1.563-.569 2.352-1.793 2.352h-.009zm21.871 11.293c-5.317 0-9.627-4.3-9.627-9.607 0-5.305 4.31-9.607 9.627-9.607 5.317 0 9.627 4.302 9.627 9.607-.006 5.304-4.312 9.602-9.627 9.607zm0-15.8a6.207 6.207 0 00-5.735 3.825 6.185 6.185 0 001.346 6.75 6.217 6.217 0 006.766 1.342 6.194 6.194 0 003.83-5.724c-.005-3.418-2.781-6.188-6.207-6.192z" id="Shape" fill="#FFF"/><path d="M221.81 8.464l-.818-1.406a.929.929 0 00-.8-.46h-12.51a.923.923 0 00-.798.46l-.821 1.406a1.332 1.332 0 00-.177.665v.351c0 .292.237.528.529.528h5.62v15.04c0 .43.35.779.781.779h2.247a.773.773 0 00.773-.772V10.006h5.638a.528.528 0 00.529-.527v-.352a1.332 1.332 0 00-.192-.663z" id="Path" fill="#FFF"/><path d="M223.18 6.594v.23h.284V8.27h.13V6.824h.277v-.23h-.691zm1.526 0l-.27 1.306-.268-1.314h-.176v1.685h.13V6.972l.265 1.299h.11l.267-1.299v1.299h.129V6.594h-.187z" id="Shape" fill="#FFF"/><path d="M32.025 20.396a33.715 33.715 0 00-10.22-17.978 8.347 8.347 0 00-11.385 0A33.7 33.7 0 00.192 20.396C-.688 24.596.937 32 16.458 32c15.521 0 16.445-7.406 15.567-11.604zm-5.691 7.843c-2.43.957-5.5 1.665-9.664 1.71-4.229.045-6.897-.291-10.031-1.28-3.668-1.16-5.92-4.017-5.025-8.15C3.01 14.079 9.59 2.444 16.127 2.444s13.382 11.41 14.818 18.273c.79 3.775-1.355 6.239-4.611 7.524v-.002z" id="Shape" fill="#00B3E3"/><path d="M8.01 23.256c-3.327-4.933-.962-11.35-.552-13.33-2.877 4.604-5.934 11.992-3.955 14.851C6.907 29.7 20.73 28.724 20.73 28.724s-9.396-.534-12.721-5.468z" id="Path" fill="#00B3E3"/><path d="M22.486 9.846c-1.101-1.87-3.3-2.62-4.914-1.675-1.614.944-2.03 3.228-.929 5.098 1.102 1.871 3.3 2.62 4.913 1.674 1.612-.946 2.03-3.231.93-5.097zm-1.871 4.33c-1.128.662-2.657.152-3.417-1.137-.76-1.289-.458-2.871.67-3.532 1.127-.661 2.657-.151 3.416 1.14.76 1.29.467 2.869-.67 3.53z" id="Shape" fill="#00B3E3"/><path d="M194.65 17.781c2.092-.519 3.877-2.305 3.877-5.598 0-2.11-.828-3.372-1.524-4.06-1.454-1.438-3.337-1.496-3.7-1.493h-9.087a.942.942 0 00-.814.47l-.865 1.5a.878.878 0 00-.118.44v16.018a.776.776 0 00.779.78h2.246a.773.773 0 00.774-.773v-7.13h4.278c.869 1.717 3.755 7.426 3.804 7.52.176.323.336.365.664.352h3.13a.376.376 0 00.376-.527c-.063-.11-3.106-6.096-3.82-7.499zm-8.429-7.736h7.105c1.22 0 1.79.82 1.79 2.14 0 1.556-.57 2.345-1.796 2.345h-7.099v-4.485z" id="Shape" fill="#FFF"/></g></g></g></svg>