<svg width="233" height="33" xmlns="http://www.w3.org/2000/svg"><g id="Symbols" stroke="none" stroke-width="1" fill="none" fill-rule="evenodd"><g id="W992/3_Bussiness-Model/Logo/VIVE-Port" transform="translate(-82)" fill-rule="nonzero"><g id="PORT-Copy" transform="translate(82)"><path d="M103.024 7.275a.971.971 0 00-.843-.487h-.809a.546.546 0 00-.503.31l-7.05 14a.4.4 0 01-.716 0l-7.053-14a.546.546 0 00-.498-.31h-.814a.973.973 0 00-.843.487l-.898 1.546a.905.905 0 00-.02.87l8.39 16.477c.138.264.411.43.71.431h2.77c.3.001.574-.165.711-.431l8.395-16.477a.905.905 0 00-.024-.866l-.905-1.55zM61.456 7.27a.967.967 0 00-.839-.482h-.812a.546.546 0 00-.503.31l-7.049 14a.4.4 0 01-.716 0l-7.053-14a.546.546 0 00-.5-.31h-.817a.967.967 0 00-.83.483l-.91 1.55a.918.918 0 00-.021.87l8.389 16.477c.14.266.417.432.718.431h2.767a.8.8 0 00.71-.431L62.383 9.69a.905.905 0 00-.023-.866l-.904-1.554zm12.374-.483h-1.255a.967.967 0 00-.84.486l-.896 1.55a.905.905 0 00-.121.455v16.518c0 .444.36.803.805.803h2.316c.44 0 .798-.356.798-.796V7.592a.806.806 0 00-.807-.805zm42.685 3.516h10.957a.545.545 0 00.545-.544v-.363a1.361 1.361 0 00-.182-.685l-.845-1.451a.954.954 0 00-.825-.475h-12.02a.974.974 0 00-.84.484l-.833 1.434a1.38 1.38 0 00-.181.686v14.594c-.001.242.061.48.181.689l.836 1.44a.977.977 0 00.842.484h12.017c.34 0 .654-.18.825-.473l.845-1.451c.12-.209.183-.446.182-.687v-.363c0-.3-.244-.544-.545-.544h-10.96a.4.4 0 01-.4-.399V18.79a.401.401 0 01.4-.399h7.42a.66.66 0 00.66-.658v-2.176a.66.66 0 00-.654-.658h-7.427a.401.401 0 01-.407-.394v-3.807a.403.403 0 01.41-.395z" id="Path" fill="#FFF"/><path d="M151.629 8.362c-1.501-1.483-3.452-1.534-3.816-1.539h-9.368a.972.972 0 00-.842.484l-.894 1.55a.918.918 0 00-.121.456V25.83c0 .443.36.803.805.803h2.316c.44 0 .798-.356.798-.796v-7.343h7.32c2.677 0 5.379-1.837 5.379-5.939-.005-2.183-.861-3.49-1.577-4.194zm-3.816 6.606h-7.311v-4.633h7.324c1.26 0 1.846.847 1.846 2.207 0 1.612-.587 2.426-1.85 2.426h-.009zm22.555 11.646c-5.484 0-9.928-4.436-9.928-9.907 0-5.472 4.444-9.908 9.928-9.908 5.483 0 9.928 4.436 9.928 9.908-.006 5.469-4.448 9.901-9.928 9.907zm0-16.293a6.401 6.401 0 00-5.915 3.943 6.378 6.378 0 001.389 6.962 6.411 6.411 0 006.977 1.384 6.388 6.388 0 003.95-5.903c-.005-3.526-2.868-6.382-6.401-6.386z" id="Shape" fill="#FFF"/><path d="M228.742 8.729l-.844-1.45a.958.958 0 00-.825-.474h-12.901a.95.95 0 00-.823.473l-.847 1.45a1.38 1.38 0 00-.182.686v.363c0 .3.244.544.546.544h5.796v15.51c0 .443.36.803.805.803h2.316c.44 0 .798-.356.798-.796v-15.52h5.814a.545.545 0 00.546-.543v-.363a1.374 1.374 0 00-.199-.683z" id="Path" fill="#FFF"/><path d="M230.154 6.8v.237h.293v1.492h.134V7.037h.286V6.8h-.713zm1.574 0l-.278 1.346-.276-1.354h-.182V8.53h.134V7.19l.273 1.339h.113l.276-1.339v1.34h.132V6.8h-.192z" id="Shape" fill="#FFF"/><path d="M33.026 21.033a34.768 34.768 0 00-10.539-18.54 8.608 8.608 0 00-11.741 0A34.754 34.754 0 00.198 21.033C-.71 25.365.967 33 16.973 33s16.958-7.637 16.053-11.967zm-5.87 8.089c-2.505.986-5.672 1.717-9.965 1.762-4.361.047-7.112-.3-10.345-1.32-3.783-1.195-6.105-4.141-5.182-8.404C3.105 14.518 9.89 2.52 16.631 2.52s13.8 11.768 15.281 18.845c.814 3.893-1.397 6.433-4.755 7.758v-.001z" id="Shape" fill="#00B3E3"/><path d="M8.26 23.983c-3.43-5.088-.992-11.704-.569-13.748-2.967 4.75-6.12 12.368-4.079 15.316 3.51 5.077 17.767 4.071 17.767 4.071s-9.69-.551-13.119-5.639z" id="Path" fill="#00B3E3"/><path d="M23.189 10.154c-1.136-1.93-3.404-2.702-5.068-1.728-1.664.974-2.093 3.329-.958 5.258 1.136 1.93 3.404 2.702 5.066 1.726 1.663-.975 2.093-3.332.96-5.256zm-1.93 4.466c-1.163.681-2.74.156-3.523-1.173-.783-1.33-.473-2.961.69-3.643 1.163-.682 2.74-.156 3.523 1.175.784 1.33.482 2.959-.69 3.64z" id="Shape" fill="#00B3E3"/><path d="M200.733 18.337c2.157-.535 3.998-2.377 3.998-5.773 0-2.176-.854-3.478-1.572-4.187-1.499-1.483-3.441-1.543-3.816-1.54h-9.37a.971.971 0 00-.84.485l-.892 1.546a.905.905 0 00-.121.455v16.519a.8.8 0 00.803.803h2.317a.797.797 0 00.797-.796v-7.354h4.412c.896 1.771 3.872 7.658 3.923 7.756.181.332.347.376.685.363h3.227a.387.387 0 00.389-.544c-.066-.114-3.204-6.286-3.94-7.733zm-8.692-7.978h7.326c1.26 0 1.846.846 1.846 2.206 0 1.605-.587 2.42-1.851 2.42h-7.321v-4.626z" id="Shape" fill="#FFF"/></g></g></g></svg>