<?xml version="1.0" encoding="utf-8"?>
<!-- Generator: Adobe Illustrator 24.2.3, SVG Export Plug-In . SVG Version: 6.00 Build 0)  -->
<svg version="1.1" id="Layer_1" xmlns="http://www.w3.org/2000/svg" xmlns:xlink="http://www.w3.org/1999/xlink" x="0px" y="0px"
	 viewBox="0 0 1681.1 200.1" style="enable-background:new 0 0 1681.1 200.1;" xml:space="preserve">
<style type="text/css">
	.st0{fill:#00B3E3;}
	.st1{fill:#FFFFFF;}
</style>
<g>
	<path class="st0" d="M1600.8,127.4c0.8,0,1.4,0.6,1.4,1.4c0.8,14.7,13.3,24,33,24c21,0,33-9.4,33-24.9c0-36.2-76.8-9.2-76.8-55.9
		c0-19.8,17.3-34.1,43.4-34.1c24.6,0,42.4,11.6,43.2,32c0,0.8-0.6,1.5-1.5,1.5h-9.6c-0.8,0-1.4-0.6-1.5-1.4
		c-0.8-14.1-13.6-21.7-30.7-21.7c-17.5,0-30.7,8.3-30.7,22.6c0,35.3,77.1,7.9,77.1,56.5c0,21.4-16.9,35.8-46.1,35.8
		c-27.8,0-44.7-13-45.5-34.3c0-0.8,0.6-1.5,1.5-1.5H1600.8z"/>
	<path class="st0" d="M1499.2,37.9c34.1,0,58.2,26.6,58.2,62.6s-24.2,62.6-58.2,62.6c-34.8,0-58.2-26.6-58.2-62.6
		S1464.6,37.9,1499.2,37.9z M1499.2,151.7c26.8,0,45.2-21.9,45.2-51.2s-18.4-51.2-45.2-51.2c-27,0-45.2,21.9-45.2,51.2
		C1454.2,129.8,1472.2,151.7,1499.2,151.7z"/>
	<path class="st0" d="M1278.8,39.8h12.8c0.6,0,1.1,0.3,1.3,0.9l46.7,103.6h0.4l46.2-103.6c0.2-0.5,0.8-0.9,1.3-0.9h12.8
		c0.8,0,1.5,0.7,1.5,1.5v118.5c0,0.8-0.7,1.5-1.5,1.5h-9.6c-0.8,0-1.5-0.7-1.5-1.5l1-100.2h-0.5l-45,100.8c-0.2,0.5-0.8,0.9-1.3,0.9
		h-7.8c-0.6,0-1.1-0.3-1.3-0.9l-45-99.2h-0.5l1,98.6c0,0.8-0.6,1.5-1.5,1.5h-9.6c-0.8,0-1.5-0.7-1.5-1.5V41.3
		C1277.2,40.5,1277.9,39.8,1278.8,39.8z"/>
	<path class="st0" d="M1155.2,127.4c0.8,0,1.4,0.6,1.4,1.4c0.8,14.7,13.3,24,33,24c21,0,33-9.4,33-24.9c0-36.2-76.8-9.2-76.8-55.9
		c0-19.8,17.3-34.1,43.4-34.1c24.6,0,42.4,11.6,43.2,32c0,0.8-0.6,1.5-1.5,1.5h-9.6c-0.8,0-1.4-0.6-1.5-1.4
		c-0.8-14.1-13.6-21.7-30.7-21.7c-17.5,0-30.7,8.3-30.7,22.6c0,35.3,77.1,7.9,77.1,56.5c0,21.4-16.9,35.8-46.1,35.8
		c-27.8,0-44.7-13-45.5-34.3c0-0.8,0.6-1.5,1.5-1.5H1155.2z"/>
	<path class="st0" d="M1053.8,37.9c34.1,0,58.2,26.6,58.2,62.6s-24.2,62.6-58.2,62.6c-34.8,0-58.2-26.6-58.2-62.6
		C995.4,64.5,1018.9,37.9,1053.8,37.9z M1053.8,151.7c26.8,0,45.2-21.9,45.2-51.2s-18.4-51.2-45.2-51.2c-27,0-45.2,21.9-45.2,51.2
		S1026.8,151.7,1053.8,151.7z"/>
	<g>
		<path class="st0" d="M962.3,123.8h-9.9c-0.6,0-1.2,0.4-1.4,1c-4.4,14.1-13.5,23.3-28.3,26l0,0c-0.3,0.1-0.5,0.2-0.7,0.4l-3.1,4.4
			c-0.6,0.9-0.4,2.2,0.5,2.8l4.4,3.1c0.4,0.3,0.9,0.4,1.3,0.4l0,0c20.2-4,33.6-17.7,38.6-36.4C964.1,124.7,963.3,123.8,962.3,123.8z
			"/>
		<path class="st0" d="M903.8,49.9l3.1-4.4c0.6-0.9,0.4-2.2-0.5-2.8l-4.4-3.1c-0.4-0.3-0.8-0.4-1.2-0.4l0,0
			c-27.5,5.7-45.2,30.4-45.2,61.4c0,31.4,17.6,55.7,44.8,61.4l0,0l0,0l0,0c0.1,0,0.1,0,0.2,0l0,0c0.5,0,0.9-0.1,1.3-0.3l4.4-3.1
			c0.9-0.6,1.1-1.9,0.5-2.8l-3.1-4.4c-0.3-0.4-0.7-0.7-1.2-0.8l0,0c-20.7-5-33.9-25.1-33.9-50c0-25.4,13.2-45.2,34.3-50l0,0
			C903.2,50.4,903.5,50.2,903.8,49.9z"/>
		<path class="st0" d="M922,49.6c0.3,0.4,0.6,0.5,1.1,0.6l0,0c14.4,2.8,23.7,11.9,27.9,25.9c0.2,0.6,0.7,1,1.4,1h9.9
			c0.9,0,1.7-0.9,1.4-1.8c-4.9-18.8-18.1-32.5-38.4-36.4l0,0h-0.1c-0.1,0-0.1,0-0.2,0H925l0,0c-0.4,0-0.8,0.1-1.2,0.3l-4.4,3.1
			c-0.9,0.6-1.1,1.9-0.5,2.8L922,49.6z"/>
	</g>
	<g>
		<path class="st1" d="M711.8,43.6c1-1.8,3-2.9,5.1-2.9h72.7c2.1,0,4,1.1,5,2.9l5.1,8.8c0.7,1.3,1.1,2.7,1.1,4.2v2.2
			c0,1.8-1.5,3.3-3.3,3.3h-66.3c-1.3,0-2.4,1.1-2.4,2.4v23c0,1.3,1.1,2.4,2.4,2.4H776c2.2,0,4,1.8,4,4v13.2c0,2.2-1.8,4-4,4h-44.9
			c-1.3,0-2.4,1.1-2.4,2.4v23.6c0,1.3,1.1,2.4,2.4,2.4h66.3c1.8,0,3.3,1.5,3.3,3.3v2.2c0,1.5-0.4,2.9-1.1,4.2l-5.1,8.8
			c-1,1.8-2.9,2.9-5,2.9h-72.7c-2.1,0-4-1.1-5.1-2.9l-5.1-8.7c-0.7-1.3-1.1-2.7-1.1-4.2V56.6c0-1.5,0.4-2.9,1.1-4.2L711.8,43.6z"/>
		<path class="st1" d="M655,58.3l-50.8,99.9c-0.8,1.6-2.5,2.6-4.3,2.6h-16.7c-1.8,0-3.5-1-4.3-2.6l-50.7-99.9
			c-0.9-1.7-0.8-3.7,0.1-5.3l5.4-9.4c1.1-1.8,3-2.9,5.1-2.9h4.9c1.3,0,2.5,0.7,3,1.9l42.7,84.9c0.9,1.8,3.4,1.8,4.3,0l42.6-84.9
			c0.6-1.2,1.8-1.9,3.1-1.9h4.9c2.1,0,4,1.1,5.1,2.9l5.4,9.4C655.8,54.7,656,56.7,655,58.3"/>
		<path class="st1" d="M476.3,42.1c-0.9-0.9-2.1-1.4-3.4-1.4h-7.6c-2.1,0-4,1.1-5.1,2.9l-5.4,9.4c-0.5,0.8-0.7,1.8-0.7,2.8v100.1
			c0,2.7,2.2,4.9,4.9,4.9h14c2.7,0,4.8-2.2,4.8-4.8V45.6C477.8,44.2,477.2,43,476.3,42.1"/>
		<path class="st1" d="M403.6,58.3l-50.8,99.9c-0.8,1.6-2.5,2.6-4.3,2.6h-16.7c-1.8,0-3.5-1-4.3-2.6l-50.8-99.9
			c-0.9-1.7-0.8-3.7,0.1-5.3l5.4-9.4c1-1.8,3-2.9,5.1-2.9h4.9c1.3,0,2.5,0.7,3,1.9l42.7,84.9c0.9,1.8,3.4,1.8,4.3,0l42.6-84.9
			c0.6-1.2,1.8-1.9,3.1-1.9h4.9c2.1,0,4,1.1,5.1,2.9l5.4,9.4C404.5,54.7,404.5,56.7,403.6,58.3"/>
	</g>
	<path class="st0" d="M140.6,7.4c-2.6-4.6-7.5-7.4-12.8-7.4H98.6c-5.3,0-10.1,2.8-12.8,7.4L1.9,152.7c-2.6,4.6-2.6,10.2,0,14.8
		l14.6,25.2c2.6,4.6,7.5,7.4,12.8,7.4h167.8c5.3,0,10.1-2.8,12.8-7.4l14.6-25.2c2.6-4.6,2.6-10.2,0-14.8L140.6,7.4z M153.2,166.7
		c-12.6,4-26.1,6.1-40,6.1s-27.4-2.1-40-6.1c-14.8-4.7-23.9-19.6-20.7-34.8c5.8-27.6,20.1-52,40.1-70.4c11.7-10.7,29.5-10.7,41.2,0
		c20,18.4,34.4,42.8,40.1,70.4C177.1,147.1,168.1,162.1,153.2,166.7z"/>
</g>
</svg>
