<svg width="58" height="58" fill="none" xmlns="http://www.w3.org/2000/svg"><path d="M49.507 8.497a28.962 28.962 0 00-4.427-3.636 29.403 29.403 0 00-4.977-2.67 27.848 27.848 0 00-5.41-1.64A29.457 29.457 0 0029 0c-1.947 0-3.847.184-5.705.55a27.986 27.986 0 00-5.398 1.64 29.403 29.403 0 00-4.977 2.671 29.318 29.318 0 00-8.061 8.065 29.428 29.428 0 00-2.67 4.98 28.022 28.022 0 00-1.639 5.4A29.4 29.4 0 000 29.015c0 1.93.183 3.825.55 5.696a27.65 27.65 0 001.64 5.4 30.366 30.366 0 002.669 4.98 27.541 27.541 0 003.634 4.412 29.798 29.798 0 004.427 3.653 27.801 27.801 0 004.977 2.67c1.74.717 3.54 1.256 5.398 1.623 1.858.367 3.758.551 5.705.551 1.93 0 3.823-.184 5.694-.55a29.198 29.198 0 005.409-1.623 27.801 27.801 0 004.977-2.67 29.795 29.795 0 004.427-3.654 27.48 27.48 0 003.634-4.412 29.394 29.394 0 002.651-4.98 29.22 29.22 0 001.64-5.4A28.59 28.59 0 0058 29.015c0-1.948-.19-3.85-.568-5.708a29.778 29.778 0 00-1.64-5.4 28.517 28.517 0 00-2.651-4.98 29.03 29.03 0 00-3.634-4.43zM29 54.957c-3.575 0-6.942-.682-10.09-2.044-3.15-1.361-5.901-3.215-8.257-5.56-2.355-2.345-4.214-5.092-5.575-8.242-1.361-3.15-2.042-6.514-2.042-10.096 0-3.583.68-6.946 2.042-10.096 1.361-3.15 3.22-5.904 5.575-8.26 2.356-2.357 5.108-4.217 8.256-5.578C22.058 3.719 25.42 3.038 29 3.038c3.58 0 6.942.68 10.09 2.043 3.15 1.361 5.895 3.22 8.24 5.577 2.343 2.357 4.195 5.11 5.556 8.26 1.362 3.151 2.042 6.514 2.042 10.097 0 3.582-.68 6.946-2.041 10.096-1.362 3.15-3.214 5.898-5.558 8.242-2.343 2.345-5.09 4.199-8.238 5.56-3.149 1.362-6.516 2.043-10.091 2.043zm18.3-27.494H30.52V10.676c0-.42-.148-.775-.45-1.072a1.471 1.471 0 00-1.07-.45c-.42 0-.775.149-1.071.45-.296.297-.45.658-.45 1.072v16.787H10.671c-.42 0-.775.148-1.071.45a1.51 1.51 0 00-.45 1.102c0 .42.148.776.45 1.072.296.296.657.45 1.07.45h16.81v16.787c0 .42.148.775.45 1.072.296.296.657.45 1.071.45.42 0 .775-.148 1.071-.45.296-.297.45-.658.45-1.072V30.537H47.3c.414 0 .775-.148 1.07-.45a1.47 1.47 0 00.45-1.072c0-.438-.147-.806-.45-1.102a1.471 1.471 0 00-1.07-.45z" fill="#00B5E2"/></svg>