<svg version="1.1" id="Logo" xmlns="http://www.w3.org/2000/svg" x="0" y="0" viewBox="0 0 1389 266" xml:space="preserve"><style>.st1{fill:#00b3e3}</style><path d="M632.74 76.85a5.367 5.367 0 00-4.65-2.68h-4.46c-1.18 0-2.27.65-2.78 1.71l-38.87 77.36c-.81 1.62-3.13 1.62-3.95 0l-38.89-77.36c-.51-1.06-1.6-1.71-2.75-1.71h-4.48c-1.92 0-3.69 1.02-4.65 2.68l-4.94 8.55c-.83 1.48-.9 3.29-.12 4.82l46.26 91.04a4.426 4.426 0 003.91 2.39h15.26c1.67 0 3.17-.93 3.91-2.39l46.28-91.04a5 5 0 00-.13-4.79l-4.95-8.58zm-229.21-.02a5.342 5.342 0 00-4.62-2.67h-4.48c-1.18 0-2.27.65-2.78 1.71l-38.87 77.36c-.82 1.62-3.13 1.62-3.95 0l-38.89-77.36c-.51-1.06-1.6-1.71-2.75-1.71h-4.5a5.33 5.33 0 00-4.62 2.67l-4.95 8.56c-.83 1.48-.9 3.29-.12 4.82l46.26 91.04a4.426 4.426 0 003.91 2.39h15.26c1.67 0 3.17-.93 3.91-2.39l46.28-91.04a5 5 0 00-.13-4.79l-4.96-8.59zm68.24-2.67h-6.92c-1.91 0-3.68 1.02-4.63 2.68l-4.93 8.57c-.44.77-.67 1.64-.67 2.52v91.28c0 2.45 1.99 4.44 4.44 4.44h12.77a4.4 4.4 0 004.4-4.4V78.61c0-1.23-.5-2.34-1.31-3.15-.81-.8-1.93-1.3-3.15-1.3zm235.36 19.42h60.41c1.67 0 3.01-1.37 3.01-3v-2c0-1.33-.35-2.63-1.01-3.78l-4.67-8.02a5.253 5.253 0 00-4.54-2.62h-66.27c-1.91 0-3.68 1.02-4.63 2.67l-4.61 7.96a7.615 7.615 0 00-1.01 3.78l-.01 80.65c0 1.34.35 2.64 1.02 3.8l4.61 7.96a5.358 5.358 0 004.63 2.67h66.27c1.87 0 3.6-1 4.54-2.62l4.67-8.04a7.624 7.624 0 001.01-3.79v-2.01c0-1.65-1.35-2.98-3.01-2.98h-60.42a2.2 2.2 0 01-2.2-2.2v-21.52c0-1.22.99-2.2 2.2-2.2h40.92c2 0 3.64-1.64 3.64-3.64V122.6c0-1.99-1.62-3.61-3.61-3.64h-40.95a2.2 2.2 0 01-2.2-2.2V95.8c0-1.22 1-2.22 2.21-2.22zm193.62-10.72c-8.27-8.2-18.98-8.53-21.07-8.51-.98.01-51.66-.02-51.66-.02-1.91 0-3.68 1.02-4.63 2.68l-4.93 8.57c-.44.77-.67 1.64-.67 2.52v91.28c0 2.45 1.99 4.44 4.44 4.44H835a4.4 4.4 0 004.4-4.4v-40.6h40.37c14.76 0 29.66-10.15 29.66-32.81-.02-12.03-4.73-19.23-8.68-23.15zm-20.99 36.5h-40.37V93.8h40.39c6.94 0 10.19 4.68 10.19 12.19-.01 8.87-3.25 13.37-10.21 13.37zm124.32 64.36c-30.19 0-54.74-24.56-54.74-54.74 0-30.19 24.56-54.74 54.74-54.74 30.18 0 54.74 24.56 54.74 54.74 0 30.18-24.56 54.74-54.74 54.74zm0-90.04c-19.46 0-35.3 15.83-35.3 35.3 0 19.46 15.83 35.3 35.3 35.3 19.46 0 35.3-15.83 35.3-35.3-.01-19.47-15.84-35.3-35.3-35.3zm189.03 74.08l-16.16-31.8c9.41-4.43 16.67-14.14 16.67-29.97 0-12.02-4.71-19.21-8.67-23.13-8.27-8.2-18.98-8.53-21.07-8.51-.98.01-51.66-.02-51.66-.02-1.91 0-3.68 1.02-4.63 2.68l-4.93 8.57c-.44.77-.67 1.64-.67 2.52v91.28c0 2.45 1.99 4.44 4.44 4.44h12.77a4.4 4.4 0 004.4-4.4v-40.6h30.8l21.76 43.28c.51 1.06 1.6 1.71 2.75 1.71h4.5a5.33 5.33 0 004.62-2.67l4.95-8.56c.85-1.49.92-3.29.13-4.82zM1123.6 93.8h40.39c6.94 0 10.19 4.68 10.19 12.19 0 8.87-3.24 13.37-10.21 13.37h-40.37V93.8zm199.9-8.91l-4.67-8.02a5.253 5.253 0 00-4.54-2.62h-66.31c-1.87 0-3.6 1-4.54 2.62l-4.67 8.02a7.615 7.615 0 00-1.01 3.78v2c0 1.64 1.35 3 3.01 3h29.58v85.7c0 2.45 1.99 4.44 4.44 4.44h12.77a4.4 4.4 0 004.4-4.4V93.67h29.54c1.67 0 3.01-1.37 3.01-3v-2c0-1.33-.35-2.63-1.01-3.78zm8.66-10.69v.62h1.61v3.9h.74v-3.9h1.58v-.62h-3.93zm8.67 0l-1.54 3.55h-.04l-1.52-3.55h-1.01v4.52h.74l-.04-3.51h.04l1.51 3.51h.62l1.52-3.51h.04l-.04 3.51h.74V74.2h-1.02z" fill="#fff"/><path class="st1" d="M246.76 152.88c-8.26-39.54-28.37-74.97-58.15-102.45-18.46-17.03-46.29-17.03-64.74.01-29.78 27.5-49.88 62.93-58.13 102.46-5 23.93 4.24 66.11 92.5 66.11s93.52-42.21 88.52-66.13zm-32.36 44.7c-13.82 5.46-31.27 9.49-54.95 9.75-24.06.26-39.21-1.65-57.03-7.29-20.86-6.6-33.67-22.88-28.57-46.44 7.94-36.7 45.36-103 82.53-103s76.09 65.03 84.26 104.13c4.47 21.49-7.72 35.53-26.24 42.85z"/><path class="st1" d="M110.2 169.17c-18.91-28.11-5.44-64.67-3.13-75.97-16.35 26.24-33.75 68.34-22.49 84.63 19.36 28.03 97.97 22.49 97.97 22.49s-53.44-3.04-72.35-31.15zm82.32-76.43c-6.26-10.66-18.77-14.93-27.94-9.54-9.18 5.39-11.54 18.39-5.28 29.05 6.26 10.66 18.77 14.93 27.94 9.54 9.17-5.39 11.54-18.4 5.28-29.05zm-10.6 24.7c-6.41 3.77-15.11.86-19.43-6.49-4.31-7.35-2.61-16.36 3.8-20.12 6.41-3.77 15.11-.86 19.43 6.49 4.32 7.34 2.62 16.35-3.8 20.12z"/></svg>