<?xml version="1.0" encoding="utf-8"?>
<!-- Generator: Adobe Illustrator 24.1.3, SVG Export Plug-In . SVG Version: 6.00 Build 0)  -->
<svg version="1.1" id="Layer_1" xmlns="http://www.w3.org/2000/svg" xmlns:xlink="http://www.w3.org/1999/xlink" x="0px" y="0px"
	 viewBox="0 0 135.61 15.12" style="enable-background:new 0 0 135.61 15.12;" xml:space="preserve">
<g>
	<g>
		<g>
			<g>
				<path d="M41.16,12.6c-2.38,0.02-4.62,0.03-5.25-0.02c-1.27-0.11-2.12-0.94-2.21-2.16c-0.07-0.8-0.07-1.47-0.01-2.1
					C33.81,7.13,34.8,6,35.91,5.94c0.4-0.02,1.46-0.02,3.38-0.01l5.6,0.01V3.62c0,0-4.46-0.01-5.8-0.01
					c-1.8-0.01-2.71-0.01-3.28,0.01c-1.26,0.05-2.32,0.5-3.14,1.33c-0.78,0.79-1.24,2.04-1.31,3.31c-0.04,0.68-0.05,1.58,0,2.11
					c0.13,1.37,0.57,2.44,1.31,3.19c0.79,0.8,2,1.32,3.14,1.33c0.94,0.01,9.08,0,9.08,0v-2.32C44.89,12.57,42.42,12.59,41.16,12.6z"
					/>
				<path d="M15.87,3.74v2.32c0,0,5.44,0,5.53,0c0,0.09,0,8.79,0,8.79h2.33c0,0,0-8.7,0-8.79c0.09,0,5.53,0,5.53,0V3.74H15.87z"/>
				<path d="M13.45,8.13c-0.02-1.25-0.46-2.32-1.31-3.19C11.25,4.03,9.88,3.66,9,3.61c-0.78-0.04-3.82-0.03-4.54,0
					C3.44,3.65,2.71,3.95,2.34,4.23c-0.01,0-0.01,0-0.01,0c0-0.27,0-4.22,0-4.22H0v14.9h2.33c0,0-0.05-6.1,0.01-6.76
					c0.09-1.18,0.99-2.11,2.13-2.21c0.92-0.08,3.66-0.06,4.53,0c1.19,0.08,2.06,1.01,2.13,2.25c0.02,0.46,0,6.71,0,6.71h2.34
					C13.45,14.9,13.46,8.67,13.45,8.13z"/>
			</g>
		</g>
	</g>
	<g>
		<g>
			<path d="M52.08,3.64H56c3.54,0,5.99,2.43,5.99,5.61v0.03c0,3.17-2.45,5.64-5.99,5.64h-3.92V3.64z M53.36,4.82v8.93H56
				c2.85,0,4.67-1.93,4.67-4.43V9.28c0-2.5-1.82-4.46-4.67-4.46C56,4.82,53.36,4.82,53.36,4.82z"/>
			<path d="M63.96,10.78v-0.03c0-2.4,1.69-4.33,4-4.33c2.47,0,3.88,1.97,3.88,4.4c0,0.16,0,0.26-0.02,0.4h-6.61
				c0.18,1.8,1.45,2.82,2.93,2.82c1.14,0,1.95-0.47,2.63-1.18l0.77,0.69c-0.84,0.93-1.85,1.56-3.43,1.56
				C65.83,15.12,63.96,13.36,63.96,10.78z M70.58,10.3c-0.13-1.51-1-2.84-2.66-2.84c-1.45,0-2.55,1.21-2.71,2.84H70.58z"/>
			<path d="M73.33,13.86l0.63-0.89c0.9,0.68,1.9,1.06,2.88,1.06c1,0,1.72-0.52,1.72-1.32v-0.03c0-0.84-0.98-1.16-2.08-1.47
				c-1.31-0.37-2.76-0.82-2.76-2.35V8.83c0-1.43,1.19-2.38,2.84-2.38c1.02,0,2.14,0.35,3,0.92L79,8.3c-0.77-0.5-1.66-0.81-2.47-0.81
				c-0.98,0-1.61,0.52-1.61,1.21v0.03c0,0.79,1.03,1.1,2.14,1.43c1.29,0.39,2.67,0.89,2.67,2.38v0.03c0,1.58-1.3,2.5-2.96,2.5
				C75.58,15.08,74.26,14.62,73.33,13.86z"/>
			<path d="M82.08,3.4h1.42v1.37h-1.42V3.4z M82.16,6.59h1.24v8.33h-1.24V6.59z"/>
			<path d="M86.29,6.59h1.24v2.18c0.61-1.39,1.82-2.38,3.4-2.32v1.34h-0.1c-1.82,0-3.3,1.31-3.3,3.82v3.32h-1.24V6.59z"/>
			<path d="M91.95,10.78v-0.03c0-2.4,1.69-4.33,4-4.33c2.47,0,3.88,1.97,3.88,4.4c0,0.16,0,0.26-0.02,0.4H93.2
				c0.18,1.8,1.45,2.82,2.93,2.82c1.14,0,1.95-0.47,2.63-1.18l0.77,0.69c-0.84,0.93-1.85,1.56-3.43,1.56
				C93.82,15.12,91.95,13.36,91.95,10.78z M98.57,10.3c-0.13-1.51-1-2.84-2.66-2.84c-1.45,0-2.55,1.21-2.71,2.84H98.57z"/>
			<path d="M106.23,13.94l4.09-3.61c1.72-1.55,2.35-2.42,2.35-3.54c0-1.32-1.05-2.16-2.27-2.16c-1.29,0-2.13,0.68-3.03,1.93
				l-0.94-0.68c1.02-1.51,2.08-2.4,4.06-2.4c2.03,0,3.5,1.35,3.5,3.19V6.7c0,1.64-0.87,2.66-2.85,4.38l-3.01,2.67h5.98v1.16h-7.88
				C106.23,14.91,106.23,13.94,106.23,13.94z"/>
			<path d="M116.11,9.32V9.28c0-3.16,1.88-5.83,4.79-5.83s4.74,2.64,4.74,5.8v0.03c0,3.16-1.87,5.83-4.77,5.83
				C117.95,15.12,116.11,12.47,116.11,9.32z M124.31,9.32V9.28c0-2.47-1.35-4.67-3.45-4.67c-2.11,0-3.43,2.16-3.43,4.64v0.03
				c0,2.47,1.35,4.67,3.46,4.67C123.01,13.96,124.31,11.78,124.31,9.32z"/>
			<path d="M130.23,7.88h-3.34V6.72h3.34V3.4h1.21v3.32h3.33v1.16h-3.33v3.32h-1.21V7.88z"/>
		</g>
	</g>
</g>
</svg>
