<?xml version="1.0" encoding="utf-8"?>
<!-- Generator: Adobe Illustrator 23.0.2, SVG Export Plug-In . SVG Version: 6.00 Build 0)  -->
<svg version="1.1" xmlns="http://www.w3.org/2000/svg" xmlns:xlink="http://www.w3.org/1999/xlink" x="0px" y="0px"
	 viewBox="0 0 1920 1080" style="enable-background:new 0 0 1920 1080;" xml:space="preserve">
<style type="text/css">
	.st0{display:none;}
	.st1{display:inline;fill:#FF0000;}
	.st2{display:inline;fill:#FFFFFF;}
	.st3{display:inline;}
	.st4{fill:#FFFFFF;}
</style>
<g id="圖層_2" class="st0">
	<rect class="st1" width="1920" height="1080"/>
</g>
<g id="圖層_1">
	<g id="_x31__1_" class="st0">
		<path class="st2" d="M0,0v1080h1920V0H0z M852.5,589c0,5.4-30.5,67.7-88.6,67.7c-58,0-125.6-0.3-139.2-0.3
			c-13.6,0-38.3-15.3-61.7-60.5c-9.4-22-16.2-49.4-11.1-57.8c13.8-22.9,27.7-50.5,73.7-71.4s117.7-43.8,130.8-43.5
			c19.5,0.9,76.9,12.6,96.1,78.1C852.5,537.4,852.5,583.6,852.5,589z M1356.7,596c-23.8,45.2-48.9,60.5-62.8,60.5
			s-82.7,0.3-141.8,0.3c-59.1,0-90.2-62.4-90.2-67.7c0-5.4,0-51.6,0-87.6c19.5-65.5,78-77.3,97.9-78.1
			c13.4-0.3,86.3,22.6,133.2,43.5c46.9,20.9,61,48.5,75.1,71.4C1373.2,546.6,1366.2,574,1356.7,596z"/>
	</g>
	<g id="_x32__1_" class="st0">
		<path class="st2" d="M0,0v1080h1920V0H0z M854.2,591.4c0,5.6-31.1,71-90.3,71c-59.2,0-128-0.3-141.9-0.3s-39-16-62.9-63.4
			c-9.6-23.1-12.4-50.4-11.4-60.7c2.9-30.5,21.8-58.5,69.7-80.6c48.2-22.1,125.1-40.3,138.5-40c19.9,0.9,78.7,13.3,98.2,82
			C854.2,537.3,854.2,585.8,854.2,591.4z M1360.8,598.8c-23.9,47.4-49.1,63.4-63,63.4s-83,0.3-142.3,0.3c-59.3,0-90.5-65.4-90.5-71
			c0-5.6,0-54.1,0-91.9c19.6-68.7,78.6-81.1,98.5-82c13.4-0.3,90.6,17.9,138.9,40c48.1,22,67,50.1,69.9,80.6
			C1373.2,548.4,1370.4,575.7,1360.8,598.8z"/>
	</g>
	<g id="_x33_" class="st0">
		<path class="st2" d="M0,0v1080h1920V0H0z M854.1,593.4c0,5.7-31.1,72.3-90.3,72.3c-59.2,0-128.1-0.3-142-0.3
			c-13.9,0-39-16.3-62.9-64.5c-9.6-23.5-14.1-51.5-13.1-61.8c2.9-30.5,8.9-73,84.5-98.5c82.6-27.9,103.2-26.3,116.6-26
			c19.9,0.9,87.7,15.5,107.2,85.4C854.1,538.3,854.1,587.6,854.1,593.4z M1361.1,600.8c-23.9,48.2-49.1,64.5-63.1,64.5
			c-13.9,0-83,0.3-142.4,0.3s-90.6-66.5-90.6-72.3c0-5.7,0-55,0-93.5c19.6-69.9,87.6-84.4,107.5-85.4c13.4-0.3,34.1-1.8,116.9,26
			c75.8,25.5,81.8,68,84.7,98.5C1375.2,549.3,1370.7,577.3,1361.1,600.8z"/>
	</g>
	<g id="_x34_" class="st0">
		<path class="st2" d="M0,0v1080h1920V0H0z M854.6,594.4c0,5.9-31.6,73.8-91.7,73.8s-130-0.3-144.1-0.3c-14.1,0-39.6-16.6-63.8-65.9
			c-9.7-24-14.3-52.6-13.3-63.1c2.9-31.1,8.7-74.6,85.3-100.8c83.1-28.4,105.4-26.4,119-26.1c20.2,1,88.8,15.7,108.6,87
			C854.6,538.2,854.6,588.5,854.6,594.4z M1364.9,602c-24.2,49.2-49.6,65.9-63.7,65.9s-83.9,0.3-143.8,0.3s-91.5-67.9-91.5-73.8
			c0-5.9,0-56.2,0-95.4c19.8-71.3,88.2-86,108.4-87c13.6-0.3,35.9-2.3,118.8,26.1c76.5,26.2,82.2,69.7,85.1,100.8
			C1379.2,549.4,1374.6,578,1364.9,602z"/>
	</g>
	<g id="_x35_" class="st0">
		<path class="st2" d="M0,0v1080h1920V0H0z M854.7,594.9c0,6-31.8,75.4-92.2,75.4c-60.4,0-130.8-0.3-145-0.3
			c-14.2,0-39.9-17-64.2-67.3c-9.8-24.5-14.4-53.7-13.4-64.5c2.9-31.8,0-78.2,75-110.4c63.9-27.4,123.3-15.7,137-15.4
			c20.3,1,82.8,12.2,102.7,85C854.7,537.5,854.7,588.9,854.7,594.9z M1366.8,602.7c-24.2,50.3-49.7,67.3-63.8,67.3
			c-14.1,0-84,0.3-144.1,0.3c-60.1,0-91.7-69.4-91.7-75.4c0-6,0-57.4,0-97.5c19.8-72.9,81.9-84,102.1-85
			c13.6-0.3,72.7-12,136.2,15.4c74.5,32.3,71.7,78.6,74.6,110.4C1381,549,1376.5,578.2,1366.8,602.7z"/>
	</g>
	<g id="_x36_" class="st0">
		<path class="st2" d="M0,0v1080h1920V0H0z M853.5,596c0,6.2-31.8,77.5-92.2,77.5c-60.4,0-130.8-0.3-145-0.3s-39.9-17.5-64.2-69.2
			c-9.8-25.2-14.3-55.3-13.4-66.3c2.8-32.9-3.8-84.4,70-118.5c41.6-18.8,128.2-11.3,142-11c20.3,1,82.8,12.5,102.7,87.4
			C853.5,536.9,853.5,589.8,853.5,596z M1367.9,604c-24.4,51.7-50.1,69.2-64.3,69.2s-84.7,0.3-145.2,0.3
			c-60.5,0-92.4-71.3-92.4-77.5s0-59,0-100.3c20-74.9,82.5-86.4,102.9-87.4c13.8-0.3,100.5-7.8,142.2,11
			c74,34.1,67.3,85.6,70.1,118.5C1382.2,548.7,1377.7,578.8,1367.9,604z"/>
	</g>
	<g id="_x37_" class="st0">
		<path class="st2" d="M0,0v1080h1920V0H0z M852.6,595.6c0,6.2-31.8,77.5-92.2,77.5c-60.4,0-130.8-0.3-145-0.3s-39.9-17.5-64.2-69.2
			c-9.8-25.2-13.3-55.2-13.4-66.3c-0.2-36.5,13.5-122,83.5-126.9c68.5-4.8,111.3-3.6,128.6-2.6c20.3,1,82.8,12.5,102.7,87.4
			C852.6,536.5,852.6,589.4,852.6,595.6z M1382.1,537.3c-0.1,11.1-3.6,41.1-13.4,66.3c-24.5,51.7-50.2,69.2-64.5,69.2
			c-14.3,0-84.9,0.3-145.5,0.3s-92.6-71.3-92.6-77.5s0-59,0-100.3c20-74.9,82.7-86.4,103.1-87.4c17.3-1,60.3-2.3,129.1,2.6
			C1368.6,415.3,1382.4,500.8,1382.1,537.3z"/>
	</g>
	<g id="_x38_" class="st0">
		<path class="st2" d="M0,0v1080h1920V0H0z M860,603.9c0,7.6-6.6,21.5-17.6,35.5c-16.5,21.2-42.8,42.6-70.6,42.6
			c-31.7,0-116.8,0-142.5,0c-34.6,0-62.2-39.9-75.4-77.4c-20-56.7-2.8-125-0.7-131.8c3.4-10.9,14-31.4,16.1-34.6
			c5.4-8.2,22.5-38.8,54.4-39.3c42.1-0.7,76.7-1.7,139.6,0.7c27.4,1.1,56.5,18.8,75.6,41.5c11.6,13.8,19.4,29.4,21,44.2
			C860,492,860,597,860,603.9z M1385.5,604.7c-13.2,37.5-40.8,77.4-75.4,77.4c-25.7,0-110.8,0-142.4,0c-27.8,0-54.1-21.4-70.6-42.6
			c-10.9-14-17.5-28-17.5-35.5c0-6.9,0-111.9,0-118.5c1.5-14.8,9.4-30.5,21-44.2c19.1-22.7,48.2-40.4,75.5-41.5
			c62.8-2.5,97.5-1.4,139.6-0.7c31.9,0.5,49.1,31.2,54.4,39.3c2.1,3.3,12.7,23.7,16.1,34.6C1388.4,479.7,1405.5,548,1385.5,604.7z"
			/>
	</g>
	<g id="_x39_" class="st0">
		<g class="st3">
			<path class="st4" d="M0,0v1080h1920V0H0z M903.1,567.3c0,41-5.4,68-19.1,85.5c-20.8,26.5-60.6,31.7-129.6,31.7
				c-31.6,0-110.1,0-135.8,0c-34.5,0-57.5-36.8-71.5-74.6c-20.6-55.5-12.1-103.1-9.1-116.7c2.8-12.4,15.9-45.8,17.4-49.4
				c5.3-12.3,23.2-50.9,68.4-50.9c42,0,57,0.1,119.7,0.1c82.6,0,124.2,10.4,143.8,37.7c11.9,16.6,15.8,39.5,15.8,70.1
				C903.1,507.5,903.1,560.3,903.1,567.3z M1392.4,609.9c-14,37.7-37.1,74.6-71.6,74.6c-25.7,0-104.3,0-135.8,0
				c-69.1,0-108.9-5.1-129.7-31.7c-13.8-17.6-19.2-44.5-19.2-85.5c0-7,0-59.9,0-66.5c0-30.6,3.8-53.5,15.8-70.1
				c19.7-27.4,61.3-37.7,143.9-37.7c62.8,0,77.8-0.1,119.8-0.1c45.2,0,63.1,38.6,68.4,50.9c1.6,3.6,14.7,37,17.5,49.4
				C1404.5,506.8,1413,554.4,1392.4,609.9z"/>
		</g>
	</g>
	<g id="_x31_0" class="st0">
		<g id="圖層_3" class="st3">
			<path class="st4" d="M0,0v1080h1920V0H0z M939,568.7c0,45.8-11.8,78.5-29.9,96.5C885,689,846,689.9,771.3,689.9
				c-35.6,0-124.1,0-153,0c-55.7,0-66.4-38.1-82.2-77.1c-23.2-57.4-11.4-106.5-8.6-120.7c3.8-19.5,17-53.3,18.8-57
				c6-12.7,21.2-46.8,73-46.8c47.3,0,69.2,0.1,139.9,0.1c78.9,0,120.8,4.8,146,22.9c18.6,13.3,33.8,52.3,33.8,88.6
				C939,506.8,939,561.4,939,568.7z M1403.8,612.7c-15.8,39-26.5,77.1-82.2,77.1c-28.9,0-117.4,0-152.9,0
				c-74.6,0-113.6-0.9-137.7-24.7c-18.1-18-29.9-50.7-29.9-96.5c0-7.2,0-61.9,0-68.8c0-36.3,15.2-75.3,33.8-88.6
				c25.3-18.1,67.2-22.9,146-22.9c70.7,0,92.5-0.1,139.8-0.1c51.8,0,66.9,34,72.9,46.8c1.8,3.7,14.9,37.5,18.7,57
				C1415.2,506.3,1427,555.3,1403.8,612.7z"/>
		</g>
	</g>
	<g id="_x31_1">
		<g id="圖層_4">
			<g>
				<path class="st4" d="M0,0v1080h1920V0H0L0,0z M1421.8,616.7c-15.7,41.6-24.3,79.7-87.2,79.7c-32.6,0-139-0.2-179.1-0.3
					c-84.3-0.1-128.3-1-155.5-25.7c-13.8-12.5-24.3-32-29.7-57.9c-5.4,25.9-16,45.3-29.8,57.9c-27.3,24.7-71.6,25.7-156.2,25.7
					c-40.3,0-147.2,0.2-179.9,0.3c-63.2,0-71.8-38.1-87.6-79.7c-23.1-60.8-13-111.1-9.9-125.9c4.3-20.2,16.4-53.2,18.9-59
					c6.3-14.3,19.5-47.3,85.7-48c51.5-0.6,79.2,0.2,159.4,0.2c96.5,0,135,3.1,163.6,21.8c15.4,10.1,29.3,33.9,35.8,61.7
					c6.5-27.7,20.3-51.6,35.7-61.7c28.5-18.7,66.8-21.8,162.9-21.8c79.8,0,107.4-0.8,158.7-0.2c65.9,0.7,79,33.7,85.3,48
					c2.6,5.8,14.6,38.9,18.9,59C1434.7,505.5,1444.8,555.9,1421.8,616.7z"/>
			</g>
		</g>
	</g>
	<g id="_x31_2" class="st0">
		<g id="圖層_5" class="st3">
			<path class="st4" d="M0,0v1080h1920V0H0L0,0z M1444.9,630.7c-18.2,49.5-50.6,94.8-101,94.8c-37.8,0-160.8-0.3-207.3-0.3
				c-85.7-0.1-135.5-1-167.7-21.1c-32.1,19.5-81.7,20.4-166.3,20.4c-46.4,0-169.3,0.3-207,0.3c-50.3,0-82.6-45.3-100.8-94.8
				c-26.6-72.3-15-132.2-11.4-149.8c5-24,19.7-64.2,23.8-70.5c16.5-24.7,35.1-56.9,96.5-56.9c59.3,0,91.1,0.2,183.3,0.2
				c106.1,0,150.4,1.3,182.8,20.8c32.5-18.9,77-20.1,182-20.1c92.4,0,124.3-0.2,183.7-0.2c61.5,0,80.2,32.2,96.7,56.9
				c4.2,6.3,18.9,46.4,23.9,70.5C1459.9,498.5,1471.5,558.4,1444.9,630.7z"/>
		</g>
	</g>
	<g id="_x31_3" class="st0">
		<g id="圖層_6" class="st3">
			<path class="st4" d="M0,0v1080h1920V0H0z M1479.9,656.1c-23.1,63-75.2,119.2-137.3,119.2c-38.1,0-124.1-0.3-171.1-0.4
				c-79.6-0.1-157.2,1.5-202.3-6.4c-45.1,7.9-122.8,6.3-202.3,6.4c-46.9,0-133,0.4-171.1,0.4c-62.1,0-114.2-56.1-137.3-119.2
				c-33.5-91.5-20.9-163.8-17.3-186.2c5-30.8,20.8-74.1,32.7-93.8c19.6-32.4,52.7-77.1,114.9-77.1c60,0,69.1,0.3,162.4,0.3
				c95.2,0,178.7-2.3,217.9,7.1c39.2-9.4,122.7-7.1,217.9-7.1c93.3,0,102.5-0.3,162.4-0.3c62.1,0,95.3,44.8,114.8,77.1
				c12,19.8,27.7,63,32.7,93.8C1500.8,492.4,1513.4,564.6,1479.9,656.1z"/>
		</g>
	</g>
	<g id="_x31_4" class="st0">
		<g id="圖層_7" class="st3">
			<path class="st4" d="M0,0v1080h1920V0H0z M1509.9,674.6c-27.6,72.8-94.6,138.7-164.2,138.7c-42.5,0-126.9-0.3-179.2-0.3
				c-88.6-0.1-156.4,3.7-200.1-0.5c-43.2,4.2-110.2,0.3-197.6,0.5c-51.6,0.1-135,0.3-176.9,0.3c-68.6,0-134.8-65.9-162.1-138.7
				C390.3,568.8,406,485.2,410,459c5.5-35.9,27.9-89.1,41.3-112.4c21.7-37.7,69.4-88.4,137.8-88.4c65.9,0,60.8-0.5,163.4-0.5
				c104.5,0,174.3-1.3,214,2.5c40.2-3.8,111-2.5,216.7-2.5c103.9,0,98.8,0.5,165.5,0.5c69.2,0,117.6,50.6,139.5,88.4
				c13.6,23.3,36.2,76.5,41.8,112.4C1534.1,485.2,1550,568.8,1509.9,674.6z"/>
		</g>
	</g>
	<g id="_x31_5" class="st0">
		<g id="圖層_8" class="st3">
			<path class="st4" d="M0,0v1080h1920V0H0z M1490.7,805.4c-27,31.5-71.7,64.4-206.3,64.4s-664.1,0-713.3,0S442.3,835.6,410,788.5
				c-33-48.3-70.6-155.8-70.6-234.8c0-58.1,17-169.9,68.4-233.5s96.6-87,178.7-87c53,0,693-1.1,762.6-1.1
				c78,0,140.1,49.1,170.3,98.2c29.9,48.7,60.6,136.8,60.6,232C1580,671.1,1518.2,773.3,1490.7,805.4z"/>
		</g>
	</g>
	<g id="_x31_6" class="st0">
		<g id="圖層_9" class="st3">
			<path class="st4" d="M0,0v1080h1920V0H0z M1526,827.7c-28.9,35.9-73.7,84.3-218.1,84.3s-712.2,0-764.9,0s-136.2-56.3-170.8-110.1
				c-35.4-55-77.6-160.2-77.6-250.3c0-66.2,15.8-182.8,70.9-255.3s106-110.1,194.1-110.1c56.8,0,743.2-1.3,817.8-1.3
				c83.7,0,151.4,70.2,183.8,126.2c32.1,55.6,63.7,141.7,63.7,250.3C1624.9,685.4,1555.5,791,1526,827.7z"/>
		</g>
	</g>
	<g id="_x31_7" class="st0">
		<g id="圖層_10" class="st3">
			<path class="st4" d="M0,0v1080h1920V0H0z M1557.9,858.9c-30.8,40.2-78.3,94.6-227.9,94.6c-153.5,0-728.6,0-784.6,0
				c-84.8,0-169.8-64-206.5-124.1c-37.6-61.6-82.1-178.4-82.1-279.2c0-82.9,20.5-203,79.1-284c58.6-81.1,120-126.5,213.7-126.5
				c60.4,0,752-1.5,831.3-1.5c88.9,0,177.4,75.6,211.9,138.3c34.2,62.2,74.3,163.3,74.3,284.7
				C1667.1,699.9,1589.3,817.9,1557.9,858.9z"/>
		</g>
	</g>
	<g id="_x31_8" class="st0">
		<g id="圖層_11" class="st3">
			<path class="st4" d="M0,0v1080h1920V0H0z M1604.6,870.1c-32.7,45-110.7,132.4-251.7,132.4c-163.4,0-726.7,0-786.3,0
				c-131.5,0-219.7-77-265.5-143.3c-45.3-65.6-90.2-195.5-90.2-308.4c0-92.8,26.5-225.4,88.9-316.2S446.5,91,532.8,91
				c64.3,0,749.7-1.5,834.1-1.5c110.5,0,204.6,76.2,247.2,143.1c42.8,67,97.4,194.6,97.4,330.6
				C1711.6,695.2,1638,824.2,1604.6,870.1z"/>
		</g>
	</g>
	<g id="_x31_9" class="st0">
		<g id="圖層_12" class="st3">
			<path class="st4" d="M0,0v1080h1920V0H0z M1636.5,903.6c-34.6,49.7-132.8,141.9-281.9,141.9c-172.8,0-741.7,0-804.7,0
				c-146.3,0-238.5-92.1-287-165.3C215,807.8,167.1,671.7,167.1,547c0-102.5,33.3-248.9,99.3-349.2C332.3,97.7,436.5,41,527.8,41
				c68,0,766.9-1.9,856.2-1.9c116.8,0,212.2,79.8,262.6,150.1c52.1,72.8,107.3,206.5,107.3,371.3
				C1753.9,706.3,1671.8,853,1636.5,903.6z"/>
		</g>
	</g>
	<g id="_x32_0" class="st0">
		<g id="圖層_13" class="st3">
			<g>
				<path class="st4" d="M1920,0h-448.1c95.4,25.4,172.5,101.4,216.4,164.6c55.4,79.6,113.6,216.1,113.6,397
					c0,164-90.2,318.9-127.8,374.4c-29.6,43.6-95.9,114.5-199.5,144.1H1920V0L1920,0z"/>
				<path class="st4" d="M223.1,908.3c-54.1-80-104.2-224.1-104.2-361.7c0-112.5,30.3-253.9,96.8-366C268.7,91.1,362,23.5,447.4,0H0
					v1080h438.5C335.1,1048.8,264.9,970.1,223.1,908.3z"/>
			</g>
		</g>
	</g>
	<g id="_x32_1" class="st0">
		<g id="圖層_14" class="st3">
			<g>
				<path class="st4" d="M186.7,941.3C129.6,853.7,72.6,720.5,72.6,546.9c0-123.1,38.9-271.8,109.2-394.4
					C216.8,91.4,271,38.1,333.6,0H0v1080h320C259.2,1039.2,216,986.1,186.7,941.3z"/>
				<path class="st4" d="M1920,0h-330.3c56.1,37.1,97.8,85.3,128.8,127c59.8,80.6,127.6,238.4,127.6,436.4
					c0,179.4-86.3,334-130.2,391.7c-36.9,48.5-68.2,91.9-115.9,125h320V0z"/>
			</g>
		</g>
	</g>
	<g id="_x32_2" class="st0">
		<g id="圖層_15" class="st3">
			<g>
				<path class="st4" d="M146.8,972.9C86,878.6,26.9,733.9,26.9,546c0-133.2,36.3-296.8,114.7-426.9c26.8-44.5,61-84.9,100-119.1H0
					v1080h237.7C199.2,1045.4,169,1007.5,146.8,972.9z"/>
				<path class="st4" d="M1920,0h-245.3c32.9,30,59.6,62.2,80.7,91.5c62.8,87.3,137.8,257.9,137.8,472.1
					c0,194.2-94,364.1-140.1,426.6c-24.1,32.7-46,63.1-71.3,89.8H1920V0z"/>
			</g>
		</g>
	</g>
	<g id="_x32_3" class="st0">
		<g id="圖層_16" class="st3">
			<g>
				<path class="st4" d="M0,774.2V1080h156c-22.6-25.2-41.6-50.9-57-75C61.3,946,24.3,868.5,0,774.2z"/>
				<path class="st4" d="M1920,334V0h-168.2c19.3,21.1,36,42.5,50.3,62.5C1844,121.2,1890.9,215.3,1920,334z"/>
				<path class="st4" d="M162.9,0H0v325.4c20-81.1,50.8-162,93.4-233.5C113.1,59,136.6,28.1,162.9,0z"/>
				<path class="st4" d="M1920,764.4c-33.1,119.7-87.9,214.7-120.3,259.1c-14.4,19.7-28.1,38.7-42.1,56.6H1920V764.4z"/>
			</g>
		</g>
	</g>
	<g id="_x32_4" class="st0">
		<g id="圖層_17" class="st3">
			<g>
				<path class="st4" d="M102.2,0H0v182.9c16.2-41.1,35.3-81,57.5-118.4C70.8,42,85.8,20.4,102.2,0z"/>
				<path class="st4" d="M1920,191.6V0h-108.1c9.1,11.4,17.5,22.7,25.2,33.5C1864.6,72.4,1894.3,126,1920,191.6z"/>
				<path class="st4" d="M0,898.6V1080h106.1c-16.4-20.1-30.7-40.1-42.8-59.3C41.2,986,19.4,945.2,0,898.6z"/>
				<path class="st4" d="M1920,883.3c-29.8,70.6-62.8,125.6-85.5,156.8c-9.9,13.7-19.6,27-29.2,39.9H1920V883.3L1920,883.3z"/>
			</g>
		</g>
	</g>
	<g id="_x32_5" class="st0">
		<g id="圖層_18" class="st3">
			<g>
				<path class="st4" d="M1920,78.9V0h-49.4c2.3,3.2,4.6,6.3,6.8,9.4C1891.3,29.1,1905.7,52.4,1920,78.9z"/>
				<path class="st4" d="M43.3,0H0v70.2c5.2-9.6,10.5-19.1,16-28.4C24.5,27.5,33.6,13.5,43.3,0z"/>
				<path class="st4" d="M1920,989.5c-16.8,30.5-32.6,55.2-45.3,72.7c-4.4,6-8.7,12-12.9,17.8h58.3L1920,989.5L1920,989.5z"/>
				<path class="st4" d="M0,1005v75h48.2c-9.6-12.9-18.3-25.7-26.1-38C14.7,1030.3,7.3,1018,0,1005z"/>
			</g>
		</g>
	</g>
	<g id="_x32_6" class="st0">
		<g id="圖層_19" class="st3">
		</g>
	</g>
</g>
</svg>
