<?xml version="1.0" encoding="utf-8"?>
<!-- Generator: Adobe Illustrator 23.0.2, SVG Export Plug-In . SVG Version: 6.00 Build 0)  -->
<svg version="1.1" xmlns="http://www.w3.org/2000/svg" xmlns:xlink="http://www.w3.org/1999/xlink" x="0px" y="0px"
	 viewBox="0 0 1080 1920" style="enable-background:new 0 0 1080 1920;" xml:space="preserve">
<style type="text/css">
	.st0{display:none;}
	.st1{display:inline;fill:#FF0000;}
	.st2{display:none;fill:#FFFFFF;}
	.st3{display:inline;fill:#FFFFFF;}
	.st4{display:inline;}
	.st5{fill:#FFFFFF;}
</style>
<g id="圖層_2" class="st0">
	<rect class="st1" width="1080" height="1920"/>
</g>
<g id="圖層_1">
	<path id="_x31_" class="st2" d="M0,0v1920h1080V0H0z M479.5,1317.6c0,3-17.2,38.1-49.8,38.1c-32.6,0-70.6-0.1-78.3-0.1
		c-7.7,0-21.5-8.6-34.7-34c-5.3-12.4-9.1-27.8-6.3-32.5c7.8-12.9,15.6-28.4,41.5-40.2c25.9-11.8,66.2-24.6,73.6-24.5
		c11,0.5,43.3,7.1,54,43.9C479.5,1288.6,479.5,1314.5,479.5,1317.6z M763.1,1321.5c-13.4,25.4-27.5,34-35.3,34s-46.5,0.1-79.8,0.1
		c-33.3,0-50.7-35.1-50.7-38.1c0-3,0-29,0-49.3c11-36.8,43.9-43.5,55-43.9c7.5-0.1,48.6,12.7,74.9,24.5
		c26.4,11.8,34.3,27.3,42.2,40.2C772.4,1293.7,768.5,1309.1,763.1,1321.5z"/>
	<path id="_x32_" class="st2" d="M0,0v1920h1080V0H0z M480.5,1318.9c0,3.2-17.5,40-50.8,40c-33.3,0-72-0.1-79.8-0.1
		s-21.9-9-35.4-35.7c-5.4-13-7-28.4-6.4-34.1c1.6-17.1,12.2-32.9,39.2-45.3c27.1-12.4,70.4-22.7,77.9-22.5
		c11.2,0.5,44.3,7.5,55.3,46.1C480.5,1288.5,480.5,1315.8,480.5,1318.9z M765.5,1323.1c-13.5,26.7-27.6,35.7-35.5,35.7
		s-46.7,0.1-80.1,0.1c-33.4,0-50.9-36.8-50.9-40c0-3.2,0-30.4,0-51.7c11-38.6,44.2-45.6,55.4-46.1c7.6-0.1,51,10.1,78.1,22.5
		c27,12.4,37.7,28.2,39.3,45.3C772.4,1294.7,770.9,1310.1,765.5,1323.1z"/>
	<path id="_x33_" class="st2" d="M0,0v1920h1080V0H0z M480.4,1320c0,3.2-17.5,40.7-50.8,40.7c-33.3,0-72-0.2-79.9-0.2
		c-7.8,0-22-9.2-35.4-36.3c-5.4-13.2-7.9-29-7.4-34.8c1.6-17.2,5-41.1,47.5-55.4c46.4-15.7,58.1-14.8,65.6-14.6
		c11.2,0.5,49.3,8.7,60.3,48C480.4,1289.1,480.4,1316.8,480.4,1320z M765.6,1324.2c-13.5,27.1-27.6,36.3-35.5,36.3
		c-7.8,0-46.7,0.2-80.1,0.2s-50.9-37.4-50.9-40.7s0-31,0-52.6c11-39.3,49.3-47.5,60.5-48c7.6-0.2,19.2-1,65.8,14.6
		c42.6,14.3,46,38.3,47.6,55.4C773.5,1295.2,771,1311,765.6,1324.2z"/>
	<path id="_x34_" class="st2" d="M0,0v1920h1080V0H0z M480.7,1320.6c0,3.3-17.8,41.5-51.6,41.5s-73.1-0.2-81-0.2
		c-7.9,0-22.3-9.4-35.9-37c-5.5-13.5-8-29.6-7.5-35.5c1.6-17.5,4.9-42,48-56.7c46.7-16,59.3-14.8,66.9-14.7
		c11.4,0.5,49.9,8.8,61.1,48.9C480.7,1289,480.7,1317.3,480.7,1320.6z M767.8,1324.9c-13.6,27.7-27.9,37-35.8,37s-47.2,0.2-80.9,0.2
		c-33.7,0-51.5-38.2-51.5-41.5s0-31.6,0-53.7c11.1-40.1,49.6-48.4,61-48.9c7.6-0.2,20.2-1.3,66.8,14.7c43,14.8,46.3,39.2,47.9,56.7
		C775.8,1295.3,773.2,1311.4,767.8,1324.9z"/>
	<path id="_x35_" class="st2" d="M0,0v1920h1080V0H0z M480.8,1320.9c0,3.4-17.9,42.4-51.9,42.4c-34,0-73.6-0.2-81.5-0.2
		s-22.4-9.6-36.1-37.8c-5.5-13.8-8.1-30.2-7.5-36.3c1.6-17.9,0-44,42.2-62.1c35.9-15.4,69.4-8.8,77.1-8.7
		c11.4,0.5,46.6,6.8,57.8,47.8C480.8,1288.6,480.8,1317.5,480.8,1320.9z M768.8,1325.3c-13.6,28.3-28,37.8-35.9,37.8
		c-7.9,0-47.3,0.2-81,0.2c-33.8,0-51.6-39-51.6-42.4s0-32.3,0-54.8c11.1-41,46.1-47.3,57.4-47.8c7.6-0.2,40.9-6.8,76.6,8.7
		c41.9,18.1,40.3,44.2,41.9,62.1C776.8,1295.1,774.3,1311.5,768.8,1325.3z"/>
	<path id="_x36_" class="st2" d="M0,0v1920h1080V0H0z M480.1,1321.5c0,3.5-17.9,43.6-51.9,43.6c-34,0-73.6-0.2-81.5-0.2
		c-8,0-22.4-9.8-36.1-38.9c-5.5-14.2-8.1-31.1-7.5-37.3c1.6-18.5-2.2-47.5,39.4-66.6c23.4-10.6,72.1-6.3,79.9-6.2
		c11.4,0.6,46.6,7,57.8,49.2C480.1,1288.3,480.1,1318,480.1,1321.5z M769.4,1326c-13.7,29.1-28.2,38.9-36.2,38.9
		c-8,0-47.6,0.2-81.7,0.2c-34,0-51.9-40.1-51.9-43.6c0-3.5,0-33.2,0-56.4c11.2-42.1,46.4-48.6,57.9-49.2c7.8-0.2,56.6-4.4,80,6.2
		c41.6,19.2,37.9,48.2,39.4,66.6C777.5,1294.9,774.9,1311.8,769.4,1326z"/>
	<path id="_x37_" class="st2" d="M0,0v1920h1080V0H0z M479.6,1321.3c0,3.5-17.9,43.6-51.9,43.6c-34,0-73.6-0.2-81.5-0.2
		c-8,0-22.4-9.8-36.1-38.9c-5.5-14.2-7.5-31.1-7.5-37.3c-0.1-20.5,7.6-68.6,47-71.4c38.6-2.7,62.6-2,72.3-1.4
		c11.4,0.6,46.6,7,57.8,49.2C479.6,1288.1,479.6,1317.8,479.6,1321.3z M777.5,1288.5c0,6.2-2,23.1-7.6,37.3
		c-13.8,29.1-28.2,38.9-36.3,38.9c-8,0-47.7,0.2-81.9,0.2c-34.1,0-52.1-40.1-52.1-43.6s0-33.2,0-56.4c11.3-42.1,46.5-48.6,58-49.2
		c9.8-0.6,33.9-1.3,72.6,1.4C769.8,1219.9,777.6,1268,777.5,1288.5z"/>
	<g id="_x38_" class="st0">
		<path class="st3" d="M0,0v1920h1080V0H0z M483.8,1326c0,4.3-3.7,12.1-9.9,20c-9.3,12-24.1,24-39.7,24c-17.8,0-65.7,0-80.1,0
			c-19.5,0-35-22.5-42.4-43.6c-11.2-31.9-1.6-70.5-0.4-74.3c1.9-6.1,7.9-17.7,9.1-19.5c3-4.6,12.7-21.9,30.6-22.2
			c23.7-0.4,43.2-1,78.5,0.4c15.4,0.6,31.8,10.6,42.5,23.4c6.5,7.8,10.9,16.6,11.8,24.9C483.8,1262.9,483.8,1322.1,483.8,1326z
			 M779.4,1326.5c-7.4,21.2-22.9,43.6-42.4,43.6c-14.5,0-62.3,0-80.1,0c-15.7,0-30.4-12.1-39.7-24c-6.1-7.9-9.9-15.8-9.9-20
			c0-3.9,0-63.1,0-66.8c0.9-8.4,5.3-17.2,11.8-24.9c10.7-12.8,27.1-22.8,42.5-23.4c35.3-1.4,54.8-0.8,78.5-0.4
			c18,0.3,27.6,17.6,30.6,22.2c1.2,1.8,7.1,13.4,9.1,19.5C781,1256,790.6,1294.5,779.4,1326.5z"/>
	</g>
	<g id="_x39_" class="st0">
		<path class="st3" d="M0,0v1920h1080V0H0z M497.2,1353.6c-11.7,15-34.1,17.9-72.9,17.9c-17.8,0-61.9,0-76.4,0
			c-19.4,0-32.4-20.8-40.2-42.1c-11.6-31.3-6.8-58.1-5.1-65.8c1.5-7,8.9-25.8,9.8-27.9c3-6.9,13.1-28.7,38.5-28.7
			c23.6,0,32,0,67.3,0c46.4,0,69.8,5.8,80.9,21.3c6.7,9.4,8.9,22.3,8.9,39.6c0,3.7,0,33.5,0,37.5
			C508,1328.5,505,1343.7,497.2,1353.6z M783.2,1329.4c-7.9,21.3-20.8,42.1-40.3,42.1c-14.4,0-58.6,0-76.4,0
			c-38.9,0-61.3-2.9-73-17.9c-7.7-9.9-10.8-25.1-10.8-48.2c0-3.9,0-33.7,0-37.5c0-17.3,2.2-30.2,8.9-39.6
			c11.1-15.4,34.5-21.3,81-21.3c35.3,0,43.7,0,67.4,0c25.4,0,35.5,21.8,38.5,28.7c0.9,2,8.3,20.9,9.8,27.9
			C790,1271.3,794.8,1298.1,783.2,1329.4z"/>
	</g>
	<g id="_x31_0" class="st0">
		<path class="st3" d="M0,0v1920h1080V0H0z M528.2,1306.2c0,25.8-6.6,44.3-16.8,54.4c-13.5,13.4-35.5,13.9-77.5,13.9
			c-20,0-69.8,0-86.1,0c-31.3,0-37.4-21.5-46.2-43.5c-13.1-32.4-6.4-60-4.9-68.1c2.2-11,9.6-30,10.5-32.2c3.4-7.2,11.9-26.4,41-26.4
			c26.6,0,38.9,0,78.7,0c44.4,0,68,2.7,82.2,12.9c10.5,7.5,19,29.5,19,50C528.2,1271.3,528.2,1302.1,528.2,1306.2z M789.6,1331
			c-8.9,22-14.9,43.5-46.2,43.5c-16.2,0-66,0-86,0c-42,0-63.9-0.5-77.4-13.9c-10.2-10.1-16.8-28.6-16.8-54.4c0-4.1,0-34.9,0-38.8
			c0-20.5,8.6-42.5,19-50c14.2-10.2,37.8-12.9,82.1-12.9c39.8,0,52.1,0,78.7,0c29.1,0,37.6,19.2,41,26.4c1,2.1,8.4,21.2,10.5,32.2
			C796.1,1271,802.7,1298.6,789.6,1331z"/>
	</g>
	<g id="_x31_1" class="st0">
		<path class="st3" d="M0,0v1920h1080V0H0z M799.7,1333.2c-8.9,23.5-13.7,44.9-49.1,44.9c-18.4,0-78.2-0.1-100.8-0.1
			c-47.4,0-72.2-0.6-87.5-14.5c-7.8-7.1-13.7-18.1-16.7-32.6c-3,14.6-9,25.6-16.8,32.6c-15.3,13.9-40.3,14.5-87.9,14.5
			c-22.7,0-82.8,0.1-101.2,0.1c-35.5,0-40.4-21.5-49.3-44.9c-13-34.3-7.3-62.7-5.6-71c2.4-11.4,9.2-30,10.7-33.3
			c3.5-8.1,11-26.7,48.2-27.1c29-0.3,44.5,0.1,89.7,0.1c54.3,0,75.9,1.7,92,12.3c8.7,5.7,16.5,19.1,20.2,34.8
			c3.7-15.6,11.4-29.1,20.1-34.8c16.1-10.6,37.6-12.3,91.6-12.3c44.9,0,60.4-0.4,89.2-0.1c37,0.4,44.5,19,48,27.1
			c1.4,3.3,8.2,21.9,10.6,33.3C807,1270.6,812.7,1298.9,799.7,1333.2z"/>
	</g>
	<g id="_x31_2" class="st0">
		<path class="st3" d="M0,0v1920h1080V0H0z M812.7,1341.1c-10.2,27.9-28.5,53.4-56.8,53.4c-21.2,0-90.5-0.1-116.6-0.2
			c-48.2,0-76.2-0.5-94.3-11.9c-18.1,11-45.9,11.5-93.5,11.5c-26.1,0-95.2,0.2-116.4,0.2c-28.3,0-46.5-25.5-56.7-53.4
			c-15-40.8-8.4-74.6-6.4-84.4c2.8-13.6,11.1-36.2,13.4-39.7c9.3-13.9,19.7-32.1,54.3-32.1c33.3,0,51.2,0.1,103.1,0.1
			c59.7,0,84.6,0.7,102.9,11.7c18.3-10.6,43.3-11.3,102.4-11.3c52,0,69.9-0.1,103.3-0.1c34.6,0,45.1,18.2,54.4,32.1
			c2.4,3.5,10.6,26.2,13.4,39.7C821.2,1266.6,827.7,1300.4,812.7,1341.1z"/>
	</g>
	<g id="_x31_3" class="st0">
		<path class="st3" d="M0,0v1920h1080V0H0z M868.7,1363.6c-14.6,40-47.5,75.5-86.8,75.5c-24.1,0-78.5-0.2-108.2-0.2
			c-50.3-0.1-99.4,0.9-127.9-4.1c-28.5,5-77.6,4-127.9,4.1c-29.7,0-84.1,0.2-108.2,0.2c-39.3,0-72.2-35.6-86.8-75.5
			c-21.2-58-13.2-103.8-10.9-118.1c3.2-19.5,13.1-47,20.7-59.5c12.4-20.5,33.3-48.9,72.6-48.9c37.9,0,43.7,0.2,102.7,0.2
			c60.2,0,113-1.4,137.8,4.5c24.8-5.9,77.6-4.5,137.8-4.5c59,0,64.8-0.2,102.7-0.2c39.3,0,60.2,28.4,72.6,48.9
			c7.6,12.5,17.5,40,20.7,59.5C882,1259.8,889.9,1305.6,868.7,1363.6z"/>
	</g>
	<g id="_x31_4" class="st0">
		<path class="st3" d="M0,0v1920h1080V0H0z M946.9,1401.3c-20.4,60.2-70,114.7-121.5,114.7c-31.4,0-93.9-0.2-132.6-0.3
			c-65.5-0.1-115.7,3.1-148.1-0.4c-32,3.5-81.5,0.3-146.2,0.4c-38.2,0-99.9,0.3-130.9,0.3c-50.8,0-99.8-54.5-119.9-114.7
			c-29.3-87.4-17.7-156.6-14.7-178.2c4.1-29.7,20.6-73.7,30.5-93c16-31.2,51.4-73.1,101.9-73.1c48.8,0,45-0.4,120.9-0.4
			c77.3,0,129-1.1,158.4,2.1c29.8-3.1,82.1-2.1,160.4-2.1c76.9,0,73.1,0.4,122.5,0.4c51.2,0,87,41.9,103.2,73.1
			c10,19.3,26.8,63.3,30.9,93C964.8,1244.7,976.6,1313.9,946.9,1401.3z"/>
	</g>
	<g id="_x31_5" class="st0">
		<g class="st4">
			<path class="st5" d="M1016.2,1552.5c-24.2,31.1-64.3,63.7-185.1,63.7s-595.9,0-640,0s-115.6-33.8-144.5-80.4
				c-16.4-26.4-34-70.8-46.5-118.4V1920h1080v-501.2C1061.7,1481.3,1032.4,1531.7,1016.2,1552.5z"/>
			<path class="st5" d="M204.9,986.7c47.6,0,621.9-1.1,684.3-1.1c70,0,125.7,48.5,152.8,97.1c13.8,24.7,27.7,59.6,38,100.4V0H0
				v1175.9c9.7-37.9,24.1-75.3,44.6-103.2C90.7,1009.9,131.2,986.7,204.9,986.7z"/>
			<path class="st5" d="M-16.8,1303.6c0,34.9,6.7,75.4,16.8,113.8V1176C-12.1,1223.4-16.8,1271.7-16.8,1303.6z"/>
			<path class="st5" d="M1096.3,1312.1c0-45.9-6.5-90.2-16.3-129v235.7C1089.7,1385.8,1096.3,1349.3,1096.3,1312.1z"/>
		</g>
	</g>
	<g id="_x31_6" class="st0">
		<g class="st4">
			<path class="st5" d="M1003.7,847.2c27.1,0,52.8,7.5,76.3,19.8V0H0v868.5c27.5-13,58.4-19.7,95.2-19.7
				C158.3,848.8,920.8,847.2,1003.7,847.2z"/>
			<path class="st5" d="M76.7,1754c-22.2,0-49.5-10.2-76.7-26.4V1920h1080v-193.8c-35.5,16.5-84.2,27.8-153.6,27.8
				C766,1754,135.3,1754,76.7,1754z"/>
			<path class="st5" d="M-120.4,986.1c-61.2,90.4-78.8,235.8-78.8,318.4c0,112.4,46.9,243.6,86.2,312.2
				c23.8,41.6,68.5,84.4,113,110.9V868.5C-45.8,890.2-82.2,929.7-120.4,986.1z"/>
			<path class="st5" d="M1207.9,1004.6c-25.5-49.5-70.7-107.8-127.9-137.6v859.3c46.6-21.6,70.5-52,88.7-77.4
				c32.8-45.7,109.9-177.4,109.9-332C1278.6,1181.4,1243.5,1073.9,1207.9,1004.6z"/>
		</g>
	</g>
	<g id="_x31_7" class="st0">
		<g class="st4">
			<path class="st5" d="M0,1892.4v27.6h1080v-29c-13.6,0.9-28,1.3-43.1,1.3C841.2,1892.4,135.4,1892.4,0,1892.4z"/>
			<path class="st5" d="M1080,0H0v706.8c124-0.1,904.1-2,1080-2.2V0z"/>
			<path class="st5" d="M-11,706.8c-125.7,0-208.2,66.1-286.9,184.2s-106.2,293-106.2,413.8c0,146.9,59.7,317,110.2,406.7
				c49.3,87.7,163.4,180.8,277.2,180.8c3.8,0,9.4,0,16.7,0V706.8C-4.6,706.8-8.3,706.8-11,706.8z"/>
			<path class="st5" d="M1389.7,906.1c-46.2-91.3-165-201.5-284.5-201.5c-6,0-14.5,0-25.3,0V1891c167.2-10.5,224.7-82.5,262.9-136.5
				c42.1-59.7,146.6-231.6,146.6-433.6C1489.5,1143.9,1435.6,996.7,1389.7,906.1z"/>
		</g>
	</g>
	<g id="_x31_8" class="st0">
		<g class="st4">
			<path class="st5" d="M1080,0H0v538.7c267.5-0.5,833.6-1.7,1080-2.2V0z"/>
			<path class="st5" d="M1577.3,775.8c-67.6-111.8-216.8-239.3-392-239.3c-18.5,0-55.4,0-105.3,0.1V1920H0V538.7
				c-69.8,0.1-119.2,0.2-137.4,0.2c-137,0-270.6,88.5-369.5,240.4s-141,373.6-141,528.9c0,188.9,71.1,406.1,143,515.8
				c72.6,110.9,212.6,239.6,421,239.6c94.5,0,987.8,0,1246.9,0c223.6,0,347.3-146.3,399.2-221.5c52.9-76.7,169.7-292.6,169.6-513.3
				C1731.8,1101.3,1645.1,887.9,1577.3,775.8z"/>
		</g>
	</g>
	<g id="_x31_9" class="st0">
		<g class="st4">
			<path class="st5" d="M1080,0H0v389.6c295.7-0.7,787.5-1.9,1080-2.5V0z"/>
			<path class="st5" d="M1775.3,657.5c-90.7-126.8-262.2-270.8-472.4-270.8c-33.5,0-114.5,0.1-223,0.4V1920H0V389.6
				c-121.1,0.3-209.4,0.5-237.5,0.5c-164.3,0-351.9,102.1-470.5,282.8c-118.7,180.8-178.6,444.9-178.6,629.7
				c0,224.8,86.2,470.2,172.4,600.9c87.1,132,253,298.1,516.3,298.1c113.4,0,1137,0,1447.8,0c268.3,0,445-166.3,507.2-255.9
				c63.5-91.4,211.3-355.8,211.3-618.6C1968.4,1030,1869.1,788.8,1775.3,657.5z"/>
		</g>
	</g>
	<g id="_x32_0">
		<rect class="st5" width="1080" height="256"/>
	</g>
	<g id="_x32_1" class="st0">
		<rect class="st3" width="1080" height="188.9"/>
	</g>
	<g id="_x32_2" class="st0">
		<rect class="st3" width="1080" height="128.8"/>
	</g>
	<g id="_x32_3" class="st0">
		<rect class="st3" width="1080" height="65.2"/>
	</g>
	<g id="_x32_4" class="st0">
		<g id="圖層_19" class="st4">
		</g>
	</g>
</g>
</svg>
