<svg xmlns="http://www.w3.org/2000/svg" xmlns:xlink="http://www.w3.org/1999/xlink" width="155" height="155" viewBox="0 0 155 155">
    <defs>
        <path id="9tx86ede3a" d="M0 155L155 155 155 0 0 0z"/>
    </defs>
    <g fill="none" fill-rule="evenodd">
        <g>
            <g transform="translate(-728 -1682) translate(728 1682)">
                <mask id="8t74t76y3b" fill="#fff">
                    <use xlink:href="#9tx86ede3a"/>
                </mask>
                <path fill="#D8D9D6" d="M36.192 71.765c-1.412 0-2.557-1.145-2.557-2.557V36.193c0-1.412 1.144-2.56 2.556-2.56 1.412 0 2.557 1.143 2.559 2.557v33.018c0 1.412-1.146 2.557-2.558 2.557" mask="url(#8t74t76y3b)"/>
                <path fill="#D8D9D6" d="M49.367 52.08c-.682.005-1.337-.268-1.813-.76L36.192 39.836 24.831 51.321c-.94 1.055-2.556 1.15-3.61.21-1.056-.937-1.15-2.554-.212-3.61.062-.07.127-.135.195-.197l13.175-13.33c1.017-.964 2.61-.964 3.627 0l13.175 13.33c1.001.985 1.017 2.594.032 3.595-.486.496-1.153.77-1.846.761M115.397 71.765c-1.412 0-2.557-1.145-2.557-2.557V36.193c0-1.412 1.145-2.558 2.557-2.558 1.413 0 2.558 1.146 2.558 2.558v33.015c0 1.412-1.145 2.557-2.558 2.557" mask="url(#8t74t76y3b)"/>
                <path fill="#D8D9D6" d="M115.397 71.765c-.681.003-1.337-.27-1.813-.76l-13.175-13.33c-.938-1.055-.845-2.671.212-3.61.975-.867 2.448-.86 3.415.015l11.361 11.5 11.362-11.5c1.048-.947 2.664-.867 3.611.181.878.967.882 2.438.016 3.415l-13.175 13.33c-.476.488-1.132.762-1.814.76M137.005 99.045H18.212c-1.412 0-2.556-1.146-2.556-2.558.001-1.413 1.145-2.556 2.556-2.557h118.793c1.412-.002 2.558 1.142 2.558 2.557.001 1.412-1.143 2.558-2.555 2.558h-.003z" mask="url(#8t74t76y3b)"/>
                <path fill="#D8D9D6" d="M126.712 85.189c-.855.11-1.64-.493-1.751-1.349-.11-.857.493-1.641 1.348-1.751l8.587-2.28c.826-.225 1.677.262 1.904 1.088l.003.012c.217.826-.276 1.673-1.1 1.893l-8.588 2.278-.403.109zm-15.5 4.092c-.855.111-1.64-.493-1.751-1.349-.11-.855.491-1.64 1.348-1.751l8.587-2.279c.826-.226 1.677.262 1.904 1.087.001.004.003.009.003.014.215.827-.282 1.674-1.11 1.89h-.006l-8.572 2.278-.403.11zm-15.5 4.107c-.855.11-1.64-.493-1.751-1.348-.11-.858.493-1.642 1.348-1.752l8.587-2.28c.83-.217 1.68.28 1.899 1.108.218.831-.278 1.682-1.108 1.9l-8.572 2.264c-.198.088-.418.127-.634.108h.231zm-15.5 4.092c-.855.11-1.64-.493-1.751-1.348-.112-.856.493-1.642 1.348-1.752l8.463-2.233c.826-.224 1.679.262 1.904 1.088l.004.012c.223.826-.262 1.679-1.088 1.905-.005 0-.01.002-.014.003l-8.585 2.263c-.15.05-.31.07-.467.062h.186zm-15.5 4.09c-.855.114-1.64-.49-1.751-1.348-.112-.856.493-1.638 1.348-1.751l8.463-2.23c.851-.095 1.617.52 1.71 1.37.074.674-.3 1.317-.92 1.59l-8.54 2.325-.31.045zm-15.5 4.094c-.855.11-1.64-.493-1.751-1.348-.112-.858.493-1.642 1.348-1.752l8.463-2.218c.814-.268 1.69.174 1.96.986.268.812-.173 1.69-.985 1.96-.06.018-.122.033-.184.047l-8.54 2.279-.31.046zm-15.5 4.092c-.72.023-1.362-.45-1.55-1.148-.225-.825.262-1.678 1.088-1.902l.013-.003 8.587-2.263c.812-.27 1.69.17 1.959.984.268.812-.172 1.69-.986 1.958-.059.02-.12.037-.183.05l-8.618 2.276-.31.048zm-15.5 4.09c-.855.114-1.64-.49-1.751-1.346-.112-.858.493-1.64 1.348-1.753l8.587-2.246c.826-.225 1.679.262 1.904 1.086.001.005.001.01.003.014.272.81-.165 1.69-.975 1.964-.042.012-.082.025-.126.036l-8.587 2.278-.403-.032z" mask="url(#8t74t76y3b)"/>
                <path fill="#D8D9D6" d="M77.887 104.315c-7.319 0-13.252 5.934-13.252 13.253 0 7.317 5.933 13.252 13.252 13.252 7.32 0 13.253-5.935 13.253-13.252-.017-7.313-5.94-13.236-13.253-13.253m0 31.619c-10.143 0-18.367-8.221-18.367-18.366S67.744 99.2 77.887 99.2c10.145 0 18.37 8.223 18.37 18.368-.01 10.14-8.228 18.36-18.37 18.366" mask="url(#8t74t76y3b)"/>
            </g>
        </g>
    </g>
</svg>
