<svg xmlns="http://www.w3.org/2000/svg" width="155" height="155" viewBox="0 0 155 155">
    <g fill="none" fill-rule="evenodd">
        <g>
            <g>
                <g fill="#D8D9D6">
                    <path d="M93.2 97.382c-1.125 0-2.089-.806-2.289-1.913l-6.717-37.277-2.918 17.637c-.15.908-.824 1.643-1.717 1.872-.888.225-1.834-.093-2.405-.816l-5.557-7.076c-.794-1.01-.619-2.472.39-3.266 1.013-.792 2.473-.617 3.266.392l2.297 2.927 4.253-25.702c.186-1.116 1.147-1.938 2.277-1.945h.017c1.126 0 2.09.806 2.29 1.914l6.74 37.415 9.187-54.305c.188-1.12 1.157-1.938 2.29-1.938h.001c1.135 0 2.102.817 2.293 1.935l8.504 49.906 4.261-18.302c.292-1.251 1.54-2.03 2.792-1.738 1.25.29 2.029 1.54 1.737 2.79l-6.877 29.546c-.25 1.077-1.172 1.863-2.334 1.796-1.107-.032-2.037-.841-2.223-1.932l-8.143-47.786-9.122 53.928c-.19 1.115-1.15 1.931-2.28 1.938H93.2zM40.303 97.382l-.123-.003c-1.122-.06-2.041-.912-2.184-2.026l-6.593-51.16L25.07 77.85c-.192 1.022-1.037 1.79-2.07 1.885-1.022.107-2.005-.5-2.381-1.47L14.46 62.458 8.49 78.229c-.375.988-1.384 1.6-2.424 1.487-1.054-.114-1.895-.925-2.05-1.973l-3.99-27.03c-.186-1.27.69-2.452 1.96-2.64 1.265-.19 2.453.69 2.64 1.961L7.31 68.217l4.947-13.066c.341-.9 1.202-1.498 2.164-1.502h.011c.958 0 1.817.587 2.165 1.482l5.405 13.875 7.545-40.103c.211-1.123 1.222-1.96 2.352-1.892 1.144.03 2.094.891 2.238 2.026l6.843 53.09 5.594-23.582c.242-1.018 1.136-1.751 2.184-1.785 1.017-.087 1.989.634 2.299 1.635l2.359 7.598.544-1.234c.519-1.175 1.892-1.703 3.064-1.19 1.175.517 1.71 1.89 1.192 3.064l-3.049 6.922c-.392.888-1.319 1.419-2.26 1.384-.968-.055-1.8-.706-2.09-1.632l-1.68-5.415-6.573 27.703c-.25 1.05-1.192 1.787-2.261 1.787" transform="translate(-1037 -1682) translate(1037 1682) translate(15.448 15.714)"/>
                    <path d="M21.03 44.54c0 1.822-1.476 3.299-3.299 3.299s-3.3-1.477-3.3-3.298c0-1.823 1.477-3.3 3.3-3.3 1.823 0 3.3 1.477 3.3 3.3" transform="translate(-1037 -1682) translate(1037 1682) translate(15.448 15.714)"/>
                    <path d="M17.731 41.372c-1.747 0-3.168 1.421-3.168 3.168s1.421 3.168 3.168 3.168c1.745 0 3.167-1.421 3.167-3.168s-1.422-3.168-3.167-3.168m0 6.6c-1.892 0-3.432-1.54-3.432-3.432s1.54-3.432 3.432-3.432c1.893 0 3.43 1.54 3.43 3.432 0 1.893-1.537 3.432-3.43 3.432M45.508 34.528c-1.046 1.49-3.103 1.854-4.595.807-1.492-1.046-1.853-3.103-.806-4.595 1.044-1.493 3.103-1.854 4.594-.808 1.492 1.045 1.855 3.103.807 4.596" transform="translate(-1037 -1682) translate(1037 1682) translate(15.448 15.714)"/>
                    <path d="M42.814 29.465c-.185 0-.37.016-.555.048-.834.148-1.56.61-2.047 1.302-.486.692-.672 1.533-.526 2.366.147.835.61 1.56 1.302 2.047.693.484 1.525.674 2.368.526.833-.148 1.558-.61 2.045-1.302 1.001-1.431.654-3.409-.775-4.413-.54-.377-1.167-.574-1.812-.574m-.016 6.602c-.697 0-1.376-.214-1.96-.625-.752-.524-1.253-1.311-1.412-2.215-.158-.902.045-1.813.572-2.564.524-.75 1.31-1.25 2.215-1.41.895-.157 1.811.043 2.565.57 1.548 1.087 1.925 3.23.838 4.779-.525.752-1.313 1.252-2.215 1.412-.201.034-.403.053-.603.053M50.522 49.734c-1.047 1.491-3.104 1.854-4.596.808-1.493-1.047-1.854-3.103-.808-4.596 1.045-1.493 3.105-1.854 4.596-.808 1.491 1.047 1.854 3.103.808 4.596" transform="translate(-1037 -1682) translate(1037 1682) translate(15.448 15.714)"/>
                    <path d="M47.826 44.672c-.183 0-.37.015-.555.048-.834.147-1.56.609-2.046 1.302-1.002 1.429-.656 3.408.775 4.412.693.484 1.525.678 2.368.526.832-.147 1.558-.61 2.045-1.302.485-.691.674-1.531.527-2.367-.148-.832-.61-1.56-1.302-2.046-.54-.377-1.168-.573-1.812-.573m-.013 6.598c-.679 0-1.367-.202-1.964-.622-1.548-1.086-1.926-3.23-.838-4.778.524-.75 1.311-1.251 2.213-1.41.904-.159 1.814.043 2.565.57.75.525 1.251 1.314 1.411 2.216.157.904-.047 1.814-.572 2.562-.666.954-1.733 1.462-2.815 1.462M56.128 84.99c-1.046 1.492-3.103 1.853-4.596.807-1.492-1.045-1.853-3.103-.806-4.594 1.045-1.493 3.104-1.856 4.595-.81 1.49 1.047 1.853 3.105.807 4.596" transform="translate(-1037 -1682) translate(1037 1682) translate(15.448 15.714)"/>
                    <path d="M53.434 79.928c-.185 0-.37.015-.555.048-.834.147-1.56.609-2.048 1.302-.485.691-.67 1.533-.525 2.365.147.835.61 1.56 1.302 2.048.694.483 1.534.67 2.367.525.834-.147 1.559-.61 2.046-1.302.485-.691.672-1.533.525-2.367-.147-.834-.609-1.56-1.302-2.046-.54-.376-1.165-.573-1.81-.573m-.016 6.601c-.697 0-1.378-.214-1.96-.625-.752-.523-1.253-1.31-1.412-2.214-.159-.903.044-1.814.571-2.564.524-.75 1.312-1.251 2.215-1.41.895-.157 1.812.043 2.564.57.75.525 1.25 1.313 1.41 2.216.159.902-.044 1.814-.57 2.562-.525.752-1.313 1.253-2.216 1.412-.2.035-.402.053-.602.053M26.94 87.2c1.29-1.29 3.38-1.29 4.667 0 1.288 1.287 1.288 3.377 0 4.665-1.288 1.29-3.377 1.29-4.667 0-1.288-1.288-1.288-3.378 0-4.666" transform="translate(-1037 -1682) translate(1037 1682) translate(15.448 15.714)"/>
                    <path d="M29.273 86.364c-.846 0-1.642.33-2.238.93-1.236 1.234-1.236 3.242 0 4.476.596.6 1.392.93 2.238.93.846 0 1.643-.33 2.24-.93 1.235-1.234 1.235-3.242 0-4.476-.597-.6-1.394-.93-2.24-.93m0 6.6c-.916 0-1.778-.358-2.426-1.006-1.338-1.338-1.338-3.514 0-4.852.648-.648 1.51-1.006 2.426-1.006.917 0 1.778.358 2.427 1.006 1.338 1.338 1.338 3.514 0 4.852-.65.648-1.51 1.006-2.427 1.006M12.74 80.763c1.287-1.29 3.377-1.29 4.666 0 1.288 1.288 1.288 3.378 0 4.666-1.29 1.29-3.379 1.29-4.667 0-1.288-1.288-1.288-3.378 0-4.666" transform="translate(-1037 -1682) translate(1037 1682) translate(15.448 15.714)"/>
                    <path d="M15.072 79.928c-.847 0-1.643.33-2.24.93-1.235 1.234-1.235 3.242 0 4.476.597.6 1.393.93 2.24.93.846 0 1.641-.33 2.238-.93 1.235-1.234 1.235-3.242 0-4.476-.597-.6-1.392-.93-2.238-.93m0 6.6c-.918 0-1.778-.358-2.428-1.006-1.337-1.338-1.337-3.514 0-4.852.65-.648 1.51-1.006 2.428-1.006.916 0 1.778.358 2.425 1.006 1.338 1.338 1.338 3.514 0 4.852-.647.648-1.51 1.006-2.425 1.006M64.756 123.571c-1.412 0-2.557-1.145-2.557-2.558V2.56C62.199 1.147 63.344 0 64.756 0s2.557 1.147 2.557 2.559v118.454c0 1.413-1.145 2.558-2.557 2.558" transform="translate(-1037 -1682) translate(1037 1682) translate(15.448 15.714)"/>
                </g>
            </g>
        </g>
    </g>
</svg>
