<svg id="Layer_1" data-name="Layer 1" xmlns="http://www.w3.org/2000/svg" viewBox="0 0 1259.87 181.34"><defs><style>.cls-1{fill:#fff;}</style></defs><path class="cls-1" d="M568.08,39.19a5.36,5.36,0,0,0-4.65-2.69H559a3.06,3.06,0,0,0-2.78,1.71l-38.85,77.37a2.2,2.2,0,0,1-3,1,2.16,2.16,0,0,1-1-1L474.51,38.21a3.06,3.06,0,0,0-2.76-1.71h-4.48a5.37,5.37,0,0,0-4.66,2.69l-4.94,8.54a5.06,5.06,0,0,0-.11,4.82l46.26,91a4.44,4.44,0,0,0,3.91,2.38H523a4.41,4.41,0,0,0,3.91-2.38l46.29-91a5,5,0,0,0-.13-4.8Z"/><path class="cls-1" d="M338.87,39.17a5.34,5.34,0,0,0-4.62-2.67h-4.48A3.06,3.06,0,0,0,327,38.21l-38.87,77.37a2.2,2.2,0,0,1-2.95,1,2.16,2.16,0,0,1-1-1l-38.9-77.37a3,3,0,0,0-2.75-1.71H238a5.36,5.36,0,0,0-4.63,2.67l-5,8.56a5.06,5.06,0,0,0-.11,4.82l46.26,91a4.42,4.42,0,0,0,3.91,2.38h15.26a4.42,4.42,0,0,0,3.91-2.38l46.28-91a5,5,0,0,0-.12-4.8Z"/><path class="cls-1" d="M407.11,36.5h-6.93a5.33,5.33,0,0,0-4.63,2.68l-4.93,8.56a5,5,0,0,0-.68,2.52v91.28a4.43,4.43,0,0,0,4.43,4.43h12.78a4.4,4.4,0,0,0,4.4-4.4V41a4.44,4.44,0,0,0-4.43-4.45Z"/><path class="cls-1" d="M642.47,55.92h60.42a3,3,0,0,0,3-3h0v-2a7.58,7.58,0,0,0-1-3.78l-4.66-8a5.26,5.26,0,0,0-4.54-2.61H629.41a5.36,5.36,0,0,0-4.63,2.67l-4.61,8a7.58,7.58,0,0,0-1,3.78v80.65a7.58,7.58,0,0,0,1,3.8l4.61,8a5.36,5.36,0,0,0,4.63,2.67h66.28a5.3,5.3,0,0,0,4.54-2.61l4.66-8a7.51,7.51,0,0,0,1-3.79v-2a3,3,0,0,0-3-3H642.46a2.22,2.22,0,0,1-2.2-2.21V102.82a2.19,2.19,0,0,1,2.2-2.2h40.88A3.65,3.65,0,0,0,687,97V85a3.66,3.66,0,0,0-3.61-3.64h-41a2.22,2.22,0,0,1-2.2-2.21v-21a2.23,2.23,0,0,1,2.25-2.21Z"/><path class="cls-1" d="M836.09,45.2c-8.27-8.2-19-8.53-21.07-8.51H763.36a5.33,5.33,0,0,0-4.63,2.68l-4.94,8.57a5,5,0,0,0-.67,2.51v91.28a4.44,4.44,0,0,0,4.44,4.44h12.78a4.4,4.4,0,0,0,4.4-4.4v-40.6h40.37c14.76,0,29.65-10.15,29.65-32.82C844.75,56.34,840,49.12,836.09,45.2Zm-21,36.5H774.72V56.14h40.39c6.94,0,10.18,4.68,10.18,12.19.05,8.87-3.23,13.37-10.19,13.37Z"/><path class="cls-1" d="M939.42,146.06A54.75,54.75,0,1,1,994.16,91.3v0A54.81,54.81,0,0,1,939.42,146.06Zm0-90a35.3,35.3,0,1,0,35.29,35.31v0A35.34,35.34,0,0,0,939.42,56Z"/><path class="cls-1" d="M1128.45,130.1l-16.11-31.76c9.41-4.42,16.67-14.14,16.67-30,0-12-4.71-19.21-8.66-23.13-8.27-8.2-19-8.53-21.07-8.51h-51.66a5.33,5.33,0,0,0-4.63,2.68L1038.06,48a5,5,0,0,0-.68,2.51v91.28a4.44,4.44,0,0,0,4.44,4.44h12.77a4.4,4.4,0,0,0,4.4-4.4v-40.6h30.8l21.76,43.28a3,3,0,0,0,2.76,1.71h4.5a5.33,5.33,0,0,0,4.62-2.66l5-8.57A5,5,0,0,0,1128.45,130.1Zm-69.51-74h40.4c6.94,0,10.19,4.68,10.19,12.19,0,8.87-3.25,13.37-10.21,13.37h-40.38Z"/><path class="cls-1" d="M1258.84,47.23l-4.67-8a5.24,5.24,0,0,0-4.54-2.61h-66.29a5.24,5.24,0,0,0-4.54,2.61l-4.66,8a7.48,7.48,0,0,0-1,3.78v2a3,3,0,0,0,3,3h29.58v85.71a4.43,4.43,0,0,0,4.43,4.43h12.78a4.4,4.4,0,0,0,4.4-4.4V56h29.54a3,3,0,0,0,3-3V51A7.61,7.61,0,0,0,1258.84,47.23Z"/><path class="cls-1" d="M182.1,115.22h0A192.13,192.13,0,0,0,124,12.78a47.38,47.38,0,0,0-64.74,0A192.15,192.15,0,0,0,1.09,115.23c-5,23.94,4.23,66.11,92.5,66.11S187.1,139.14,182.1,115.22Zm-32.36,44.7c-13.82,5.45-31.27,9.48-55,9.74-24.07.26-39.22-1.65-57-7.29-20.86-6.61-33.67-22.89-28.57-46.45,7.94-36.69,45.36-103,82.53-103s76.08,65,84.25,104.13C180.45,138.56,168.26,152.6,149.74,159.92Z"/><path class="cls-1" d="M45.54,131.51c-18.91-28.11-5.44-64.67-3.13-76-16.35,26.24-33.75,68.34-22.5,84.63,19.36,28,98,22.49,98,22.49S64.45,159.62,45.54,131.51Z"/><path class="cls-1" d="M127.86,55.08c-6.26-10.66-18.77-14.93-27.94-9.55s-11.54,18.4-5.29,29.05,18.77,14.93,28,9.54S134.12,65.73,127.86,55.08Zm-10.6,24.7c-6.41,3.76-15.11.86-19.42-6.49s-2.61-16.36,3.8-20.12,15.11-.86,19.43,6.48S123.68,76,117.26,79.78Z"/></svg>