<svg xmlns="http://www.w3.org/2000/svg" width="260" height="37" viewBox="0 0 260 37">
    <g fill="none" fill-rule="evenodd">
        <g fill-rule="nonzero">
            <g>
                <path fill="#000" d="M115.454 7.954c-.194-.338-.554-.546-.944-.545h-.907c-.24-.005-.46.131-.564.348l-7.9 15.696c-.076.152-.231.248-.401.248s-.326-.096-.402-.248L96.432 7.757c-.102-.215-.32-.35-.558-.348h-.912c-.39 0-.75.208-.945.545L93.01 9.688c-.174.3-.182.668-.022.976l9.4 18.474c.156.295.462.482.797.483h3.105c.336.001.643-.186.796-.483l9.408-18.474c.157-.307.147-.673-.027-.972l-1.014-1.738zM68.871 7.95c-.194-.336-.552-.542-.94-.541h-.91c-.24-.005-.461.131-.565.348l-7.898 15.696c-.076.152-.231.248-.401.248s-.326-.096-.402-.248L49.851 7.757c-.103-.215-.322-.351-.56-.348h-.916c-.385.003-.739.209-.931.54l-1.018 1.74c-.172.3-.181.666-.025.975l9.402 18.474c.157.298.467.484.804.483h3.101c.335 0 .643-.186.796-.483l9.406-18.474c.157-.307.147-.673-.027-.972L68.871 7.95zM82.738 7.407h-1.407c-.389 0-.748.208-.94.545L79.385 9.69c-.09.155-.136.331-.136.51v18.52c0 .498.404.901.902.901h2.596c.494 0 .894-.4.894-.892V8.309c0-.498-.405-.902-.904-.902zM130.573 11.349h12.279c.337 0 .61-.273.61-.61v-.406c.002-.27-.068-.535-.203-.769l-.947-1.626c-.19-.33-.543-.533-.924-.533h-13.47c-.388 0-.748.207-.943.543l-.932 1.608c-.134.234-.204.499-.204.768v16.364c-.001.27.069.537.204.772l.936 1.614c.196.336.555.543.943.543h13.468c.38 0 .732-.202.924-.53l.947-1.627c.135-.234.206-.5.204-.77v-.407c0-.337-.274-.61-.611-.61h-12.283c-.247 0-.448-.2-.448-.447v-4.36c.002-.247.201-.447.448-.448h8.316c.408-.001.738-.33.74-.738v-2.44c-.002-.404-.328-.733-.733-.737h-8.323c-.247.003-.451-.194-.456-.442v-4.269c.005-.248.21-.446.458-.443zM169.924 9.174c-1.682-1.663-3.87-1.72-4.276-1.726h-10.5c-.388 0-.747.207-.942.543l-1.002 1.738c-.089.155-.136.331-.136.51v18.52c0 .498.404.901.902.901h2.596c.494 0 .894-.4.894-.892v-8.234h8.204c3 0 6.027-2.06 6.027-6.658-.006-2.448-.965-3.913-1.767-4.702zm-4.276 7.406h-8.194v-5.194h8.208c1.411 0 2.069.949 2.069 2.474 0 1.807-.658 2.72-2.073 2.72h-.01zM190.924 29.638c-6.145 0-11.127-4.974-11.127-11.109 0-6.134 4.982-11.108 11.127-11.108 6.144 0 11.126 4.974 11.126 11.108-.007 6.133-4.985 11.102-11.126 11.109zm0-18.269c-2.902 0-5.518 1.746-6.628 4.422-1.11 2.677-.496 5.757 1.556 7.806 2.052 2.048 5.138 2.66 7.818 1.55 2.68-1.108 4.428-3.72 4.427-6.618-.005-3.952-3.214-7.155-7.173-7.16zM256.342 9.584l-.947-1.626c-.192-.328-.544-.53-.925-.53h-14.457c-.38 0-.731.202-.922.53l-.95 1.626c-.133.234-.203.5-.203.769v.406c0 .337.274.61.611.61h6.496v17.39c0 .498.404.901.902.901h2.596c.494 0 .894-.4.894-.892v-17.4h6.516c.337 0 .61-.274.61-.61v-.407c-.005-.27-.081-.535-.221-.767zM257.924 7.422v.266h.328V9.36h.15V7.688h.32v-.266h-.798zm1.763 0l-.311 1.51-.31-1.519h-.203v1.948h.15V7.859l.306 1.502h.126l.31-1.502v1.502h.148V7.42h-.216z" transform="translate(-18 -11446) translate(18 11446.202)"/>
                <path fill="#00B3E3" d="M37.01 23.38C35.35 15.388 31.218 8.118 25.2 2.593c-3.702-3.457-9.456-3.457-13.158 0C6.019 8.115 1.884 15.386.222 23.38c-1.019 4.857.86 13.418 18.798 13.418 17.937 0 19.004-8.563 17.99-13.418zm-6.577 9.07c-2.808 1.105-6.357 1.924-11.169 1.975-4.887.053-7.97-.335-11.592-1.48-4.24-1.34-6.842-4.643-5.807-9.423C3.48 16.076 11.083 2.624 18.637 2.624c7.555 0 15.466 13.194 17.125 21.128.912 4.365-1.566 7.213-5.329 8.7v-.003z" transform="translate(-18 -11446) translate(18 11446.202)"/>
                <path fill="#00B3E3" d="M9.256 26.688c-3.844-5.705-1.111-13.123-.637-15.414-3.325 5.324-6.858 13.867-4.571 17.172 3.934 5.693 19.91 4.564 19.91 4.564s-10.86-.618-14.702-6.322zM25.986 11.182c-1.273-2.163-3.814-3.029-5.679-1.937-1.865 1.092-2.346 3.732-1.073 5.896 1.273 2.163 3.814 3.029 5.677 1.935 1.863-1.094 2.346-3.737 1.075-5.894zm-2.162 5.008c-1.304.764-3.071.174-3.949-1.316-.877-1.49-.53-3.32.774-4.084 1.303-.764 3.07-.175 3.948 1.317.878 1.493.54 3.318-.773 4.083z" transform="translate(-18 -11446) translate(18 11446.202)"/>
                <path fill="#000" d="M224.953 20.357c2.417-.6 4.48-2.665 4.48-6.473 0-2.44-.957-3.9-1.761-4.694-1.68-1.663-3.857-1.73-4.277-1.726h-10.5c-.389 0-.747.207-.941.543l-1 1.734c-.09.155-.137.331-.136.51v18.52c-.001.24.094.468.262.637.17.17.399.264.638.264h2.596c.237 0 .465-.093.632-.26.168-.168.262-.395.262-.632v-8.246h4.944c1.004 1.986 4.339 8.587 4.396 8.697.204.372.389.42.768.407h3.616c.154.014.304-.054.394-.18.09-.126.106-.29.042-.43-.074-.128-3.59-7.049-4.415-8.67zm-9.741-8.945h8.21c1.411 0 2.069.95 2.069 2.474 0 1.8-.658 2.712-2.075 2.712h-8.204v-5.186z" transform="translate(-18 -11446) translate(18 11446.202)"/>
            </g>
        </g>
    </g>
</svg>
