<?xml version="1.0" encoding="UTF-8"?>
<svg width="306px" height="43px" viewBox="0 0 306 43" version="1.1" xmlns="http://www.w3.org/2000/svg" xmlns:xlink="http://www.w3.org/1999/xlink">
    <title>6F84C12A-EBF5-4678-8C68-85D9C20AB966</title>
    <g id="Page-1" stroke="none" stroke-width="1" fill="none" fill-rule="evenodd">
        <g id="VIVE-Flow-Combo-pdp-comp-1920" transform="translate(-808.000000, -579.000000)" fill-rule="nonzero">
            <g id="VIVE_Flow_Landscape_Digital_Blue-White-Blue_RGB" transform="translate(808.000000, 579.000000)">
                <g id="Group">
                    <path d="M30.3990965,1.58369066 C29.8295274,0.602526799 28.7764868,0 27.6373485,0 L21.3290393,0 C20.189901,0 19.1368604,0.605819296 18.5672913,1.58698315 L0.427176847,32.8163093 C-0.142392282,33.7974732 -0.142392282,35.0058193 0.427176847,35.9869832 L3.57967575,41.4130168 C4.14924487,42.3941807 5.20228547,43 6.34142373,43 L42.631587,43 C43.7707253,43 44.8237659,42.3941807 45.393335,41.4163093 L48.5458339,35.9869832 C49.115403,35.0058193 49.115403,33.7974732 48.5458339,32.8130168 L30.3990965,1.58369066 Z M33.1376644,35.8322358 C30.4057194,36.6882848 27.4982677,37.1525268 24.4815382,37.1525268 C21.4681201,37.1525268 18.5639799,36.6915773 15.8320349,35.8355283 C12.6364872,34.8346095 10.6628639,31.6112557 11.3516452,28.3516845 C12.6033727,22.4186064 15.7028884,17.1637825 20.0276401,13.2094946 C22.5509638,10.9047473 26.4121126,10.9014548 28.9321249,13.2094946 C33.2568765,17.1637825 36.3597037,22.4186064 37.6114312,28.3516845 C38.3035239,31.6079632 36.3299007,34.8280245 33.1376644,35.8322358 Z" id="Shape" fill="#00B3E3"></path>
                    <g transform="translate(59.721103, 8.738285)" fill="#FFFFFF" id="Path">
                        <path d="M81.8267602,3.7797856 L70.8625545,25.2238132 C70.6870477,25.5662328 70.3294113,25.78683 69.9353489,25.78683 L66.3192472,25.78683 C65.9284963,25.78683 65.5741713,25.5695253 65.3920417,25.2238132 L54.4311474,3.7797856 C54.2457063,3.42090352 54.2622635,2.99287902 54.457639,2.64387443 L55.6298917,0.632159265 C55.8583816,0.240352221 56.2789356,0 56.732604,0 L57.795579,0 C58.0704292,0 58.3287222,0.151454824 58.4479343,0.401684533 L67.6603838,18.6256508 C67.8524478,19.0075804 68.4021483,19.0075804 68.5942123,18.6256508 L77.8033503,0.401684533 C77.9225625,0.151454824 78.1808555,0 78.4623286,0 L79.5186806,0 C79.9723491,0 80.392903,0.240352221 80.621393,0.632159265 L81.7936457,2.65045942 C81.9989555,2.99946401 82.0088898,3.42419602 81.8267602,3.7797856"></path>
                        <path d="M27.5256289,3.7797856 L16.5614232,25.2238132 C16.3859164,25.5662328 16.02828,25.78683 15.6342176,25.78683 L12.018116,25.78683 C11.627365,25.78683 11.2730401,25.5695253 11.0909104,25.2238132 L0.130016122,3.7797856 C-0.05542499,3.42090352 -0.0388677479,2.99287902 0.156507709,2.64387443 L1.32876045,0.628866769 C1.55393894,0.240352221 1.97118145,0 2.42484988,0 L3.49113627,0 C3.76598649,0 4.02427947,0.151454824 4.14349161,0.401684533 L13.3559411,18.6256508 C13.5480051,19.0075804 14.0977056,19.0075804 14.2897696,18.6256508 L23.4989076,0.401684533 C23.6181198,0.151454824 23.8764128,0 24.1578859,0 L25.2175494,0 C25.6679064,0 26.0884603,0.240352221 26.3136388,0.628866769 L27.489203,2.65045942 C27.6978242,2.99946401 27.7077586,3.42419602 27.5256289,3.7797856"></path>
                        <path d="M43.2285174,0.306202144 C43.0397648,0.118529862 42.7748489,0 42.4834415,0 L40.8442745,0 C40.3906061,0 39.9733636,0.240352221 39.7481851,0.632159265 L38.5792438,2.65045942 C38.4765889,2.83154671 38.4202942,3.03568147 38.4202942,3.24310873 L38.4202942,24.7431087 C38.4202942,25.3192956 38.8905199,25.78683 39.4700234,25.78683 L42.4966873,25.78683 C43.0728793,25.78683 43.5397935,25.3225881 43.5397935,24.7496937 L43.5397935,1.04701378 C43.5397935,0.757274119 43.4205814,0.497166922 43.2285174,0.306202144"></path>
                        <path d="M94.0526278,0.628866769 C94.2778063,0.240352221 94.6983602,0 95.1520286,0 L110.851606,0 C111.29534,0 111.705959,0.233767228 111.927826,0.615696784 L113.03385,2.50558959 C113.189488,2.77557427 113.275586,3.08506891 113.275586,3.39785605 L113.275586,3.868683 C113.275586,4.25390505 112.957687,4.57656968 112.560313,4.57656968 L98.2482329,4.57656968 C97.9601369,4.57656968 97.7250241,4.81033691 97.7250241,5.09678407 L97.7250241,10.0322358 C97.7250241,10.318683 97.9601369,10.5524502 98.2482329,10.5524502 L107.947465,10.5524502 C108.417691,10.5590352 108.801819,10.9409648 108.801819,11.4084992 L108.801819,14.2466309 C108.801819,14.7174579 108.41438,15.1026799 107.940842,15.1026799 L98.2482329,15.1026799 C97.9601369,15.1026799 97.7250241,15.3364472 97.7250241,15.6228943 L97.7250241,20.6933384 C97.7250241,20.9797856 97.9601369,21.2135528 98.2482329,21.2135528 L112.563624,21.2135528 C112.957687,21.2135528 113.278897,21.5296325 113.278897,21.9148545 L113.278897,22.388974 C113.278897,22.7050536 113.196111,23.0112557 113.037162,23.2812404 L111.931138,25.1744257 C111.709271,25.5563553 111.298651,25.7901225 110.854917,25.7901225 L95.1553401,25.7901225 C94.7016717,25.7901225 94.2844292,25.5497703 94.0559392,25.1612557 L92.9631612,23.2878254 C92.8042117,23.0145482 92.7214255,22.7050536 92.7214255,22.3922665 L92.7247369,3.39456355 C92.7247369,3.08177642 92.8075232,2.77557427 92.9631612,2.50229709 L94.0526278,0.628866769 Z"></path>
                    </g>
                </g>
                <path d="M216.313273,8 L218.377576,8 C218.55235,8 218.690849,8.14134008 218.690849,8.31226296 L218.690849,31.3474083 C218.690849,31.5216182 218.832646,31.6596713 219.004122,31.6596713 L231.686727,31.6596713 C231.8615,31.6596713 232,31.8010114 232,31.9719343 L232,33.687737 C232,33.8619469 231.858203,34 231.686727,34 L216.313273,34 C216.1385,34 216,33.8586599 216,33.687737 L216,8.30897598 C216,8.14134008 216.141797,8 216.313273,8 Z" id="Path" fill="#FFFFFF"></path>
                <path d="M239,21.5 C239,19.5723733 239.301165,17.7803086 239.903496,16.1204996 C240.505827,14.4606907 241.353673,13.0356356 242.443761,11.8420279 C243.537122,10.6517267 244.846537,9.71271124 246.378552,9.02828802 C247.907293,8.34386481 249.61608,8 251.498363,8 C253.331544,8 255.010868,8.34055841 256.542883,9.02828802 C258.074899,9.71271124 259.39086,10.6517267 260.497316,11.8420279 C261.600498,13.0323292 262.461438,14.4606907 263.076863,16.1204996 C263.692288,17.7803086 264,19.5756796 264,21.5 C264,23.4507715 263.692288,25.2527553 263.076863,26.8993387 C262.461438,28.5459221 261.603771,29.9676708 260.497316,31.1579721 C259.39086,32.3482733 258.074899,33.2872888 256.542883,33.971712 C255.010868,34.6561352 253.331544,35 251.498363,35 C249.642268,35 247.940029,34.6561352 246.398193,33.971712 C244.853084,33.2872888 243.537122,32.3482733 242.443761,31.1579721 C241.353673,29.9676708 240.505827,28.5459221 239.903496,26.8993387 C239.301165,25.2527553 239,23.4540779 239,21.5 Z M241.78578,21.5 C241.78578,23.0705364 242.018201,24.5286554 242.483043,25.8743571 C242.947885,27.2167524 243.605866,28.3839089 244.460259,29.3725202 C245.314652,30.3611315 246.335996,31.1348273 247.527563,31.6903012 C248.719131,32.2490816 250.044913,32.5268185 251.498363,32.5268185 C252.955087,32.5268185 254.277596,32.2490816 255.469163,31.6903012 C256.660731,31.1315209 257.682074,30.3578251 258.536467,29.3725202 C259.39086,28.3839089 260.048841,27.2167524 260.513683,25.8743571 C260.978526,24.5319618 261.210947,23.0738428 261.210947,21.5 C261.210947,19.9294636 260.978526,18.4713446 260.513683,17.1256429 C260.048841,15.7832476 259.39086,14.6160911 258.536467,13.6274798 C257.682074,12.6388685 256.660731,11.8651727 255.469163,11.3096988 C254.277596,10.7509184 252.951814,10.4731815 251.498363,10.4731815 C250.041639,10.4731815 248.719131,10.7509184 247.527563,11.3096988 C246.335996,11.8684791 245.311379,12.6388685 244.460259,13.6274798 C243.605866,14.6160911 242.947885,15.7832476 242.483043,17.1256429 C242.018201,18.4713446 241.78578,19.9294636 241.78578,21.5 Z" id="Shape" fill="#FFFFFF"></path>
                <path d="M272.316339,8 L274.492983,8 C274.636315,8 274.76298,8.09531033 274.799647,8.23334597 L280.719585,31.2064214 L280.872917,31.2064214 L287.402849,8.22677285 C287.439515,8.09202376 287.56618,8 287.706179,8 L290.522816,8 C290.666148,8 290.78948,8.09202376 290.826146,8.22677285 L297.356078,31.2064214 L297.469411,31.2064214 L303.312683,8.23663254 C303.349349,8.09859689 303.472681,8 303.619347,8 L305.682658,8 C305.889323,8 306.042655,8.19390722 305.989322,8.391101 L299.142727,33.7699406 C299.10606,33.9079762 298.979395,34 298.836063,34 L295.906094,34 C295.766095,34 295.63943,33.9079762 295.602763,33.7732272 L289.112831,11.0959424 L288.999499,11.0959424 L282.509566,33.7732272 C282.469567,33.9079762 282.346235,34 282.206236,34 L279.276267,34 C279.132935,34 279.009603,33.9046897 278.969603,33.7699406 L272.009676,8.391101 C271.959676,8.19390722 272.109674,8 272.316339,8 Z" id="Path" fill="#FFFFFF"></path>
                <g id="Group-17" transform="translate(188.000000, 8.000000)" fill="#FFFFFF">
                    <path d="M15.7538402,12.16692 L15.7538402,13.8923506 C15.7538402,14.0635765 15.6150107,14.2018744 15.4431266,14.2018744 L5.36146218,14.2018744 C5.27882559,14.2018744 5.19949446,14.1689463 5.14330157,14.1129686 L4.27727008,13.2502533 C4.15496792,13.1284195 4.15496792,12.9341439 4.27727008,12.81231 L5.14660704,11.9463019 C5.20610539,11.8870314 5.28213105,11.8573961 5.36476765,11.8573961 L15.4431266,11.8573961 C15.6150107,11.8573961 15.7538402,11.995694 15.7538402,12.16692 Z" id="Path"></path>
                    <path d="M16.6892864,0 L0.317324519,0 C0.145440404,0 0.00661092747,0.138297872 0.00661092747,0.30952381 L0.00661092747,9.85866261 C0.00661092747,9.94098278 0.0396655648,10.0200101 0.0958584484,10.0759878 L1.14369045,11.1198075 C1.26599261,11.2416413 1.46101497,11.2416413 1.58331713,11.1198075 L2.61792728,10.0891591 C2.67742563,10.0298886 2.7071748,9.954154 2.7071748,9.87183384 L2.7071748,2.65070922 C2.7071748,2.47948328 2.84600428,2.34118541 3.01788839,2.34118541 L16.6892864,2.34118541 C16.8611705,2.34118541 17,2.20288754 17,2.0316616 L17,0.30952381 C16.9966945,0.138297872 16.8611705,0 16.6892864,0 Z" id="Path"></path>
                    <path d="M2.68403655,16.045846 C2.66750924,16.0030395 2.64767645,15.9668186 2.61462182,15.9338906 L1.58001167,14.9032421 C1.51720786,14.8406788 1.43787673,14.8110436 1.35524013,14.8143364 C1.27260354,14.8143364 1.19327241,14.8406788 1.1304686,14.9032421 L0.0958584484,15.9338906 C0.062803811,15.9668186 0.0429710286,16.0030395 0.0264437099,16.045846 C0.00991639121,16.0820669 0,16.1248734 0,16.164387 L0,20.2540527 L0,23.345998 L0.00330546374,23.3492908 L0.00330546374,25.6904762 C0.00330546374,25.8617021 0.142134941,26 0.314019055,26 L2.39315575,26 C2.56503986,26 2.70386934,25.8617021 2.70386934,25.6904762 L2.70386934,23.3492908 L2.7071748,23.345998 L2.7071748,20.2540527 L2.7071748,16.164387 C2.7071748,16.1248734 2.69725841,16.0853597 2.68403655,16.045846 Z" id="Path"></path>
                </g>
            </g>
        </g>
    </g>
</svg>