<svg xmlns="http://www.w3.org/2000/svg" width="382" height="33" viewBox="0 0 382 33">
    <g fill="none" fill-rule="evenodd">
        <g fill-rule="nonzero">
            <g>
                <g>
                    <path fill="#00B3E3" d="M.086 1.83C.029 1.617 0 1.46 0 1.388 0 .901.3.658.887.658h2.918c.515 0 .858.071 1.015.229.158.143.315.472.444.958l6.207 21.613L17.68 1.845c.129-.486.286-.8.444-.958.157-.143.5-.229 1.015-.229h2.804c.6 0 .887.243.887.73 0 .085-.03.228-.086.443l-8.24 27.005c-.114.329-.257.53-.443.615-.186.086-.472.129-.858.129H9.626c-.386 0-.658-.043-.858-.129-.186-.086-.343-.286-.443-.615L.085 1.831zM39.435 28.393c0 .486-.086.8-.257.958-.172.143-.515.229-1.03.229h-2.36c-.515 0-.859-.072-1.03-.229-.172-.143-.258-.472-.258-.958V1.83c0-.486.086-.801.258-.958.171-.144.515-.23 1.03-.23h2.36c.515 0 .858.072 1.03.23.171.143.257.472.257.958v26.562zM51.135 1.83c-.057-.214-.085-.371-.085-.443 0-.486.3-.729.886-.729h2.918c.515 0 .858.071 1.016.229.157.143.315.472.443.958l6.208 21.613 6.208-21.613c.129-.486.286-.8.443-.958.158-.143.5-.229 1.016-.229h2.803c.601 0 .887.243.887.73 0 .085-.029.228-.086.443l-8.239 27.005c-.114.329-.257.53-.443.615-.186.086-.472.129-.858.129h-3.62c-.385 0-.657-.043-.857-.129-.186-.086-.344-.286-.444-.615L51.135 1.831zM103.315 28.264c0 .515-.072.858-.229 1.03-.143.171-.472.257-.958.257H86.823c-.515 0-.858-.071-1.03-.229-.172-.143-.258-.472-.258-.958V1.831c0-.486.086-.801.258-.958.172-.144.515-.23 1.03-.23h15.147c.487 0 .801.086.959.258.143.172.229.515.229 1.03v1.788c0 .515-.072.858-.23 1.03-.142.171-.471.257-.958.257h-11.5v7.467h10.442c.486 0 .8.086.958.257.143.172.23.515.23 1.03v1.83c0 .516-.072.86-.23 1.03-.143.172-.472.258-.958.258H90.47v8.296h11.658c.486 0 .8.086.958.258.143.171.229.515.229 1.03v1.802z" transform="translate(-151 -1492) translate(151 1492) translate(31)"/>
                    <path fill="#FFF" d="M131.379 21.04c.028-.4.128-.672.3-.815.172-.128.5-.2 1.001-.2h2.432c.515 0 .858.072 1.03.229.171.143.257.443.257.872 0 1.46-.172 2.675-.53 3.634-.357.958-.929 1.859-1.744 2.703-1.788 1.845-4.492 2.76-8.125 2.76-2.217 0-4.12-.472-5.692-1.401-1.574-.93-2.761-2.303-3.576-4.12-.358-.786-.601-1.645-.73-2.603-.129-.944-.2-2.217-.2-3.819v-5.936c0-1.459.071-2.675.229-3.662.143-.972.386-1.888.715-2.76.73-1.917 1.93-3.39 3.59-4.406C122.024.501 124.084 0 126.544 0c3.461 0 6.036.901 7.71 2.718.786.844 1.344 1.745 1.659 2.717.329.973.486 2.146.486 3.533 0 .43-.086.73-.257.873-.172.143-.515.229-1.03.229h-2.518c-.486 0-.815-.072-1-.2-.173-.13-.273-.401-.301-.816-.058-1.702-.458-2.918-1.216-3.662-.758-.729-2.017-1.1-3.776-1.1-1.974 0-3.376.557-4.177 1.687-.815 1.13-1.216 3.032-1.216 5.707v6.823c0 2.603.415 4.477 1.245 5.621.83 1.144 2.202 1.73 4.12 1.73 1.701 0 2.974-.385 3.79-1.172.83-.787 1.258-2.003 1.316-3.647zM159.07 0c2.403 0 4.434.472 6.065 1.402 1.645.93 2.846 2.303 3.633 4.12.358.786.6 1.658.73 2.645.128.973.2 2.232.2 3.777v5.935c0 1.402-.072 2.618-.229 3.634-.143 1.015-.386 1.945-.715 2.775-.787 1.945-2.003 3.418-3.633 4.42-1.645 1-3.662 1.501-6.065 1.501-2.403 0-4.434-.472-6.065-1.402-1.645-.93-2.846-2.302-3.633-4.119-.357-.787-.6-1.66-.73-2.646-.128-.973-.2-2.232-.2-3.776v-5.922c0-1.402.072-2.618.23-3.633.142-1.016.385-1.945.714-2.775.787-1.945 2.003-3.419 3.634-4.42C154.636.501 156.667 0 159.07 0zm0 4.348c-2.002 0-3.433.572-4.29 1.702-.859 1.13-1.274 3.018-1.274 5.65v6.823c0 2.632.43 4.506 1.273 5.65.858 1.13 2.274 1.702 4.291 1.702 2.003 0 3.433-.572 4.291-1.702.859-1.144 1.273-3.018 1.273-5.65V11.7c0-2.632-.429-4.505-1.273-5.65-.858-1.13-2.274-1.702-4.29-1.702zM187.792 10.027v18.351c0 .487-.086.801-.258.959-.171.143-.515.229-1.03.229h-2.23c-.516 0-.859-.072-1.03-.23-.172-.142-.258-.471-.258-.958V1.831c0-.486.086-.801.257-.958.172-.144.515-.23 1.03-.23h2.36c.515 0 .887.058 1.116.187.229.128.486.443.758.958l9.712 18.394V1.831c0-.486.086-.801.258-.958.171-.144.515-.23 1.03-.23h2.23c.516 0 .86.072 1.03.23.172.143.258.472.258.958v26.562c0 .486-.086.8-.257.958-.172.143-.515.229-1.03.229h-2.36c-.515 0-.887-.057-1.116-.186-.229-.129-.486-.444-.758-.958l-9.712-18.41zM241.187 1.702c2.818 0 4.978.644 6.48 1.931 1.502 1.287 2.26 3.118 2.26 5.507v1.216c0 .972-.186 1.874-.544 2.703-.372.83-.858 1.588-1.459 2.274-.615.687-1.301 1.316-2.088 1.889-.787.572-1.588 1.1-2.403 1.587l-3.247 1.946c-.73.429-1.302.83-1.73 1.201-.416.372-.745.715-.96 1.03-.214.329-.357.644-.4.973-.057.329-.085.643-.085.972v.158h11.743c.486 0 .8.085.958.257.143.172.229.515.229 1.03v1.874c0 .515-.072.858-.229 1.03-.143.171-.472.257-.958.257h-15.72c-.515 0-.858-.072-1.03-.229-.171-.143-.257-.472-.257-.958v-1.988c0-1.216.143-2.303.443-3.276.3-.958.701-1.817 1.202-2.56.5-.744 1.087-1.388 1.773-1.946.673-.557 1.388-1.044 2.146-1.487l3.447-1.988c.544-.33 1.059-.658 1.56-1.002.5-.343.943-.73 1.315-1.158.372-.43.687-.916.916-1.445.228-.53.343-1.116.343-1.774v-.4c0-2.389-1.302-3.576-3.905-3.576-1.302 0-2.26.258-2.86.772-.616.515-1.016 1.416-1.202 2.718-.057.33-.172.544-.344.672-.171.13-.486.186-.915.186h-2.317c-.515 0-.858-.085-1.03-.243-.172-.157-.257-.5-.257-1.015 0-.844.157-1.688.486-2.532.329-.844.758-1.545 1.301-2.088 1.703-1.66 4.148-2.518 7.338-2.518zM267.506 30.138c-4.492 0-7.495-1.817-9.011-5.436-.33-.758-.558-1.587-.687-2.474-.129-.887-.2-2.046-.2-3.447v-5.293c0-1.459.071-2.646.2-3.576.129-.915.372-1.773.687-2.56 1.516-3.762 4.52-5.65 9.01-5.65 4.492 0 7.496 1.817 9.012 5.435.33.759.558 1.588.687 2.475.128.887.2 2.045.2 3.447v5.278c0 1.46-.072 2.66-.2 3.576-.13.916-.372 1.774-.687 2.56-1.502 3.777-4.52 5.665-9.011 5.665zm0-23.93c-.887 0-1.645.128-2.26.372-.615.243-1.102.629-1.488 1.158-.386.53-.643 1.216-.815 2.074-.157.858-.243 1.888-.243 3.104v6.008c0 1.244.086 2.288.243 3.146.157.859.43 1.545.815 2.074.372.53.873.902 1.488 1.145.615.229 1.359.343 2.26.343.887 0 1.645-.114 2.26-.343.615-.23 1.101-.615 1.487-1.145.372-.529.644-1.215.816-2.074.171-.858.243-1.902.243-3.146v-6.008c0-1.216-.086-2.26-.243-3.104-.158-.858-.43-1.545-.816-2.074-.386-.529-.872-.915-1.487-1.158-.615-.244-1.36-.372-2.26-.372zM294.24 1.702c2.817 0 4.977.644 6.479 1.931 1.502 1.287 2.26 3.118 2.26 5.507v1.216c0 .972-.186 1.874-.544 2.703-.372.83-.858 1.588-1.459 2.274-.615.687-1.301 1.316-2.088 1.889-.787.572-1.588 1.1-2.403 1.587l-3.247 1.946c-.73.429-1.302.83-1.73 1.201-.416.372-.745.715-.96 1.03-.214.329-.357.644-.4.973-.057.329-.085.643-.085.972v.158h11.743c.486 0 .8.085.958.257.143.172.229.515.229 1.03v1.874c0 .515-.071.858-.229 1.03-.143.171-.472.257-.958.257h-15.734c-.515 0-.858-.072-1.03-.229-.172-.143-.257-.472-.257-.958v-1.988c0-1.216.143-2.303.443-3.276.3-.958.7-1.817 1.201-2.56.501-.744 1.088-1.388 1.774-1.946.672-.557 1.388-1.044 2.146-1.487l3.447-1.988c.543-.33 1.058-.658 1.559-1.002.5-.343.944-.73 1.316-1.158.372-.43.686-.916.915-1.445.23-.53.344-1.116.344-1.774v-.4c0-2.389-1.302-3.576-3.905-3.576-1.302 0-2.26.258-2.861.772-.615.515-1.016 1.416-1.202 2.718-.057.33-.171.544-.343.672-.171.13-.486.186-.915.186h-2.317c-.515 0-.859-.085-1.03-.243-.172-.157-.258-.5-.258-1.015 0-.844.158-1.688.487-2.532.329-.844.758-1.545 1.301-2.088 1.702-1.66 4.148-2.518 7.352-2.518zM319.986 28.393c0 .486-.086.8-.258.958-.171.143-.515.229-1.03.229h-2.231c-.515 0-.858-.072-1.03-.229-.171-.143-.257-.472-.257-.958V6.665h-4.148c-.487 0-.801-.085-.959-.257-.143-.172-.229-.515-.229-1.03V3.576c0-.515.072-.858.23-1.03.142-.172.471-.257.958-.257h7.68c.516 0 .859.071 1.03.228.172.143.258.472.258.959v24.917h-.014z" transform="translate(-151 -1492) translate(151 1492) translate(31)"/>
                </g>
            </g>
        </g>
    </g>
</svg>
