<svg xmlns="http://www.w3.org/2000/svg" width="538" height="58" viewBox="0 0 538 58">
    <g fill="none" fill-rule="evenodd">
        <g fill-rule="nonzero">
            <g>
                <g>
                    <path fill="#00B3E3" d="M.1 2.12c-.067-.248-.1-.43-.1-.513C0 1.044.348.762 1.027.762h3.38c.595 0 .993.083 1.175.265.182.166.365.547.514 1.11l7.188 25.028 7.19-25.028c.148-.563.33-.928.513-1.11.182-.166.58-.265 1.176-.265h3.246c.696 0 1.027.282 1.027.845 0 .1-.033.265-.099.513l-9.541 31.273c-.132.381-.298.613-.513.713-.216.099-.547.149-.994.149h-4.141c-.448 0-.762-.05-.994-.15-.216-.099-.398-.33-.514-.712L.1 2.12zM45.667 32.88c0 .563-.1.927-.298 1.11-.199.165-.596.265-1.192.265h-2.734c-.596 0-.993-.083-1.192-.265-.199-.166-.298-.547-.298-1.11V2.12c0-.563.1-.927.298-1.11.199-.165.596-.265 1.192-.265h2.734c.596 0 .993.083 1.192.265.199.166.298.547.298 1.11v30.76zM59.217 2.12c-.067-.248-.1-.43-.1-.513 0-.563.348-.845 1.027-.845h3.38c.596 0 .993.083 1.175.265.183.166.365.547.514 1.11l7.189 25.028L79.59 2.137c.149-.563.33-.928.513-1.11.182-.166.58-.265 1.176-.265h3.247c.695 0 1.027.282 1.027.845 0 .1-.033.265-.1.513l-9.54 31.273c-.133.381-.299.613-.514.713-.215.099-.547.149-.994.149h-4.19c-.448 0-.763-.05-.995-.15-.215-.099-.397-.33-.513-.712L59.217 2.12zM119.643 32.73c0 .597-.083.995-.265 1.193-.166.2-.547.298-1.11.298h-17.724c-.596 0-.994-.082-1.192-.265-.2-.165-.299-.546-.299-1.11V2.12c0-.563.1-.927.299-1.11.198-.165.596-.265 1.192-.265h17.542c.563 0 .927.1 1.11.299.165.198.264.596.264 1.192v2.07c0 .597-.082.995-.265 1.193-.165.2-.546.298-1.11.298h-13.317v8.647h12.092c.563 0 .928.1 1.11.298.165.199.265.596.265 1.193v2.12c0 .596-.083.994-.265 1.193-.166.198-.547.298-1.11.298h-12.092v9.607h13.5c.563 0 .927.1 1.11.298.165.199.265.596.265 1.193v2.087z" transform="translate(-211 -2041) translate(211 2041) translate(84 12)"/>
                    <path fill="#FFF" d="M152.142 24.366c.033-.464.149-.779.347-.944.2-.15.58-.232 1.16-.232h2.816c.596 0 .994.083 1.192.265.2.165.299.513.299 1.01 0 1.69-.2 3.098-.613 4.208-.414 1.11-1.077 2.153-2.021 3.13-2.07 2.137-5.201 3.197-9.409 3.197-2.567 0-4.77-.547-6.592-1.623-1.822-1.077-3.197-2.667-4.141-4.77-.414-.912-.696-1.906-.845-3.015-.149-1.094-.232-2.568-.232-4.423v-6.874c0-1.69.083-3.098.265-4.24.166-1.127.447-2.187.828-3.197.845-2.22 2.237-3.926 4.158-5.102C141.309.58 143.694 0 146.543 0c4.008 0 6.99 1.044 8.928 3.147.91.977 1.557 2.021 1.921 3.147.381 1.127.564 2.485.564 4.092 0 .497-.1.844-.299 1.01-.198.166-.596.265-1.192.265h-2.916c-.563 0-.944-.083-1.159-.232-.199-.149-.315-.464-.348-.944-.066-1.971-.53-3.379-1.408-4.24-.878-.845-2.335-1.276-4.373-1.276-2.286 0-3.909.646-4.836 1.955-.945 1.308-1.408 3.511-1.408 6.609v7.901c0 3.015.48 5.185 1.44 6.51.961 1.325 2.552 2.004 4.771 2.004 1.971 0 3.445-.447 4.39-1.358.96-.911 1.457-2.32 1.524-4.224zM184.21 0c2.782 0 5.135.547 7.023 1.623 1.905 1.077 3.296 2.667 4.207 4.77.414.912.696 1.922.845 3.065.149 1.126.232 2.584.232 4.373v6.874c0 1.623-.083 3.031-.265 4.207-.166 1.176-.447 2.253-.828 3.214-.911 2.253-2.32 3.959-4.208 5.118-1.905 1.16-4.24 1.74-7.023 1.74-2.783 0-5.135-.547-7.023-1.624-1.905-1.077-3.296-2.667-4.207-4.77-.414-.911-.696-1.922-.845-3.065-.15-1.126-.232-2.584-.232-4.373v-6.857c0-1.623.083-3.031.265-4.207.166-1.176.447-2.253.828-3.214.911-2.253 2.32-3.959 4.207-5.118C179.075.58 181.426 0 184.21 0zm0 5.035c-2.32 0-3.976.663-4.97 1.972-.993 1.308-1.474 3.495-1.474 6.542v7.902c0 3.047.497 5.217 1.474 6.542.994 1.309 2.634 1.972 4.97 1.972 2.319 0 3.975-.663 4.969-1.972.994-1.325 1.474-3.495 1.474-6.542v-7.902c0-3.047-.497-5.217-1.474-6.542-.994-1.309-2.634-1.972-4.97-1.972zM217.47 11.611v21.252c0 .563-.099.928-.298 1.11-.199.166-.596.265-1.192.265h-2.584c-.597 0-.994-.083-1.193-.265-.199-.166-.298-.547-.298-1.11V2.12c0-.563.1-.927.298-1.11.199-.165.596-.265 1.193-.265h2.733c.596 0 1.027.067 1.292.216.265.149.563.513.878 1.11l11.247 21.301V2.12c0-.563.1-.927.298-1.11.199-.165.596-.265 1.192-.265h2.584c.597 0 .994.083 1.193.265.199.166.298.547.298 1.11v30.76c0 .563-.1.927-.298 1.11-.199.165-.596.265-1.193.265h-2.733c-.596 0-1.027-.067-1.292-.216-.265-.149-.563-.513-.878-1.11L217.47 11.611zM279.304 1.971c3.263 0 5.765.746 7.504 2.236 1.74 1.491 2.617 3.611 2.617 6.377v1.408c0 1.127-.215 2.17-.63 3.131-.43.96-.993 1.839-1.689 2.634-.712.795-1.507 1.524-2.418 2.186-.911.663-1.839 1.276-2.783 1.839l-3.76 2.253c-.845.496-1.508.96-2.004 1.39-.48.432-.862.83-1.11 1.194-.249.38-.414.745-.464 1.126-.066.38-.1.745-.1 1.126v.182h13.6c.563 0 .927.1 1.11.299.165.198.265.596.265 1.192v2.17c0 .596-.083.994-.265 1.193-.166.199-.547.298-1.11.298h-18.204c-.597 0-.994-.083-1.193-.265-.199-.166-.298-.547-.298-1.11v-2.302c0-1.408.166-2.667.513-3.793.348-1.11.812-2.104 1.392-2.965.58-.862 1.259-1.607 2.054-2.253.778-.646 1.607-1.21 2.484-1.723l3.992-2.302c.63-.381 1.226-.762 1.806-1.16.58-.397 1.093-.845 1.524-1.341.43-.497.795-1.06 1.06-1.673s.397-1.292.397-2.054V10.8c0-2.766-1.507-4.141-4.522-4.141-1.507 0-2.617.298-3.312.894-.713.597-1.176 1.64-1.392 3.147-.066.381-.199.63-.397.779-.2.149-.564.215-1.06.215h-2.684c-.596 0-.994-.1-1.192-.281-.2-.183-.299-.58-.299-1.176 0-.978.183-1.955.564-2.932.38-.978.877-1.79 1.507-2.419 1.971-1.921 4.804-2.915 8.497-2.915zM309.782 34.9c-5.2 0-8.68-2.103-10.435-6.294-.381-.878-.646-1.838-.795-2.865-.15-1.027-.232-2.369-.232-3.992V15.62c0-1.69.083-3.064.232-4.141.149-1.06.43-2.054.795-2.965 1.756-4.356 5.234-6.543 10.435-6.543 5.201 0 8.68 2.104 10.436 6.294.38.878.646 1.84.795 2.866.149 1.027.232 2.369.232 3.992v6.112c0 1.69-.083 3.081-.232 4.141-.15 1.06-.43 2.054-.795 2.965-1.74 4.373-5.235 6.56-10.436 6.56zm0-27.711c-1.027 0-1.905.149-2.617.43-.712.282-1.275.73-1.723 1.342-.447.613-.745 1.408-.944 2.402-.182.994-.281 2.186-.281 3.594v6.957c0 1.441.1 2.65.281 3.644.183.994.497 1.79.944 2.402.431.613 1.01 1.044 1.723 1.325.712.265 1.574.398 2.617.398 1.027 0 1.905-.133 2.617-.398.713-.265 1.276-.712 1.723-1.325.43-.613.745-1.408.944-2.402.199-.993.282-2.203.282-3.644v-6.957c0-1.408-.1-2.617-.282-3.594-.182-.994-.497-1.789-.944-2.402-.447-.613-1.01-1.06-1.723-1.342-.712-.281-1.573-.43-2.617-.43zM340.74 1.971c3.264 0 5.765.746 7.504 2.236 1.74 1.491 2.617 3.611 2.617 6.377v1.408c0 1.127-.215 2.17-.63 3.131-.43.96-.993 1.839-1.689 2.634-.712.795-1.507 1.524-2.418 2.186-.911.663-1.839 1.276-2.783 1.839l-3.76 2.253c-.845.496-1.507.96-2.004 1.39-.48.432-.861.83-1.11 1.194-.248.38-.414.745-.464 1.126-.066.38-.1.745-.1 1.126v.182h13.6c.563 0 .928.1 1.11.299.166.198.265.596.265 1.192v2.17c0 .596-.083.994-.265 1.193-.166.199-.547.298-1.11.298h-18.22c-.597 0-.994-.083-1.193-.265-.199-.166-.298-.547-.298-1.11v-2.302c0-1.408.165-2.667.513-3.793.348-1.11.812-2.104 1.392-2.965.58-.862 1.259-1.607 2.054-2.253.778-.646 1.606-1.21 2.484-1.723l3.992-2.302c.63-.381 1.226-.762 1.806-1.16.58-.397 1.093-.845 1.524-1.341.43-.497.795-1.06 1.06-1.673s.397-1.292.397-2.054V10.8c0-2.766-1.507-4.141-4.522-4.141-1.507 0-2.617.298-3.313.894-.712.597-1.176 1.64-1.391 3.147-.066.381-.199.63-.398.779-.198.149-.563.215-1.06.215h-2.683c-.596 0-.994-.1-1.193-.281-.198-.183-.298-.58-.298-1.176 0-.978.182-1.955.563-2.932.381-.978.878-1.79 1.508-2.419 1.97-1.921 4.803-2.915 8.514-2.915zM370.556 32.88c0 .563-.1.927-.298 1.11-.199.165-.596.265-1.193.265h-2.584c-.596 0-.994-.083-1.192-.265-.2-.166-.298-.547-.298-1.11V7.719h-4.804c-.563 0-.928-.1-1.11-.298-.166-.199-.265-.597-.265-1.193V4.141c0-.596.083-.994.265-1.193.166-.198.547-.298 1.11-.298h8.895c.596 0 .994.083 1.192.265.2.166.299.547.299 1.11V32.88h-.017z" transform="translate(-211 -2041) translate(211 2041) translate(84 12)"/>
                </g>
            </g>
        </g>
    </g>
</svg>
