<svg xmlns="http://www.w3.org/2000/svg" width="324" height="33" viewBox="0 0 324 33">
    <g fill="none" fill-rule="evenodd">
        <g fill-rule="nonzero">
            <g>
                <g>
                    <path fill="#00B3E3" d="M.06 1.272C.02 1.123 0 1.014 0 .964 0 .626.209.457.616.457h2.028c.357 0 .596.05.705.16.11.099.219.327.308.665L7.971 16.3l4.313-15.017c.09-.338.199-.556.308-.666.11-.1.348-.159.706-.159h1.948c.417 0 .616.17.616.507 0 .06-.02.159-.06.308l-5.724 18.764c-.08.229-.18.368-.308.427-.13.06-.328.09-.597.09H6.69c-.269 0-.458-.03-.597-.09-.129-.06-.238-.198-.308-.427L.06 1.272zM27.4 19.728c0 .338-.06.556-.179.666-.119.1-.357.159-.715.159h-1.64c-.358 0-.596-.05-.716-.16-.119-.099-.178-.327-.178-.665V1.272c0-.338.06-.556.178-.666.12-.1.358-.159.716-.159h1.64c.358 0 .596.05.715.16.12.099.18.327.18.665v18.456zM35.53 1.272c-.04-.149-.06-.258-.06-.308 0-.338.21-.507.617-.507h2.027c.358 0 .596.05.706.16.109.099.218.327.308.665L43.44 16.3l4.313-15.017c.09-.338.2-.556.308-.666.11-.1.348-.159.706-.159h1.948c.417 0 .616.17.616.507 0 .06-.02.159-.06.308l-5.724 18.764c-.08.229-.179.368-.308.427-.13.06-.328.09-.596.09h-2.515c-.268 0-.457-.03-.596-.09-.13-.06-.239-.198-.308-.427L35.53 1.272zM71.786 19.638c0 .358-.05.597-.16.716-.099.12-.327.179-.665.179H60.327c-.358 0-.597-.05-.716-.16-.12-.099-.179-.327-.179-.665V1.272c0-.338.06-.556.179-.666.12-.1.358-.159.716-.159H70.85c.338 0 .557.06.666.18.1.118.16.357.16.715v1.242c0 .358-.05.596-.16.716-.1.119-.328.178-.666.178h-7.99v5.188h7.255c.338 0 .557.06.666.18.1.119.159.357.159.715v1.272c0 .358-.05.596-.16.716-.099.119-.327.178-.665.178H62.86v5.765h8.1c.338 0 .556.06.666.179.099.119.159.357.159.715v1.252z" transform="translate(-18 -1222) translate(18 1222) translate(51 6)"/>
                    <path fill="#FFF" d="M91.285 14.62c.02-.279.09-.468.209-.567.119-.09.347-.14.695-.14h1.69c.358 0 .596.05.715.16.12.1.18.308.18.606 0 1.014-.12 1.859-.368 2.525-.249.665-.646 1.292-1.213 1.878C91.951 20.364 90.073 21 87.548 21c-1.54 0-2.862-.328-3.955-.974-1.094-.646-1.919-1.6-2.485-2.862-.249-.547-.418-1.143-.507-1.81-.09-.655-.14-1.54-.14-2.653V8.577c0-1.014.05-1.859.16-2.544.1-.676.268-1.312.497-1.918.507-1.332 1.342-2.356 2.494-3.062C84.785.348 86.216 0 87.926 0c2.405 0 4.194.626 5.357 1.888.546.587.934 1.213 1.152 1.889.229.675.338 1.49.338 2.454 0 .299-.06.507-.179.607-.119.1-.357.159-.715.159h-1.75c-.337 0-.566-.05-.695-.14-.12-.089-.189-.278-.209-.566-.04-1.183-.318-2.027-.844-2.544-.527-.507-1.402-.765-2.624-.765-1.372 0-2.346.387-2.902 1.172-.567.785-.845 2.107-.845 3.966v4.74c0 1.81.288 3.111.865 3.906.576.795 1.53 1.203 2.862 1.203 1.183 0 2.067-.269 2.634-.815.576-.547.874-1.392.914-2.535zM110.526 0c1.67 0 3.08.328 4.214.974 1.143.646 1.977 1.6 2.524 2.862.249.547.417 1.153.507 1.839.09.676.14 1.55.14 2.624v4.124c0 .974-.05 1.819-.16 2.524-.1.706-.268 1.352-.497 1.929-.546 1.351-1.391 2.375-2.524 3.07-1.143.696-2.544 1.044-4.214 1.044-1.67 0-3.081-.328-4.214-.974-1.143-.646-1.978-1.6-2.524-2.862-.249-.547-.418-1.153-.507-1.839-.09-.676-.14-1.55-.14-2.624V8.577c0-.974.05-1.819.16-2.524.099-.706.268-1.352.497-1.929.546-1.351 1.39-2.375 2.524-3.07C107.445.347 108.856 0 110.526 0zm0 3.021c-1.392 0-2.385.398-2.982 1.183-.596.785-.884 2.097-.884 3.926v4.74c0 1.829.298 3.13.884 3.926.597.785 1.58 1.183 2.982 1.183 1.391 0 2.385-.398 2.981-1.183.597-.795.885-2.097.885-3.926V8.13c0-1.829-.298-3.13-.885-3.926-.596-.785-1.58-1.183-2.981-1.183zM130.482 6.967v12.75c0 .339-.06.557-.179.667-.119.1-.357.159-.715.159h-1.55c-.358 0-.597-.05-.716-.16-.12-.099-.18-.327-.18-.665V1.272c0-.338.06-.556.18-.666.12-.1.358-.159.715-.159h1.64c.358 0 .616.04.775.13.16.089.338.308.527.665l6.748 12.781V1.273c0-.339.06-.557.18-.667.119-.1.357-.159.715-.159h1.55c.358 0 .597.05.716.16.12.099.179.327.179.665v18.456c0 .338-.06.556-.18.666-.118.1-.357.159-.715.159h-1.64c-.357 0-.616-.04-.775-.13-.159-.089-.338-.308-.527-.665l-6.748-12.791zM167.583 1.183c1.957 0 3.458.447 4.502 1.341 1.043.895 1.57 2.167 1.57 3.827v.844c0 .676-.13 1.302-.378 1.879-.258.576-.596 1.103-1.013 1.58-.428.477-.905.914-1.451 1.312-.547.397-1.104.765-1.67 1.103l-2.256 1.352c-.507.298-.905.576-1.203.835-.288.258-.516.496-.666.715-.149.229-.248.447-.278.676-.04.229-.06.447-.06.676v.11h8.16c.338 0 .557.059.666.178.1.12.159.358.159.716v1.301c0 .358-.05.597-.16.716-.098.12-.327.179-.665.179h-10.922c-.358 0-.597-.05-.716-.16-.12-.098-.179-.327-.179-.665v-1.381c0-.845.1-1.6.308-2.276.209-.666.487-1.262.835-1.78.348-.516.755-.963 1.232-1.35.468-.389.965-.726 1.491-1.035l2.395-1.381c.378-.229.736-.457 1.084-.696.348-.238.656-.507.914-.805.258-.298.477-.636.636-1.003.16-.368.239-.776.239-1.233V6.48c0-1.66-.905-2.485-2.714-2.485-.904 0-1.57.18-1.987.537-.428.358-.706.984-.835 1.888-.04.229-.12.378-.239.467-.119.09-.338.13-.636.13h-1.61c-.357 0-.596-.06-.715-.17-.12-.109-.18-.347-.18-.705 0-.586.11-1.173.339-1.76.228-.586.526-1.072.904-1.45 1.183-1.153 2.882-1.75 5.099-1.75zM185.87 20.94c-3.121 0-5.208-1.262-6.262-3.776-.228-.527-.387-1.103-.477-1.72-.09-.616-.139-1.42-.139-2.395V9.372c0-1.014.05-1.839.14-2.485.089-.636.257-1.232.476-1.779 1.054-2.613 3.14-3.925 6.261-3.925s5.208 1.262 6.262 3.776c.228.527.387 1.103.477 1.72.09.616.139 1.42.139 2.395v3.667c0 1.014-.05 1.849-.14 2.485-.089.636-.258 1.232-.476 1.779-1.044 2.623-3.14 3.935-6.262 3.935zm0-16.627c-.617 0-1.144.09-1.57.259-.428.169-.766.437-1.035.805-.268.367-.447.844-.566 1.44-.11.597-.169 1.313-.169 2.157v4.175c0 .864.06 1.59.169 2.186.11.596.298 1.073.566 1.441.259.368.607.626 1.034.795.427.16.944.239 1.57.239.617 0 1.143-.08 1.57-.239.428-.159.766-.427 1.034-.795.259-.368.447-.845.567-1.44.119-.597.169-1.323.169-2.187V8.974c0-.844-.06-1.57-.17-2.156-.109-.597-.297-1.074-.566-1.441-.268-.368-.606-.636-1.033-.805-.428-.17-.944-.259-1.57-.259zM204.444 1.183c1.958 0 3.459.447 4.503 1.341 1.043.895 1.57 2.167 1.57 3.827v.844c0 .676-.13 1.302-.378 1.879-.258.576-.596 1.103-1.014 1.58-.427.477-.904.914-1.45 1.312-.547.397-1.104.765-1.67 1.103l-2.256 1.352c-.507.298-.905.576-1.203.835-.288.258-.517.496-.666.715-.149.229-.248.447-.278.676-.04.229-.06.447-.06.676v.11h8.16c.338 0 .556.059.666.178.1.12.159.358.159.716v1.301c0 .358-.05.597-.16.716-.099.12-.327.179-.665.179H198.77c-.358 0-.597-.05-.716-.16-.12-.098-.179-.327-.179-.665v-1.381c0-.845.1-1.6.308-2.276.209-.666.487-1.262.835-1.78.348-.516.755-.963 1.232-1.35.467-.389.964-.726 1.491-1.035l2.395-1.381c.378-.229.736-.457 1.084-.696.347-.238.656-.507.914-.805.258-.298.477-.636.636-1.003.159-.368.239-.776.239-1.233V6.48c0-1.66-.905-2.485-2.714-2.485-.904 0-1.57.18-1.987.537-.428.358-.706.984-.835 1.888-.04.229-.12.378-.239.467-.119.09-.338.13-.636.13h-1.61c-.358 0-.596-.06-.715-.17-.12-.109-.18-.347-.18-.705 0-.586.11-1.173.339-1.76.228-.586.526-1.072.904-1.45 1.183-1.153 2.882-1.75 5.108-1.75zM222.334 19.728c0 .338-.06.556-.18.666-.119.1-.357.159-.715.159h-1.55c-.358 0-.597-.05-.716-.16-.119-.099-.179-.327-.179-.665V4.63h-2.882c-.338 0-.556-.06-.666-.179-.1-.119-.159-.357-.159-.715V2.485c0-.358.05-.597.16-.716.099-.12.327-.179.665-.179h5.337c.358 0 .596.05.716.16.119.099.179.327.179.665v17.313h-.01z" transform="translate(-18 -1222) translate(18 1222) translate(51 6)"/>
                </g>
            </g>
        </g>
    </g>
</svg>
