<svg xmlns="http://www.w3.org/2000/svg" width="397" height="36" viewBox="0 0 397 36">
    <g fill="none" fill-rule="evenodd">
        <g fill-rule="nonzero">
            <g>
                <g>
                    <path fill="#00B3E3" d="M.065 1.393C.022 1.23 0 1.11 0 1.056 0 .686.229.5.675.5h2.22c.392 0 .654.054.773.174.12.109.24.36.338.73L8.73 17.85l4.724-16.447c.098-.37.218-.61.337-.73.12-.108.381-.173.773-.173h2.134c.457 0 .674.185.674.555 0 .065-.021.174-.065.337l-6.27 20.551c-.087.25-.196.403-.337.468-.142.066-.36.098-.653.098H7.326c-.294 0-.501-.032-.653-.098-.142-.065-.262-.217-.338-.468L.065 1.394zM30.01 21.607c0 .37-.065.61-.196.729-.13.109-.392.174-.784.174h-1.796c-.392 0-.653-.054-.783-.174-.131-.109-.196-.36-.196-.73V1.394c0-.37.065-.61.196-.729.13-.109.391-.174.783-.174h1.796c.392 0 .653.054.784.174.13.109.196.36.196.73v20.213zM38.914 1.393c-.044-.163-.065-.283-.065-.337 0-.37.228-.555.674-.555h2.221c.392 0 .653.054.773.174.12.109.24.36.337.73l4.724 16.446 4.724-16.447c.098-.37.218-.61.338-.73.12-.108.38-.173.773-.173h2.133c.457 0 .675.185.675.555 0 .065-.022.174-.065.337l-6.27 20.551c-.087.25-.196.403-.337.468-.142.066-.36.098-.654.098h-2.753c-.294 0-.501-.032-.654-.098-.141-.065-.26-.217-.337-.468l-6.237-20.55zM78.622 21.509c0 .392-.054.653-.174.783-.109.131-.359.196-.73.196H66.073c-.392 0-.653-.054-.784-.174-.13-.109-.196-.359-.196-.729V1.393c0-.37.066-.61.196-.729.13-.109.392-.174.784-.174h11.527c.37 0 .61.065.73.196.108.13.174.392.174.783V2.83c0 .392-.055.653-.175.784-.108.13-.359.196-.729.196h-8.751v5.682h7.946c.37 0 .61.065.729.196.109.13.174.392.174.783v1.394c0 .392-.054.653-.174.783-.109.131-.36.196-.73.196h-7.945v6.314h8.87c.371 0 .61.065.73.196.109.13.174.391.174.783v1.372z" transform="translate(-50 -1099) translate(50 1099) translate(77 7)"/>
                    <path fill="#FFF" d="M99.979 16.012c.021-.305.098-.512.228-.62.13-.099.381-.153.762-.153h1.85c.393 0 .654.054.784.174.131.109.196.338.196.664 0 1.11-.13 2.036-.402 2.765-.273.73-.708 1.415-1.328 2.057C100.708 22.303 98.65 23 95.886 23c-1.687 0-3.135-.36-4.332-1.067-1.198-.707-2.101-1.752-2.722-3.135-.272-.598-.457-1.251-.555-1.98-.098-.72-.152-1.688-.152-2.907V9.394c0-1.11.054-2.036.174-2.787.109-.74.294-1.437.544-2.1.555-1.46 1.47-2.58 2.732-3.353C92.86.38 94.427 0 96.3 0c2.634 0 4.593.686 5.867 2.068.598.642 1.023 1.328 1.262 2.068.25.74.37 1.633.37 2.689 0 .326-.065.555-.196.664-.13.109-.391.174-.783.174h-1.916c-.37 0-.62-.054-.762-.152-.13-.098-.207-.305-.229-.62-.043-1.296-.348-2.221-.925-2.787-.577-.555-1.535-.839-2.873-.839-1.503 0-2.57.425-3.179 1.285-.62.86-.925 2.308-.925 4.343v5.192c0 1.981.316 3.407.947 4.278.631.87 1.676 1.317 3.135 1.317 1.295 0 2.264-.294 2.884-.892.632-.6.958-1.524 1.002-2.776zM121.052 0c1.829 0 3.374.36 4.615 1.067 1.252.707 2.166 1.752 2.765 3.135.272.598.457 1.262.555 2.013.098.74.153 1.698.153 2.874v4.517c0 1.067-.055 1.992-.175 2.765-.108.773-.293 1.48-.544 2.112-.598 1.48-1.524 2.601-2.765 3.363-1.251.762-2.786 1.143-4.615 1.143-1.829 0-3.374-.36-4.615-1.067-1.252-.707-2.166-1.752-2.765-3.134-.272-.6-.457-1.263-.555-2.014-.098-.74-.152-1.698-.152-2.874V9.394c0-1.067.054-1.992.174-2.765.109-.773.294-1.48.544-2.112.599-1.48 1.524-2.601 2.765-3.363C117.677.38 119.223 0 121.052 0zm0 3.309c-1.524 0-2.612.435-3.265 1.295-.654.86-.97 2.297-.97 4.3v5.192c0 2.003.327 3.429.97 4.3.653.86 1.73 1.295 3.265 1.295 1.524 0 2.612-.435 3.266-1.295.653-.871.968-2.297.968-4.3V8.904c0-2.003-.326-3.429-.968-4.3-.654-.86-1.731-1.295-3.266-1.295zM142.91 7.63v13.966c0 .37-.066.61-.197.73-.13.108-.392.173-.784.173h-1.698c-.391 0-.653-.054-.783-.174-.13-.109-.196-.36-.196-.73V1.394c0-.37.065-.61.196-.729.13-.109.392-.174.783-.174h1.796c.392 0 .675.043.85.141.174.098.37.338.576.73l7.391 13.998V1.393c0-.37.066-.61.196-.729.13-.109.392-.174.784-.174h1.698c.392 0 .653.054.784.174.13.109.196.36.196.73v20.213c0 .37-.066.61-.196.729-.13.109-.392.174-.784.174h-1.796c-.392 0-.675-.043-.849-.141-.174-.098-.37-.338-.577-.73L142.91 7.63zM183.543 1.295c2.144 0 3.788.49 4.93 1.47 1.144.98 1.72 2.373 1.72 4.19v.926c0 .74-.14 1.426-.413 2.057-.283.631-.653 1.208-1.11 1.73-.468.523-.99 1.002-1.59 1.438-.598.435-1.208.838-1.828 1.208l-2.471 1.48c-.555.327-.99.631-1.317.914-.316.283-.566.545-.73.784-.163.25-.272.49-.304.74-.044.25-.066.49-.066.74v.12h8.937c.37 0 .61.066.73.196.108.13.173.392.173.784v1.426c0 .392-.054.653-.174.784-.109.13-.359.196-.729.196h-11.963c-.391 0-.653-.055-.783-.175-.131-.108-.196-.359-.196-.729v-1.513c0-.925.109-1.752.337-2.493.229-.729.534-1.382.915-1.948.38-.566.827-1.056 1.35-1.48.51-.425 1.055-.795 1.632-1.132l2.623-1.513c.414-.25.806-.501 1.187-.762.38-.262.718-.556 1.001-.882.283-.327.523-.697.697-1.1.174-.402.261-.848.261-1.35v-.304c0-1.818-.99-2.721-2.972-2.721-.99 0-1.72.196-2.177.588-.468.391-.772 1.077-.914 2.068-.043.25-.13.413-.261.511-.13.098-.37.142-.697.142h-1.763c-.392 0-.653-.066-.784-.185-.13-.12-.196-.381-.196-.773 0-.642.12-1.285.37-1.927.25-.642.577-1.175.99-1.589 1.296-1.263 3.157-1.916 5.585-1.916zM203.571 22.935c-3.418 0-5.704-1.383-6.857-4.137-.25-.577-.425-1.208-.523-1.883-.098-.675-.152-1.556-.152-2.623v-4.027c0-1.11.054-2.014.152-2.722.098-.696.283-1.35.523-1.948 1.153-2.863 3.44-4.3 6.857-4.3 3.418 0 5.704 1.383 6.858 4.137.25.577.424 1.208.522 1.883.098.675.153 1.556.153 2.623v4.017c0 1.11-.055 2.024-.153 2.72-.098.697-.283 1.35-.522 1.95-1.143 2.873-3.44 4.31-6.858 4.31zm0-18.21c-.675 0-1.252.097-1.72.282-.468.185-.838.479-1.132.882-.294.403-.49.925-.62 1.578-.12.653-.185 1.437-.185 2.362v4.572c0 .947.065 1.741.185 2.395.12.653.326 1.175.62 1.578.283.403.664.686 1.132.87.468.175 1.034.262 1.72.262.675 0 1.252-.087 1.72-.261.468-.174.838-.468 1.132-.871.283-.403.49-.925.62-1.578.131-.654.186-1.448.186-2.395V9.829c0-.925-.066-1.72-.185-2.362-.12-.653-.327-1.175-.62-1.578-.295-.403-.665-.697-1.133-.882-.468-.185-1.034-.283-1.72-.283zM223.915 1.295c2.145 0 3.788.49 4.931 1.47 1.143.98 1.72 2.373 1.72 4.19v.926c0 .74-.141 1.426-.414 2.057-.283.631-.653 1.208-1.11 1.73-.468.523-.99 1.002-1.59 1.438-.598.435-1.207.838-1.828 1.208l-2.47 1.48c-.556.327-.991.631-1.318.914-.315.283-.566.545-.729.784-.163.25-.272.49-.305.74-.043.25-.065.49-.065.74v.12h8.936c.37 0 .61.066.73.196.109.13.174.392.174.784v1.426c0 .392-.055.653-.174.784-.11.13-.36.196-.73.196H217.7c-.392 0-.653-.055-.784-.175-.13-.108-.196-.359-.196-.729v-1.513c0-.925.11-1.752.338-2.493.228-.729.533-1.382.914-1.948.381-.566.827-1.056 1.35-1.48.511-.425 1.056-.795 1.633-1.132l2.623-1.513c.413-.25.805-.501 1.186-.762.381-.262.719-.556 1.002-.882.283-.327.522-.697.696-1.1.175-.402.262-.848.262-1.35v-.304c0-1.818-.99-2.721-2.972-2.721-.99 0-1.72.196-2.177.588-.468.391-.773 1.077-.914 2.068-.044.25-.13.413-.262.511-.13.098-.37.142-.696.142h-1.764c-.391 0-.653-.066-.783-.185-.13-.12-.196-.381-.196-.773 0-.642.12-1.285.37-1.927.25-.642.577-1.175.99-1.589 1.296-1.263 3.157-1.916 5.595-1.916zM243.508 21.607c0 .37-.065.61-.196.729-.13.109-.392.174-.783.174h-1.698c-.392 0-.654-.054-.784-.174-.13-.109-.196-.36-.196-.73V5.073h-3.157c-.37 0-.61-.065-.729-.196-.109-.13-.174-.391-.174-.783V2.72c0-.392.054-.653.174-.783.109-.131.36-.196.73-.196h5.845c.391 0 .653.054.783.174.13.109.196.359.196.73v18.96h-.01z" transform="translate(-50 -1099) translate(50 1099) translate(77 7)"/>
                </g>
            </g>
        </g>
    </g>
</svg>
