<svg width="600" height="182" xmlns="http://www.w3.org/2000/svg"><title>battery-capacity-d</title><g id="Landing" fill="none" fill-rule="evenodd"><g id="4000mAH"><path id="Rectangle" d="M0 0h600v182H0z"/><path id="Rectangle" d="M0 0h600v182H0z"/><path d="M103.526 120.645H81.282v28.766H65.06v-28.766H0v-11.708l59.875-76.599h18.062l-57.366 73.923h44.99V80.84h15.721v25.421h22.244v14.384zm59.958 30.104c-9.254 0-17.477-2.37-24.669-7.108-7.191-4.739-12.85-11.624-16.975-20.655-4.126-9.031-6.188-19.735-6.188-32.111 0-12.377 2.062-23.08 6.188-32.112 4.125-9.031 9.784-15.916 16.975-20.655C146.007 33.369 154.23 31 163.485 31c9.142 0 17.31 2.37 24.501 7.108 7.192 4.739 12.85 11.624 16.976 20.655 4.125 9.031 6.188 19.735 6.188 32.112 0 12.376-2.063 23.08-6.188 32.111-4.126 9.031-9.784 15.916-16.976 20.655-7.192 4.739-15.359 7.108-24.502 7.108zm0-14.885c9.366 0 16.864-3.847 22.495-11.54 5.63-7.693 8.446-18.843 8.446-33.45 0-14.606-2.815-25.755-8.446-33.449-5.63-7.693-13.129-11.54-22.495-11.54-9.477 0-17.031 3.847-22.662 11.54-5.63 7.694-8.446 18.843-8.446 33.45 0 14.606 2.816 25.756 8.446 33.449 5.631 7.693 13.185 11.54 22.662 11.54zM277.13 150.75c-9.254 0-17.477-2.37-24.67-7.108-7.19-4.739-12.85-11.624-16.975-20.655-4.125-9.031-6.188-19.735-6.188-32.111 0-12.377 2.063-23.08 6.188-32.112 4.126-9.031 9.784-15.916 16.976-20.655 7.191-4.74 15.414-7.109 24.668-7.109 9.143 0 17.31 2.37 24.502 7.108 7.191 4.739 12.85 11.624 16.975 20.655 4.126 9.031 6.188 19.735 6.188 32.112 0 12.376-2.062 23.08-6.188 32.111-4.125 9.031-9.784 15.916-16.975 20.655-7.192 4.739-15.36 7.108-24.502 7.108zm0-14.885c9.366 0 16.864-3.847 22.495-11.54 5.63-7.693 8.446-18.843 8.446-33.45 0-14.606-2.816-25.755-8.446-33.449-5.631-7.693-13.13-11.54-22.495-11.54-9.477 0-17.031 3.847-22.662 11.54-5.63 7.694-8.446 18.843-8.446 33.45 0 14.606 2.815 25.756 8.446 33.449 5.63 7.693 13.185 11.54 22.662 11.54zm113.645 14.885c-9.255 0-17.478-2.37-24.67-7.108-7.191-4.739-12.85-11.624-16.975-20.655-4.126-9.031-6.188-19.735-6.188-32.111 0-12.377 2.062-23.08 6.188-32.112 4.125-9.031 9.784-15.916 16.976-20.655 7.19-4.74 15.413-7.109 24.668-7.109 9.142 0 17.31 2.37 24.501 7.108 7.192 4.739 12.85 11.624 16.976 20.655 4.125 9.031 6.188 19.735 6.188 32.112 0 12.376-2.063 23.08-6.188 32.111-4.126 9.031-9.784 15.916-16.976 20.655-7.191 4.739-15.359 7.108-24.501 7.108zm0-14.885c9.365 0 16.864-3.847 22.494-11.54 5.631-7.693 8.446-18.843 8.446-33.45 0-14.606-2.815-25.755-8.446-33.449-5.63-7.693-13.129-11.54-22.494-11.54-9.478 0-17.032 3.847-22.663 11.54-5.63 7.694-8.445 18.843-8.445 33.45 0 14.606 2.815 25.756 8.445 33.449 5.631 7.693 13.185 11.54 22.663 11.54zm105.073-20.007c4.18 0 7.494 1.213 9.94 3.638 2.446 2.425 3.67 6.02 3.67 10.787v19.13h-6.021v-18.44c0-3.22-.743-5.644-2.227-7.275-1.484-1.63-3.606-2.446-6.366-2.446-3.052 0-5.477.951-7.275 2.854-1.798 1.902-2.697 4.63-2.697 8.184v17.122h-6.02v-18.439c0-3.22-.743-5.644-2.227-7.275-1.485-1.63-3.607-2.446-6.366-2.446-3.052 0-5.478.951-7.275 2.854-1.798 1.902-2.697 4.63-2.697 8.184v17.122h-6.021v-33.24h5.77v4.954c1.212-1.714 2.801-3.02 4.766-3.92 1.966-.898 4.202-1.348 6.711-1.348 2.593 0 4.892.523 6.9 1.568 2.006 1.045 3.553 2.572 4.64 4.578 1.255-1.923 3-3.428 5.237-4.515 2.237-1.087 4.756-1.63 7.558-1.63zm54.345 22.579H526.86l-4.83 10.975h-6.46l19.882-43.902h6.209l19.944 43.902h-6.585l-4.83-10.975zm-2.195-5.018l-9.47-21.512-9.471 21.512h18.94zm37.787-17.56c4.223 0 7.578 1.222 10.066 3.668 2.488 2.446 3.732 6.031 3.732 10.756v19.13h-6.021v-18.44c0-3.22-.774-5.644-2.32-7.275-1.548-1.63-3.764-2.446-6.649-2.446-3.261 0-5.832.951-7.714 2.854-1.881 1.902-2.822 4.63-2.822 8.184v17.122h-6.021v-46.536h6.02v18c1.255-1.59 2.896-2.823 4.924-3.7 2.028-.879 4.296-1.318 6.805-1.318z" id="4000mAh" fill="#5C7EF4" fill-rule="nonzero"/></g></g></svg>