<?xml version="1.0" encoding="UTF-8"?>
<svg width="319px" height="67px" viewBox="0 0 319 67" version="1.1" xmlns="http://www.w3.org/2000/svg" xmlns:xlink="http://www.w3.org/1999/xlink">
    <!-- Generator: Sketch 57.1 (83088) - https://sketch.com -->
    <title>HTC_logo</title>
    <desc>Created with Sketch.</desc>
    <defs>
        <linearGradient x1="0%" y1="60.953902%" x2="100%" y2="60.953902%" id="linearGradient-1">
            <stop stop-color="#044A76" offset="0%"></stop>
            <stop stop-color="#022B45" offset="100%"></stop>
        </linearGradient>
    </defs>
    <g id="Landing" stroke="none" stroke-width="1" fill="none" fill-rule="evenodd">
        <g id="Wildfire-OP75_360" transform="translate(-20.000000, -461.000000)">
            <g id="KV" transform="translate(0.000000, 48.000000)">
                <g id="HTC_logo" transform="translate(20.000000, 413.000000)">
                    <path d="M5.01584221,64.8017917 C2.12923216,64.8017917 0,62.4871221 0,59.5610302 L0,59.5319149 C0,56.6494961 2.11494201,54.2620381 5.05871265,54.2620381 C6.87356154,54.2620381 7.95961285,54.9171333 8.95992326,55.8779395 L8.18825523,56.7222844 C7.34513645,55.9070549 6.40198664,55.324748 5.04442251,55.324748 C2.82944945,55.324748 1.1717922,57.1590146 1.1717922,59.5027996 L1.1717922,59.5319149 C1.1717922,61.8902576 2.8437396,63.7390817 5.04442251,63.7390817 C6.41627679,63.7390817 7.31655616,63.2004479 8.27399612,62.268757 L9.01708386,63.0111982 C7.973903,64.0884658 6.8306911,64.8017917 5.01584221,64.8017917 Z M12.3847956,64.787234 C10.9986511,64.787234 9.62679687,63.9865622 9.62679687,62.443449 L9.62679687,62.4143337 C9.62679687,60.7984323 10.9129103,59.9540873 12.7849197,59.9540873 C13.7280696,59.9540873 14.3854164,60.0851064 15.0427632,60.2743561 L15.0427632,60.0414334 C15.0427632,58.7021277 14.2425149,58.0033595 12.8563705,58.0033595 C11.9846714,58.0033595 11.2987443,58.2217245 10.6128171,58.5419933 L10.2841437,57.62486 C11.0986822,57.2463606 11.8846404,56.9843225 12.9706917,56.9843225 C14.0138725,56.9843225 14.828411,57.2754759 15.3571465,57.8141097 C15.8715919,58.3381859 16.1288145,59.0660694 16.1288145,60.0268757 L16.1288145,64.6270997 L15.0427632,64.6270997 L15.0427632,63.506159 C14.5283179,64.1758119 13.6851991,64.787234 12.3847956,64.787234 Z M12.5991478,63.8846585 C13.9567119,63.8846585 15.0570534,63.0548712 15.0570534,61.8611422 L15.0570534,61.162374 C14.5140277,61.0022396 13.7995203,60.8421053 12.8992409,60.8421053 C11.5273867,60.8421053 10.7414285,61.4535274 10.7414285,62.356103 L10.7414285,62.3852184 C10.7414285,63.331467 11.5988374,63.8846585 12.5991478,63.8846585 Z M17.838869,66.956327 L17.838869,57.1007839 L18.9392105,57.1007839 L18.9392105,58.6147816 C19.5393967,57.712206 20.4110958,56.9406495 21.7686599,56.9406495 C23.5406384,56.9406495 25.2983267,58.3673012 25.2983267,60.8421053 L25.2983267,60.8712206 C25.2983267,63.331467 23.5549285,64.787234 21.7686599,64.787234 C20.3968056,64.787234 19.5108164,64.0302352 18.9392105,63.1858903 L18.9392105,66.956327 L17.838869,66.956327 Z M21.5685978,63.7827548 C22.9976127,63.7827548 24.1694049,62.7054871 24.1694049,60.8857783 L24.1694049,60.8566629 C24.1694049,59.0806271 22.9690324,57.9451288 21.5685978,57.9451288 C20.1967436,57.9451288 18.89634,59.1243001 18.89634,60.8421053 L18.89634,60.8712206 C18.89634,62.6181411 20.1967436,63.7827548 21.5685978,63.7827548 Z M29.1804837,64.7581187 C27.9944014,64.7581187 27.094122,64.1612542 27.094122,62.6326988 L27.094122,58.0907055 L26.0652313,58.0907055 L26.0652313,57.1007839 L27.094122,57.1007839 L27.094122,54.8297872 L28.1944635,54.8297872 L28.1944635,57.1007839 L30.5380479,57.1007839 L30.5380479,58.0907055 L28.1944635,58.0907055 L28.1944635,62.4871221 C28.1944635,63.4042553 28.6946187,63.7390817 29.4377064,63.7390817 C29.8092503,63.7390817 30.1236335,63.6662934 30.5094676,63.4770437 L30.5094676,64.4378499 C30.1236335,64.6416573 29.7092192,64.7581187 29.1804837,64.7581187 Z M34.5773966,64.787234 C32.791128,64.787234 31.7479471,63.5643897 31.7479471,61.7737962 L31.7479471,57.1007839 L32.8482886,57.1007839 L32.8482886,61.4972004 C32.8482886,62.8947368 33.5913763,63.7681971 34.8917798,63.7681971 C36.1493129,63.7681971 37.1067529,62.8219485 37.1067529,61.4098544 L37.1067529,57.1007839 L38.1928042,57.1007839 L38.1928042,64.6270997 L37.1067529,64.6270997 L37.1067529,63.3169093 C36.6065977,64.1321389 35.8492198,64.787234 34.5773966,64.787234 Z M40.0457602,64.6270997 L40.0457602,57.1007839 L41.1461016,57.1007839 L41.1461016,59.0660694 C41.6891273,57.8141097 42.7608884,56.9115342 44.161323,56.9697648 L44.161323,58.1780515 L44.0755821,58.1780515 C42.4607953,58.1780515 41.1461016,59.3572228 41.1461016,61.6282195 L41.1461016,64.6270997 L40.0457602,64.6270997 Z M45.5569942,61.3225084 C45.7141858,62.9092945 46.8573977,63.8264278 48.1578013,63.8264278 C49.1724018,63.8264278 49.8869093,63.4042553 50.4870955,62.7637178 L51.1730226,63.3896976 C50.4299349,64.2340426 49.5296555,64.8017917 48.129221,64.8017917 C46.1000198,64.8017917 44.4423626,63.2150056 44.4423626,60.8712206 C44.4423626,58.68757 45.9428282,56.9406495 47.9863195,56.9406495 C50.1727122,56.9406495 51.4302453,58.7166853 51.4302453,60.9294513 C51.4302453,61.031355 51.4302453,61.1478163 51.4159552,61.3225084 L45.5569942,61.3225084 Z M45.5569942,60.4199328 L50.3156137,60.4199328 C50.1870024,59.0515118 49.4153343,57.8868981 47.9577392,57.8868981 C46.6859159,57.8868981 45.7141858,58.9641657 45.5569942,60.4199328 Z M57.5511924,67 C56.936716,67 56.4794312,66.868981 55.979276,66.6215006 L56.3508199,65.7334826 C56.7080736,65.9227324 57.036747,66.0100784 57.5083219,66.0100784 C58.1656688,66.0100784 58.5800831,65.6606943 59.0230777,64.5979843 L55.6648927,57.1007839 L56.8795554,57.1007839 L59.5661033,63.37514 L61.938268,57.1007839 L63.1100602,57.1007839 L60.0090979,64.8745801 C59.3803314,66.4322508 58.665824,67 57.5511924,67 Z M67.1779892,64.8017917 C64.9630162,64.8017917 63.3482294,63.0257559 63.3482294,60.9003359 L63.3482294,60.8712206 C63.3482294,58.7458007 64.9773063,56.9406495 67.2065695,56.9406495 C69.4215426,56.9406495 71.0506195,58.7166853 71.0506195,60.8421053 L71.0506195,60.8712206 C71.0506195,62.9966405 69.4072524,64.8017917 67.1779892,64.8017917 Z M67.2065695,63.7973124 C68.8070662,63.7973124 69.9216978,62.4871221 69.9216978,60.9003359 L69.9216978,60.8712206 C69.9216978,59.2553191 68.7356154,57.9305711 67.1779892,57.9305711 C65.5774926,57.9305711 64.4771511,59.2553191 64.4771511,60.8421053 L64.4771511,60.8712206 C64.4771511,62.4871221 65.6489433,63.7973124 67.2065695,63.7973124 Z M75.1328387,64.787234 C73.3465701,64.787234 72.3033893,63.5643897 72.3033893,61.7737962 L72.3033893,57.1007839 L73.4037307,57.1007839 L73.4037307,61.4972004 C73.4037307,62.8947368 74.1468184,63.7681971 75.447222,63.7681971 C76.7047551,63.7681971 77.662195,62.8219485 77.662195,61.4098544 L77.662195,57.1007839 L78.7482463,57.1007839 L78.7482463,64.6270997 L77.662195,64.6270997 L77.662195,63.3169093 C77.1620398,64.1321389 76.4046619,64.787234 75.1328387,64.787234 Z M80.6012023,64.6270997 L80.6012023,57.1007839 L81.7015437,57.1007839 L81.7015437,59.0660694 C82.2445694,57.8141097 83.3163305,56.9115342 84.7167651,56.9697648 L84.7167651,58.1780515 L84.6310242,58.1780515 C83.0162374,58.1780515 81.7015437,59.3572228 81.7015437,61.6282195 L81.7015437,64.6270997 L80.6012023,64.6270997 Z M89.4372776,66.956327 L89.4372776,57.1007839 L90.537619,57.1007839 L90.537619,58.6147816 C91.1378053,57.712206 92.0095044,56.9406495 93.3670685,56.9406495 C95.1390469,56.9406495 96.8967352,58.3673012 96.8967352,60.8421053 L96.8967352,60.8712206 C96.8967352,63.331467 95.1533371,64.787234 93.3670685,64.787234 C91.9952142,64.787234 91.109225,64.0302352 90.537619,63.1858903 L90.537619,66.956327 L89.4372776,66.956327 Z M93.1670064,63.7827548 C94.5960213,63.7827548 95.7678135,62.7054871 95.7678135,60.8857783 L95.7678135,60.8566629 C95.7678135,59.0806271 94.567441,57.9451288 93.1670064,57.9451288 C91.7951521,57.9451288 90.4947486,59.1243001 90.4947486,60.8421053 L90.4947486,60.8712206 C90.4947486,62.6181411 91.7951521,63.7827548 93.1670064,63.7827548 Z M100.507379,64.787234 C99.1212351,64.787234 97.7493808,63.9865622 97.7493808,62.443449 L97.7493808,62.4143337 C97.7493808,60.7984323 99.0354942,59.9540873 100.907504,59.9540873 C101.850653,59.9540873 102.508,60.0851064 103.165347,60.2743561 L103.165347,60.0414334 C103.165347,58.7021277 102.365099,58.0033595 100.978954,58.0033595 C100.107255,58.0033595 99.4213282,58.2217245 98.735401,58.5419933 L98.4067276,57.62486 C99.2212661,57.2463606 100.007224,56.9843225 101.093276,56.9843225 C102.136456,56.9843225 102.950995,57.2754759 103.47973,57.8141097 C103.994176,58.3381859 104.251398,59.0660694 104.251398,60.0268757 L104.251398,64.6270997 L103.165347,64.6270997 L103.165347,63.506159 C102.650902,64.1758119 101.807783,64.787234 100.507379,64.787234 Z M100.721732,63.8846585 C102.079296,63.8846585 103.179637,63.0548712 103.179637,61.8611422 L103.179637,61.162374 C102.636612,61.0022396 101.922104,60.8421053 101.021825,60.8421053 C99.6499706,60.8421053 98.8640124,61.4535274 98.8640124,62.356103 L98.8640124,62.3852184 C98.8640124,63.331467 99.7214213,63.8846585 100.721732,63.8846585 Z M108.405068,64.7726764 C107.347597,64.7726764 106.175805,64.3505039 105.346977,63.6662934 L105.904292,62.8656215 C106.704541,63.4770437 107.59053,63.8264278 108.462229,63.8264278 C109.348218,63.8264278 109.991275,63.3605823 109.991275,62.6326988 L109.991275,62.6035834 C109.991275,61.8465845 109.119576,61.5554311 108.147846,61.2788354 C106.990344,60.944009 105.70423,60.5363942 105.70423,59.1534155 L105.70423,59.1243001 C105.70423,57.8286674 106.761701,56.9697648 108.219296,56.9697648 C109.119576,56.9697648 110.119886,57.2900336 110.877264,57.7995521 L110.377109,58.643897 C109.691182,58.1926092 108.905224,57.9160134 108.190716,57.9160134 C107.319017,57.9160134 106.761701,58.3818589 106.761701,59.0078387 L106.761701,59.0369541 C106.761701,59.75028 107.676271,60.0268757 108.662291,60.3325868 C109.805503,60.6819709 111.034456,61.1332587 111.034456,62.4871221 L111.034456,62.5162374 C111.034456,63.9428891 109.876954,64.7726764 108.405068,64.7726764 Z M114.759421,64.7726764 C113.70195,64.7726764 112.530158,64.3505039 111.701329,63.6662934 L112.258645,62.8656215 C113.058893,63.4770437 113.944883,63.8264278 114.816582,63.8264278 C115.702571,63.8264278 116.345628,63.3605823 116.345628,62.6326988 L116.345628,62.6035834 C116.345628,61.8465845 115.473929,61.5554311 114.502198,61.2788354 C113.344696,60.944009 112.058583,60.5363942 112.058583,59.1534155 L112.058583,59.1243001 C112.058583,57.8286674 113.116054,56.9697648 114.573649,56.9697648 C115.473929,56.9697648 116.474239,57.2900336 117.231617,57.7995521 L116.731462,58.643897 C116.045535,58.1926092 115.259576,57.9160134 114.545069,57.9160134 C113.67337,57.9160134 113.116054,58.3818589 113.116054,59.0078387 L113.116054,59.0369541 C113.116054,59.75028 114.030624,60.0268757 115.016644,60.3325868 C116.159856,60.6819709 117.388809,61.1332587 117.388809,62.4871221 L117.388809,62.5162374 C117.388809,63.9428891 116.231306,64.7726764 114.759421,64.7726764 Z M118.84164,55.4557671 L118.84164,54.2183651 L120.099173,54.2183651 L120.099173,55.4557671 L118.84164,55.4557671 Z M118.913091,64.6270997 L118.913091,57.1007839 L120.013433,57.1007839 L120.013433,64.6270997 L118.913091,64.6270997 Z M125.324604,64.8017917 C123.109631,64.8017917 121.494845,63.0257559 121.494845,60.9003359 L121.494845,60.8712206 C121.494845,58.7458007 123.123922,56.9406495 125.353185,56.9406495 C127.568158,56.9406495 129.197235,58.7166853 129.197235,60.8421053 L129.197235,60.8712206 C129.197235,62.9966405 127.553868,64.8017917 125.324604,64.8017917 Z M125.353185,63.7973124 C126.953681,63.7973124 128.068313,62.4871221 128.068313,60.9003359 L128.068313,60.8712206 C128.068313,59.2553191 126.882231,57.9305711 125.324604,57.9305711 C123.724108,57.9305711 122.623766,59.2553191 122.623766,60.8421053 L122.623766,60.8712206 C122.623766,62.4871221 123.795559,63.7973124 125.353185,63.7973124 Z M130.564326,64.6270997 L130.564326,57.1007839 L131.664667,57.1007839 L131.664667,58.4109742 C132.150532,57.5957447 132.9222,56.9406495 134.194023,56.9406495 C135.980292,56.9406495 137.023473,58.1634938 137.023473,59.9540873 L137.023473,64.6270997 L135.923131,64.6270997 L135.923131,60.2306831 C135.923131,58.8331467 135.180044,57.9596865 133.87964,57.9596865 C132.607817,57.9596865 131.664667,58.9059351 131.664667,60.3180291 L131.664667,64.6270997 L130.564326,64.6270997 Z M138.619206,64.6270997 L138.619206,63.0985442 L139.9339,63.0985442 L139.9339,64.6270997 L138.619206,64.6270997 Z M145.483241,64.6270997 L145.483241,54.4367301 L152.714056,54.4367301 L152.714056,55.4848824 L146.612163,55.4848824 L146.612163,58.9641657 L152.071,58.9641657 L152.071,60.012318 L146.612163,60.012318 L146.612163,63.5789474 L152.785507,63.5789474 L152.785507,64.6270997 L145.483241,64.6270997 Z M153.580992,64.6270997 L156.481892,60.7984323 L153.695313,57.1007839 L154.952846,57.1007839 L157.139239,60.012318 L159.325632,57.1007839 L160.554584,57.1007839 L157.753715,60.7693169 L160.668906,64.6270997 L159.397082,64.6270997 L157.110659,61.5554311 L154.809945,64.6270997 L153.580992,64.6270997 Z M161.835934,66.956327 L161.835934,57.1007839 L162.936276,57.1007839 L162.936276,58.6147816 C163.536462,57.712206 164.408161,56.9406495 165.765725,56.9406495 C167.537704,56.9406495 169.295392,58.3673012 169.295392,60.8421053 L169.295392,60.8712206 C169.295392,63.331467 167.551994,64.787234 165.765725,64.787234 C164.393871,64.787234 163.507882,64.0302352 162.936276,63.1858903 L162.936276,66.956327 L161.835934,66.956327 Z M165.565663,63.7827548 C166.994678,63.7827548 168.16647,62.7054871 168.16647,60.8857783 L168.16647,60.8566629 C168.16647,59.0806271 166.966098,57.9451288 165.565663,57.9451288 C164.193809,57.9451288 162.893406,59.1243001 162.893406,60.8421053 L162.893406,60.8712206 C162.893406,62.6181411 164.193809,63.7827548 165.565663,63.7827548 Z M172.906036,64.787234 C171.519892,64.787234 170.148038,63.9865622 170.148038,62.443449 L170.148038,62.4143337 C170.148038,60.7984323 171.434151,59.9540873 173.306161,59.9540873 C174.24931,59.9540873 174.906657,60.0851064 175.564004,60.2743561 L175.564004,60.0414334 C175.564004,58.7021277 174.763756,58.0033595 173.377611,58.0033595 C172.505912,58.0033595 171.819985,58.2217245 171.134058,58.5419933 L170.805385,57.62486 C171.619923,57.2463606 172.405881,56.9843225 173.491932,56.9843225 C174.535113,56.9843225 175.349652,57.2754759 175.878387,57.8141097 C176.392833,58.3381859 176.650055,59.0660694 176.650055,60.0268757 L176.650055,64.6270997 L175.564004,64.6270997 L175.564004,63.506159 C175.049559,64.1758119 174.20644,64.787234 172.906036,64.787234 Z M173.120389,63.8846585 C174.477953,63.8846585 175.578294,63.0548712 175.578294,61.8611422 L175.578294,61.162374 C175.035269,61.0022396 174.320761,60.8421053 173.420482,60.8421053 C172.048627,60.8421053 171.262669,61.4535274 171.262669,62.356103 L171.262669,62.3852184 C171.262669,63.331467 172.120078,63.8846585 173.120389,63.8846585 Z M178.36011,64.6270997 L178.36011,57.1007839 L179.460451,57.1007839 L179.460451,58.4109742 C179.946316,57.5957447 180.717984,56.9406495 181.989808,56.9406495 C183.776076,56.9406495 184.819257,58.1634938 184.819257,59.9540873 L184.819257,64.6270997 L183.718916,64.6270997 L183.718916,60.2306831 C183.718916,58.8331467 182.975828,57.9596865 181.675424,57.9596865 C180.403601,57.9596865 179.460451,58.9059351 179.460451,60.3180291 L179.460451,64.6270997 L178.36011,64.6270997 Z M189.644564,64.787234 C187.872586,64.787234 186.114897,63.3605823 186.114897,60.8857783 L186.114897,60.8566629 C186.114897,58.3964166 187.872586,56.9406495 189.644564,56.9406495 C191.016418,56.9406495 191.902407,57.6976484 192.474013,58.5419933 L192.474013,54 L193.574355,54 L193.574355,64.6270997 L192.474013,64.6270997 L192.474013,63.1131019 C191.873827,64.0156775 191.002128,64.787234 189.644564,64.787234 Z M189.844626,63.7827548 C191.21648,63.7827548 192.516884,62.6035834 192.516884,60.8712206 L192.516884,60.8421053 C192.516884,59.1097424 191.21648,57.9451288 189.844626,57.9451288 C188.415611,57.9451288 187.243819,59.0223964 187.243819,60.8421053 L187.243819,60.8712206 C187.243819,62.6472564 188.444191,63.7827548 189.844626,63.7827548 Z M200.224037,67 C199.609561,67 199.152276,66.868981 198.652121,66.6215006 L199.023665,65.7334826 C199.380919,65.9227324 199.709592,66.0100784 200.181167,66.0100784 C200.838514,66.0100784 201.252928,65.6606943 201.695923,64.5979843 L198.337738,57.1007839 L199.5524,57.1007839 L202.238948,63.37514 L204.611113,57.1007839 L205.782905,57.1007839 L202.681943,64.8745801 C202.053176,66.4322508 201.338669,67 200.224037,67 Z M209.850834,64.8017917 C207.635861,64.8017917 206.021074,63.0257559 206.021074,60.9003359 L206.021074,60.8712206 C206.021074,58.7458007 207.650151,56.9406495 209.879415,56.9406495 C212.094388,56.9406495 213.723465,58.7166853 213.723465,60.8421053 L213.723465,60.8712206 C213.723465,62.9966405 212.080097,64.8017917 209.850834,64.8017917 Z M209.879415,63.7973124 C211.479911,63.7973124 212.594543,62.4871221 212.594543,60.9003359 L212.594543,60.8712206 C212.594543,59.2553191 211.40846,57.9305711 209.850834,57.9305711 C208.250338,57.9305711 207.149996,59.2553191 207.149996,60.8421053 L207.149996,60.8712206 C207.149996,62.4871221 208.321788,63.7973124 209.879415,63.7973124 Z M217.805684,64.787234 C216.019415,64.787234 214.976234,63.5643897 214.976234,61.7737962 L214.976234,57.1007839 L216.076576,57.1007839 L216.076576,61.4972004 C216.076576,62.8947368 216.819663,63.7681971 218.120067,63.7681971 C219.3776,63.7681971 220.33504,62.8219485 220.33504,61.4098544 L220.33504,57.1007839 L221.421091,57.1007839 L221.421091,64.6270997 L220.33504,64.6270997 L220.33504,63.3169093 C219.834885,64.1321389 219.077507,64.787234 217.805684,64.787234 Z M223.274047,64.6270997 L223.274047,57.1007839 L224.374389,57.1007839 L224.374389,59.0660694 C224.917414,57.8141097 225.989176,56.9115342 227.38961,56.9697648 L227.38961,58.1780515 L227.303869,58.1780515 C225.689082,58.1780515 224.374389,59.3572228 224.374389,61.6282195 L224.374389,64.6270997 L223.274047,64.6270997 Z M234.582318,64.6853303 L231.381325,57.1007839 L232.595988,57.1007839 L235.082474,63.3460246 L237.58325,57.1007839 L238.769332,57.1007839 L235.554048,64.6853303 L234.582318,64.6853303 Z M239.90778,55.4557671 L239.90778,54.2183651 L241.165314,54.2183651 L241.165314,55.4557671 L239.90778,55.4557671 Z M239.979231,64.6270997 L239.979231,57.1007839 L241.079573,57.1007839 L241.079573,64.6270997 L239.979231,64.6270997 Z M245.461885,64.7726764 C244.404414,64.7726764 243.232622,64.3505039 242.403793,63.6662934 L242.961109,62.8656215 C243.761357,63.4770437 244.647346,63.8264278 245.519046,63.8264278 C246.405035,63.8264278 247.048091,63.3605823 247.048091,62.6326988 L247.048091,62.6035834 C247.048091,61.8465845 246.176392,61.5554311 245.204662,61.2788354 C244.04716,60.944009 242.761047,60.5363942 242.761047,59.1534155 L242.761047,59.1243001 C242.761047,57.8286674 243.818518,56.9697648 245.276113,56.9697648 C246.176392,56.9697648 247.176703,57.2900336 247.934081,57.7995521 L247.433925,58.643897 C246.747998,58.1926092 245.96204,57.9160134 245.247533,57.9160134 C244.375834,57.9160134 243.818518,58.3818589 243.818518,59.0078387 L243.818518,59.0369541 C243.818518,59.75028 244.733087,60.0268757 245.719108,60.3325868 C246.86232,60.6819709 248.091272,61.1332587 248.091272,62.4871221 L248.091272,62.5162374 C248.091272,63.9428891 246.93377,64.7726764 245.461885,64.7726764 Z M249.544104,55.4557671 L249.544104,54.2183651 L250.801637,54.2183651 L250.801637,55.4557671 L249.544104,55.4557671 Z M249.615555,64.6270997 L249.615555,57.1007839 L250.715896,57.1007839 L250.715896,64.6270997 L249.615555,64.6270997 Z M256.027068,64.8017917 C253.812095,64.8017917 252.197308,63.0257559 252.197308,60.9003359 L252.197308,60.8712206 C252.197308,58.7458007 253.826385,56.9406495 256.055649,56.9406495 C258.270622,56.9406495 259.899699,58.7166853 259.899699,60.8421053 L259.899699,60.8712206 C259.899699,62.9966405 258.256331,64.8017917 256.027068,64.8017917 Z M256.055649,63.7973124 C257.656145,63.7973124 258.770777,62.4871221 258.770777,60.9003359 L258.770777,60.8712206 C258.770777,59.2553191 257.584694,57.9305711 256.027068,57.9305711 C254.426572,57.9305711 253.32623,59.2553191 253.32623,60.8421053 L253.32623,60.8712206 C253.32623,62.4871221 254.498022,63.7973124 256.055649,63.7973124 Z M261.266789,64.6270997 L261.266789,57.1007839 L262.367131,57.1007839 L262.367131,58.4109742 C262.852996,57.5957447 263.624664,56.9406495 264.896487,56.9406495 C266.682756,56.9406495 267.725937,58.1634938 267.725937,59.9540873 L267.725937,64.6270997 L266.625595,64.6270997 L266.625595,60.2306831 C266.625595,58.8331467 265.882507,57.9596865 264.582104,57.9596865 C263.310281,57.9596865 262.367131,58.9059351 262.367131,60.3180291 L262.367131,64.6270997 L261.266789,64.6270997 Z" id="Captureyourpassion.Expandyourvision." fill="#03385A" fill-rule="nonzero"></path>
                    <g id="HTC_Wildfire_R70_CMYK-Copy">
                        <g id="Group-Copy-3" fill="url(#linearGradient-1)" fill-rule="nonzero">
                            <path d="M231.410321,13.002634 C236.663681,13.002634 239.694466,17.1107284 239.694466,22.0991288 L239.694466,22.881623 L225.550803,22.881623 C226.055934,26.5984703 228.78364,28.7503293 231.915451,28.7503293 C234.340079,28.7503293 236.057524,27.7722115 237.572916,26.305035 L239.189335,27.7722115 C237.370864,29.728447 235.249315,31 231.814425,31 C226.96517,31 222.924123,27.3809645 222.924123,22.001317 C222.924123,17.0129167 226.561065,13.002634 231.410321,13.002634 Z M183.321869,6.25362181 L183.321869,30.6087529 L180.695189,30.6087529 L180.695189,27.0875291 C179.280823,29.1415763 177.159273,30.9021882 173.926436,30.9021882 C169.683338,30.9021882 165.440239,27.6743998 165.440239,21.9035053 C165.440239,16.2304225 169.683338,12.9048223 173.926436,12.9048223 C177.2603,12.9048223 179.381849,14.6654342 180.695189,16.5238578 L180.695189,6.25362181 L183.321869,6.25362181 Z M308.897384,6.74268067 C315.05998,6.74268067 319,12.2201399 319,18.7735286 C319,25.424729 314.958954,30.9021882 308.796358,30.9021882 C302.532736,30.9021882 298.693742,25.424729 298.693742,18.8713403 C298.693742,12.3179516 302.734788,6.74268067 308.897384,6.74268067 Z M112.30048,7.13392775 L119.170258,26.5984703 L125.837985,7.13392775 L128.06056,7.13392775 L134.627261,26.5984703 L141.49704,7.13392775 L144.325772,7.13392775 L135.738548,30.6087529 L133.414947,30.6087529 L126.848247,11.731081 L120.18052,30.6087529 L117.957945,30.6087529 L109.370721,7.13392775 L112.30048,7.13392775 Z M160.287905,6.25362181 L160.287905,30.6087529 L157.661225,30.6087529 L157.661225,6.25362181 L160.287905,6.25362181 Z M265.658188,7.23173953 C270.911549,7.23173953 274.346438,9.97046913 274.346438,14.1763753 C274.346438,18.0888462 271.618732,20.3385169 267.779738,21.0231993 L275.154647,30.5109411 L271.820784,30.5109411 L264.849979,21.4144464 L257.9802,21.4144464 L257.9802,30.5109411 L255.252494,30.5109411 L255.252494,7.23173953 L265.658188,7.23173953 Z M151.195551,13.2960694 L151.195551,30.5109411 L148.568871,30.5109411 L148.568871,13.2960694 L151.195551,13.2960694 Z M195.546034,6.05799827 C196.758348,6.05799827 197.566557,6.15581004 198.475793,6.44924535 L198.475793,8.6989161 C197.465531,8.40548078 196.758348,8.30766901 195.849113,8.30766901 C193.82859,8.30766901 192.717302,9.48141027 192.717302,11.9267046 L192.717302,13.2960694 L198.475793,13.2960694 L198.475793,15.5457401 L192.818328,15.5457401 L192.818328,30.5109411 L190.191648,30.5109411 L190.191648,15.5457401 L187.76702,15.5457401 L187.76702,13.2960694 L190.191648,13.2960694 L190.191648,11.8288928 C190.191648,8.11204547 192.111145,6.05799827 195.546034,6.05799827 Z M204.739415,13.2960694 L204.739415,30.5109411 L202.112735,30.5109411 L202.112735,13.2960694 L204.739415,13.2960694 Z M220.9036,13.002634 L220.9036,15.7413636 L220.701548,15.7413636 C216.862554,15.7413636 213.629717,18.4800932 213.629717,23.6641171 L213.629717,30.5109411 L211.003037,30.5109411 L211.003037,13.2960694 L213.629717,13.2960694 L213.629717,17.7954108 C214.943057,14.9588695 217.468711,12.9048223 220.9036,13.002634 Z M295.460905,7.23173953 L295.460905,9.18797496 L284.55008,30.5109411 L281.519295,30.5109411 L292.43012,9.57922204 L279.195694,9.57922204 L279.195694,7.23173953 L295.460905,7.23173953 Z M4.93814872,0 L4.93814872,8.56922817 L5.07210382,8.47808244 C5.9155052,7.93205035 7.46822063,7.40875907 9.47318326,7.31754316 C10.9848614,7.22125969 17.5354669,7.22125969 19.1479236,7.31754316 C20.9619374,7.41382662 23.8845153,8.18409432 25.7993076,10.0134801 C27.5344513,11.6712302 28.5319493,13.7694452 28.6154082,16.1395995 L28.6211069,16.4644721 L28.6211069,30.3292907 L23.6829582,30.3292907 L23.6829582,16.657039 C23.4814011,14.0573855 21.6673873,12.2279997 19.1479236,12.0354328 C17.2331313,11.9391494 11.3879756,11.8428659 9.47318326,12.0354328 C7.05449818,12.2279997 5.13970581,14.153669 4.93814872,16.5607556 C4.83907829,17.8858771 4.9347904,29.9114354 4.93806334,30.3187008 L4.93814872,30.3292907 L3.63797881e-12,30.3292907 L3.63797881e-12,0 L4.93814872,0 Z M95.4372825,7.31754316 L95.4372825,12.0354328 L76.3901374,12.0354328 C73.9714523,12.1317163 71.8551028,14.4425194 71.6535458,16.8496059 C71.5527672,18.101291 71.5527672,19.4492594 71.6535458,21.0860783 C71.8551028,23.5894483 73.6691167,25.3225507 76.3901374,25.5151176 C77.6330728,25.6064634 82.0507643,25.5244864 86.8033751,25.5158383 L95.4372825,25.5151176 L95.4372825,30.2330072 L76.0878018,30.2330072 C73.6691167,30.2330072 71.149653,29.1738892 69.4364178,27.5370703 C67.823961,25.9965349 66.9169541,23.8782987 66.6146185,21.0860783 C66.5138399,19.9306768 66.5138399,18.101291 66.6146185,16.7533225 C66.8161756,14.153669 67.823961,11.650299 69.4364178,10.0134801 C71.0717787,8.4510621 73.166265,7.50274957 75.7198768,7.33602582 L76.0878018,7.31754316 L95.4372825,7.31754316 Z M62.281141,7.51011008 L62.281141,12.2279997 L50.4900512,12.2279997 L50.4900512,30.1367238 L45.5519025,30.1367238 L45.5519025,12.2279997 L33.7608127,12.2279997 L33.7608127,7.51011008 L62.281141,7.51011008 Z M174.330541,15.2523048 C170.895652,15.2523048 168.066919,17.6975991 168.066919,21.9035053 C168.066919,26.0115997 170.996678,28.5547057 174.330541,28.5547057 C177.664404,28.5547057 180.796215,25.9137879 180.796215,21.9035053 C180.796215,17.8932226 177.664404,15.2523048 174.330541,15.2523048 Z M308.796358,9.18797496 C304.250181,9.18797496 301.421448,13.6873164 301.421448,18.7735286 C301.421448,23.8597407 304.351207,28.4568939 308.796358,28.4568939 C313.342535,28.4568939 316.070241,23.9575525 316.070241,18.8713403 C316.171268,13.7851282 313.342535,9.18797496 308.796358,9.18797496 Z M231.511347,15.154493 C228.379536,15.154493 226.055934,17.6975991 225.752856,21.0231993 L237.168812,21.0231993 C236.865733,17.8932226 235.047262,15.154493 231.511347,15.154493 Z M265.35511,9.67703381 L257.879174,9.67703381 L257.879174,19.1647756 L265.254084,19.1647756 C268.891025,19.1647756 271.416679,17.4041638 271.416679,14.3719988 C271.517706,11.4376457 269.29513,9.67703381 265.35511,9.67703381 Z M151.397603,6.74268067 L151.397603,9.57922204 L148.366818,9.57922204 L148.366818,6.74268067 L151.397603,6.74268067 Z M204.941467,6.74268067 L204.941467,9.57922204 L201.910682,9.57922204 L201.910682,6.74268067 L204.941467,6.74268067 Z" id="Combined-Shape"></path>
                        </g>
                        <g id="Group" transform="translate(111.154145, 7.705128)"></g>
                    </g>
                </g>
            </g>
        </g>
    </g>
</svg>