<?xml version="1.0" encoding="UTF-8"?>
<svg width="552px" height="113px" viewBox="0 0 552 113" version="1.1" xmlns="http://www.w3.org/2000/svg" xmlns:xlink="http://www.w3.org/1999/xlink">
    <!-- Generator: Sketch 57.1 (83088) - https://sketch.com -->
    <title>kv-r70-tagline</title>
    <desc>Created with Sketch.</desc>
    <defs>
        <linearGradient x1="0%" y1="60.953902%" x2="100%" y2="60.953902%" id="linearGradient-1">
            <stop stop-color="#044A76" offset="0%"></stop>
            <stop stop-color="#022B45" offset="100%"></stop>
        </linearGradient>
    </defs>
    <g id="Landing" stroke="none" stroke-width="1" fill="none" fill-rule="evenodd">
        <g id="kv-r70-tagline">
            <path d="M7.371,109.582 C3.129,109.582 0,106.243 0,102.022 L0,101.98 C0,97.822 3.108,94.378 7.434,94.378 C10.101,94.378 11.697,95.323 13.167,96.709 L12.033,97.927 C10.794,96.751 9.408,95.911 7.413,95.911 C4.158,95.911 1.722,98.557 1.722,101.938 L1.722,101.98 C1.722,105.382 4.179,108.049 7.413,108.049 C9.429,108.049 10.752,107.272 12.159,105.928 L13.251,106.999 C11.718,108.553 10.038,109.582 7.371,109.582 Z M18.2,109.561 C16.163,109.561 14.147,108.406 14.147,106.18 L14.147,106.138 C14.147,103.807 16.037,102.589 18.788,102.589 C20.174,102.589 21.14,102.778 22.106,103.051 L22.106,102.715 C22.106,100.783 20.93,99.775 18.893,99.775 C17.612,99.775 16.604,100.09 15.596,100.552 L15.113,99.229 C16.31,98.683 17.465,98.305 19.061,98.305 C20.594,98.305 21.791,98.725 22.568,99.502 C23.324,100.258 23.702,101.308 23.702,102.694 L23.702,109.33 L22.106,109.33 L22.106,107.713 C21.35,108.679 20.111,109.561 18.2,109.561 Z M18.515,108.259 C20.51,108.259 22.127,107.062 22.127,105.34 L22.127,104.332 C21.329,104.101 20.279,103.87 18.956,103.87 C16.94,103.87 15.785,104.752 15.785,106.054 L15.785,106.096 C15.785,107.461 17.045,108.259 18.515,108.259 Z M26.215,112.69 L26.215,98.473 L27.832,98.473 L27.832,100.657 C28.714,99.355 29.995,98.242 31.99,98.242 C34.594,98.242 37.177,100.3 37.177,103.87 L37.177,103.912 C37.177,107.461 34.615,109.561 31.99,109.561 C29.974,109.561 28.672,108.469 27.832,107.251 L27.832,112.69 L26.215,112.69 Z M31.696,108.112 C33.796,108.112 35.518,106.558 35.518,103.933 L35.518,103.891 C35.518,101.329 33.754,99.691 31.696,99.691 C29.68,99.691 27.769,101.392 27.769,103.87 L27.769,103.912 C27.769,106.432 29.68,108.112 31.696,108.112 Z M42.882,109.519 C41.139,109.519 39.816,108.658 39.816,106.453 L39.816,99.901 L38.304,99.901 L38.304,98.473 L39.816,98.473 L39.816,95.197 L41.433,95.197 L41.433,98.473 L44.877,98.473 L44.877,99.901 L41.433,99.901 L41.433,106.243 C41.433,107.566 42.168,108.049 43.26,108.049 C43.806,108.049 44.268,107.944 44.835,107.671 L44.835,109.057 C44.268,109.351 43.659,109.519 42.882,109.519 Z M50.813,109.561 C48.188,109.561 46.655,107.797 46.655,105.214 L46.655,98.473 L48.272,98.473 L48.272,104.815 C48.272,106.831 49.364,108.091 51.275,108.091 C53.123,108.091 54.53,106.726 54.53,104.689 L54.53,98.473 L56.126,98.473 L56.126,109.33 L54.53,109.33 L54.53,107.44 C53.795,108.616 52.682,109.561 50.813,109.561 Z M58.849,109.33 L58.849,98.473 L60.466,98.473 L60.466,101.308 C61.264,99.502 62.839,98.2 64.897,98.284 L64.897,100.027 L64.771,100.027 C62.398,100.027 60.466,101.728 60.466,105.004 L60.466,109.33 L58.849,109.33 Z M66.948,104.563 C67.179,106.852 68.859,108.175 70.77,108.175 C72.261,108.175 73.311,107.566 74.193,106.642 L75.201,107.545 C74.109,108.763 72.786,109.582 70.728,109.582 C67.746,109.582 65.31,107.293 65.31,103.912 C65.31,100.762 67.515,98.242 70.518,98.242 C73.731,98.242 75.579,100.804 75.579,103.996 C75.579,104.143 75.579,104.311 75.558,104.563 L66.948,104.563 Z M66.948,103.261 L73.941,103.261 C73.752,101.287 72.618,99.607 70.476,99.607 C68.607,99.607 67.179,101.161 66.948,103.261 Z M84.574,112.753 C83.671,112.753 82.999,112.564 82.264,112.207 L82.81,110.926 C83.335,111.199 83.818,111.325 84.511,111.325 C85.477,111.325 86.086,110.821 86.737,109.288 L81.802,98.473 L83.587,98.473 L87.535,107.524 L91.021,98.473 L92.743,98.473 L88.186,109.687 C87.262,111.934 86.212,112.753 84.574,112.753 Z M98.721,109.582 C95.466,109.582 93.093,107.02 93.093,103.954 L93.093,103.912 C93.093,100.846 95.487,98.242 98.763,98.242 C102.018,98.242 104.412,100.804 104.412,103.87 L104.412,103.912 C104.412,106.978 101.997,109.582 98.721,109.582 Z M98.763,108.133 C101.115,108.133 102.753,106.243 102.753,103.954 L102.753,103.912 C102.753,101.581 101.01,99.67 98.721,99.67 C96.369,99.67 94.752,101.581 94.752,103.87 L94.752,103.912 C94.752,106.243 96.474,108.133 98.763,108.133 Z M110.411,109.561 C107.786,109.561 106.253,107.797 106.253,105.214 L106.253,98.473 L107.87,98.473 L107.87,104.815 C107.87,106.831 108.962,108.091 110.873,108.091 C112.721,108.091 114.128,106.726 114.128,104.689 L114.128,98.473 L115.724,98.473 L115.724,109.33 L114.128,109.33 L114.128,107.44 C113.393,108.616 112.28,109.561 110.411,109.561 Z M118.447,109.33 L118.447,98.473 L120.064,98.473 L120.064,101.308 C120.862,99.502 122.437,98.2 124.495,98.284 L124.495,100.027 L124.369,100.027 C121.996,100.027 120.064,101.728 120.064,105.004 L120.064,109.33 L118.447,109.33 Z M131.432,112.69 L131.432,98.473 L133.049,98.473 L133.049,100.657 C133.931,99.355 135.212,98.242 137.207,98.242 C139.811,98.242 142.394,100.3 142.394,103.87 L142.394,103.912 C142.394,107.461 139.832,109.561 137.207,109.561 C135.191,109.561 133.889,108.469 133.049,107.251 L133.049,112.69 L131.432,112.69 Z M136.913,108.112 C139.013,108.112 140.735,106.558 140.735,103.933 L140.735,103.891 C140.735,101.329 138.971,99.691 136.913,99.691 C134.897,99.691 132.986,101.392 132.986,103.87 L132.986,103.912 C132.986,106.432 134.897,108.112 136.913,108.112 Z M147.7,109.561 C145.663,109.561 143.647,108.406 143.647,106.18 L143.647,106.138 C143.647,103.807 145.537,102.589 148.288,102.589 C149.674,102.589 150.64,102.778 151.606,103.051 L151.606,102.715 C151.606,100.783 150.43,99.775 148.393,99.775 C147.112,99.775 146.104,100.09 145.096,100.552 L144.613,99.229 C145.81,98.683 146.965,98.305 148.561,98.305 C150.094,98.305 151.291,98.725 152.068,99.502 C152.824,100.258 153.202,101.308 153.202,102.694 L153.202,109.33 L151.606,109.33 L151.606,107.713 C150.85,108.679 149.611,109.561 147.7,109.561 Z M148.015,108.259 C150.01,108.259 151.627,107.062 151.627,105.34 L151.627,104.332 C150.829,104.101 149.779,103.87 148.456,103.87 C146.44,103.87 145.285,104.752 145.285,106.054 L145.285,106.096 C145.285,107.461 146.545,108.259 148.015,108.259 Z M159.306,109.54 C157.752,109.54 156.03,108.931 154.812,107.944 L155.631,106.789 C156.807,107.671 158.109,108.175 159.39,108.175 C160.692,108.175 161.637,107.503 161.637,106.453 L161.637,106.411 C161.637,105.319 160.356,104.899 158.928,104.5 C157.227,104.017 155.337,103.429 155.337,101.434 L155.337,101.392 C155.337,99.523 156.891,98.284 159.033,98.284 C160.356,98.284 161.826,98.746 162.939,99.481 L162.204,100.699 C161.196,100.048 160.041,99.649 158.991,99.649 C157.71,99.649 156.891,100.321 156.891,101.224 L156.891,101.266 C156.891,102.295 158.235,102.694 159.684,103.135 C161.364,103.639 163.17,104.29 163.17,106.243 L163.17,106.285 C163.17,108.343 161.469,109.54 159.306,109.54 Z M168.644,109.54 C167.09,109.54 165.368,108.931 164.15,107.944 L164.969,106.789 C166.145,107.671 167.447,108.175 168.728,108.175 C170.03,108.175 170.975,107.503 170.975,106.453 L170.975,106.411 C170.975,105.319 169.694,104.899 168.266,104.5 C166.565,104.017 164.675,103.429 164.675,101.434 L164.675,101.392 C164.675,99.523 166.229,98.284 168.371,98.284 C169.694,98.284 171.164,98.746 172.277,99.481 L171.542,100.699 C170.534,100.048 169.379,99.649 168.329,99.649 C167.048,99.649 166.229,100.321 166.229,101.224 L166.229,101.266 C166.229,102.295 167.573,102.694 169.022,103.135 C170.702,103.639 172.508,104.29 172.508,106.243 L172.508,106.285 C172.508,108.343 170.807,109.54 168.644,109.54 Z M174.643,96.1 L174.643,94.315 L176.491,94.315 L176.491,96.1 L174.643,96.1 Z M174.748,109.33 L174.748,98.473 L176.365,98.473 L176.365,109.33 L174.748,109.33 Z M184.17,109.582 C180.915,109.582 178.542,107.02 178.542,103.954 L178.542,103.912 C178.542,100.846 180.936,98.242 184.212,98.242 C187.467,98.242 189.861,100.804 189.861,103.87 L189.861,103.912 C189.861,106.978 187.446,109.582 184.17,109.582 Z M184.212,108.133 C186.564,108.133 188.202,106.243 188.202,103.954 L188.202,103.912 C188.202,101.581 186.459,99.67 184.17,99.67 C181.818,99.67 180.201,101.581 180.201,103.87 L180.201,103.912 C180.201,106.243 181.923,108.133 184.212,108.133 Z M191.87,109.33 L191.87,98.473 L193.487,98.473 L193.487,100.363 C194.201,99.187 195.335,98.242 197.204,98.242 C199.829,98.242 201.362,100.006 201.362,102.589 L201.362,109.33 L199.745,109.33 L199.745,102.988 C199.745,100.972 198.653,99.712 196.742,99.712 C194.873,99.712 193.487,101.077 193.487,103.114 L193.487,109.33 L191.87,109.33 Z M203.707,109.33 L203.707,107.125 L205.639,107.125 L205.639,109.33 L203.707,109.33 Z M213.794,109.33 L213.794,94.63 L224.42,94.63 L224.42,96.142 L215.453,96.142 L215.453,101.161 L223.475,101.161 L223.475,102.673 L215.453,102.673 L215.453,107.818 L224.525,107.818 L224.525,109.33 L213.794,109.33 Z M225.694,109.33 L229.957,103.807 L225.862,98.473 L227.71,98.473 L230.923,102.673 L234.136,98.473 L235.942,98.473 L231.826,103.765 L236.11,109.33 L234.241,109.33 L230.881,104.899 L227.5,109.33 L225.694,109.33 Z M237.825,112.69 L237.825,98.473 L239.442,98.473 L239.442,100.657 C240.324,99.355 241.605,98.242 243.6,98.242 C246.204,98.242 248.787,100.3 248.787,103.87 L248.787,103.912 C248.787,107.461 246.225,109.561 243.6,109.561 C241.584,109.561 240.282,108.469 239.442,107.251 L239.442,112.69 L237.825,112.69 Z M243.306,108.112 C245.406,108.112 247.128,106.558 247.128,103.933 L247.128,103.891 C247.128,101.329 245.364,99.691 243.306,99.691 C241.29,99.691 239.379,101.392 239.379,103.87 L239.379,103.912 C239.379,106.432 241.29,108.112 243.306,108.112 Z M254.093,109.561 C252.056,109.561 250.04,108.406 250.04,106.18 L250.04,106.138 C250.04,103.807 251.93,102.589 254.681,102.589 C256.067,102.589 257.033,102.778 257.999,103.051 L257.999,102.715 C257.999,100.783 256.823,99.775 254.786,99.775 C253.505,99.775 252.497,100.09 251.489,100.552 L251.006,99.229 C252.203,98.683 253.358,98.305 254.954,98.305 C256.487,98.305 257.684,98.725 258.461,99.502 C259.217,100.258 259.595,101.308 259.595,102.694 L259.595,109.33 L257.999,109.33 L257.999,107.713 C257.243,108.679 256.004,109.561 254.093,109.561 Z M254.408,108.259 C256.403,108.259 258.02,107.062 258.02,105.34 L258.02,104.332 C257.222,104.101 256.172,103.87 254.849,103.87 C252.833,103.87 251.678,104.752 251.678,106.054 L251.678,106.096 C251.678,107.461 252.938,108.259 254.408,108.259 Z M262.108,109.33 L262.108,98.473 L263.725,98.473 L263.725,100.363 C264.439,99.187 265.573,98.242 267.442,98.242 C270.067,98.242 271.6,100.006 271.6,102.589 L271.6,109.33 L269.983,109.33 L269.983,102.988 C269.983,100.972 268.891,99.712 266.98,99.712 C265.111,99.712 263.725,101.077 263.725,103.114 L263.725,109.33 L262.108,109.33 Z M278.691,109.561 C276.087,109.561 273.504,107.503 273.504,103.933 L273.504,103.891 C273.504,100.342 276.087,98.242 278.691,98.242 C280.707,98.242 282.009,99.334 282.849,100.552 L282.849,94 L284.466,94 L284.466,109.33 L282.849,109.33 L282.849,107.146 C281.967,108.448 280.686,109.561 278.691,109.561 Z M278.985,108.112 C281.001,108.112 282.912,106.411 282.912,103.912 L282.912,103.87 C282.912,101.371 281.001,99.691 278.985,99.691 C276.885,99.691 275.163,101.245 275.163,103.87 L275.163,103.912 C275.163,106.474 276.927,108.112 278.985,108.112 Z M294.238,112.753 C293.335,112.753 292.663,112.564 291.928,112.207 L292.474,110.926 C292.999,111.199 293.482,111.325 294.175,111.325 C295.141,111.325 295.75,110.821 296.401,109.288 L291.466,98.473 L293.251,98.473 L297.199,107.524 L300.685,98.473 L302.407,98.473 L297.85,109.687 C296.926,111.934 295.876,112.753 294.238,112.753 Z M308.385,109.582 C305.13,109.582 302.757,107.02 302.757,103.954 L302.757,103.912 C302.757,100.846 305.151,98.242 308.427,98.242 C311.682,98.242 314.076,100.804 314.076,103.87 L314.076,103.912 C314.076,106.978 311.661,109.582 308.385,109.582 Z M308.427,108.133 C310.779,108.133 312.417,106.243 312.417,103.954 L312.417,103.912 C312.417,101.581 310.674,99.67 308.385,99.67 C306.033,99.67 304.416,101.581 304.416,103.87 L304.416,103.912 C304.416,106.243 306.138,108.133 308.427,108.133 Z M320.075,109.561 C317.45,109.561 315.917,107.797 315.917,105.214 L315.917,98.473 L317.534,98.473 L317.534,104.815 C317.534,106.831 318.626,108.091 320.537,108.091 C322.385,108.091 323.792,106.726 323.792,104.689 L323.792,98.473 L325.388,98.473 L325.388,109.33 L323.792,109.33 L323.792,107.44 C323.057,108.616 321.944,109.561 320.075,109.561 Z M328.111,109.33 L328.111,98.473 L329.728,98.473 L329.728,101.308 C330.526,99.502 332.101,98.2 334.159,98.284 L334.159,100.027 L334.033,100.027 C331.66,100.027 329.728,101.728 329.728,105.004 L329.728,109.33 L328.111,109.33 Z M344.729,109.414 L340.025,98.473 L341.81,98.473 L345.464,107.482 L349.139,98.473 L350.882,98.473 L346.157,109.414 L344.729,109.414 Z M352.555,96.1 L352.555,94.315 L354.403,94.315 L354.403,96.1 L352.555,96.1 Z M352.66,109.33 L352.66,98.473 L354.277,98.473 L354.277,109.33 L352.66,109.33 Z M360.717,109.54 C359.163,109.54 357.441,108.931 356.223,107.944 L357.042,106.789 C358.218,107.671 359.52,108.175 360.801,108.175 C362.103,108.175 363.048,107.503 363.048,106.453 L363.048,106.411 C363.048,105.319 361.767,104.899 360.339,104.5 C358.638,104.017 356.748,103.429 356.748,101.434 L356.748,101.392 C356.748,99.523 358.302,98.284 360.444,98.284 C361.767,98.284 363.237,98.746 364.35,99.481 L363.615,100.699 C362.607,100.048 361.452,99.649 360.402,99.649 C359.121,99.649 358.302,100.321 358.302,101.224 L358.302,101.266 C358.302,102.295 359.646,102.694 361.095,103.135 C362.775,103.639 364.581,104.29 364.581,106.243 L364.581,106.285 C364.581,108.343 362.88,109.54 360.717,109.54 Z M366.716,96.1 L366.716,94.315 L368.564,94.315 L368.564,96.1 L366.716,96.1 Z M366.821,109.33 L366.821,98.473 L368.438,98.473 L368.438,109.33 L366.821,109.33 Z M376.243,109.582 C372.988,109.582 370.615,107.02 370.615,103.954 L370.615,103.912 C370.615,100.846 373.009,98.242 376.285,98.242 C379.54,98.242 381.934,100.804 381.934,103.87 L381.934,103.912 C381.934,106.978 379.519,109.582 376.243,109.582 Z M376.285,108.133 C378.637,108.133 380.275,106.243 380.275,103.954 L380.275,103.912 C380.275,101.581 378.532,99.67 376.243,99.67 C373.891,99.67 372.274,101.581 372.274,103.87 L372.274,103.912 C372.274,106.243 373.996,108.133 376.285,108.133 Z M383.943,109.33 L383.943,98.473 L385.56,98.473 L385.56,100.363 C386.274,99.187 387.408,98.242 389.277,98.242 C391.902,98.242 393.435,100.006 393.435,102.589 L393.435,109.33 L391.818,109.33 L391.818,102.988 C391.818,100.972 390.726,99.712 388.815,99.712 C386.946,99.712 385.56,101.077 385.56,103.114 L385.56,109.33 L383.943,109.33 Z M395.78,109.33 L395.78,107.125 L397.712,107.125 L397.712,109.33 L395.78,109.33 Z" id="Captureyourpassion.Expandyourvision." fill="#03385A" fill-rule="nonzero"></path>
            <g id="HTC_Wildfire_R70_CMYK-Copy">
                <g id="Group-Copy-3" fill="url(#linearGradient-1)" fill-rule="nonzero">
                    <path d="M400.43416,23.0691894 C409.524614,23.0691894 414.769107,30.357744 414.769107,39.2081317 L414.769107,40.5964278 L390.294807,40.5964278 C391.168889,47.1908344 395.888933,51.0086487 401.308242,51.0086487 C405.503836,51.0086487 408.475715,49.2732785 411.097962,46.6702233 L413.895024,49.2732785 C410.748329,52.7440188 407.077184,55 401.133425,55 C392.742237,55 385.74958,48.5791305 385.74958,39.0345947 C385.74958,30.184207 392.042971,23.0691894 400.43416,23.0691894 Z M317.221542,11.0951355 L317.221542,54.3058519 L312.676315,54.3058519 L312.676315,48.0585194 C310.228885,51.7027967 306.55774,54.826463 300.963614,54.826463 C293.621324,54.826463 286.279034,49.0997415 286.279034,38.8610577 C286.279034,28.7959109 293.621324,22.8956524 300.963614,22.8956524 C306.732556,22.8956524 310.403701,26.0193187 312.676315,29.3165219 L312.676315,11.0951355 L317.221542,11.0951355 Z M534.518358,11.9628205 C545.182159,11.9628205 552,21.6808933 552,33.3078733 C552,45.1083902 545.007343,54.826463 534.343541,54.826463 C523.504923,54.826463 516.861899,45.1083902 516.861899,33.4814103 C516.861899,21.8544303 523.854556,11.9628205 534.518358,11.9628205 Z M207.961276,54.3058519 L204.115315,54.3058519 L189.255919,12.6569686 L194.325595,12.6569686 L206.213112,47.1908344 L217.750996,12.6569686 L221.596957,12.6569686 L232.960025,47.1908344 L244.847542,12.6569686 L249.742402,12.6569686 L234.883006,54.3058519 L230.862228,54.3058519 L219.499,20.814 L207.961276,54.3058519 Z M277.363397,11.0951355 L277.363397,54.3058519 L272.81817,54.3058519 L272.81817,11.0951355 L277.363397,11.0951355 Z M459.696928,12.8305056 C468.787382,12.8305056 474.73114,17.689542 474.73114,25.1516336 C474.73114,32.0931142 470.011097,36.0844655 463.368073,37.2992246 L476.129672,54.1323149 L470.36073,54.1323149 L458.298396,37.9933726 L446.410879,37.9933726 L446.410879,54.1323149 L441.690836,54.1323149 L441.690836,12.8305056 L459.696928,12.8305056 Z M261.629918,23.5898005 L261.629918,54.1323149 L257.084691,54.1323149 L257.084691,23.5898005 L261.629918,23.5898005 Z M338.374329,10.7480614 C340.472126,10.7480614 341.870657,10.9215985 343.444005,11.4422095 L343.444005,15.4335608 C341.695841,14.9129498 340.472126,14.7394128 338.898778,14.7394128 C335.40245,14.7394128 333.479469,16.8218569 333.479469,21.1602823 L333.479469,23.5898005 L343.444005,23.5898005 L343.444005,27.5811518 L333.654285,27.5811518 L333.654285,54.1323149 L329.109058,54.1323149 L329.109058,27.5811518 L324.913464,27.5811518 L324.913464,23.5898005 L329.109058,23.5898005 L329.109058,20.9867453 C329.109058,14.3923387 332.430571,10.7480614 338.374329,10.7480614 Z M354.282624,23.5898005 L354.282624,54.1323149 L349.737397,54.1323149 L349.737397,23.5898005 L354.282624,23.5898005 Z M382.253252,23.0691894 L382.253252,27.9282258 L381.903619,27.9282258 C375.260595,27.9282258 369.666469,32.7872622 369.666469,41.984724 L369.666469,54.1323149 L365.121242,54.1323149 L365.121242,23.5898005 L369.666469,23.5898005 L369.666469,31.5725031 C371.939083,26.5399297 376.309493,22.8956524 382.253252,23.0691894 Z M511.267773,12.8305056 L511.267773,16.3012459 L492.387599,54.1323149 L487.143106,54.1323149 L506.02328,16.9953939 L483.122329,16.9953939 L483.122329,12.8305056 L511.267773,12.8305056 Z M8.5450097,0 L8.5450097,15.2034693 L8.69979967,15.0936918 C10.140526,14.1063949 12.8611115,13.1474624 16.3924676,12.9827379 C19.0082869,12.8119124 30.3435038,12.8119124 33.1337111,12.9827379 C36.2726942,13.1535634 41.3299449,14.5201673 44.643316,17.7658518 C47.6842059,20.7446214 49.4158238,24.5249697 49.5210803,28.7962848 L49.5261787,29.2111602 L49.5261787,53.8100319 L40.981169,53.8100319 L40.981169,29.5528112 C40.6323931,24.9405227 37.4934099,21.6948383 33.1337111,21.3531873 C29.82034,21.1823618 19.7058387,21.0115363 16.3924676,21.3531873 C12.2071567,21.6948383 8.89378561,25.1113482 8.5450097,29.3819857 C8.37260343,31.7463659 8.54109138,53.3117394 8.54494291,53.8015562 L8.5450097,53.8100319 L3.63797881e-12,53.8100319 L3.63797881e-12,0 L8.5450097,0 Z M165.145392,12.9827379 L165.145392,21.3531873 L132.186068,21.3531873 C128.000758,21.5240128 124.338611,25.6238247 123.989835,29.8944622 C123.815447,32.1151936 123.815447,34.5067506 123.989835,37.4107841 C124.338611,41.852247 127.477594,44.927106 132.186068,45.268757 C134.412629,45.436532 142.526729,45.274749 151.076387,45.2689175 L165.145392,45.268757 L165.145392,53.6392064 L131.662905,53.6392064 C127.477594,53.6392064 123.117895,51.7601259 120.1533,48.8560925 C117.363092,46.1228845 115.793601,42.3647235 115.270437,37.4107841 C115.096049,35.3608781 115.096049,32.1151936 115.270437,29.7236367 C115.619213,25.1113482 117.363092,20.6698853 120.1533,17.7658518 C123.019075,14.9586195 126.69963,13.2687757 131.194964,13.0049325 L131.662905,12.9827379 L165.145392,12.9827379 Z M107.771755,13.3243889 L107.771755,21.6948383 L87.3683645,21.6948383 L87.3683645,53.4683809 L78.8233548,53.4683809 L78.8233548,21.6948383 L58.4199643,21.6948383 L58.4199643,13.3243889 L107.771755,13.3243889 Z M301.66288,27.0605408 C295.719121,27.0605408 290.824261,31.3989661 290.824261,38.8610577 C290.824261,46.1496123 295.893938,50.6615747 301.66288,50.6615747 C307.431822,50.6615747 312.851131,45.9760753 312.851131,38.8610577 C312.851131,31.7460401 307.431822,27.0605408 301.66288,27.0605408 Z M534.343541,16.3012459 C526.476802,16.3012459 521.581942,24.2839485 521.581942,33.3078733 C521.581942,42.331798 526.651618,50.4880376 534.343541,50.4880376 C542.21028,50.4880376 546.930324,42.505335 546.930324,33.4814103 C547.10514,24.4574855 542.21028,16.3012459 534.343541,16.3012459 Z M400.608976,26.8870037 C395.189667,26.8870037 391.168889,31.3989661 390.64444,37.2992246 L410.398696,37.2992246 C409.874247,31.7460401 406.727551,26.8870037 400.608976,26.8870037 Z M459.172478,17.168931 L446.236063,17.168931 L446.236063,34.0020213 L458.997662,34.0020213 C465.291053,34.0020213 469.661464,30.8783551 469.661464,25.4987076 C469.83628,20.2925972 465.990319,17.168931 459.172478,17.168931 Z M261.979551,11.9628205 L261.979551,16.9953939 L256.735059,16.9953939 L256.735059,11.9628205 L261.979551,11.9628205 Z M354.632256,11.9628205 L354.632256,16.9953939 L349.387764,16.9953939 L349.387764,11.9628205 L354.632256,11.9628205 Z" id="Combined-Shape"></path>
                </g>
                <g id="Group" transform="translate(192.341969, 26.089744)"></g>
            </g>
        </g>
    </g>
</svg>