<?xml version="1.0" encoding="utf-8"?>
<!-- Generator: Adobe Illustrator 23.0.0, SVG Export Plug-In . SVG Version: 6.00 Build 0)  -->
<svg version="1.1" id="圖層_1" xmlns="http://www.w3.org/2000/svg" xmlns:xlink="http://www.w3.org/1999/xlink" x="0px" y="0px"
	 viewBox="0 0 552 113" style="enable-background:new 0 0 552 113;" xml:space="preserve">
<style type="text/css">
	.st0{fill:#03385A;}
	.st1{fill:url(#Combined-Shape_1_);}
</style>
<title>kv-r70-tagline</title>
<desc>Created with Sketch.</desc>
<g id="Landing">
	<g id="kv-r70-tagline">
		<path id="Captureyourpassion.Expandyourvision." class="st0" d="M7.4,109.6c-4.2,0-7.4-3.3-7.4-7.6v0c0-4.2,3.1-7.6,7.4-7.6
			c2.7,0,4.3,0.9,5.7,2.3L12,97.9c-1.2-1.2-2.6-2-4.6-2c-3.3,0-5.7,2.6-5.7,6v0c0,3.4,2.5,6.1,5.7,6.1c2,0,3.3-0.8,4.7-2.1l1.1,1.1
			C11.7,108.6,10,109.6,7.4,109.6z M18.2,109.6c-2,0-4.1-1.2-4.1-3.4v0c0-2.3,1.9-3.5,4.6-3.5c1.4,0,2.4,0.2,3.3,0.5v-0.3
			c0-1.9-1.2-2.9-3.2-2.9c-1.3,0-2.3,0.3-3.3,0.8l-0.5-1.3c1.2-0.5,2.4-0.9,3.9-0.9c1.5,0,2.7,0.4,3.5,1.2c0.8,0.8,1.1,1.8,1.1,3.2
			v6.6h-1.6v-1.6C21.4,108.7,20.1,109.6,18.2,109.6z M18.5,108.3c2,0,3.6-1.2,3.6-2.9v-1c-0.8-0.2-1.8-0.5-3.2-0.5
			c-2,0-3.2,0.9-3.2,2.2v0C15.8,107.5,17,108.3,18.5,108.3z M26.2,112.7V98.5h1.6v2.2c0.9-1.3,2.2-2.4,4.2-2.4
			c2.6,0,5.2,2.1,5.2,5.6v0c0,3.5-2.6,5.6-5.2,5.6c-2,0-3.3-1.1-4.2-2.3v5.4H26.2z M31.7,108.1c2.1,0,3.8-1.6,3.8-4.2v0
			c0-2.6-1.8-4.2-3.8-4.2c-2,0-3.9,1.7-3.9,4.2v0C27.8,106.4,29.7,108.1,31.7,108.1z M42.9,109.5c-1.7,0-3.1-0.9-3.1-3.1v-6.6h-1.5
			v-1.4h1.5v-3.3h1.6v3.3h3.4v1.4h-3.4v6.3c0,1.3,0.7,1.8,1.8,1.8c0.5,0,1-0.1,1.6-0.4v1.4C44.3,109.4,43.7,109.5,42.9,109.5z
			 M50.8,109.6c-2.6,0-4.2-1.8-4.2-4.3v-6.7h1.6v6.3c0,2,1.1,3.3,3,3.3c1.8,0,3.3-1.4,3.3-3.4v-6.2h1.6v10.9h-1.6v-1.9
			C53.8,108.6,52.7,109.6,50.8,109.6z M58.8,109.3V98.5h1.6v2.8c0.8-1.8,2.4-3.1,4.4-3v1.7h-0.1c-2.4,0-4.3,1.7-4.3,5v4.3H58.8z
			 M66.9,104.6c0.2,2.3,1.9,3.6,3.8,3.6c1.5,0,2.5-0.6,3.4-1.5l1,0.9c-1.1,1.2-2.4,2-4.5,2c-3,0-5.4-2.3-5.4-5.7
			c0-3.2,2.2-5.7,5.2-5.7c3.2,0,5.1,2.6,5.1,5.8c0,0.1,0,0.3,0,0.6H66.9z M66.9,103.3h7c-0.2-2-1.3-3.7-3.5-3.7
			C68.6,99.6,67.2,101.2,66.9,103.3z M84.6,112.8c-0.9,0-1.6-0.2-2.3-0.5l0.5-1.3c0.5,0.3,1,0.4,1.7,0.4c1,0,1.6-0.5,2.2-2
			l-4.9-10.8h1.8l3.9,9.1l3.5-9.1h1.7l-4.6,11.2C87.3,111.9,86.2,112.8,84.6,112.8z M98.7,109.6c-3.3,0-5.6-2.6-5.6-5.6v0
			c0-3.1,2.4-5.7,5.7-5.7c3.3,0,5.6,2.6,5.6,5.6v0C104.4,107,102,109.6,98.7,109.6z M98.8,108.1c2.4,0,4-1.9,4-4.2v0
			c0-2.3-1.7-4.2-4-4.2c-2.4,0-4,1.9-4,4.2v0C94.8,106.2,96.5,108.1,98.8,108.1z M110.4,109.6c-2.6,0-4.2-1.8-4.2-4.3v-6.7h1.6v6.3
			c0,2,1.1,3.3,3,3.3c1.8,0,3.3-1.4,3.3-3.4v-6.2h1.6v10.9h-1.6v-1.9C113.4,108.6,112.3,109.6,110.4,109.6z M118.4,109.3V98.5h1.6
			v2.8c0.8-1.8,2.4-3.1,4.4-3v1.7h-0.1c-2.4,0-4.3,1.7-4.3,5v4.3H118.4z M131.4,112.7V98.5h1.6v2.2c0.9-1.3,2.2-2.4,4.2-2.4
			c2.6,0,5.2,2.1,5.2,5.6v0c0,3.5-2.6,5.6-5.2,5.6c-2,0-3.3-1.1-4.2-2.3v5.4H131.4z M136.9,108.1c2.1,0,3.8-1.6,3.8-4.2v0
			c0-2.6-1.8-4.2-3.8-4.2c-2,0-3.9,1.7-3.9,4.2v0C133,106.4,134.9,108.1,136.9,108.1z M147.7,109.6c-2,0-4.1-1.2-4.1-3.4v0
			c0-2.3,1.9-3.5,4.6-3.5c1.4,0,2.4,0.2,3.3,0.5v-0.3c0-1.9-1.2-2.9-3.2-2.9c-1.3,0-2.3,0.3-3.3,0.8l-0.5-1.3
			c1.2-0.5,2.4-0.9,3.9-0.9c1.5,0,2.7,0.4,3.5,1.2c0.8,0.8,1.1,1.8,1.1,3.2v6.6h-1.6v-1.6C150.9,108.7,149.6,109.6,147.7,109.6z
			 M148,108.3c2,0,3.6-1.2,3.6-2.9v-1c-0.8-0.2-1.8-0.5-3.2-0.5c-2,0-3.2,0.9-3.2,2.2v0C145.3,107.5,146.5,108.3,148,108.3z
			 M159.3,109.5c-1.6,0-3.3-0.6-4.5-1.6l0.8-1.2c1.2,0.9,2.5,1.4,3.8,1.4c1.3,0,2.2-0.7,2.2-1.7v0c0-1.1-1.3-1.5-2.7-1.9
			c-1.7-0.5-3.6-1.1-3.6-3.1v0c0-1.9,1.6-3.1,3.7-3.1c1.3,0,2.8,0.5,3.9,1.2l-0.7,1.2c-1-0.7-2.2-1-3.2-1c-1.3,0-2.1,0.7-2.1,1.6v0
			c0,1,1.3,1.4,2.8,1.9c1.7,0.5,3.5,1.2,3.5,3.1v0C163.2,108.3,161.5,109.5,159.3,109.5z M168.6,109.5c-1.6,0-3.3-0.6-4.5-1.6
			l0.8-1.2c1.2,0.9,2.5,1.4,3.8,1.4c1.3,0,2.2-0.7,2.2-1.7v0c0-1.1-1.3-1.5-2.7-1.9c-1.7-0.5-3.6-1.1-3.6-3.1v0
			c0-1.9,1.6-3.1,3.7-3.1c1.3,0,2.8,0.5,3.9,1.2l-0.7,1.2c-1-0.7-2.2-1-3.2-1c-1.3,0-2.1,0.7-2.1,1.6v0c0,1,1.3,1.4,2.8,1.9
			c1.7,0.5,3.5,1.2,3.5,3.1v0C172.5,108.3,170.8,109.5,168.6,109.5z M174.6,96.1v-1.8h1.8v1.8H174.6z M174.7,109.3V98.5h1.6v10.9
			H174.7z M184.2,109.6c-3.3,0-5.6-2.6-5.6-5.6v0c0-3.1,2.4-5.7,5.7-5.7c3.3,0,5.6,2.6,5.6,5.6v0C189.9,107,187.4,109.6,184.2,109.6
			z M184.2,108.1c2.4,0,4-1.9,4-4.2v0c0-2.3-1.7-4.2-4-4.2c-2.4,0-4,1.9-4,4.2v0C180.2,106.2,181.9,108.1,184.2,108.1z M191.9,109.3
			V98.5h1.6v1.9c0.7-1.2,1.8-2.1,3.7-2.1c2.6,0,4.2,1.8,4.2,4.3v6.7h-1.6V103c0-2-1.1-3.3-3-3.3c-1.9,0-3.3,1.4-3.3,3.4v6.2H191.9z
			 M203.7,109.3v-2.2h1.9v2.2H203.7z M213.8,109.3V94.6h10.6v1.5h-9v5h8v1.5h-8v5.1h9.1v1.5H213.8z M225.7,109.3l4.3-5.5l-4.1-5.3
			h1.8l3.2,4.2l3.2-4.2h1.8l-4.1,5.3l4.3,5.6h-1.9l-3.4-4.4l-3.4,4.4H225.7z M237.8,112.7V98.5h1.6v2.2c0.9-1.3,2.2-2.4,4.2-2.4
			c2.6,0,5.2,2.1,5.2,5.6v0c0,3.5-2.6,5.6-5.2,5.6c-2,0-3.3-1.1-4.2-2.3v5.4H237.8z M243.3,108.1c2.1,0,3.8-1.6,3.8-4.2v0
			c0-2.6-1.8-4.2-3.8-4.2c-2,0-3.9,1.7-3.9,4.2v0C239.4,106.4,241.3,108.1,243.3,108.1z M254.1,109.6c-2,0-4.1-1.2-4.1-3.4v0
			c0-2.3,1.9-3.5,4.6-3.5c1.4,0,2.4,0.2,3.3,0.5v-0.3c0-1.9-1.2-2.9-3.2-2.9c-1.3,0-2.3,0.3-3.3,0.8l-0.5-1.3
			c1.2-0.5,2.4-0.9,3.9-0.9c1.5,0,2.7,0.4,3.5,1.2c0.8,0.8,1.1,1.8,1.1,3.2v6.6H258v-1.6C257.2,108.7,256,109.6,254.1,109.6z
			 M254.4,108.3c2,0,3.6-1.2,3.6-2.9v-1c-0.8-0.2-1.8-0.5-3.2-0.5c-2,0-3.2,0.9-3.2,2.2v0C251.7,107.5,252.9,108.3,254.4,108.3z
			 M262.1,109.3V98.5h1.6v1.9c0.7-1.2,1.8-2.1,3.7-2.1c2.6,0,4.2,1.8,4.2,4.3v6.7H270V103c0-2-1.1-3.3-3-3.3c-1.9,0-3.3,1.4-3.3,3.4
			v6.2H262.1z M278.7,109.6c-2.6,0-5.2-2.1-5.2-5.6v0c0-3.5,2.6-5.6,5.2-5.6c2,0,3.3,1.1,4.2,2.3V94h1.6v15.3h-1.6v-2.2
			C282,108.4,280.7,109.6,278.7,109.6z M279,108.1c2,0,3.9-1.7,3.9-4.2v0c0-2.5-1.9-4.2-3.9-4.2c-2.1,0-3.8,1.6-3.8,4.2v0
			C275.2,106.5,276.9,108.1,279,108.1z M294.2,112.8c-0.9,0-1.6-0.2-2.3-0.5l0.5-1.3c0.5,0.3,1,0.4,1.7,0.4c1,0,1.6-0.5,2.2-2
			l-4.9-10.8h1.8l3.9,9.1l3.5-9.1h1.7l-4.6,11.2C296.9,111.9,295.9,112.8,294.2,112.8z M308.4,109.6c-3.3,0-5.6-2.6-5.6-5.6v0
			c0-3.1,2.4-5.7,5.7-5.7c3.3,0,5.6,2.6,5.6,5.6v0C314.1,107,311.7,109.6,308.4,109.6z M308.4,108.1c2.4,0,4-1.9,4-4.2v0
			c0-2.3-1.7-4.2-4-4.2c-2.4,0-4,1.9-4,4.2v0C304.4,106.2,306.1,108.1,308.4,108.1z M320.1,109.6c-2.6,0-4.2-1.8-4.2-4.3v-6.7h1.6
			v6.3c0,2,1.1,3.3,3,3.3c1.8,0,3.3-1.4,3.3-3.4v-6.2h1.6v10.9h-1.6v-1.9C323.1,108.6,321.9,109.6,320.1,109.6z M328.1,109.3V98.5
			h1.6v2.8c0.8-1.8,2.4-3.1,4.4-3v1.7H334c-2.4,0-4.3,1.7-4.3,5v4.3H328.1z M344.7,109.4L340,98.5h1.8l3.7,9l3.7-9h1.7l-4.7,10.9
			H344.7z M352.6,96.1v-1.8h1.8v1.8H352.6z M352.7,109.3V98.5h1.6v10.9H352.7z M360.7,109.5c-1.6,0-3.3-0.6-4.5-1.6l0.8-1.2
			c1.2,0.9,2.5,1.4,3.8,1.4c1.3,0,2.2-0.7,2.2-1.7v0c0-1.1-1.3-1.5-2.7-1.9c-1.7-0.5-3.6-1.1-3.6-3.1v0c0-1.9,1.6-3.1,3.7-3.1
			c1.3,0,2.8,0.5,3.9,1.2l-0.7,1.2c-1-0.7-2.2-1-3.2-1c-1.3,0-2.1,0.7-2.1,1.6v0c0,1,1.3,1.4,2.8,1.9c1.7,0.5,3.5,1.2,3.5,3.1v0
			C364.6,108.3,362.9,109.5,360.7,109.5z M366.7,96.1v-1.8h1.8v1.8H366.7z M366.8,109.3V98.5h1.6v10.9H366.8z M376.2,109.6
			c-3.3,0-5.6-2.6-5.6-5.6v0c0-3.1,2.4-5.7,5.7-5.7c3.3,0,5.6,2.6,5.6,5.6v0C381.9,107,379.5,109.6,376.2,109.6z M376.3,108.1
			c2.4,0,4-1.9,4-4.2v0c0-2.3-1.7-4.2-4-4.2c-2.4,0-4,1.9-4,4.2v0C372.3,106.2,374,108.1,376.3,108.1z M383.9,109.3V98.5h1.6v1.9
			c0.7-1.2,1.8-2.1,3.7-2.1c2.6,0,4.2,1.8,4.2,4.3v6.7h-1.6V103c0-2-1.1-3.3-3-3.3c-1.9,0-3.3,1.4-3.3,3.4v6.2H383.9z"/>
		<g id="HTC_Wildfire_R70_CMYK-Copy">
			<g id="Group-Copy-3">
				
					<linearGradient id="Combined-Shape_1_" gradientUnits="userSpaceOnUse" x1="-20.962" y1="470.7718" x2="-19.962" y2="470.7718" gradientTransform="matrix(552 0 0 -55 11571 25919.9492)">
					<stop  offset="0" style="stop-color:#044A76"/>
					<stop  offset="1" style="stop-color:#022B45"/>
				</linearGradient>
				<path id="Combined-Shape" class="st1" d="M400.4,23.1c9.1,0,14.3,7.3,14.3,16.1v1.4h-24.5c0.9,6.6,5.6,10.4,11,10.4
					c4.2,0,7.2-1.7,9.8-4.3l2.8,2.6c-3.1,3.5-6.8,5.7-12.8,5.7c-8.4,0-15.4-6.4-15.4-16C385.7,30.2,392,23.1,400.4,23.1z
					 M317.2,11.1v43.2h-4.5v-6.2c-2.4,3.6-6.1,6.8-11.7,6.8c-7.3,0-14.7-5.7-14.7-16c0-10.1,7.3-16,14.7-16c5.8,0,9.4,3.1,11.7,6.4
					V11.1H317.2z M534.5,12c10.7,0,17.5,9.7,17.5,21.3c0,11.8-7,21.5-17.7,21.5c-10.8,0-17.5-9.7-17.5-21.3S523.9,12,534.5,12z
					 M208,54.3h-3.8l-14.9-41.6h5.1l11.9,34.5l11.5-34.5h3.8L233,47.2l11.9-34.5h4.9l-14.9,41.6h-4l-11.4-33.5L208,54.3z
					 M277.4,11.1v43.2h-4.5V11.1H277.4z M459.7,12.8c9.1,0,15,4.9,15,12.3c0,6.9-4.7,10.9-11.4,12.1l12.8,16.8h-5.8L458.3,38h-11.9
					v16.1h-4.7V12.8H459.7z M261.6,23.6v30.5h-4.5V23.6H261.6z M338.4,10.7c2.1,0,3.5,0.2,5.1,0.7v4c-1.7-0.5-3-0.7-4.5-0.7
					c-3.5,0-5.4,2.1-5.4,6.4v2.4h10v4h-9.8v26.6h-4.5V27.6h-4.2v-4h4.2V21C329.1,14.4,332.4,10.7,338.4,10.7z M354.3,23.6v30.5h-4.5
					V23.6H354.3z M382.3,23.1v4.9h-0.3c-6.6,0-12.2,4.9-12.2,14.1v12.1h-4.5V23.6h4.5v8C371.9,26.5,376.3,22.9,382.3,23.1z
					 M511.3,12.8v3.5l-18.9,37.8h-5.2L506,17h-22.9v-4.2H511.3z M8.5,0v15.2l0.2-0.1c1.4-1,4.2-1.9,7.7-2.1c2.6-0.2,14-0.2,16.7,0
					c3.1,0.2,8.2,1.5,11.5,4.8c3,3,4.8,6.8,4.9,11l0,0.4v24.6H41V29.6c-0.3-4.6-3.5-7.9-7.8-8.2c-3.3-0.2-13.4-0.3-16.7,0
					c-4.2,0.3-7.5,3.8-7.8,8c-0.2,2.4,0,23.9,0,24.4l0,0H0V0H8.5z M165.1,13v8.4h-33c-4.2,0.2-7.8,4.3-8.2,8.5
					c-0.2,2.2-0.2,4.6,0,7.5c0.3,4.4,3.5,7.5,8.2,7.9c2.2,0.2,10.3,0,18.9,0l14.1,0v8.4h-33.5c-4.2,0-8.5-1.9-11.5-4.8
					c-2.8-2.7-4.4-6.5-4.9-11.4c-0.2-2-0.2-5.3,0-7.7c0.3-4.6,2.1-9.1,4.9-12c2.9-2.8,6.5-4.5,11-4.8l0.5,0H165.1z M107.8,13.3v8.4
					H87.4v31.8h-8.5V21.7H58.4v-8.4H107.8z M301.7,27.1c-5.9,0-10.8,4.3-10.8,11.8c0,7.3,5.1,11.8,10.8,11.8
					c5.8,0,11.2-4.7,11.2-11.8S307.4,27.1,301.7,27.1z M534.3,16.3c-7.9,0-12.8,8-12.8,17s5.1,17.2,12.8,17.2c7.9,0,12.6-8,12.6-17
					C547.1,24.5,542.2,16.3,534.3,16.3z M400.6,26.9c-5.4,0-9.4,4.5-10,10.4h19.8C409.9,31.7,406.7,26.9,400.6,26.9z M459.2,17.2
					h-12.9V34H459c6.3,0,10.7-3.1,10.7-8.5C469.8,20.3,466,17.2,459.2,17.2z M262,12v5h-5.2v-5H262z M354.6,12v5h-5.2v-5H354.6z"/>
			</g>
			<g id="Group" transform="translate(192.341969, 26.089744)">
			</g>
		</g>
	</g>
</g>
</svg>
