<?xml version="1.0" encoding="utf-8"?>
<!-- Generator: Adobe Illustrator 23.0.0, SVG Export Plug-In . SVG Version: 6.00 Build 0)  -->
<svg version="1.1" id="圖層_1" xmlns="http://www.w3.org/2000/svg" xmlns:xlink="http://www.w3.org/1999/xlink" x="0px" y="0px"
	 viewBox="0 0 316 33" style="enable-background:new 0 0 316 33;" xml:space="preserve">
<title>HTC_Wildfire_R70_CMYK</title>
<desc>Created with Sketch.</desc>
<g id="Landing">
	<g id="Wildfire-OP75_360" transform="translate(-22.000000, -4840.000000)">
		<g id="Glance_M" transform="translate(0.000000, 4780.000000)">
			<g id="HTC_Wildfire_R70_CMYK" transform="translate(22.000000, 60.000000)">
				<g id="Group">
					<path id="Path" d="M87,27c-5,0-9.8,0.1-11.1,0c-2.7-0.2-4.5-2-4.7-4.6c-0.1-1.7-0.1-3.1,0-4.4c0.2-2.5,2.3-4.9,4.7-5
						c0.8,0,3.1,0,7.1,0h11.8V8.1c0,0-9.4,0-12.3,0c-3.8,0-5.7,0-6.9,0c-2.7,0.1-4.9,1.1-6.6,2.8c-1.6,1.7-2.6,4.3-2.8,7
						c-0.1,1.4-0.1,3.3,0,4.5c0.3,2.9,1.2,5.1,2.8,6.7c1.7,1.7,4.2,2.8,6.6,2.8c2,0,19.1,0,19.1,0V27C94.8,27,89.7,27,87,27z"/>
					<path d="M33.8,8.3v4.9c0,0,11.5,0,11.7,0c0,0.2,0,18.6,0,18.6h4.9c0,0,0-18.4,0-18.6c0.2,0,11.7,0,11.7,0V8.3H33.8z"/>
					<path d="M28.7,17.6c0-2.6-1-4.9-2.8-6.7C24,9,21.1,8.2,19.3,8.1c-1.6-0.1-8-0.1-9.5,0C7.7,8.2,6.1,8.8,5.3,9.4l0,0
						c0-0.6,0-8.9,0-8.9H0.4V32h4.9c0,0-0.1-12.9,0-14.3c0.2-2.5,2.1-4.5,4.5-4.7c1.9-0.2,7.7-0.1,9.6,0c2.5,0.2,4.3,2.1,4.5,4.8
						c0,1,0,14.2,0,14.2h4.9C28.7,31.9,28.7,18.7,28.7,17.6z"/>
				</g>
				<g transform="translate(108.000000, 6.000000)">
					<polygon points="16.9,1.4 19.1,1.4 25.6,21.8 32.3,1.4 35.1,1.4 26.7,26 24.4,26 17.9,6.2 11.3,26 9.1,26 0.6,1.4 3.5,1.4 
						10.3,21.8 					"/>
					<path id="Shape" d="M39.1,4V1h3v3H39.1z M39.3,25.9v-18h2.6v18H39.3z"/>
					<polygon points="48.3,25.9 48.3,0.5 50.9,0.5 50.9,26 48.3,26 					"/>
					<path d="M71.1,25.9v-3.6c-1.4,2.2-3.5,4-6.7,4c-4.2,0-8.4-3.4-8.4-9.4c0-5.9,4.2-9.4,8.4-9.4c3.3,0,5.4,1.8,6.7,3.8V0.5h2.6V26
						h-2.6V25.9z M64.8,9.9c-3.4,0-6.2,2.6-6.2,7c0,4.3,2.9,7,6.2,7c3.3,0,6.4-2.8,6.4-7S68.1,9.9,64.8,9.9z"/>
					<path d="M88.6,7.9v2.3H83v15.7h-2.6V10.2H78V7.8h2.4V6.3c0-3.9,1.9-6,5.3-6c1.2,0,2,0.1,2.9,0.4V3c-1-0.3-1.7-0.4-2.6-0.4
						c-2,0-3.1,1.2-3.1,3.8v1.4h5.7C88.6,7.8,88.6,7.9,88.6,7.9z"/>
					<path d="M92,4V1h3v3H92z M92.2,25.9v-18h2.6v18H92.2z"/>
					<path d="M103.6,25.9H101v-18h2.6v4.7c1.3-3,3.8-5.1,7.2-5v2.9h-0.2c-3.8,0-7,2.9-7,8.3V25.9z"/>
					<path d="M121.7,24c2.4,0,4.1-1,5.6-2.6l1.6,1.5c-1.8,2-3.9,3.4-7.3,3.4c-4.8,0-8.8-3.8-8.8-9.4c0-5.2,3.6-9.4,8.4-9.4
						c5.2,0,8.2,4.3,8.2,9.5c0,0.2,0,0.5,0,0.8h-14C115.9,21.8,118.6,24,121.7,24z M126.9,15.9c-0.3-3.3-2.1-6.1-5.6-6.1
						c-3.1,0-5.4,2.7-5.7,6.1H126.9z"/>
					<path d="M161.1,25.9l-6.9-9.5h-6.8v9.5h-2.7V1.5H155c5.2,0,8.6,2.9,8.6,7.3c0,4.1-2.7,6.5-6.5,7.2l7.3,9.9H161.1L161.1,25.9z
						 M154.7,4.1h-7.4V14h7.3c3.6,0,6.1-1.8,6.1-5C160.8,5.9,158.6,4.1,154.7,4.1z"/>
					<polygon points="168.3,1.5 184.5,1.5 184.5,3.5 173.7,25.9 170.7,25.9 181.5,4 168.4,4 168.4,1.5 					"/>
					<path d="M197.7,26.3c-6.2,0-10-5.7-10-12.6S191.7,1,197.8,1s10,5.7,10,12.6C207.7,20.5,203.8,26.3,197.7,26.3z M197.7,3.5
						c-4.5,0-7.3,4.7-7.3,10s2.9,10.1,7.3,10.1c4.5,0,7.2-4.7,7.2-10C205,8.4,202.2,3.5,197.7,3.5z"/>
				</g>
			</g>
		</g>
	</g>
</g>
</svg>
