<?xml version="1.0" encoding="UTF-8"?>
<svg width="316px" height="33px" viewBox="0 0 316 33" version="1.1" xmlns="http://www.w3.org/2000/svg" xmlns:xlink="http://www.w3.org/1999/xlink">
    <!-- Generator: Sketch 57.1 (83088) - https://sketch.com -->
    <title>HTC_Wildfire_R70_CMYK</title>
    <desc>Created with Sketch.</desc>
    <g id="Landing" stroke="none" stroke-width="1" fill="none" fill-rule="evenodd">
        <g id="Wildfire-OP75_360" transform="translate(-22.000000, -4840.000000)" fill="#353082" fill-rule="nonzero">
            <g id="Glance_M" transform="translate(0.000000, 4780.000000)">
                <g id="HTC_Wildfire_R70_CMYK" transform="translate(22.000000, 60.000000)">
                    <g id="Group">
                        <path d="M86.9783163,27 C81.9967404,27 77.2144274,27.1 75.9192177,27 C73.2291667,26.8 71.4357993,25 71.2365363,22.4 C71.1369048,20.7 71.1369048,19.3 71.2365363,18 C71.4357993,15.5 73.5280612,13.1 75.9192177,13 C76.7162698,13 79.0077948,13 82.9930556,13 L94.7495748,13 L94.7495748,8.1 C94.7495748,8.1 85.384212,8.1 82.494898,8.1 C78.7089002,8.1 76.8159014,8.1 75.6203231,8.1 C72.9302721,8.2 70.7383787,9.2 69.0446429,10.9 C67.4505385,12.6 66.4542234,15.2 66.2549603,17.9 C66.1553288,19.3 66.1553288,21.2 66.2549603,22.4 C66.5538549,25.3 67.4505385,27.5 69.0446429,29.1 C70.7383787,30.8 73.2291667,31.9 75.6203231,31.9 C77.6129535,31.9 94.7495748,31.9 94.7495748,31.9 L94.7495748,27 C94.8492063,27 89.6683673,27 86.9783163,27 Z" id="Path"></path>
                        <path d="M33.775085,8.3 L33.775085,13.2 C33.775085,13.2 45.2327098,13.2 45.4319728,13.2 C45.4319728,13.4 45.4319728,31.8 45.4319728,31.8 L50.3139172,31.8 C50.3139172,31.8 50.3139172,13.4 50.3139172,13.2 C50.5131803,13.2 61.970805,13.2 61.970805,13.2 L61.970805,8.3 L33.775085,8.3 Z" id="Path"></path>
                        <path d="M28.6938776,17.6 C28.6938776,15 27.6975624,12.7 25.904195,10.9 C24.0111961,9 21.1218821,8.2 19.3285147,8.1 C17.7344104,8 11.2583617,8 9.76388889,8.1 C7.67162698,8.2 6.07752268,8.8 5.28047052,9.4 C5.28047052,9.4 5.28047052,9.4 5.28047052,9.4 C5.28047052,8.8 5.28047052,0.5 5.28047052,0.5 L0.398526077,0.5 L0.398526077,32 L5.28047052,32 C5.28047052,32 5.180839,19.1 5.28047052,17.7 C5.47973356,15.2 7.37273243,13.2 9.76388889,13 C11.6568878,12.8 17.4355159,12.9 19.3285147,13 C21.8193027,13.2 23.6126701,15.1 23.8119331,17.8 C23.8119331,18.8 23.8119331,32 23.8119331,32 L28.6938776,32 C28.6938776,31.9 28.6938776,18.7 28.6938776,17.6 Z" id="Path"></path>
                    </g>
                    <g id="Group" transform="translate(108.000000, 6.000000)">
                        <polygon id="Path" points="16.8713721 1.3902439 19.0676454 1.3902439 25.5566347 21.7756098 32.3451158 1.3902439 35.1403727 1.3902439 26.6547713 25.9756098 24.3586674 25.9756098 17.8696781 6.20487805 11.2808583 25.9756098 9.08458498 25.9756098 0.598983625 1.3902439 3.49407115 1.3902439 10.2825522 21.7756098"></polygon>
                        <path d="M39.1335968,3.95121951 L39.1335968,0.980487805 L42.128515,0.980487805 L42.128515,3.95121951 L39.1335968,3.95121951 Z M39.333258,25.8731707 L39.333258,7.84390244 L41.9288538,7.84390244 L41.9288538,25.8731707 L39.333258,25.8731707 Z" id="Shape"></path>
                        <polygon id="Path" points="48.3180124 25.8731707 48.3180124 0.468292683 50.9136081 0.468292683 50.9136081 25.9756098 48.3180124 25.9756098"></polygon>
                        <path d="M71.0793902,25.8731707 L71.0793902,22.2878049 C69.6817617,24.4390244 67.585319,26.2829268 64.3907397,26.2829268 C60.1978543,26.2829268 56.0049689,22.902439 56.0049689,16.8585366 C56.0049689,10.9170732 60.1978543,7.43414634 64.3907397,7.43414634 C67.6851496,7.43414634 69.7815923,9.27804878 71.0793902,11.2243902 L71.0793902,0.468292683 L73.6749859,0.468292683 L73.6749859,25.9756098 L71.0793902,25.9756098 L71.0793902,25.8731707 Z M64.7900621,9.89268293 C61.3958216,9.89268293 58.6005647,12.4536585 58.6005647,16.8585366 C58.6005647,21.1609756 61.4956522,23.8243902 64.7900621,23.8243902 C68.084472,23.8243902 71.1792208,21.0585366 71.1792208,16.8585366 C71.1792208,12.6585366 68.084472,9.89268293 64.7900621,9.89268293 Z" id="Shape"></path>
                        <path d="M88.6495765,7.94634146 L88.6495765,10.2 L83.0590627,10.2 L83.0590627,25.8731707 L80.463467,25.8731707 L80.463467,10.2 L78.0675325,10.2 L78.0675325,7.84390244 L80.463467,7.84390244 L80.463467,6.30731707 C80.463467,2.41463415 82.3602484,0.263414634 85.754489,0.263414634 C86.9524562,0.263414634 87.7511011,0.365853659 88.6495765,0.673170732 L88.6495765,3.02926829 C87.6512705,2.72195122 86.9524562,2.6195122 86.0539808,2.6195122 C84.0573687,2.6195122 82.9592321,3.84878049 82.9592321,6.4097561 L82.9592321,7.84390244 L88.6495765,7.84390244 L88.6495765,7.94634146 Z" id="Path"></path>
                        <path d="M92.0438171,3.95121951 L92.0438171,0.980487805 L95.0387352,0.980487805 L95.0387352,3.95121951 L92.0438171,3.95121951 Z M92.2434783,25.8731707 L92.2434783,7.84390244 L94.839074,7.84390244 L94.839074,25.8731707 L92.2434783,25.8731707 Z" id="Shape"></path>
                        <path d="M103.624167,25.8731707 L101.028571,25.8731707 L101.028571,7.84390244 L103.624167,7.84390244 L103.624167,12.5560976 C104.921965,9.58536585 107.41773,7.43414634 110.811971,7.53658537 L110.811971,10.404878 L110.612309,10.404878 C106.818746,10.404878 103.624167,13.2731707 103.624167,18.702439 L103.624167,25.8731707 Z" id="Path"></path>
                        <path d="M121.693506,24.0292683 C124.089441,24.0292683 125.786561,23.004878 127.28402,21.4682927 L128.88131,23.004878 C127.084359,25.0536585 124.987916,26.3853659 121.593676,26.3853659 C116.801807,26.3853659 112.808583,22.595122 112.808583,16.9609756 C112.808583,11.7365854 116.402484,7.53658537 121.194353,7.53658537 C126.385545,7.53658537 129.380463,11.8390244 129.380463,17.0634146 C129.380463,17.2682927 129.380463,17.5756098 129.380463,17.8829268 L115.404178,17.8829268 C115.903331,21.7756098 118.598758,24.0292683 121.693506,24.0292683 Z M126.884698,15.9365854 C126.585206,12.6585366 124.788255,9.7902439 121.294184,9.7902439 C118.199435,9.7902439 115.903331,12.4536585 115.60384,15.9365854 L126.884698,15.9365854 Z" id="Shape"></path>
                        <path d="M161.126595,25.8731707 L154.238283,16.3463415 L147.449802,16.3463415 L147.449802,25.8731707 L144.754376,25.8731707 L144.754376,1.49268293 L155.036928,1.49268293 C160.22812,1.49268293 163.62236,4.36097561 163.62236,8.76585366 C163.62236,12.8634146 160.926934,15.2195122 157.133371,15.9365854 L164.421005,25.8731707 L161.126595,25.8731707 L161.126595,25.8731707 Z M154.737436,4.05365854 L147.349972,4.05365854 L147.349972,13.9902439 L154.637606,13.9902439 C158.231508,13.9902439 160.727273,12.1463415 160.727273,8.97073171 C160.827103,5.89756098 158.63083,4.05365854 154.737436,4.05365854 Z" id="Shape"></path>
                        <polygon id="Path" points="168.314399 1.49268293 184.486957 1.49268293 184.486957 3.54146341 173.705251 25.8731707 170.710333 25.8731707 181.492038 3.95121951 168.414229 3.95121951 168.414229 1.49268293"></polygon>
                        <path d="M197.664596,26.2829268 C191.475099,26.2829268 187.681536,20.5463415 187.681536,13.6829268 C187.681536,6.8195122 191.67476,0.980487805 197.764427,0.980487805 C203.854094,0.980487805 207.747487,6.71707317 207.747487,13.5804878 C207.747487,20.5463415 203.754263,26.2829268 197.664596,26.2829268 Z M197.664596,3.54146341 C193.172219,3.54146341 190.376962,8.25365854 190.376962,13.5804878 C190.376962,18.9073171 193.27205,23.7219512 197.664596,23.7219512 C202.156973,23.7219512 204.8524,19.0097561 204.8524,13.6829268 C204.95223,8.35609756 202.156973,3.54146341 197.664596,3.54146341 Z" id="Shape"></path>
                    </g>
                </g>
            </g>
        </g>
    </g>
</svg>