<svg width="66" height="38" viewBox="0 0 66 38" fill="none" xmlns="http://www.w3.org/2000/svg">
<path id="Path" d="M-7.62939e-05 4.00009C-7.62939e-05 2.98218 0.373558 1.96426 1.13641 1.18492C2.6621 -0.373766 5.1219 -0.373766 6.64759 1.18492L32.5533 27.6189L58.4278 1.16901C59.9535 -0.389671 62.4133 -0.389671 63.939 1.16901C65.4647 2.7277 65.4647 5.24068 63.939 6.79937L35.2933 36.0486C35.2933 36.0486 35.2933 36.0486 35.2777 36.0645L35.2621 36.0804L35.2466 36.0963C35.2154 36.1281 35.1999 36.144 35.1687 36.1758C35.1532 36.1758 35.1532 36.1917 35.1376 36.2076C34.5304 36.7643 33.7987 37.0824 33.0359 37.1937C33.0203 37.1937 33.0203 37.1937 33.0047 37.1937C33.0047 37.1937 33.0047 37.1937 32.9892 37.1937C32.4131 37.0347 31.8683 36.7166 31.4012 36.2712L1.13641 6.79937C0.373558 6.03593 -7.62939e-05 5.01801 -7.62939e-05 4.00009Z" fill="black"/>
</svg>
