<?xml version="1.0" encoding="UTF-8"?>
<svg width="416px" height="59px" viewBox="0 0 416 59" version="1.1" xmlns="http://www.w3.org/2000/svg" xmlns:xlink="http://www.w3.org/1999/xlink">
    <title>FD80ABB1-DACC-454E-90B2-65DD9716DC40</title>
    <g id="Page-1" stroke="none" stroke-width="1" fill="none" fill-rule="evenodd">
        <g id="20210930_w1920" transform="translate(-752.000000, -642.000000)" fill-rule="nonzero">
            <g id="vive-flow-logo" transform="translate(752.000000, 642.000000)">
                <g id="Group">
                    <path d="M41.4437042,2.1729709 C40.6671991,0.826722818 39.2315675,0 37.6785572,0 L29.0783114,0 C27.5253012,0 26.0896696,0.831240429 25.3131644,2.17748851 L0.58237885,45.0270291 C-0.194126283,46.3732772 -0.194126283,48.0312404 0.58237885,49.3774885 L4.88024447,56.8225115 C5.6567496,58.1687596 7.09238119,59 8.64539146,59 L58.1205063,59 C59.6735166,59 61.1091482,58.1687596 61.8856533,56.8270291 L66.1835189,49.3774885 C66.9600241,48.0312404 66.9600241,46.3732772 66.1835189,45.0225115 L41.4437042,2.1729709 Z M45.1772492,49.1651608 C41.4527333,50.3397397 37.4889455,50.9767228 33.376177,50.9767228 C29.2679231,50.9767228 25.3086499,50.3442573 21.584134,49.1696784 C17.227579,47.7963247 14.5368984,43.3735835 15.4759279,38.9011485 C17.1824334,30.7604135 21.4080659,23.5503063 27.3040875,18.1246554 C30.7441858,14.9623277 36.0081683,14.9578101 39.443752,18.1246554 C45.3397736,23.5503063 49.5699207,30.7604135 51.2764262,38.9011485 C52.2199702,43.3690658 49.5292896,47.7872894 45.1772492,49.1651608 Z" id="Shape" fill="#00B3E3"></path>
                    <g transform="translate(81.418989, 11.989740)" fill="#FFFFFF" id="Path">
                        <path d="M111.55608,5.18621746 L96.6083562,34.6094181 C96.3690843,35.0792496 95.8815113,35.3819296 95.3442781,35.3819296 L90.4143734,35.3819296 C89.8816548,35.3819296 89.3985963,35.0837672 89.1502953,34.6094181 L74.207086,5.18621746 C73.9542704,4.69379786 73.9768432,4.10650842 74.2432025,3.62764165 L75.8413585,0.867381317 C76.1528634,0.329785605 76.7262132,0 77.3447085,0 L78.7938838,0 C79.1685927,0 79.5207287,0.207810107 79.683253,0.551148545 L92.2427721,25.5561256 C92.5046169,26.0801685 93.2540346,26.0801685 93.5158794,25.5561256 L106.070884,0.551148545 C106.233408,0.207810107 106.585544,0 106.969282,0 L108.409428,0 C109.027924,0 109.601274,0.329785605 109.912778,0.867381317 L111.510934,3.63667688 C111.790837,4.11554364 111.804381,4.69831547 111.55608,5.18621746"></path>
                        <path d="M37.5262476,5.18621746 L22.5785238,34.6094181 C22.3392519,35.0792496 21.8516789,35.3819296 21.3144457,35.3819296 L16.384541,35.3819296 C15.8518224,35.3819296 15.3687639,35.0837672 15.1204629,34.6094181 L0.177253613,5.18621746 C-0.0755620118,4.69379786 -0.0529891882,4.10650842 0.213370131,3.62764165 L1.81152604,0.862863706 C2.11851645,0.329785605 2.6873516,0 3.30584697,0 L4.75953681,0 C5.13424568,0 5.48638173,0.207810107 5.64890606,0.551148545 L18.2084251,25.5561256 C18.4702699,26.0801685 19.2196876,26.0801685 19.4815324,25.5561256 L32.0365369,0.551148545 C32.1990612,0.207810107 32.5511973,0 32.9349353,0 L34.379596,0 C34.9935768,0 35.5669265,0.329785605 35.8739169,0.862863706 L37.4765874,3.63667688 C37.761005,4.11554364 37.7745487,4.69831547 37.5262476,5.18621746"></path>
                        <path d="M58.9343136,0.420137825 C58.6769834,0.162633997 58.3158182,0 57.9185365,0 L55.683827,0 C55.0653316,0 54.4964964,0.329785605 54.189506,0.867381317 L52.5958647,3.63667688 C52.4559132,3.88514548 52.3791656,4.16523737 52.3791656,4.44984686 L52.3791656,33.9498469 C52.3791656,34.7404288 53.0202338,35.3819296 53.8102826,35.3819296 L57.9365948,35.3819296 C58.722129,35.3819296 59.3586826,34.7449464 59.3586826,33.9588821 L59.3586826,1.43660031 C59.3586826,1.03905054 59.1961583,0.682159265 58.9343136,0.420137825"></path>
                        <path d="M128.223853,0.862863706 C128.530843,0.329785605 129.104193,0 129.722688,0 L151.12624,0 C151.731192,0 152.290998,0.320750383 152.593473,0.844793262 L154.101338,3.43790199 C154.313523,3.80834609 154.430901,4.23300153 154.430901,4.66217458 L154.430901,5.30819296 C154.430901,5.83675345 153.997503,6.27947933 153.455755,6.27947933 L133.943807,6.27947933 C133.551039,6.27947933 133.230505,6.60022971 133.230505,6.99326187 L133.230505,13.7651608 C133.230505,14.158193 133.551039,14.4789433 133.943807,14.4789433 L147.166967,14.4789433 C147.808035,14.4879786 148.331724,15.0120214 148.331724,15.6535222 L148.331724,19.5477029 C148.331724,20.1937213 147.80352,20.7222818 147.157937,20.7222818 L133.943807,20.7222818 C133.551039,20.7222818 133.230505,21.0430322 133.230505,21.4360643 L133.230505,28.3931853 C133.230505,28.7862175 133.551039,29.1069678 133.943807,29.1069678 L153.46027,29.1069678 C153.997503,29.1069678 154.435416,29.5406585 154.435416,30.069219 L154.435416,30.719755 C154.435416,31.1534456 154.322552,31.5735835 154.105853,31.9440276 L152.597988,34.5416539 C152.295512,35.0656968 151.735706,35.3864472 151.130754,35.3864472 L129.727203,35.3864472 C129.108708,35.3864472 128.539873,35.0566616 128.228368,34.5235835 L126.738561,31.9530628 C126.521862,31.5781011 126.408998,31.1534456 126.408998,30.7242726 L126.413513,4.65765697 C126.413513,4.22848392 126.526377,3.80834609 126.738561,3.43338438 L128.223853,0.862863706 Z"></path>
                    </g>
                </g>
                <path d="M293.776271,11.6238132 L296.602388,11.6238132 C296.84166,11.6238132 297.031272,11.8180704 297.031272,12.0529862 L297.031272,43.7124043 C297.031272,43.9518377 297.225398,44.1415773 297.460155,44.1415773 L314.823171,44.1415773 C315.062443,44.1415773 315.252055,44.3358346 315.252055,44.5707504 L315.252055,46.9289433 C315.252055,47.1683767 315.057929,47.3581164 314.823171,47.3581164 L293.776271,47.3581164 C293.536999,47.3581164 293.347387,47.1638591 293.347387,46.9289433 L293.347387,12.0484686 C293.347387,11.8180704 293.541513,11.6238132 293.776271,11.6238132 Z" id="Path" fill="#00B3E3"></path>
                <path d="M324.913224,29.4954824 C324.913224,26.8617152 325.328563,24.41317 326.159243,22.1453292 C326.989923,19.8774885 328.159196,17.9303982 329.662546,16.2995406 C331.17041,14.6732006 332.976236,13.3901991 335.089052,12.4550536 C337.197354,11.5199081 339.553957,11.0500766 342.149832,11.0500766 C344.677988,11.0500766 346.99396,11.5153905 349.106776,12.4550536 C351.219592,13.3901991 353.034447,14.6732006 354.56037,16.2995406 C356.081778,17.9258806 357.269109,19.8774885 358.117847,22.1453292 C358.966585,24.41317 359.390954,26.8662328 359.390954,29.4954824 C359.390954,32.1608729 358.966585,34.6229709 358.117847,36.8727412 C357.269109,39.1225115 356.086293,41.0650842 354.56037,42.6914242 C353.034447,44.3177642 351.219592,45.6007657 349.106776,46.5359112 C346.99396,47.4710567 344.677988,47.9408882 342.149832,47.9408882 C339.590073,47.9408882 337.2425,47.4710567 335.11614,46.5359112 C332.985265,45.6007657 331.17041,44.3177642 329.662546,42.6914242 C328.159196,41.0650842 326.989923,39.1225115 326.159243,36.8727412 C325.328563,34.6229709 324.913224,32.1653905 324.913224,29.4954824 Z M328.755118,29.4954824 C328.755118,31.6413476 329.075652,33.6336141 329.71672,35.4722818 C330.357789,37.3064319 331.265216,38.9011485 332.443517,40.2519142 C333.621819,41.6026799 335.030363,42.6598009 336.673665,43.4187596 C338.316966,44.1822358 340.145365,44.5617152 342.149832,44.5617152 C344.158813,44.5617152 345.982697,44.1822358 347.625999,43.4187596 C349.2693,42.6552833 350.677844,41.5981623 351.856146,40.2519142 C353.034447,38.9011485 353.941875,37.3064319 354.582943,35.4722818 C355.224011,33.6381317 355.544545,31.6458652 355.544545,29.4954824 C355.544545,27.3496172 355.224011,25.3573507 354.582943,23.518683 C353.941875,21.6845329 353.034447,20.0898162 351.856146,18.7390505 C350.677844,17.3882848 349.2693,16.3311639 347.625999,15.5722052 C345.982697,14.8087289 344.154298,14.4292496 342.149832,14.4292496 C340.14085,14.4292496 338.316966,14.8087289 336.673665,15.5722052 C335.030363,16.3356815 333.617304,17.3882848 332.443517,18.7390505 C331.265216,20.0898162 330.357789,21.6845329 329.71672,23.518683 C329.075652,25.3573507 328.755118,27.3496172 328.755118,29.4954824 Z" id="Shape" fill="#00B3E3"></path>
                <path d="M370.379405,11.6238132 L373.327416,11.6238132 C373.521542,11.6238132 373.693095,11.7548239 373.742756,11.9445636 L381.760623,43.5226646 L381.968293,43.5226646 L390.812325,11.9355283 C390.861985,11.7503063 391.033539,11.6238132 391.22315,11.6238132 L395.037957,11.6238132 C395.232084,11.6238132 395.399123,11.7503063 395.448783,11.9355283 L404.292815,43.5226646 L404.44631,43.5226646 L412.360342,11.9490812 C412.410003,11.7593415 412.577041,11.6238132 412.775682,11.6238132 L415.570198,11.6238132 C415.850101,11.6238132 416.057771,11.8903522 415.985538,12.1614089 L406.712622,47.0464012 C406.662962,47.2361409 406.491408,47.362634 406.297282,47.362634 L402.328979,47.362634 C402.139368,47.362634 401.967814,47.2361409 401.918154,47.0509188 L393.128297,15.8794028 L392.974801,15.8794028 L384.184944,47.0509188 C384.130769,47.2361409 383.96373,47.362634 383.774118,47.362634 L379.805816,47.362634 C379.61169,47.362634 379.444651,47.2316233 379.390476,47.0464012 L369.964065,12.1614089 C369.896346,11.8903522 370.099502,11.6238132 370.379405,11.6238132 Z" id="Path" fill="#00B3E3"></path>
                <g id="Group" transform="translate(255.962276, 11.659954)" fill="#00B3E3">
                    <path d="M21.5164155,16.6925727 L21.5164155,19.0598009 C21.5164155,19.2947167 21.3268038,19.4844564 21.0920464,19.4844564 L7.32262399,19.4844564 C7.20975987,19.4844564 7.10141032,19.4392802 7.02466272,19.3624809 L5.84184676,18.1788668 C5.67480786,18.0117152 5.67480786,17.7451761 5.84184676,17.5780245 L7.02917728,16.3898928 C7.11043945,16.3085758 7.21427444,16.2679173 7.32713855,16.2679173 L21.0920464,16.2679173 C21.3268038,16.2679173 21.5164155,16.457657 21.5164155,16.6925727 Z" id="Path"></path>
                    <g id="Path">
                        <path d="M22.7940373,0 L0.433398214,0 C0.198640848,0 0.00902912946,0.189739663 0.00902912946,0.424655436 L0.00902912946,13.5257274 C0.00902912946,13.6386677 0.0541747767,13.7470904 0.130922377,13.8238897 L1.5620394,15.2559724 C1.72907829,15.423124 1.99543761,15.423124 2.1624765,15.2559724 L3.57553527,13.8419602 C3.65679743,13.7606432 3.69742851,13.6567381 3.69742851,13.5437979 L3.69742851,3.63667688 C3.69742851,3.4017611 3.88704023,3.21202144 4.1217976,3.21202144 L22.7940373,3.21202144 C23.0287947,3.21202144 23.2184064,3.02228178 23.2184064,2.787366 L23.2184064,0.424655436 C23.2138918,0.189739663 23.0287947,0 22.7940373,0 Z"></path>
                        <path d="M3.66582656,22.0143185 C3.64325374,21.9555896 3.61616635,21.9058959 3.5710207,21.8607198 L2.15796194,20.4467075 C2.07218521,20.3608729 1.96383566,20.3202144 1.85097154,20.324732 C1.73810742,20.324732 1.62975787,20.3608729 1.54398114,20.4467075 L0.130922377,21.8607198 C0.0857767298,21.9058959 0.0586893415,21.9555896 0.0361165178,22.0143185 C0.0135436942,22.0640123 0,22.1227412 0,22.1769525 L0,27.7878254 L0,32.0298622 L0.00451456473,32.0343798 L0.00451456473,35.2464012 C0.00451456473,35.481317 0.194126283,35.6710567 0.428883649,35.6710567 L3.26854486,35.6710567 C3.50330223,35.6710567 3.69291395,35.481317 3.69291395,35.2464012 L3.69291395,32.0343798 L3.69742851,32.0298622 L3.69742851,27.7878254 L3.69742851,22.1769525 C3.69742851,22.1227412 3.68388482,22.0685299 3.66582656,22.0143185 Z"></path>
                    </g>
                </g>
            </g>
        </g>
    </g>
</svg>