<?xml version="1.0" encoding="UTF-8"?>
<svg width="215px" height="20px" viewBox="0 0 215 20" version="1.1" xmlns="http://www.w3.org/2000/svg" xmlns:xlink="http://www.w3.org/1999/xlink">
    <!-- Generator: Sketch 57.1 (83088) - https://sketch.com -->
    <title>logo</title>
    <desc>Created with Sketch.</desc>
    <defs>
        <polygon id="path-1" points="0 19.4805195 214.285714 19.4805195 214.285714 0 0 0"></polygon>
    </defs>
    <g id="Page-1" stroke="none" stroke-width="1" fill="none" fill-rule="evenodd">
        <g id="Wildfire-E1_plus_360" transform="translate(-20.000000, -62.000000)">
            <g id="pdp-header" transform="translate(0.000000, 48.000000)">
                <g id="logo" transform="translate(20.000000, 14.000000)">
                    <path d="M48.2201534,14.4902049 C45.436447,14.5097181 42.7992224,14.5303462 42.0657044,14.4662317 C40.5775839,14.3363302 39.583839,13.3590023 39.4695389,11.9211651 C39.3901947,10.9767307 39.3901947,10.1945339 39.4634355,9.44913324 C39.6010395,8.04976474 40.7651248,6.71451073 42.0657044,6.65095375 C42.5301178,6.62698051 43.7768764,6.62921058 46.0318062,6.63924589 L52.5974026,6.65095375 L52.5974026,3.91577373 C52.5974026,3.91577373 47.3673416,3.90796848 45.7954381,3.90239331 C43.6842157,3.89291552 42.6227785,3.89180048 41.9508494,3.91577373 C40.4710518,3.97096794 39.2303965,4.50116692 38.2666138,5.4846275 C37.3544326,6.41400889 36.8090103,7.88975726 36.7280015,9.38836385 C36.6819486,10.1945339 36.6686321,11.2493567 36.7280015,11.8771212 C36.8805866,13.4850012 37.3999307,14.747778 38.2666138,15.6314429 C39.1959955,16.5803374 40.6092106,17.1830137 41.9519591,17.2008542 C43.0533458,17.2164647 52.5974026,17.2008542 52.5974026,17.2008542 L52.5974026,14.4662317 C52.5974026,14.4662317 49.6977316,14.4784971 48.2201534,14.4902049" id="Fill-1" fill="#000000"></path>
                    <polygon id="Fill-3" fill="#000000" points="18.5064935 4.22077922 18.5064935 6.93509425 24.9408867 6.93509425 24.9408867 17.2077922 27.6576182 17.2077922 27.6576182 6.93509425 34.0909091 6.93509425 34.0909091 4.22077922"></polygon>
                    <path d="M15.9071006,9.39024431 C15.8847096,7.94605404 15.3652393,6.7074736 14.354847,5.70567255 C13.2996728,4.6579374 11.6897625,4.2221102 10.6385068,4.16797357 C9.72215657,4.11821162 6.11553204,4.13461665 5.26691451,4.16797357 C4.07235658,4.21882919 3.20414695,4.56278817 2.7686427,4.8821396 C2.76304496,4.88596744 2.75856677,4.88432694 2.75856677,4.87776492 L2.75856677,0 L0,0 L0,17.2077922 L2.75520812,17.2077922 C2.75520812,17.2077922 2.69979048,10.1640153 2.76192541,9.39844682 C2.87276068,8.03190708 3.93073373,6.96393904 5.27922954,6.84855693 C6.36407174,6.75614188 9.61244085,6.78074944 10.6306699,6.85074427 C12.0329041,6.94315933 13.0651275,8.01386154 13.1468545,9.45203662 C13.1726041,9.98137254 13.1446154,17.2077922 13.1446154,17.2077922 L15.9071006,17.2077922 C15.9071006,17.2077922 15.9115788,10.0103548 15.9071006,9.39024431" id="Fill-5" fill="#000000"></path>
                    <polygon id="Fill-7" fill="#000000" points="68.7347214 4.54545455 69.9579992 4.54545455 73.5709229 15.5600225 77.3335793 4.58304881 78.8961039 4.58304881 74.1914021 17.8571429 72.9311055 17.8571429 69.3181818 7.16267909 65.6859199 17.8571429 64.4438565 17.8571429 59.7402597 4.58304881 61.3580363 4.58304881 65.1217977 15.5600225"></polygon>
                    <mask id="mask-2" fill="white">
                        <use xlink:href="#path-1"></use>
                    </mask>
                    <g id="Clip-10"></g>
                    <path d="M81.2609146,17.2077922 L82.6817077,17.2077922 L82.6817077,7.58222415 L81.2609146,7.58222415 L81.2609146,17.2077922 Z M81.1688312,5.47868111 L82.7922078,5.47868111 L82.7922078,3.8961039 L81.1688312,3.8961039 L81.1688312,5.47868111 Z" id="Fill-9" fill="#000000" mask="url(#mask-2)"></path>
                    <polygon id="Fill-11" fill="#000000" mask="url(#mask-2)" points="86.3636364 17.2077922 87.6623377 17.2077922 87.6623377 3.57142857 86.3636364 3.57142857"></polygon>
                    <path d="M95.7789469,8.79639064 C93.913511,8.79639064 92.3833605,10.2229242 92.3833605,12.6525598 C92.3833605,15.0233227 93.9507649,16.5274098 95.7789469,16.5274098 C97.5704227,16.5274098 99.2682159,14.9848289 99.2682159,12.6525598 C99.2682159,10.3389715 97.5704227,8.79639064 95.7789469,8.79639064 L95.7789469,8.79639064 Z M99.212335,17.6454272 L99.212335,15.640355 C98.4289067,16.835926 97.2904704,17.8571429 95.5176215,17.8571429 C93.2045906,17.8571429 90.9090909,15.9681181 90.9090909,12.6712406 C90.9090909,9.39417612 93.2045906,7.46609152 95.5176215,7.46609152 C97.3090973,7.46609152 98.4656128,8.46862758 99.212335,9.58664493 L99.212335,3.57142857 L100.649351,3.57142857 L100.649351,17.6454272 L99.212335,17.6454272 Z" id="Fill-12" fill="#000000" mask="url(#mask-2)"></path>
                    <path d="M108.422861,7.63975404 L108.422861,8.86603396 L105.369623,8.86603396 L105.369623,17.2077922 L103.927695,17.2077922 L103.927695,8.86603396 L102.597403,8.86603396 L102.597403,7.6212071 L103.927695,7.6212071 L103.927695,6.78495838 C103.927695,4.68533587 104.995118,3.57142857 106.849498,3.57142857 C107.523717,3.57142857 107.973564,3.64507083 108.441558,3.81253877 L108.441558,5.05736563 C107.916921,4.90899012 107.523717,4.81570993 107.036475,4.81570993 C105.912959,4.81570993 105.350926,5.48449071 105.350926,6.85914613 L105.350926,7.63975404 L108.422861,7.63975404 Z" id="Fill-13" fill="#000000" mask="url(#mask-2)"></path>
                    <path d="M110.805827,17.2077922 L112.226621,17.2077922 L112.226621,7.58222415 L110.805827,7.58222415 L110.805827,17.2077922 Z M110.714286,5.47868111 L112.337662,5.47868111 L112.337662,3.8961039 L110.714286,3.8961039 L110.714286,5.47868111 Z" id="Fill-14" fill="#000000" mask="url(#mask-2)"></path>
                    <path d="M116.973545,17.2077922 L115.584416,17.2077922 L115.584416,7.63727766 L116.973545,7.63727766 L116.973545,10.1364386 C117.658842,8.54443286 119.01143,7.39649291 120.779221,7.47095682 L120.779221,9.00752228 L120.670654,9.00752228 C118.632769,9.00752228 116.973545,10.506584 116.973545,13.3943705 L116.973545,17.2077922 Z" id="Fill-15" fill="#000000" mask="url(#mask-2)"></path>
                    <path d="M129.991898,11.9595659 C129.838119,10.2071913 128.798413,8.67919938 126.815113,8.67919938 C125.081705,8.67919938 123.77232,10.0769398 123.579531,11.9595659 L129.991898,11.9595659 Z M127.084227,16.2835859 C128.451279,16.2835859 129.41466,15.7428782 130.222567,14.9230602 L131.146938,15.7242708 C130.145677,16.805139 128.93297,17.5324675 127.045782,17.5324675 C124.311678,17.5324675 122.077922,15.5009826 122.077922,12.4997264 C122.077922,9.70424551 124.099666,7.46753247 126.852993,7.46753247 C129.799108,7.46753247 131.493506,9.74146021 131.493506,12.574703 C131.493506,12.7049545 131.493506,12.8543606 131.474284,13.0218267 L123.579531,13.0218267 C123.791543,15.109681 125.332162,16.2835859 127.084227,16.2835859 L127.084227,16.2835859 Z" id="Fill-16" fill="#000000" mask="url(#mask-2)"></path>
                    <polygon id="Fill-17" fill="#000000" mask="url(#mask-2)" points="146.332865 5.91459296 138.193874 5.91459296 138.193874 10.4597751 145.475422 10.4597751 145.475422 11.8289135 138.193874 11.8289135 138.193874 16.4880044 146.428571 16.4880044 146.428571 17.8571429 136.688312 17.8571429 136.688312 4.54545455 146.332865 4.54545455"></polygon>
                    <polygon id="Fill-18" fill="#000000" mask="url(#mask-2)" points="151.121212 3.8961039 152.272727 3.8961039 152.272727 17.2077922 150.724359 17.2077922 150.724359 5.44454192 148.104312 6.21848374 147.727273 5.01044705"></polygon>
                    <polygon id="Fill-19" fill="#000000" mask="url(#mask-2)" points="161.405032 18.5064935 161.646916 18.5064935 161.646916 2.92207792 161.405032 2.92207792"></polygon>
                    <polygon id="Fill-20" fill="#000000" mask="url(#mask-2)" points="179.774423 5.26524231 171.635432 5.26524231 171.635432 9.81042447 178.91698 9.81042447 178.91698 11.1795629 171.635432 11.1795629 171.635432 15.8386538 179.87013 15.8386538 179.87013 17.2077922 170.12987 17.2077922 170.12987 3.8961039 179.774423 3.8961039"></polygon>
                    <polygon id="Fill-21" fill="#000000" mask="url(#mask-2)" points="184.562771 3.8961039 185.714286 3.8961039 185.714286 17.2077922 184.165917 17.2077922 184.165917 5.44454192 181.545871 6.21848374 181.168831 5.01044705"></polygon>
                    <path d="M194.55594,11.9132268 C194.537276,11.9132268 194.518613,11.9132268 194.499415,11.9137722 C193.314524,11.9830468 192.403193,12.9152535 192.33547,14.1300132 C192.267746,15.4151383 193.239336,16.5175314 194.501548,16.5873514 C195.7259,16.5873514 196.551911,15.6409625 196.551911,14.2325614 C196.551911,13.5283608 196.30928,12.9005258 195.868812,12.4625142 C195.510466,12.1068683 195.046534,11.9132268 194.55594,11.9132268 L194.55594,11.9132268 Z M192.370664,19.4805195 L191.233766,19.4805195 L191.233766,10.8582896 L192.370664,10.8582896 L192.370664,11.662311 C192.906585,11.0644769 193.696334,10.7142857 194.531944,10.7142857 L194.602334,10.7142857 C196.398334,10.789015 197.797593,12.3528749 197.724537,14.2003787 C197.724537,16.3991646 196.101311,17.714836 194.531944,17.714836 C193.730996,17.714836 192.94018,17.370645 192.370664,16.7842658 L192.370664,19.4805195 Z" id="Fill-22" fill="#000000" mask="url(#mask-2)"></path>
                    <polygon id="Fill-23" fill="#000000" mask="url(#mask-2)" points="199.350649 17.2077922 200.649351 17.2077922 200.649351 7.79220779 199.350649 7.79220779"></polygon>
                    <path d="M204.805402,17.8571429 C204.765359,17.8571429 204.725315,17.8565718 204.684174,17.8542875 C203.023741,17.8542875 201.948052,16.7047375 201.948052,14.9253049 L201.948052,10.7142857 L203.11809,10.7142857 L203.11809,14.8499246 C203.11809,16.0154644 203.732456,16.7115903 204.761519,16.7115903 L204.87013,16.7115903 C205.345715,16.6944584 205.788388,16.4785966 206.112575,16.1039792 C206.434569,15.7305039 206.602422,15.2468135 206.585966,14.7402805 L206.585966,14.735712 L206.623267,10.7142857 L207.792208,10.7142857 L207.792208,17.7035269 L206.622718,17.7035269 L206.622718,17.0976289 C206.132871,17.5813194 205.475171,17.8571429 204.805402,17.8571429" id="Fill-25" fill="#000000" mask="url(#mask-2)"></path>
                    <path d="M211.934861,17.8571429 C210.968013,17.8196608 210.059358,17.4800841 209.303391,16.8758951 L209.090909,16.7097431 L209.76199,15.6988453 L209.980345,15.8705917 C210.598572,16.365691 211.286203,16.6269468 211.969563,16.6269468 C212.649185,16.6269468 213.181459,16.2314268 213.181459,15.726817 C213.181459,15.2697592 212.778383,15.0644468 211.814739,14.7528419 L211.767224,14.7489259 L211.682338,14.7226325 C210.732041,14.4289295 209.548974,14.0630594 209.548974,12.7707662 C209.548974,11.5791711 210.492865,10.7142857 211.793384,10.7142857 C212.592595,10.7517678 213.376857,11.0130236 214.065021,11.4684032 L214.280707,11.6367929 L213.693978,12.6460124 L213.438252,12.4848953 C212.896369,12.1067177 212.316581,11.9075591 211.758148,11.9075591 C211.107888,11.9075591 210.687729,12.2174857 210.687729,12.6963614 C210.687729,13.1752372 211.287804,13.3883817 212.135598,13.6367705 L212.158554,13.6434837 C212.967909,13.8745301 214.321815,14.2616586 214.284978,15.6926916 C214.284978,16.9458244 213.296776,17.8571429 211.934861,17.8571429" id="Fill-27" fill="#000000" mask="url(#mask-2)"></path>
                </g>
            </g>
        </g>
    </g>
</svg>