<?xml version="1.0" encoding="UTF-8"?>
<svg width="409px" height="44px" viewBox="0 0 409 44" version="1.1" xmlns="http://www.w3.org/2000/svg" xmlns:xlink="http://www.w3.org/1999/xlink">
    <!-- Generator: Sketch 57.1 (83088) - https://sketch.com -->
    <title>e1plus-logo</title>
    <desc>Created with Sketch.</desc>
    <g id="Page-1" stroke="none" stroke-width="1" fill="none" fill-rule="evenodd">
        <g id="e1plus-logo" fill="#FFFFFF">
            <path d="M109.09491,32.8754863 C102.795781,32.9194622 96.8281179,32.9659509 95.1682714,32.8214588 C91.8008674,32.5287051 89.5521647,30.3261417 89.2935199,27.0857477 C89.1139753,24.9573151 89.1139753,23.1945106 89.2797088,21.514632 C89.591087,18.3609332 92.2252457,15.3517266 95.1682714,15.2084909 C96.2191727,15.1544634 99.0404094,15.1594892 104.142993,15.1821054 L119,15.2084909 L119,9.04432908 C119,9.04432908 107.165119,9.02673873 103.608126,9.01417419 C98.8307314,8.99281448 96.4288507,8.99030157 94.9083711,9.04432908 C91.5598004,9.168718 88.7523748,10.3636055 86.5714722,12.5799898 C84.5073364,14.6744981 83.2731238,18.000331 83.0898125,21.3776785 C82.9856013,23.1945106 82.9554679,25.571721 83.0898125,26.9864878 C83.4350907,30.6101003 84.6102921,33.4559679 86.5714722,35.447447 C88.6745303,37.5859312 91.8724341,38.9441576 94.9108822,38.9843641 C97.403163,39.0195448 119,38.9843641 119,38.9843641 L119,32.8214588 C119,32.8214588 112.438459,32.8491007 109.09491,32.8754863" id="Fill-1"></path>
            <polygon id="Fill-3" points="42 10 42 16.0610655 56.4505747 16.0610655 56.4505747 39 62.551901 39 62.551901 16.0610655 77 16.0610655 77 10"></polygon>
            <path d="M35.9954962,21.2821914 C35.9448287,18.0090568 34.7693414,15.2019194 32.4829681,12.9314224 C30.0952597,10.5568196 26.4522626,9.56905428 24.073421,9.44635821 C21.9998514,9.33357697 13.8385754,9.3707576 11.9182751,9.44635821 C9.21516117,9.56161815 7.25052681,10.341172 6.26504291,11.0649549 C6.25237602,11.0736304 6.24224251,11.0699123 6.24224251,11.05504 L6.24224251,0 L0,0 L0,39 L6.23464238,39 C6.23464238,39 6.10924018,23.0358777 6.24984264,21.3007817 C6.50064703,18.2036354 8.8946889,15.7831766 11.9461423,15.5216728 C14.4009852,15.3122219 21.7515804,15.3679929 24.0556874,15.5266302 C27.2287429,15.7360811 29.5645171,18.1627367 29.7494536,21.4222385 C29.8077213,22.6219334 29.7443869,39 29.7443869,39 L35.9954962,39 C35.9954962,39 36.0056297,22.6876192 35.9954962,21.2821914" id="Fill-5"></path>
            <polygon id="Fill-7" points="155.19028 10 157.936227 10 166.046322 34.823075 174.49253 10.0847246 178 10.0847246 167.43914 40 164.610095 40 156.5 15.8983304 148.346496 40 145.558379 40 135 10.0847246 138.631497 10.0847246 147.080185 34.823075"></polygon>
            <path d="M183.226894,39 L186.727728,39 L186.727728,17.3072564 L183.226894,17.3072564 L183.226894,39 Z M183,12.5665886 L187,12.5665886 L187,9 L183,9 L183,12.5665886 Z" id="Fill-9"></path>
            <polygon id="Fill-11" points="195 39 198 39 198 8 195 8"></polygon>
            <path d="M215.999381,19.703915 C211.785983,19.703915 208.329884,22.8993501 208.329884,28.341734 C208.329884,33.6522428 211.870128,37.021398 215.999381,37.021398 C220.045728,37.021398 223.880477,33.5660168 223.880477,28.341734 C223.880477,23.1592962 220.045728,19.703915 215.999381,19.703915 L215.999381,19.703915 Z M223.754261,39.5257569 L223.754261,35.0343953 C221.984757,37.7124742 219.413409,40 215.409134,40 C210.184769,40 205,35.7685846 205,28.383579 C205,21.0429545 210.184769,16.724045 215.409134,16.724045 C219.455481,16.724045 222.067664,18.9697258 223.754261,21.4740846 L223.754261,8 L227,8 L227,39.5257569 L223.754261,39.5257569 Z" id="Fill-12"></path>
            <path d="M244.958408,17.2486599 L244.958408,20.0364029 L238.166651,20.0364029 L238.166651,39 L234.959161,39 L234.959161,20.0364029 L232,20.0364029 L232,17.2064965 L234.959161,17.2064965 L234.959161,15.3054244 C234.959161,10.5322826 237.333584,8 241.458549,8 C242.958314,8 243.958972,8.16741339 245,8.54812385 L245,11.3780302 C243.832973,11.0407233 242.958314,10.8286663 241.874471,10.8286663 C239.375271,10.8286663 238.125059,12.3490279 238.125059,15.4740779 L238.125059,17.2486599 L244.958408,17.2486599 Z" id="Fill-13"></path>
            <path d="M250.225559,39 L253.726393,39 L253.726393,17.3072564 L250.225559,17.3072564 L250.225559,39 Z M250,12.5665886 L254,12.5665886 L254,9 L250,9 L250,12.5665886 Z" id="Fill-14"></path>
            <path d="M264.20889,39 L261,39 L261,17.3833978 L264.20889,17.3833978 L264.20889,23.0281693 C265.791926,19.432359 268.916403,16.8395453 273,17.0077345 L273,20.4783236 L272.74921,20.4783236 C268.041696,20.4783236 264.20889,23.8642044 264.20889,30.3867514 L264.20889,39 Z" id="Fill-15"></path>
            <path d="M293.650895,27.2650209 C293.307914,23.2605622 290.989012,19.7688543 286.56557,19.7688543 C282.699472,19.7688543 279.779092,22.9629166 279.349105,27.2650209 L293.650895,27.2650209 Z M287.165786,37.1461041 C290.214783,37.1461041 292.363456,35.9104997 294.165366,34.0370834 L296.227033,35.8679789 C293.993875,38.337937 291.28912,40 287.080041,40 C280.982046,40 276,35.3577293 276,28.4993747 C276,22.1112501 280.509187,17 286.650054,17 C293.220908,17 297,22.1962917 297,28.6707085 C297,28.9683541 297,29.3097711 296.957127,29.6924583 L279.349105,29.6924583 C279.821965,34.4635419 283.258076,37.1461041 287.165786,37.1461041 L287.165786,37.1461041 Z" id="Fill-16"></path>
            <polygon id="Fill-20" points="330.78383 12.0855705 312.400563 12.0855705 312.400563 22.3288591 328.847153 22.3288591 328.847153 25.4144295 312.400563 25.4144295 312.400563 35.9144295 331 35.9144295 331 39 309 39 309 9 330.78383 9"></polygon>
            <polygon id="Fill-21" points="341.466667 9 344 9 344 39 340.59359 39 340.59359 12.4896506 334.829487 14.2338512 334 11.511349"></polygon>
            <path d="M364.674222,26.7353618 C364.631109,26.7353618 364.587995,26.7353618 364.54365,26.7366063 C361.806551,26.894655 359.701376,29.0214672 359.544935,31.7929189 C359.388494,34.7249082 361.632865,37.2399975 364.548577,37.3992906 C367.37683,37.3992906 369.284915,35.240122 369.284915,32.0268807 C369.284915,30.4202601 368.724438,28.9878663 367.706957,27.9885508 C366.879175,27.1771514 365.807494,26.7353618 364.674222,26.7353618 L364.674222,26.7353618 Z M359.626235,44 L357,44 L357,24.3285421 L359.626235,24.3285421 L359.626235,26.1629021 C360.864211,24.7989546 362.688533,24 364.618791,24 L364.78139,24 C368.930151,24.1704934 372.16244,27.7384108 371.993681,31.9534565 C371.993681,36.9699459 368.244029,39.9716259 364.618791,39.9716259 C362.768601,39.9716259 360.941816,39.1863605 359.626235,37.8485471 L359.626235,44 Z" id="Fill-22"></path>
            <polygon id="Fill-23" points="375 39 378 39 378 18 375 18"></polygon>
            <path d="M387.356017,40 C387.266942,40 387.177867,39.9987208 387.086353,39.9936041 C383.39281,39.9936041 381,37.4186121 381,33.4326831 L381,24 L383.602684,24 L383.602684,33.2638311 C383.602684,35.8746402 384.969307,37.4339623 387.258401,37.4339623 L387.5,37.4339623 C388.557913,37.3955868 389.542613,36.9120563 390.263751,36.0729133 C390.980008,35.2363287 391.353388,34.1528622 391.316782,33.0182283 L391.316782,33.0079949 L391.399756,24 L394,24 L394,39.6559002 L391.398536,39.6559002 L391.398536,38.2986888 C390.308898,39.3821554 388.845879,40 387.356017,40" id="Fill-25"></path>
            <path d="M403.569528,40 C401.336111,39.9160401 399.237117,39.1553885 397.490834,37.802005 L397,37.4298246 L398.550197,35.1654135 L399.054596,35.5501253 C400.482701,36.6591479 402.071128,37.2443609 403.649689,37.2443609 C405.219618,37.2443609 406.449169,36.358396 406.449169,35.2280702 C406.449169,34.2042607 405.518065,33.7443609 403.292047,33.0463659 L403.182287,33.037594 L402.9862,32.9786967 C400.791014,32.320802 398.058129,31.5012531 398.058129,28.6065163 C398.058129,25.9373434 400.238517,24 403.242717,24 C405.088893,24.0839599 406.900539,24.6691729 408.4902,25.6892231 L408.988433,26.066416 L407.63309,28.3270677 L407.042363,27.9661654 C405.790613,27.1190476 404.451303,26.6729323 403.161322,26.6729323 C401.659222,26.6729323 400.688654,27.3671679 400.688654,28.4398496 C400.688654,29.5125313 402.074828,29.9899749 404.03323,30.5463659 L404.08626,30.5614035 C405.955869,31.0789474 409.083393,31.9461153 408.998299,35.1516291 C408.998299,37.9586466 406.715551,40 403.569528,40" id="Fill-27"></path>
        </g>
    </g>
</svg>