<?xml version="1.0" encoding="UTF-8"?>
<svg width="660px" height="60px" viewBox="0 0 660 60" version="1.1" xmlns="http://www.w3.org/2000/svg" xmlns:xlink="http://www.w3.org/1999/xlink">
    <!-- Generator: Sketch 57.1 (83088) - https://sketch.com -->
    <title>e1-e1plus-logo </title>
    <desc>Created with Sketch.</desc>
    <defs>
        <polygon id="path-1" points="0 60 660 60 660 0 0 0"></polygon>
    </defs>
    <g id="Page-1" stroke="none" stroke-width="1" fill="none" fill-rule="evenodd">
        <g id="e1-e1plus-logo-">
            <path d="M148.518072,44.6298312 C139.944257,44.6899316 131.821605,44.7534663 129.562369,44.5559936 C124.978958,44.1558969 121.918224,41.145727 121.56618,36.7171885 C121.3218,33.8083306 121.3218,31.3991644 121.547381,29.1033304 C121.971202,24.7932754 125.556584,20.680693 129.562369,20.4849376 C130.992763,20.4111 134.832779,20.4179686 141.777963,20.4488773 L162,20.4849376 L162,12.0605831 C162,12.0605831 145.891412,12.0365429 141.049949,12.0193714 C134.547384,11.9901798 131.278158,11.9867455 129.208616,12.0605831 C124.650839,12.2305813 120.829621,13.8635941 117.861171,16.8926527 C115.051652,19.7551474 113.371752,24.3004524 113.122245,28.9161607 C112.980402,31.3991644 112.939387,34.6480186 113.122245,36.5815333 C113.592207,41.5338037 115.191786,45.4231561 117.861171,48.1448442 C120.723666,51.0674393 125.076369,52.9236821 129.212034,52.978631 C132.604305,53.0267113 162,52.978631 162,52.978631 L162,44.5559936 C162,44.5559936 153.069013,44.593771 148.518072,44.6298312" id="Fill-1" fill="#FFFFFF"></path>
            <polygon id="Fill-3" fill="#FFFFFF" points="57 13 57 21.3600903 76.817931 21.3600903 76.817931 53 85.1854642 53 85.1854642 21.3600903 105 21.3600903 105 13"></polygon>
            <path d="M48.9938699,28.9219525 C48.9249057,24.4738464 47.324937,20.6590187 44.2129288,17.5734715 C40.9629924,14.3464472 36.0044686,13.0040994 32.7666009,12.8373586 C29.9442422,12.6840918 18.8358387,12.7346193 16.2220967,12.8373586 C12.5428583,12.9939939 9.8687726,14.0533876 8.52741951,15.03699 C8.51017847,15.0487797 8.49638564,15.043727 8.49638564,15.023516 L8.49638564,0 L0,0 L0,53 L8.48604101,53 C8.48604101,53 8.31535469,31.3051672 8.50673026,28.9472162 C8.8481029,24.7382738 12.1066599,21.4489322 16.260027,21.0935554 C19.601341,20.808917 29.6063178,20.8847083 32.7424634,21.1002924 C37.0613445,21.3849307 40.2405927,24.6826935 40.4923119,29.1122728 C40.5716207,30.7426274 40.4854155,53 40.4854155,53 L48.9938699,53 C48.9938699,53 49.0076627,30.8318927 48.9938699,28.9219525" id="Fill-5" fill="#FFFFFF"></path>
            <polygon id="Fill-7" fill="#FFFFFF" points="211.702942 14 215.470637 14 226.598442 47.9248692 238.187424 14.1157903 243 14.1157903 228.509518 55 224.627805 55 213.5 22.0610516 202.312633 55 198.487078 55 184 14.1157903 188.982752 14.1157903 200.575137 47.9248692"></polygon>
            <mask id="mask-2" fill="white">
                <use xlink:href="#path-1"></use>
            </mask>
            <g id="Clip-10"></g>
            <path d="M250.283617,53 L254.65966,53 L254.65966,23.3532504 L250.283617,23.3532504 L250.283617,53 Z M250,16.8743378 L255,16.8743378 L255,12 L250,12 L250,16.8743378 Z" id="Fill-9" fill="#FFFFFF" mask="url(#mask-2)"></path>
            <polygon id="Fill-11" fill="#FFFFFF" mask="url(#mask-2)" points="266 53 270 53 270 11 266 11"></polygon>
            <path d="M294.999156,27.0928832 C289.253614,27.0928832 284.54075,31.4866064 284.54075,38.9698843 C284.54075,46.2718339 289.368356,50.9044223 294.999156,50.9044223 C300.516902,50.9044223 305.746105,46.1532731 305.746105,38.9698843 C305.746105,31.8440323 300.516902,27.0928832 294.999156,27.0928832 L294.999156,27.0928832 Z M305.573992,54.3479157 L305.573992,48.1722935 C303.161033,51.8546521 299.654649,55 294.194274,55 C287.070139,55 280,49.1818038 280,39.0274211 C280,28.9340625 287.070139,22.9955619 294.194274,22.9955619 C299.71202,22.9955619 303.274087,26.083373 305.573992,29.5268664 L305.573992,11 L310,11 L310,54.3479157 L305.573992,54.3479157 Z" id="Fill-12" fill="#FFFFFF" mask="url(#mask-2)"></path>
            <path d="M333.942411,23.5304424 L333.942411,27.3073846 L324.53844,27.3073846 L324.53844,53 L320.097299,53 L320.097299,27.3073846 L316,27.3073846 L316,23.4733179 L320.097299,23.4733179 L320.097299,20.8976718 C320.097299,14.4308345 323.384963,11 329.096452,11 C331.17305,11 332.558577,11.2268181 334,11.7426194 L334,15.5766861 C332.384116,15.1196896 331.17305,14.8323866 329.672344,14.8323866 C326.211913,14.8323866 324.480851,16.8922314 324.480851,21.1261701 L324.480851,23.5304424 L333.942411,23.5304424 Z" id="Fill-13" fill="#FFFFFF" mask="url(#mask-2)"></path>
            <path d="M341.281949,53 L345.657991,53 L345.657991,23.3532504 L341.281949,23.3532504 L341.281949,53 Z M341,16.8743378 L346,16.8743378 L346,12 L341,12 L341,16.8743378 Z" id="Fill-14" fill="#FFFFFF" mask="url(#mask-2)"></path>
            <path d="M360.27852,53 L356,53 L356,23.5228152 L360.27852,23.5228152 L360.27852,31.2202309 C362.389234,26.3168532 366.555204,22.7811982 372,23.010547 L372,27.7431686 L371.665613,27.7431686 C365.388929,27.7431686 360.27852,32.3602788 360.27852,41.254661 L360.27852,53 Z" id="Fill-15" fill="#FFFFFF" mask="url(#mask-2)"></path>
            <path d="M400.375045,36.835463 C399.901405,31.4381491 396.699111,26.7319341 390.590549,26.7319341 C385.251651,26.7319341 381.218746,31.0369746 380.624955,36.835463 L400.375045,36.835463 Z M391.419419,50.1534446 C395.629939,50.1534446 398.597154,48.4880648 401.085505,45.9630254 L403.932569,48.4307542 C400.848685,51.7598282 397.113546,54 391.301009,54 C382.879969,54 376,47.7430265 376,38.4991572 C376,29.8890762 382.226972,23 390.707217,23 C399.781254,23 405,30.0036975 405,38.7300854 C405,39.1312599 405,39.5914306 404.940795,40.1072264 L380.624955,40.1072264 C381.277951,46.5378174 386.023058,50.1534446 391.419419,50.1534446 L391.419419,50.1534446 Z" id="Fill-16" fill="#FFFFFF" mask="url(#mask-2)"></path>
            <polygon id="Fill-17" fill="#FFFFFF" mask="url(#mask-2)" points="450.705223 18.2169463 425.637132 18.2169463 425.637132 32.2161074 448.064299 32.2161074 448.064299 36.4330537 425.637132 36.4330537 425.637132 50.7830537 451 50.7830537 451 55 421 55 421 14 450.705223 14"></polygon>
            <polygon id="Fill-18" fill="#FFFFFF" mask="url(#mask-2)" points="465.453333 12 469 12 469 53 464.231026 53 464.231026 16.7691891 456.161282 19.1529299 455 15.4321769"></polygon>
            <polygon id="Fill-19" fill="#FFFFFF" mask="url(#mask-2)" points="497.1275 57 497.8725 57 497.8725 9 497.1275 9"></polygon>
            <polygon id="Fill-20" fill="#FFFFFF" mask="url(#mask-2)" points="553.705223 16.2169463 528.637132 16.2169463 528.637132 30.2161074 551.064299 30.2161074 551.064299 34.4330537 528.637132 34.4330537 528.637132 48.7830537 554 48.7830537 554 53 524 53 524 12 553.705223 12"></polygon>
            <polygon id="Fill-21" fill="#FFFFFF" mask="url(#mask-2)" points="568.453333 12 572 12 572 53 567.231026 53 567.231026 16.7691891 559.161282 19.1529299 558 15.4321769"></polygon>
            <path d="M599.232296,36.6927385 C599.174812,36.6927385 599.117327,36.6927385 599.0582,36.6944185 C595.408735,36.9077842 592.601834,39.7789808 592.393246,43.5204405 C592.184659,47.4786261 595.177154,50.8739966 599.064769,51.0890424 C602.835773,51.0890424 605.379886,48.1741646 605.379886,43.836289 C605.379886,41.6673511 604.632584,39.7336196 603.275942,38.3845436 C602.172234,37.2891544 600.743326,36.6927385 599.232296,36.6927385 L599.232296,36.6927385 Z M592.501646,60 L589,60 L589,33.4435318 L592.501646,33.4435318 L592.501646,35.9199179 C594.152282,34.0785888 596.58471,33 599.158387,33 L599.375187,33 C604.906868,33.2301661 609.216587,38.0468546 608.991575,43.7371663 C608.991575,50.5094269 603.992039,54.561695 599.158387,54.561695 C596.691468,54.561695 594.255754,53.5015867 592.501646,51.6955385 L592.501646,60 Z" id="Fill-22" fill="#FFFFFF" mask="url(#mask-2)"></path>
            <polygon id="Fill-23" fill="#FFFFFF" mask="url(#mask-2)" points="614 53 618 53 618 24 614 24"></polygon>
            <path d="M630.800638,55 C630.677304,55 630.55397,54.9982411 630.427257,54.9912056 C625.313122,54.9912056 622,51.4505916 622,45.9699392 L622,33 L625.603717,33 L625.603717,45.7377678 C625.603717,49.3276303 627.495964,51.4716981 630.665478,51.4716981 L631,51.4716981 C632.464802,51.4189319 633.828234,50.7540774 634.826732,49.6002558 C635.818472,48.449952 636.335461,46.9601855 636.284776,45.400064 L636.284776,45.385993 L636.399662,33 L640,33 L640,54.5268628 L636.397973,54.5268628 L636.397973,52.6606972 C634.889243,54.1504637 632.863525,55 630.800638,55" id="Fill-25" fill="#FFFFFF" mask="url(#mask-2)"></path>
            <path d="M652.759371,55 C649.781481,54.8845551 646.982823,53.8386591 644.654445,51.9777569 L644,51.4660088 L646.066929,48.3524436 L646.739462,48.8814223 C648.643601,50.4063283 650.761504,51.2109962 652.866253,51.2109962 C654.959491,51.2109962 656.598892,49.9927945 656.598892,48.4385965 C656.598892,47.0308584 655.35742,46.3984962 652.389395,45.4387531 L652.24305,45.4266917 L651.9816,45.345708 C649.054685,44.4411028 645.410839,43.3142231 645.410839,39.3339599 C645.410839,35.6638471 648.318023,33 652.323622,33 C654.785191,33.1154449 657.200719,33.9201128 659.320266,35.3226817 L659.984577,35.8413221 L658.177454,38.949718 L657.389817,38.4534774 C655.720818,37.2886905 653.93507,36.675282 652.215096,36.675282 C650.212296,36.675282 648.918205,37.6298559 648.918205,39.1047932 C648.918205,40.5797306 650.766437,41.2362155 653.377641,42.0012531 L653.448347,42.0219298 C655.941158,42.7335526 660.111191,43.9259085 659.997732,48.33349 C659.997732,52.1931391 656.954069,55 652.759371,55" id="Fill-27" fill="#FFFFFF" mask="url(#mask-2)"></path>
        </g>
    </g>
</svg>