<?xml version="1.0" encoding="UTF-8"?>
<svg width="324px" height="226px" viewBox="0 0 324 226" version="1.1" xmlns="http://www.w3.org/2000/svg" xmlns:xlink="http://www.w3.org/1999/xlink">
    <title>W360/1_Top Banner/Logo/Alice Copy</title>
    <g id="Symbols" stroke="none" stroke-width="1" fill="none" fill-rule="evenodd">
        <g id="20200904_logo-copy-4" fill-rule="nonzero">
            <g id="Group" transform="translate(0.000000, 84.870948)">
                <path d="M173.096516,7.78214067 C173.096516,3.5524159 169.675418,0.12440367 165.454224,0.12440367 C161.233031,0.12440367 157.811933,3.5524159 157.811933,7.78214067 C157.811933,3.5524159 154.390835,0.12440367 150.169642,0.12440367 C145.934654,0.12440367 142.527351,3.5524159 142.527351,7.78214067 C142.527351,9.41321101 143.037757,10.9337003 143.920621,12.1915596 L143.920621,12.1915596 L143.934415,12.2053823 C144.196516,12.5785933 144.5,12.924159 144.803484,13.2420795 L157.825728,28.6957798 L170.847971,13.2420795 C172.227446,11.8598165 173.096516,9.91082569 173.096516,7.78214067" id="Path" fill="#FF0000"></path>
                <path d="M36.1560382,133.471315 C36.1560382,137.70104 39.577136,141.129052 43.7983294,141.129052 C48.0333174,141.129052 51.4406205,137.70104 51.4406205,133.471315 C51.4406205,137.70104 54.8617184,141.129052 59.0829117,141.129052 C63.304105,141.129052 66.7252029,137.70104 66.7252029,133.471315 C66.7252029,131.826422 66.2147971,130.319755 65.3319332,129.061896 L65.3319332,129.061896 L65.3181384,129.048073 C65.0560382,128.674862 64.7525537,128.329297 64.4490692,128.011376 L51.4268258,112.557676 L38.4045823,128.011376 C37.0251074,129.393639 36.1560382,131.328807 36.1560382,133.471315" id="Path" fill="#FF0000"></path>
                <path d="M59.8416229,98.5829969 L41.9360382,98.5829969 L39.3150358,113.096758 L24.1408115,113.096758 L40.680716,33.0913761 L62.2281146,33.0913761 L78.7680191,113.096758 L62.47642,113.096758 L59.8416229,98.5829969 Z M57.3309785,84.870948 L50.8198568,49.1118043 L44.4328878,84.870948 L57.3309785,84.870948 L57.3309785,84.870948 Z" id="Shape" fill="#FFFFFF"></path>
                <path d="M229.641193,60.8748624 L229.641193,55.0417125 C229.641193,40.1823853 221.322959,31.9579205 206.259093,31.9579205 C191.209021,31.9579205 182.766635,40.1823853 182.766635,55.0417125 L182.766635,66.7633028 L176.44864,73.0940673 L182.766635,79.4248318 L182.766635,91.146422 C182.766635,106.005749 191.209021,114.230214 206.259093,114.230214 C221.322959,114.230214 229.641193,106.005749 229.641193,91.146422 L229.641193,83.0325382 L214.577327,83.0325382 L214.577327,91.7269725 C214.577327,97.5601223 211.721814,100.75315 206.590167,100.75315 C201.582673,100.75315 198.72716,97.5462997 198.72716,91.7269725 L198.72716,79.4110092 L205.03136,73.0940673 L198.72716,66.7771254 L198.72716,54.4749847 C198.72716,48.6418349 201.582673,45.4488073 206.590167,45.4488073 C211.721814,45.4488073 214.577327,48.6556575 214.577327,54.4749847 L214.577327,60.8748624 L229.641193,60.8748624 L229.641193,60.8748624 Z" id="Path" fill="#FFFFFF"></path>
                <polygon id="Path" fill="#FFFFFF" points="172.089499 73.0940673 165.771504 66.7771254 165.771504 33.1051988 149.810979 33.1051988 149.810979 66.7771254 143.492983 73.0940673 149.810979 79.4248318 149.810979 113.096758 165.771504 113.096758 165.771504 79.4248318"></polygon>
                <polygon id="Path" fill="#FFFFFF" points="108.97852 99.1497248 108.97852 79.4386544 115.31031 73.0940673 108.97852 66.7633028 108.97852 33.1051988 93.0179952 33.1051988 93.0179952 66.790948 86.7137947 73.0940673 93.0179952 79.4110092 93.0179952 113.096758 135.216134 113.096758 135.216134 99.1497248"></polygon>
                <polygon id="Path" fill="#FFFFFF" points="288.944821 47.0522324 288.944821 33.1051988 245.49136 33.1051988 245.49136 66.2242202 238.63537 73.0940673 245.49136 79.977737 245.49136 113.096758 288.944821 113.096758 288.944821 99.1497248 261.451885 99.1497248 261.451885 79.493945 283.357947 79.493945 283.357947 65.5607339 261.451885 65.5607339 261.451885 47.0522324"></polygon>
                <path d="M0,20.7477676 L0,8.41798165 C0,3.34507645 2.88310263,0.539082569 8.0147494,0.539082569 C13.1601909,0.539082569 15.9881146,3.34507645 15.9881146,8.41798165 L15.9881146,10.4084404 L10.8564678,10.4084404 L10.8564678,8.22446483 C10.8564678,6.23400612 9.89083532,5.14201835 8.1251074,5.14201835 C6.41455847,5.14201835 5.44892601,6.23400612 5.44892601,8.22446483 L5.44892601,20.9274618 C5.44892601,22.9179205 6.41455847,24.0099083 8.1251074,24.0099083 C9.87704057,24.0099083 10.8564678,22.9179205 10.8564678,20.9274618 L10.8564678,17.9555963 L16.0019093,17.9555963 L16.0019093,20.7201223 C16.0019093,25.7930275 13.1601909,28.5992238 8.02854415,28.5992238 C2.88310263,28.6266667 0,25.8206728 0,20.7477676" id="Path" fill="#FFFFFF"></path>
                <path d="M21.2025298,20.7477676 L21.2025298,0.953761468 L26.6514558,0.953761468 L26.6514558,21.0656881 C26.6514558,22.9317431 27.5894988,23.871682 29.4104057,23.871682 C31.2451074,23.871682 32.1693556,22.9317431 32.1693556,21.0656881 L32.1693556,0.953761468 L37.4113604,0.953761468 L37.4113604,20.7477676 C37.4113604,25.6962691 34.6110263,28.6266667 29.2724582,28.6266667 C23.9752745,28.6266667 21.2025298,25.7100917 21.2025298,20.7477676" id="Path" fill="#FFFFFF"></path>
                <path d="M43.4534606,0.953761468 L51.5095943,0.953761468 C56.9585203,0.953761468 59.5657279,3.17920489 59.5657279,7.89272171 L59.5657279,8.94324159 C59.5657279,11.8321713 58.4345585,13.6152905 56.0204773,14.5552294 L56.0204773,14.6658104 C58.517327,15.3292966 59.5933174,17.3474006 59.5933174,21.2592049 L59.5933174,24.466055 C59.5933174,25.9865443 59.6760859,27.0785321 60.2140811,28.2534557 L54.6685919,28.2534557 C54.3513126,27.5208563 54.1995704,27.12 54.1995704,24.4384098 L54.1995704,20.8859939 C54.1995704,18.2735168 53.3029117,17.333578 50.7784726,17.333578 L48.9161814,17.333578 L48.9161814,28.239633 L43.4672554,28.239633 L43.4534606,0.953761468 L43.4534606,0.953761468 Z M50.9026253,12.5647706 C53.1649642,12.5647706 54.1305967,11.6248318 54.1305967,9.52379205 L54.1305967,8.47327217 C54.1305967,6.56574924 53.3167064,5.70874618 51.4820048,5.70874618 L48.9161814,5.70874618 L48.9161814,12.5647706 L50.9026253,12.5647706 Z" id="Shape" fill="#FFFFFF"></path>
                <rect id="Rectangle" fill="#FFFFFF" x="65.5664439" y="0.953761468" width="5.44892601" height="27.2858716"></rect>
                <path d="M76.7953699,20.7477676 L76.7953699,8.41798165 C76.7953699,3.46948012 79.7060621,0.539082569 85.0308353,0.539082569 C90.3556086,0.539082569 93.2800955,3.45565749 93.2800955,8.41798165 L93.2800955,20.7477676 C93.2800955,25.6962691 90.3694033,28.6266667 85.0308353,28.6266667 C79.7060621,28.6266667 76.7953699,25.7100917 76.7953699,20.7477676 M87.8449642,20.955107 L87.8449642,8.25211009 C87.8449642,6.41370031 86.8793317,5.33553517 85.0446301,5.33553517 C83.2099284,5.33553517 82.2442959,6.42752294 82.2442959,8.25211009 L82.2442959,20.955107 C82.2442959,22.7935168 83.2099284,23.871682 85.0446301,23.871682 C86.8793317,23.871682 87.8449642,22.7796942 87.8449642,20.955107" id="Shape" fill="#FFFFFF"></path>
                <path d="M98.8945585,20.7477676 L98.8945585,0.953761468 L104.343484,0.953761468 L104.343484,21.0656881 C104.343484,22.9317431 105.281527,23.871682 107.102434,23.871682 C108.937136,23.871682 109.861384,22.9317431 109.861384,21.0656881 L109.861384,0.953761468 L115.117184,0.953761468 L115.117184,20.7477676 C115.117184,25.6962691 112.31685,28.6266667 106.978282,28.6266667 C101.667303,28.6266667 98.8945585,25.7100917 98.8945585,20.7477676" id="Path" fill="#FFFFFF"></path>
                <path d="M120.248831,21.1348012 L120.248831,19.9322324 L125.394272,19.9322324 L125.394272,21.1348012 C125.394272,22.8073394 126.249547,24.0237309 128.194606,24.0237309 C129.905155,24.0237309 131.036325,22.973211 131.036325,21.1348012 C131.036325,18.7987768 130.098282,18.2182263 126.415084,16.4212844 C121.738663,14.1543731 120.386778,11.8183486 120.386778,8.00330275 C120.386778,3.56623853 123.187112,0.566727829 128.442912,0.566727829 C133.684916,0.566727829 136.305919,3.56623853 136.305919,8.08623853 L136.305919,8.87412844 L131.174272,8.87412844 L131.174272,8.14152905 C131.174272,6.42752294 130.387971,5.16966361 128.498091,5.16966361 C126.815131,5.16966361 125.849499,6.26165138 125.849499,7.9341896 C125.849499,10.0352294 126.8979,10.6710703 130.553508,12.4127217 C135.326492,14.7072783 136.51284,17.1262385 136.51284,21.0380428 C136.51284,25.6409786 133.629737,28.6404893 128.304964,28.6404893 C122.938807,28.6266667 120.248831,25.627156 120.248831,21.1348012" id="Path" fill="#FFFFFF"></path>
            </g>
            <g id="Group" transform="translate(33.107399, 0.000000)">
                <path d="M23.2165632,1.21639144 C22.788926,0.469969419 21.9888305,0 21.1197613,0 L16.3329833,0 C15.4639141,0 14.6638186,0.456146789 14.2361814,1.21639144 L0.45522673,25.1157187 C0.0275894988,25.8621407 0.0275894988,26.7882569 0.45522673,27.5485015 L2.84171838,31.7091131 C3.26935561,32.4555352 4.06945107,32.9255046 4.93852029,32.9255046 L32.5004296,32.9255046 C33.3694988,32.9255046 34.1695943,32.4693578 34.5972315,31.7091131 L36.9975179,27.5485015 C37.4251551,26.8020795 37.4251551,25.8759633 36.9975179,25.1157187 L23.2165632,1.21639144 Z M25.2857757,27.4240979 C23.2165632,28.0737615 21.0094033,28.4331498 18.7194749,28.4331498 C16.4295465,28.4331498 14.2223866,28.0737615 12.1531742,27.4240979 C9.72529833,26.6638532 8.22167064,24.1896024 8.74587112,21.7015291 C9.69770883,17.1677064 12.056611,13.1453211 15.3397613,10.1181651 C17.2572315,8.3488685 20.1817184,8.3488685 22.0991885,10.1181651 C25.3823389,13.1453211 27.7412411,17.1677064 28.6930788,21.7015291 C29.2172792,24.1896024 27.7136516,26.6500306 25.2857757,27.4240979 Z" id="Shape" fill="#00B3E3"></path>
                <g transform="translate(45.384726, 6.634862)" fill="#FFFFFF" id="Path">
                    <path d="M62.2419093,2.94422018 L53.9098807,19.351682 C53.7719332,19.6143119 53.5098329,19.7801835 53.2063484,19.7801835 L50.4611933,19.7801835 C50.1715036,19.7801835 49.8956086,19.6143119 49.7576611,19.351682 L41.4394272,2.94422018 C41.3014797,2.66776758 41.3152745,2.34984709 41.4670167,2.0733945 L42.3498807,0.539082569 C42.5292124,0.234984709 42.8464916,0.0552905199 43.1913604,0.0552905199 L43.9914558,0.0552905199 C44.1983771,0.0552905199 44.3915036,0.16587156 44.4880668,0.359388379 L51.4820048,14.306422 C51.633747,14.5966972 52.0475895,14.5966972 52.185537,14.306422 L59.1794749,0.359388379 C59.2760382,0.16587156 59.4691647,0.0552905199 59.6760859,0.0552905199 L60.4761814,0.0552905199 C60.8210501,0.0552905199 61.1383294,0.234984709 61.3176611,0.539082569 L62.2143198,2.08721713 C62.3660621,2.34984709 62.3798568,2.66776758 62.2419093,2.94422018"></path>
                    <path d="M20.9956086,2.94422018 L12.6773747,19.3655046 C12.5394272,19.6281346 12.277327,19.7940061 11.9738425,19.7940061 L9.22868735,19.7940061 C8.93899761,19.7940061 8.66310263,19.6281346 8.52515513,19.3655046 L0.206921241,2.95804281 C0.068973747,2.68159021 0.0827684964,2.36366972 0.23451074,2.08721713 L1.13116945,0.539082569 C1.29670644,0.234984709 1.61398568,0.0552905199 1.95885442,0.0552905199 L2.77274463,0.0552905199 C2.97966587,0.0552905199 3.17279236,0.16587156 3.26935561,0.359388379 L10.2632936,14.306422 C10.4150358,14.5966972 10.8288783,14.5966972 10.9668258,14.306422 L17.9607637,0.359388379 C18.057327,0.16587156 18.2504535,0.0552905199 18.4573747,0.0552905199 L19.2574702,0.0552905199 C19.6023389,0.0552905199 19.9196181,0.234984709 20.0851551,0.539082569 L20.9818138,2.08721713 C21.1335561,2.34984709 21.1335561,2.66776758 20.9956086,2.94422018"></path>
                    <path d="M32.9280668,0.290275229 C32.7901193,0.15204893 32.5831981,0.0552905199 32.3624821,0.0552905199 L31.1209547,0.0552905199 C30.7760859,0.0552905199 30.4588067,0.234984709 30.2932697,0.539082569 L29.4104057,2.08721713 C29.3276372,2.22544343 29.286253,2.37749235 29.286253,2.54336391 L29.286253,18.9922936 C29.286253,19.4346177 29.6449165,19.7940061 30.0863484,19.7940061 L32.3900716,19.7940061 C32.8315036,19.7940061 33.1763723,19.4346177 33.1763723,19.0061162 L33.1763723,0.857003058 C33.1625776,0.635840979 33.0660143,0.428501529 32.9280668,0.290275229"></path>
                    <path d="M71.5257757,0.539082569 C71.6913126,0.234984709 72.0223866,0.0552905199 72.3534606,0.0552905199 L84.2721241,0.0552905199 C84.6031981,0.0552905199 84.9204773,0.234984709 85.0860143,0.525259939 L85.927494,1.97663609 C86.0516468,2.18397554 86.1068258,2.41896024 86.1068258,2.65394495 L86.1068258,3.01333333 C86.1068258,3.30360856 85.8585203,3.5524159 85.5688305,3.5524159 L74.698568,3.5524159 C74.477852,3.5524159 74.2985203,3.73211009 74.2985203,3.95327217 L74.2985203,7.72685015 C74.2985203,7.94801223 74.477852,8.12770642 74.698568,8.12770642 L82.0649642,8.12770642 C82.4236277,8.12770642 82.7133174,8.41798165 82.7133174,8.77737003 L82.7133174,10.9475229 C82.7133174,11.3069113 82.4236277,11.5971865 82.0649642,11.5971865 L74.698568,11.5971865 C74.477852,11.5971865 74.2985203,11.7768807 74.2985203,11.9980428 L74.2985203,15.8822018 C74.2985203,16.1033639 74.477852,16.2830581 74.698568,16.2830581 L85.5688305,16.2830581 C85.872315,16.2830581 86.1068258,16.5180428 86.1068258,16.8221407 L86.1068258,17.1815291 C86.1068258,17.4165138 86.037852,17.6514985 85.927494,17.8588379 L85.0860143,19.3102141 C84.9204773,19.6004893 84.6031981,19.7801835 84.2721241,19.7801835 L72.3534606,19.7801835 C72.0085919,19.7801835 71.6913126,19.6004893 71.5257757,19.2963914 L70.6980907,17.8588379 C70.5739379,17.6514985 70.5187589,17.4165138 70.5187589,17.1677064 L70.5187589,2.62629969 C70.5187589,2.39131498 70.5877327,2.15633028 70.6980907,1.94899083 L71.5257757,0.539082569 Z"></path>
                </g>
                <g transform="translate(165.399045, 6.220183)" fill="#00B3E3">
                    <path d="M0.124152745,0.622018349 C0.124152745,0.483792049 0.23451074,0.387033639 0.358663484,0.387033639 L7.58711217,0.387033639 C11.9600477,0.387033639 14.2637709,2.50189602 14.2637709,6.12342508 C14.2637709,9.05382263 12.7601432,11.2101529 9.90463007,11.9289297 C9.75288783,11.9703976 9.67011933,12.1500917 9.75288783,12.288318 L14.6086396,19.9598777 C14.7052029,20.1119266 14.5948449,20.3192661 14.4017184,20.3192661 L12.7325537,20.3192661 C12.6497852,20.3192661 12.5808115,20.2777982 12.5394272,20.208685 L7.44916468,12.288318 C7.40778043,12.2192049 7.32501193,12.177737 7.25603819,12.177737 L2.41408115,12.177737 C2.27613365,12.177737 2.17957041,12.288318 2.17957041,12.4127217 L2.17957041,20.0842813 C2.17957041,20.2225076 2.06921241,20.3192661 1.94505967,20.3192661 L0.372458234,20.3192661 C0.23451074,20.3192661 0.137947494,20.208685 0.137947494,20.0842813 L0.137947494,0.622018349 L0.124152745,0.622018349 Z M2.16577566,2.41896024 L2.16577566,10.1458104 C2.16577566,10.2840367 2.27613365,10.3807951 2.4002864,10.3807951 L7.65608592,10.3807951 C10.6633413,10.3807951 12.1945585,8.55620795 12.1945585,6.12342508 C12.1945585,3.6906422 10.6081623,2.18397554 7.65608592,2.18397554 L2.4002864,2.18397554 C2.27613365,2.18397554 2.16577566,2.28073394 2.16577566,2.41896024 Z" id="Shape"></path>
                    <path d="M20.5403819,0.387033639 L36.3491647,0.387033639 C36.4871122,0.387033639 36.5836754,0.497614679 36.5836754,0.622018349 L36.5836754,1.87987768 C36.5836754,2.01810398 36.4733174,2.11486239 36.3491647,2.11486239 L29.7138902,2.11486239 C29.5759427,2.11486239 29.4793795,2.22544343 29.4793795,2.34984709 L29.4793795,20.0704587 C29.4793795,20.208685 29.3690215,20.3054434 29.2448687,20.3054434 L27.6722673,20.3054434 C27.5343198,20.3054434 27.4377566,20.1948624 27.4377566,20.0704587 L27.4377566,2.36366972 C27.4377566,2.22544343 27.3273986,2.12868502 27.2032458,2.12868502 L20.5403819,2.12868502 C20.4024344,2.12868502 20.3058711,2.01810398 20.3058711,1.89370031 L20.3058711,0.635840979 C20.3058711,0.483792049 20.4162291,0.387033639 20.5403819,0.387033639 Z" id="Path"></path>
                    <path d="M43.9914558,14.7625688 C44.1156086,14.7625688 44.2259666,14.8593272 44.2259666,14.9975535 C44.3501193,17.4165138 46.405537,18.9370031 49.6335084,18.9370031 C53.068401,18.9370031 55.0410501,17.4026911 55.0410501,14.8455046 C55.0410501,8.9017737 42.4602387,13.3388379 42.4602387,5.65345566 C42.4602387,2.40513761 45.2881623,0.0552905199 49.5783294,0.0552905199 C53.6201909,0.0552905199 56.5308831,1.96281346 56.6550358,5.32171254 C56.6550358,5.45993884 56.5446778,5.57051988 56.4205251,5.57051988 L54.8479236,5.57051988 C54.7237709,5.57051988 54.6134129,5.47376147 54.6134129,5.33553517 C54.4892601,3.01333333 52.3924582,1.76929664 49.5921241,1.76929664 C46.7228162,1.76929664 44.5570406,3.137737 44.5570406,5.47376147 C44.5570406,11.2654434 57.193031,6.77308869 57.193031,14.7487462 C57.193031,18.2596942 54.4202864,20.6371865 49.6473031,20.6371865 C45.0950358,20.6371865 42.3084964,18.5085015 42.1843437,14.9975535 C42.1843437,14.8593272 42.2947017,14.7487462 42.4188544,14.7487462 L43.9914558,14.7487462 L43.9914558,14.7625688 L43.9914558,14.7625688 Z" id="Path"></path>
                </g>
                <g transform="translate(140.844391, 6.496636)" fill="#00B3E3" id="Path">
                    <path d="M3.42109785,13.7673394 C3.36591885,13.6567584 3.24176611,13.6152905 3.13140811,13.6567584 L2.19336516,14.0852599 C2.13818616,14.1129052 2.09680191,14.1543731 2.08300716,14.2096636 L0.0137947494,19.724893 C-0.0413842482,19.8769419 0.068973747,20.0428135 0.23451074,20.0428135 L1.77952267,20.0428135 C1.87608592,20.0428135 1.97264916,19.9737003 2.00023866,19.8907645 L3.84873508,14.8593272 C3.86252983,14.8040367 3.86252983,14.7487462 3.84873508,14.6934557 L3.42109785,13.7673394 Z"></path>
                    <path d="M17.1468735,19.724893 L9.83565632,0.262629969 C9.79427208,0.16587156 9.71150358,0.11058104 9.61494033,0.11058104 L7.54572792,0.11058104 C7.44916468,0.11058104 7.35260143,0.16587156 7.32501193,0.262629969 L3.5176611,10.3669725 C3.50386635,10.422263 3.50386635,10.4775535 3.5176611,10.532844 L3.94529833,11.4589602 C4.00047733,11.5695413 4.12463007,11.6110092 4.22119332,11.5695413 L5.13164678,11.1548624 C5.18682578,11.1272171 5.22821002,11.0857492 5.24200477,11.0304587 L5.33856802,10.7678287 L5.33856802,10.7678287 L8.46997613,2.25308869 L8.58033413,2.25308869 L12.222148,12.2192049 C12.277327,12.3712538 12.166969,12.5371254 12.001432,12.5371254 L6.8973747,12.5371254 L6.18004773,12.5371254 C6.12486874,12.5371254 6.05589499,12.5647706 6.01451074,12.6062385 L5.36615752,13.2559021 C5.26959427,13.3526606 5.26959427,13.4908869 5.36615752,13.5876453 L6.01451074,14.2373089 C6.05589499,14.2787768 6.11107399,14.306422 6.18004773,14.306422 L6.77322196,14.306422 L6.77322196,14.306422 L12.8429117,14.306422 C12.9394749,14.306422 13.0360382,14.3755352 13.0636277,14.4584709 L15.0638663,19.8907645 C15.1052506,19.9875229 15.1880191,20.0428135 15.2845823,20.0428135 L16.9123628,20.0428135 C17.0916945,20.0428135 17.2020525,19.8769419 17.1468735,19.724893 Z"></path>
                </g>
            </g>
        </g>
    </g>
</svg>