<?xml version="1.0" encoding="UTF-8"?>
<svg width="741px" height="306px" viewBox="0 0 741 306" version="1.1" xmlns="http://www.w3.org/2000/svg" xmlns:xlink="http://www.w3.org/1999/xlink">
    <title>W1920/1_Top Banner/Logo/VIVE Arts Alice Copy</title>
    <g id="Symbols" stroke="none" stroke-width="1" fill="none" fill-rule="evenodd">
        <g id="20200904_logo-copy" transform="translate(174.000000, 0.000000)" fill-rule="nonzero">
            <g id="Group" transform="translate(0.000000, 114.913761)">
                <path d="M234.788353,10.5368807 C234.788353,4.80990826 230.147971,0.168440367 224.422339,0.168440367 C218.696706,0.168440367 214.056325,4.80990826 214.056325,10.5368807 C214.056325,4.80990826 209.415943,0.168440367 203.69031,0.168440367 C197.945967,0.168440367 193.324296,4.80990826 193.324296,10.5368807 C193.324296,12.7453211 194.016611,14.8040367 195.214129,16.507156 L195.214129,16.507156 L195.23284,16.5258716 C195.588353,17.0311927 196,17.4990826 196.411647,17.9295413 L214.075036,38.853578 L231.738425,17.9295413 C233.609547,16.0579817 234.788353,13.4190826 234.788353,10.5368807" id="Path" fill="#FF0000"></path>
                <path d="M49.0421002,180.717798 C49.0421002,186.444771 53.6824821,191.086239 59.4081146,191.086239 C65.1524582,191.086239 69.7741289,186.444771 69.7741289,180.717798 C69.7741289,186.444771 74.4145107,191.086239 80.1401432,191.086239 C85.8657757,191.086239 90.5061575,186.444771 90.5061575,180.717798 C90.5061575,178.490642 89.8138425,176.450642 88.6163246,174.747523 L88.6163246,174.747523 L88.5976134,174.728807 C88.2421002,174.223486 87.8304535,173.755596 87.4188067,173.325138 L69.7554177,152.401101 L52.0920286,173.325138 C50.2209069,175.196697 49.0421002,177.816881 49.0421002,180.717798" id="Path" fill="#FF0000"></path>
                <path d="M81.1692601,133.479633 L56.8821002,133.479633 L53.326969,153.131009 L32.7446301,153.131009 L55.1793795,44.8051376 L84.4063007,44.8051376 L106.84105,153.131009 L84.7431026,153.131009 L81.1692601,133.479633 Z M77.7638186,114.913761 L68.9321241,66.4965138 L60.2688305,114.913761 L77.7638186,114.913761 L77.7638186,114.913761 Z" id="Shape" fill="#FFFFFF"></path>
                <path d="M311.485632,82.4234862 L311.485632,74.5255046 C311.485632,54.4062385 300.202768,43.2704587 279.770119,43.2704587 C259.356181,43.2704587 247.904916,54.4062385 247.904916,74.5255046 L247.904916,90.3963303 L239.335179,98.9680734 L247.904916,107.539817 L247.904916,123.410642 C247.904916,143.529908 259.356181,154.665688 279.770119,154.665688 C300.202768,154.665688 311.485632,143.529908 311.485632,123.410642 L311.485632,112.424587 L291.052983,112.424587 L291.052983,124.196697 C291.052983,132.094679 287.179761,136.417982 280.219189,136.417982 C273.427017,136.417982 269.553795,132.075963 269.553795,124.196697 L269.553795,107.521101 L278.104821,98.9680734 L269.553795,90.4150459 L269.553795,73.7581651 C269.553795,65.8601835 273.427017,61.5368807 280.219189,61.5368807 C287.179761,61.5368807 291.052983,65.8788991 291.052983,73.7581651 L291.052983,82.4234862 L311.485632,82.4234862 L311.485632,82.4234862 Z" id="Path" fill="#FFFFFF"></path>
                <polygon id="Path" fill="#FFFFFF" points="233.422434 98.9680734 224.852697 90.4150459 224.852697 44.8238532 203.203819 44.8238532 203.203819 90.4150459 194.634081 98.9680734 203.203819 107.539817 203.203819 153.131009 224.852697 153.131009 224.852697 107.539817"></polygon>
                <polygon id="Path" fill="#FFFFFF" points="147.818616 134.246972 147.818616 107.558532 156.407064 98.9680734 147.818616 90.3963303 147.818616 44.8238532 126.169737 44.8238532 126.169737 90.4337615 117.618711 98.9680734 126.169737 107.521101 126.169737 153.131009 183.407351 153.131009 183.407351 134.246972"></polygon>
                <polygon id="Path" fill="#FFFFFF" points="391.925155 63.7078899 391.925155 44.8238532 332.984821 44.8238532 332.984821 89.666422 323.685346 98.9680734 332.984821 108.28844 332.984821 153.131009 391.925155 153.131009 391.925155 134.246972 354.633699 134.246972 354.633699 107.633394 384.347112 107.633394 384.347112 88.7680734 354.633699 88.7680734 354.633699 63.7078899"></polygon>
                <path d="M0,28.0921101 L0,11.3977982 C0,4.52917431 3.91064439,0.729908257 10.8712172,0.729908257 C17.8505012,0.729908257 21.6863007,4.52917431 21.6863007,11.3977982 L21.6863007,14.092844 L14.7257279,14.092844 L14.7257279,11.1357798 C14.7257279,8.44073394 13.4159427,6.96220183 11.0209069,6.96220183 C8.70071599,6.96220183 7.39093079,8.44073394 7.39093079,11.1357798 L7.39093079,28.3354128 C7.39093079,31.0304587 8.70071599,32.5089908 11.0209069,32.5089908 C13.3972315,32.5089908 14.7257279,31.0304587 14.7257279,28.3354128 L14.7257279,24.3115596 L21.7050119,24.3115596 L21.7050119,28.0546789 C21.7050119,34.9233028 17.8505012,38.7228428 10.8899284,38.7228428 C3.91064439,38.76 0,34.9607339 0,28.0921101" id="Path" fill="#FFFFFF"></path>
                <path d="M28.7591408,28.0921101 L28.7591408,1.29137615 L36.1500716,1.29137615 L36.1500716,28.5225688 C36.1500716,31.0491743 37.4224344,32.3218349 39.892315,32.3218349 C42.3809069,32.3218349 43.6345585,31.0491743 43.6345585,28.5225688 L43.6345585,1.29137615 L50.744821,1.29137615 L50.744821,28.0921101 C50.744821,34.7922936 46.9464439,38.76 39.7052029,38.76 C32.5200955,38.76 28.7591408,34.8110092 28.7591408,28.0921101" id="Path" fill="#FFFFFF"></path>
                <path d="M58.9403341,1.29137615 L69.867685,1.29137615 C77.2586158,1.29137615 80.7950358,4.30458716 80.7950358,10.6866055 L80.7950358,12.1089908 C80.7950358,16.0205505 79.260716,18.4348624 75.986253,19.7075229 L75.986253,19.8572477 C79.3729833,20.7555963 80.8324582,23.4880734 80.8324582,28.7845872 L80.8324582,33.1266055 C80.8324582,35.1853211 80.9447255,36.6638532 81.674463,38.2546789 L74.1525537,38.2546789 C73.7221957,37.2627523 73.5163723,36.72 73.5163723,33.0891743 L73.5163723,28.2792661 C73.5163723,24.7420183 72.3001432,23.4693578 68.8759905,23.4693578 L66.3499761,23.4693578 L66.3499761,38.2359633 L58.9590453,38.2359633 L58.9403341,1.29137615 L58.9403341,1.29137615 Z M69.0443914,17.0124771 C72.113031,17.0124771 73.4228162,15.7398165 73.4228162,12.8950459 L73.4228162,11.4726606 C73.4228162,8.88990826 72.3188544,7.72954128 69.8302625,7.72954128 L66.3499761,7.72954128 L66.3499761,17.0124771 L69.0443914,17.0124771 Z" id="Shape" fill="#FFFFFF"></path>
                <rect id="Rectangle" fill="#FFFFFF" x="88.9344153" y="1.29137615" width="7.39093079" height="36.9445872"></rect>
                <path d="M104.165346,28.0921101 L104.165346,11.3977982 C104.165346,4.69761468 108.113413,0.729908257 115.335943,0.729908257 C122.558473,0.729908257 126.525251,4.67889908 126.525251,11.3977982 L126.525251,28.0921101 C126.525251,34.7922936 122.577184,38.76 115.335943,38.76 C108.113413,38.76 104.165346,34.8110092 104.165346,28.0921101 M119.153031,28.372844 L119.153031,11.173211 C119.153031,8.6840367 117.843246,7.22422018 115.354654,7.22422018 C112.866062,7.22422018 111.556277,8.70275229 111.556277,11.173211 L111.556277,28.372844 C111.556277,30.8620183 112.866062,32.3218349 115.354654,32.3218349 C117.843246,32.3218349 119.153031,30.8433028 119.153031,28.372844" id="Shape" fill="#FFFFFF"></path>
                <path d="M134.140716,28.0921101 L134.140716,1.29137615 L141.531647,1.29137615 L141.531647,28.5225688 C141.531647,31.0491743 142.80401,32.3218349 145.27389,32.3218349 C147.762482,32.3218349 149.016134,31.0491743 149.016134,28.5225688 L149.016134,1.29137615 L156.145107,1.29137615 L156.145107,28.0921101 C156.145107,34.7922936 152.34673,38.76 145.105489,38.76 C137.901671,38.76 134.140716,34.8110092 134.140716,28.0921101" id="Path" fill="#FFFFFF"></path>
                <path d="M163.10568,28.6161468 L163.10568,26.9878899 L170.084964,26.9878899 L170.084964,28.6161468 C170.084964,30.8807339 171.24506,32.5277064 173.883341,32.5277064 C176.203532,32.5277064 177.737852,31.1053211 177.737852,28.6161468 C177.737852,25.453211 176.465489,24.667156 171.469594,22.2341284 C165.126492,19.1647706 163.292792,16.0018349 163.292792,10.8363303 C163.292792,4.82862385 167.091169,0.76733945 174.220143,0.76733945 C181.330406,0.76733945 184.885537,4.82862385 184.885537,10.9486239 L184.885537,12.0154128 L177.924964,12.0154128 L177.924964,11.0234862 C177.924964,8.70275229 176.858425,6.99963303 174.294988,6.99963303 C172.01222,6.99963303 170.702434,8.47816514 170.702434,10.7427523 C170.702434,13.5875229 172.124487,14.4484404 177.082959,16.8066055 C183.557041,19.9133945 185.166205,23.1886239 185.166205,28.4851376 C185.166205,34.7174312 181.255561,38.7787156 174.033031,38.7787156 C166.754368,38.76 163.10568,34.6987156 163.10568,28.6161468" id="Path" fill="#FFFFFF"></path>
            </g>
            <g id="Group" transform="translate(44.906921, 0.000000)">
                <path d="M31.4909785,1.64697248 C30.9109308,0.636330275 29.8256802,0 28.6468735,0 L22.1540811,0 C20.9752745,0 19.8900239,0.617614679 19.3099761,1.64697248 L0.617470167,34.0062385 C0.0374224344,35.0168807 0.0374224344,36.2708257 0.617470167,37.3001835 L3.85451074,42.933578 C4.43455847,43.9442202 5.51980907,44.5805505 6.69861575,44.5805505 L44.0836277,44.5805505 C45.2624344,44.5805505 46.347685,43.9629358 46.9277327,42.933578 L50.1834845,37.3001835 C50.7635322,36.2895413 50.7635322,35.0355963 50.1834845,34.0062385 L31.4909785,1.64697248 Z M34.2976611,37.1317431 C31.4909785,38.0113761 28.4971838,38.4979817 25.3911217,38.4979817 C22.2850597,38.4979817 19.2912649,38.0113761 16.4845823,37.1317431 C13.1914081,36.1023853 11.1518854,32.7522936 11.8629117,29.3834862 C13.1539857,23.2447706 16.3536038,17.7985321 20.8068735,13.6998165 C23.4077327,11.3042202 27.3745107,11.3042202 29.9753699,13.6998165 C34.4286396,17.7985321 37.6282578,23.2447706 38.9193317,29.3834862 C39.630358,32.7522936 37.5908353,36.0836697 34.2976611,37.1317431 Z" id="Shape" fill="#00B3E3"></path>
                <g transform="translate(61.559905, 8.983486)" fill="#FFFFFF" id="Path">
                    <path d="M84.4250119,3.98642202 L73.1234368,26.2018349 C72.9363246,26.5574312 72.5808115,26.7820183 72.1691647,26.7820183 L68.4456325,26.7820183 C68.0526969,26.7820183 67.6784726,26.5574312 67.4913604,26.2018349 L56.2084964,3.98642202 C56.0213842,3.61211009 56.0400955,3.18165138 56.2459189,2.80733945 L57.4434368,0.729908257 C57.6866826,0.318165138 58.1170406,0.0748623853 58.584821,0.0748623853 L59.6700716,0.0748623853 C59.9507399,0.0748623853 60.2126969,0.224587156 60.3436754,0.486605505 L69.8302625,19.3706422 C70.0360859,19.7636697 70.5974224,19.7636697 70.7845346,19.3706422 L80.2711217,0.486605505 C80.4021002,0.224587156 80.6640573,0.0748623853 80.9447255,0.0748623853 L82.0299761,0.0748623853 C82.4977566,0.0748623853 82.9281146,0.318165138 83.1713604,0.729908257 L84.3875895,2.82605505 C84.5934129,3.18165138 84.6121241,3.61211009 84.4250119,3.98642202"></path>
                    <path d="M28.4784726,3.98642202 L17.1956086,26.2205505 C17.0084964,26.5761468 16.6529833,26.8007339 16.2413365,26.8007339 L12.5178043,26.8007339 C12.1248687,26.8007339 11.7506444,26.5761468 11.5635322,26.2205505 L0.280668258,4.00513761 C0.0935560859,3.63082569 0.112267303,3.20036697 0.318090692,2.82605505 L1.53431981,0.729908257 C1.75885442,0.318165138 2.18921241,0.0748623853 2.65699284,0.0748623853 L3.76095465,0.0748623853 C4.04162291,0.0748623853 4.30357995,0.224587156 4.43455847,0.486605505 L13.9211456,19.3706422 C14.126969,19.7636697 14.6883055,19.7636697 14.8754177,19.3706422 L24.3620048,0.486605505 C24.4929833,0.224587156 24.7549403,0.0748623853 25.0356086,0.0748623853 L26.1208592,0.0748623853 C26.5886396,0.0748623853 27.0189976,0.318165138 27.2435322,0.729908257 L28.4597613,2.82605505 C28.6655847,3.18165138 28.6655847,3.61211009 28.4784726,3.98642202"></path>
                    <path d="M44.6636754,0.393027523 C44.4765632,0.20587156 44.195895,0.0748623853 43.8965155,0.0748623853 L42.212506,0.0748623853 C41.7447255,0.0748623853 41.3143675,0.318165138 41.0898329,0.729908257 L39.892315,2.82605505 C39.7800477,3.01321101 39.7239141,3.21908257 39.7239141,3.44366972 L39.7239141,25.7152294 C39.7239141,26.3141284 40.2104057,26.8007339 40.8091647,26.8007339 L43.9339379,26.8007339 C44.5326969,26.8007339 45.0004773,26.3141284 45.0004773,25.733945 L45.0004773,1.16036697 C44.9817661,0.860917431 44.8507876,0.580183486 44.6636754,0.393027523"></path>
                    <path d="M97.0176611,0.729908257 C97.2421957,0.318165138 97.6912649,0.0748623853 98.1403341,0.0748623853 L114.306826,0.0748623853 C114.755895,0.0748623853 115.186253,0.318165138 115.410788,0.711192661 L116.552172,2.67633028 C116.720573,2.95706422 116.795418,3.27522936 116.795418,3.5933945 L116.795418,4.08 C116.795418,4.47302752 116.458616,4.80990826 116.06568,4.80990826 L101.321241,4.80990826 C101.021862,4.80990826 100.778616,5.05321101 100.778616,5.35266055 L100.778616,10.4620183 C100.778616,10.7614679 101.021862,11.0047706 101.321241,11.0047706 L111.313031,11.0047706 C111.799523,11.0047706 112.192458,11.3977982 112.192458,11.8844037 L112.192458,14.8227523 C112.192458,15.3093578 111.799523,15.7023853 111.313031,15.7023853 L101.321241,15.7023853 C101.021862,15.7023853 100.778616,15.9456881 100.778616,16.2451376 L100.778616,21.5042202 C100.778616,21.8036697 101.021862,22.0469725 101.321241,22.0469725 L116.06568,22.0469725 C116.477327,22.0469725 116.795418,22.3651376 116.795418,22.7768807 L116.795418,23.2634862 C116.795418,23.5816514 116.701862,23.8998165 116.552172,24.1805505 L115.410788,26.1456881 C115.186253,26.5387156 114.755895,26.7820183 114.306826,26.7820183 L98.1403341,26.7820183 C97.6725537,26.7820183 97.2421957,26.5387156 97.0176611,26.1269725 L95.8949881,24.1805505 C95.7265871,23.8998165 95.6517422,23.5816514 95.6517422,23.2447706 L95.6517422,3.5559633 C95.6517422,3.23779817 95.7452983,2.91963303 95.8949881,2.63889908 L97.0176611,0.729908257 Z"></path>
                </g>
                <g transform="translate(224.347494, 8.422018)" fill="#00B3E3">
                    <path d="M0.168400955,0.842201835 C0.168400955,0.655045872 0.318090692,0.524036697 0.486491647,0.524036697 L10.2911695,0.524036697 C16.2226253,0.524036697 19.3473986,3.38752294 19.3473986,8.29100917 C19.3473986,12.2587156 17.3078759,15.1783486 13.4346539,16.1515596 C13.2288305,16.2077064 13.1165632,16.4510092 13.2288305,16.6381651 L19.815179,27.0253211 C19.9461575,27.2311927 19.7964678,27.5119266 19.5345107,27.5119266 L17.2704535,27.5119266 C17.1581862,27.5119266 17.0646301,27.4557798 17.0084964,27.3622018 L10.1040573,16.6381651 C10.0479236,16.5445872 9.93565632,16.4884404 9.84210024,16.4884404 L3.27446301,16.4884404 C3.08735084,16.4884404 2.95637232,16.6381651 2.95637232,16.8066055 L2.95637232,27.1937615 C2.95637232,27.3809174 2.80668258,27.5119266 2.63828162,27.5119266 L0.505202864,27.5119266 C0.318090692,27.5119266 0.187112172,27.3622018 0.187112172,27.1937615 L0.187112172,0.842201835 L0.168400955,0.842201835 Z M2.9376611,3.27522936 L2.9376611,13.7372477 C2.9376611,13.9244037 3.08735084,14.0554128 3.25575179,14.0554128 L10.3847255,14.0554128 C14.4637709,14.0554128 16.540716,11.5849541 16.540716,8.29100917 C16.540716,4.99706422 14.388926,2.95706422 10.3847255,2.95706422 L3.25575179,2.95706422 C3.08735084,2.95706422 2.9376611,3.08807339 2.9376611,3.27522936 Z" id="Shape"></path>
                    <path d="M27.8610024,0.524036697 L49.3040573,0.524036697 C49.4911695,0.524036697 49.622148,0.673761468 49.622148,0.842201835 L49.622148,2.5453211 C49.622148,2.73247706 49.4724582,2.86348624 49.3040573,2.86348624 L40.3039618,2.86348624 C40.1168496,2.86348624 39.9858711,3.01321101 39.9858711,3.18165138 L39.9858711,27.1750459 C39.9858711,27.3622018 39.8361814,27.493211 39.6677804,27.493211 L37.5347017,27.493211 C37.3475895,27.493211 37.216611,27.3434862 37.216611,27.1750459 L37.216611,3.20036697 C37.216611,3.01321101 37.0669212,2.88220183 36.8985203,2.88220183 L27.8610024,2.88220183 C27.6738902,2.88220183 27.5429117,2.73247706 27.5429117,2.5640367 L27.5429117,0.860917431 C27.5429117,0.655045872 27.6926014,0.524036697 27.8610024,0.524036697 Z" id="Path"></path>
                    <path d="M59.6700716,19.9882569 C59.8384726,19.9882569 59.9881623,20.1192661 59.9881623,20.306422 C60.1565632,23.5816514 62.9445346,25.640367 67.3229594,25.640367 C71.9820525,25.640367 74.6577566,23.5629358 74.6577566,20.1005505 C74.6577566,12.052844 57.5931265,18.0605505 57.5931265,7.6546789 C57.5931265,3.25651376 61.428926,0.0748623853 67.2481146,0.0748623853 C72.7305012,0.0748623853 76.678568,2.65761468 76.846969,7.20550459 C76.846969,7.39266055 76.6972792,7.54238532 76.5288783,7.54238532 L74.3957995,7.54238532 C74.2273986,7.54238532 74.0777088,7.41137615 74.0777088,7.22422018 C73.9093079,4.08 71.0652029,2.39559633 67.2668258,2.39559633 C63.3748926,2.39559633 60.4372315,4.24844037 60.4372315,7.41137615 C60.4372315,15.253211 77.5767064,9.1706422 77.5767064,19.9695413 C77.5767064,24.7233028 73.8157518,27.9423853 67.3416706,27.9423853 C61.166969,27.9423853 57.3873031,25.0601835 57.2189021,20.306422 C57.2189021,20.1192661 57.3685919,19.9695413 57.5369928,19.9695413 L59.6700716,19.9695413 L59.6700716,19.9882569 L59.6700716,19.9882569 Z" id="Path"></path>
                </g>
                <g transform="translate(191.041527, 8.796330)" fill="#00B3E3" id="Path">
                    <path d="M4.64038186,18.6407339 C4.56553699,18.4910092 4.39713604,18.4348624 4.2474463,18.4910092 L2.97508353,19.0711927 C2.90023866,19.1086239 2.84410501,19.1647706 2.82539379,19.239633 L0.0187112172,26.707156 C-0.0561336516,26.9130275 0.0935560859,27.1376147 0.318090692,27.1376147 L2.41374702,27.1376147 C2.54472554,27.1376147 2.67570406,27.0440367 2.71312649,26.9317431 L5.22042959,20.1192661 C5.23914081,20.0444037 5.23914081,19.9695413 5.22042959,19.8946789 L4.64038186,18.6407339 Z"></path>
                    <path d="M23.258043,26.707156 L13.3410979,0.35559633 C13.2849642,0.224587156 13.1726969,0.149724771 13.0417184,0.149724771 L10.2350358,0.149724771 C10.1040573,0.149724771 9.97307876,0.224587156 9.93565632,0.35559633 L4.77136038,14.0366972 C4.75264916,14.1115596 4.75264916,14.186422 4.77136038,14.2612844 L5.35140811,15.5152294 C5.42625298,15.6649541 5.59465394,15.7211009 5.72563246,15.6649541 L6.96057279,15.1034862 C7.03541766,15.066055 7.09155131,15.0099083 7.11026253,14.9350459 L7.24124105,14.5794495 L7.24124105,14.5794495 L11.4886874,3.0506422 L11.6383771,3.0506422 L16.5781384,16.5445872 C16.6529833,16.7504587 16.5032936,16.9750459 16.2787589,16.9750459 L9.35560859,16.9750459 L8.3826253,16.9750459 C8.30778043,16.9750459 8.21422434,17.0124771 8.15809069,17.0686239 L7.27866348,17.9482569 C7.14768496,18.0792661 7.14768496,18.266422 7.27866348,18.3974312 L8.15809069,19.2770642 C8.21422434,19.333211 8.28906921,19.3706422 8.3826253,19.3706422 L9.18720764,19.3706422 L9.18720764,19.3706422 L17.4201432,19.3706422 C17.5511217,19.3706422 17.6821002,19.4642202 17.7195227,19.5765138 L20.4326492,26.9317431 C20.4887828,27.0627523 20.6010501,27.1376147 20.7320286,27.1376147 L22.9399523,27.1376147 C23.1831981,27.1376147 23.3328878,26.9130275 23.258043,26.707156 Z"></path>
                </g>
            </g>
        </g>
    </g>
</svg>