<?xml version="1.0" encoding="UTF-8"?>
<svg width="540px" height="219px" viewBox="0 0 540 219" version="1.1" xmlns="http://www.w3.org/2000/svg" xmlns:xlink="http://www.w3.org/1999/xlink">
    <title>W1366/1_Top Banner/Logo/Alice Copy</title>
    <g id="Symbols" stroke="none" stroke-width="1" fill="none" fill-rule="evenodd">
        <g id="20200904_logo-copy-2" transform="translate(131.000000, 0.000000)" fill-rule="nonzero">
            <g id="Group" transform="translate(0.000000, 81.491131)">
                <path d="M166.508067,7.47223242 C166.508067,3.41094801 163.217184,0.119449541 159.156659,0.119449541 C155.096134,0.119449541 151.805251,3.41094801 151.805251,7.47223242 C151.805251,3.41094801 148.514368,0.119449541 144.453842,0.119449541 C140.380048,0.119449541 137.102434,3.41094801 137.102434,7.47223242 C137.102434,9.03834862 137.593413,10.4982875 138.442673,11.706055 L138.442673,11.706055 L138.455943,11.7193272 C138.708067,12.0776758 139,12.4094801 139.291933,12.7147401 L151.81852,27.5530275 L164.345107,12.7147401 C165.672076,11.3875229 166.508067,9.51614679 166.508067,7.47223242" id="Path" fill="#FF0000"></path>
                <path d="M34.7798568,128.156086 C34.7798568,132.21737 38.0707399,135.508869 42.1312649,135.508869 C46.2050597,135.508869 49.482673,132.21737 49.482673,128.156086 C49.482673,132.21737 52.7735561,135.508869 56.8340811,135.508869 C60.8946062,135.508869 64.1854893,132.21737 64.1854893,128.156086 C64.1854893,126.576697 63.6945107,125.130031 62.8452506,123.922263 L62.8452506,123.922263 L62.8319809,123.908991 C62.5798568,123.550642 62.2879236,123.218838 61.9959905,122.913578 L49.4694033,108.075291 L36.9428162,122.913578 C35.6158473,124.240795 34.7798568,126.098899 34.7798568,128.156086" id="Path" fill="#FF0000"></path>
                <path d="M57.5639141,94.6571254 L40.3398568,94.6571254 L37.8186158,108.592905 L23.221957,108.592905 L39.132315,31.773578 L59.8595704,31.773578 L75.7699284,108.592905 L60.0984248,108.592905 L57.5639141,94.6571254 Z M55.1488305,81.4911315 L48.885537,47.1560245 L42.7416706,81.4911315 L55.1488305,81.4911315 L55.1488305,81.4911315 Z" id="Shape" fill="#FFFFFF"></path>
                <path d="M220.900525,58.4506422 L220.900525,52.8497859 C220.900525,38.5822018 212.898902,30.6852599 198.408401,30.6852599 C183.931169,30.6852599 175.810119,38.5822018 175.810119,52.8497859 L175.810119,64.1045872 L169.732601,70.1832416 L175.810119,76.261896 L175.810119,87.5166972 C175.810119,101.784281 183.931169,109.681223 198.408401,109.681223 C212.898902,109.681223 220.900525,101.784281 220.900525,87.5166972 L220.900525,79.7259327 L206.410024,79.7259327 L206.410024,88.0741284 C206.410024,93.6749847 203.663198,96.7408563 198.726874,96.7408563 C193.909976,96.7408563 191.16315,93.6617125 191.16315,88.0741284 L191.16315,76.2486239 L197.227399,70.1832416 L191.16315,64.1178593 L191.16315,52.3056269 C191.16315,46.7047706 193.909976,43.6388991 198.726874,43.6388991 C203.663198,43.6388991 206.410024,46.7180428 206.410024,52.3056269 L206.410024,58.4506422 L220.900525,58.4506422 L220.900525,58.4506422 Z" id="Path" fill="#FFFFFF"></path>
                <polygon id="Path" fill="#FFFFFF" points="165.539379 70.1832416 159.461862 64.1178593 159.461862 31.7868502 144.108831 31.7868502 144.108831 64.1178593 138.031313 70.1832416 144.108831 76.261896 144.108831 108.592905 159.461862 108.592905 159.461862 76.261896"></polygon>
                <polygon id="Path" fill="#FFFFFF" points="104.830549 95.2012844 104.830549 76.2751682 110.921337 70.1832416 104.830549 64.1045872 104.830549 31.7868502 89.4775179 31.7868502 89.4775179 64.1311315 83.4132697 70.1832416 89.4775179 76.2486239 89.4775179 108.592905 130.069499 108.592905 130.069499 95.2012844"></polygon>
                <polygon id="Path" fill="#FFFFFF" points="277.946921 45.1784709 277.946921 31.7868502 236.147399 31.7868502 236.147399 63.5869725 229.552363 70.1832416 236.147399 76.7927829 236.147399 108.592905 277.946921 108.592905 277.946921 95.2012844 251.50043 95.2012844 251.50043 76.3282569 272.572697 76.3282569 272.572697 62.9499083 251.50043 62.9499083 251.50043 45.1784709"></polygon>
                <path d="M0,19.9215291 L0,8.08275229 C0,3.21186544 2.77336516,0.517614679 7.70968974,0.517614679 C12.659284,0.517614679 15.3795704,3.21186544 15.3795704,8.08275229 L15.3795704,9.99394495 L10.4432458,9.99394495 L10.4432458,7.8969419 C10.4432458,5.98574924 9.51436754,4.93724771 7.81584726,4.93724771 C6.17040573,4.93724771 5.24152745,5.98574924 5.24152745,7.8969419 L5.24152745,20.0940673 C5.24152745,22.0052599 6.17040573,23.0537615 7.81584726,23.0537615 C9.50109785,23.0537615 10.4432458,22.0052599 10.4432458,20.0940673 L10.4432458,17.2405505 L15.3928401,17.2405505 L15.3928401,19.8949847 C15.3928401,24.7658716 12.659284,27.4603166 7.72295943,27.4603166 C2.77336516,27.4866667 0,24.7924159 0,19.9215291" id="Path" fill="#FFFFFF"></path>
                <path d="M20.3955131,19.9215291 L20.3955131,0.915779817 L25.6370406,0.915779817 L25.6370406,20.226789 C25.6370406,22.0185321 26.5393795,22.9210398 28.2909785,22.9210398 C30.0558473,22.9210398 30.9449165,22.0185321 30.9449165,20.226789 L30.9449165,0.915779817 L35.9873986,0.915779817 L35.9873986,19.9215291 C35.9873986,24.6729664 33.2936516,27.4866667 28.1582816,27.4866667 C23.0627208,27.4866667 20.3955131,24.6862385 20.3955131,19.9215291" id="Path" fill="#FFFFFF"></path>
                <path d="M41.7995227,0.915779817 L49.5490215,0.915779817 C54.7905489,0.915779817 57.2985203,3.05259939 57.2985203,7.57840979 L57.2985203,8.5870948 C57.2985203,11.3609786 56.2104057,13.0730887 53.88821,13.9755963 L53.88821,14.0817737 C56.2900239,14.7188379 57.3250597,16.6565749 57.3250597,20.4125994 L57.3250597,23.4917431 C57.3250597,24.951682 57.4046778,26.0001835 57.9221957,27.128318 L52.5877804,27.128318 C52.2825776,26.424893 52.136611,26.04 52.136611,23.4651988 L52.136611,20.0542508 C52.136611,17.5458104 51.2740811,16.6433028 48.8457279,16.6433028 L47.0543198,16.6433028 L47.0543198,27.1150459 L41.8127924,27.1150459 L41.7995227,0.915779817 L41.7995227,0.915779817 Z M48.9651551,12.0644037 C51.1413842,12.0644037 52.0702625,11.161896 52.0702625,9.14452599 L52.0702625,8.13584098 C52.0702625,6.30428135 51.2873508,5.48140673 49.5224821,5.48140673 L47.0543198,5.48140673 L47.0543198,12.0644037 L48.9651551,12.0644037 Z" id="Shape" fill="#FFFFFF"></path>
                <rect id="Rectangle" fill="#FFFFFF" x="63.0708353" y="0.915779817" width="5.24152745" height="26.1992661"></rect>
                <path d="M73.8723628,19.9215291 L73.8723628,8.08275229 C73.8723628,3.33131498 76.6722673,0.517614679 81.7943675,0.517614679 C86.9164678,0.517614679 89.729642,3.31804281 89.729642,8.08275229 L89.729642,19.9215291 C89.729642,24.6729664 86.9297375,27.4866667 81.7943675,27.4866667 C76.6722673,27.4866667 73.8723628,24.6862385 73.8723628,19.9215291 M84.5013842,20.1206116 L84.5013842,7.92348624 C84.5013842,6.15828746 83.572506,5.1230581 81.8076372,5.1230581 C80.0427685,5.1230581 79.1138902,6.17155963 79.1138902,7.92348624 L79.1138902,20.1206116 C79.1138902,21.8858104 80.0427685,22.9210398 81.8076372,22.9210398 C83.572506,22.9210398 84.5013842,21.8725382 84.5013842,20.1206116" id="Shape" fill="#FFFFFF"></path>
                <path d="M95.1304057,19.9215291 L95.1304057,0.915779817 L100.371933,0.915779817 L100.371933,20.226789 C100.371933,22.0185321 101.274272,22.9210398 103.025871,22.9210398 C104.79074,22.9210398 105.679809,22.0185321 105.679809,20.226789 L105.679809,0.915779817 L110.735561,0.915779817 L110.735561,19.9215291 C110.735561,24.6729664 108.041814,27.4866667 102.906444,27.4866667 C97.7976134,27.4866667 95.1304057,24.6862385 95.1304057,19.9215291" id="Path" fill="#FFFFFF"></path>
                <path d="M115.671885,20.2931498 L115.671885,19.1384709 L120.62148,19.1384709 L120.62148,20.2931498 C120.62148,21.8990826 121.4442,23.0670336 123.315227,23.0670336 C124.960668,23.0670336 126.048783,22.0583486 126.048783,20.2931498 C126.048783,18.0501529 125.146444,17.4927217 121.603437,15.7673394 C117.105012,13.5907034 115.804582,11.3477064 115.804582,7.68458716 C115.804582,3.42422018 118.498329,0.544159021 123.554081,0.544159021 C128.596563,0.544159021 131.117804,3.42422018 131.117804,7.76422018 L131.117804,8.52073394 L126.18148,8.52073394 L126.18148,7.81730887 C126.18148,6.17155963 125.425107,4.96379205 123.60716,4.96379205 C121.988258,4.96379205 121.059379,6.01229358 121.059379,7.6182263 C121.059379,9.63559633 122.067876,10.2461162 125.584344,11.9184098 C130.175656,14.1215902 131.31685,16.4442202 131.31685,20.2002446 C131.31685,24.6198777 128.543484,27.4999388 123.421384,27.4999388 C118.259475,27.4866667 115.671885,24.6066055 115.671885,20.2931498" id="Path" fill="#FFFFFF"></path>
            </g>
            <g id="Group" transform="translate(31.847255, 0.000000)">
                <path d="M22.3328878,1.16795107 C21.9215274,0.451253823 21.1518854,0 20.315895,0 L15.7113126,0 C14.8753222,0 14.1056802,0.437981651 13.6943198,1.16795107 L0.437899761,24.1155352 C0.0265393795,24.8322324 0.0265393795,25.7214679 0.437899761,26.4514373 L2.73355609,30.4463609 C3.14491647,31.1630581 3.91455847,31.6143119 4.75054893,31.6143119 L31.263389,31.6143119 C32.0993795,31.6143119 32.8690215,31.1763303 33.2803819,30.4463609 L35.5893079,26.4514373 C36.0006683,25.7347401 36.0006683,24.8455046 35.5893079,24.1155352 L22.3328878,1.16795107 Z M24.3233413,26.3319878 C22.3328878,26.9557798 20.2097375,27.3008563 18.006969,27.3008563 C15.8042005,27.3008563 13.6810501,26.9557798 11.6905967,26.3319878 C9.35513126,25.6020183 7.90873508,23.2262997 8.41298329,20.8373089 C9.32859189,16.4840367 11.5977088,12.6218349 14.755895,9.71522936 C16.6003819,8.01639144 19.4135561,8.01639144 21.258043,9.71522936 C24.4162291,12.6218349 26.6853461,16.4840367 27.6009547,20.8373089 C28.1052029,23.2262997 26.6588067,25.5887462 24.3233413,26.3319878 Z" id="Shape" fill="#00B3E3"></path>
                <g transform="translate(43.657279, 6.370642)" fill="#FFFFFF" id="Path">
                    <path d="M59.8728401,2.82697248 L51.8579475,18.5810398 C51.7252506,18.833211 51.4731265,18.9924771 51.1811933,18.9924771 L48.5405251,18.9924771 C48.2618616,18.9924771 47.9964678,18.833211 47.8637709,18.5810398 L39.862148,2.82697248 C39.7294511,2.56152905 39.7427208,2.25626911 39.8886874,1.99082569 L40.7379475,0.517614679 C40.9104535,0.225626911 41.2156563,0.053088685 41.5473986,0.053088685 L42.3170406,0.053088685 C42.5160859,0.053088685 42.7018616,0.159266055 42.7947494,0.345076453 L49.5224821,13.7366972 C49.6684487,14.0154128 50.0665394,14.0154128 50.1992363,13.7366972 L56.926969,0.345076453 C57.0198568,0.159266055 57.2056325,0.053088685 57.4046778,0.053088685 L58.1743198,0.053088685 C58.5060621,0.053088685 58.8112649,0.225626911 58.9837709,0.517614679 L59.8463007,2.00409786 C59.9922673,2.25626911 60.005537,2.56152905 59.8728401,2.82697248"></path>
                    <path d="M20.1964678,2.82697248 L12.1948449,18.5943119 C12.062148,18.8464832 11.8100239,19.0057492 11.5180907,19.0057492 L8.87742243,19.0057492 C8.59875895,19.0057492 8.33336516,18.8464832 8.20066826,18.5943119 L0.199045346,2.84024465 C0.0663484487,2.57480122 0.0796181384,2.26954128 0.225584726,2.00409786 L1.08811456,0.517614679 C1.24735084,0.225626911 1.5525537,0.053088685 1.88429594,0.053088685 L2.66720764,0.053088685 C2.86625298,0.053088685 3.05202864,0.159266055 3.14491647,0.345076453 L9.87264916,13.7366972 C10.0186158,14.0154128 10.4167064,14.0154128 10.5494033,13.7366972 L17.277136,0.345076453 C17.3700239,0.159266055 17.5557995,0.053088685 17.7548449,0.053088685 L18.5244869,0.053088685 C18.8562291,0.053088685 19.161432,0.225626911 19.3206683,0.517614679 L20.1831981,2.00409786 C20.3291647,2.25626911 20.3291647,2.56152905 20.1964678,2.82697248"></path>
                    <path d="M31.6747494,0.278715596 C31.5420525,0.145993884 31.3430072,0.053088685 31.1306921,0.053088685 L29.93642,0.053088685 C29.6046778,0.053088685 29.2994749,0.225626911 29.1402387,0.517614679 L28.2909785,2.00409786 C28.2113604,2.13681957 28.1715513,2.28281346 28.1715513,2.44207951 L28.1715513,18.2359633 C28.1715513,18.6606728 28.5165632,19.0057492 28.9411933,19.0057492 L31.1572315,19.0057492 C31.5818616,19.0057492 31.9136038,18.6606728 31.9136038,18.2492355 L31.9136038,0.822874618 C31.9003341,0.610519878 31.8074463,0.411437309 31.6747494,0.278715596"></path>
                    <path d="M68.8033413,0.517614679 C68.9625776,0.225626911 69.2810501,0.053088685 69.5995227,0.053088685 L81.0645346,0.053088685 C81.3830072,0.053088685 81.68821,0.225626911 81.8474463,0.504342508 L82.6568974,1.89792049 C82.7763246,2.09700306 82.8294033,2.32262997 82.8294033,2.54825688 L82.8294033,2.89333333 C82.8294033,3.17204893 82.5905489,3.41094801 82.3118854,3.41094801 L71.8553699,3.41094801 C71.6430549,3.41094801 71.4705489,3.58348624 71.4705489,3.79584098 L71.4705489,7.41914373 C71.4705489,7.63149847 71.6430549,7.8040367 71.8553699,7.8040367 L78.9413842,7.8040367 C79.2863962,7.8040367 79.5650597,8.08275229 79.5650597,8.42782875 L79.5650597,10.5115596 C79.5650597,10.8566361 79.2863962,11.1353517 78.9413842,11.1353517 L71.8553699,11.1353517 C71.6430549,11.1353517 71.4705489,11.3078899 71.4705489,11.5202446 L71.4705489,15.2497248 C71.4705489,15.4620795 71.6430549,15.6346177 71.8553699,15.6346177 L82.3118854,15.6346177 C82.6038186,15.6346177 82.8294033,15.8602446 82.8294033,16.1522324 L82.8294033,16.4973089 C82.8294033,16.7229358 82.7630549,16.9485627 82.6568974,17.1476453 L81.8474463,18.5412232 C81.68821,18.8199388 81.3830072,18.9924771 81.0645346,18.9924771 L69.5995227,18.9924771 C69.2677804,18.9924771 68.9625776,18.8199388 68.8033413,18.5279511 L68.0071599,17.1476453 C67.8877327,16.9485627 67.8346539,16.7229358 67.8346539,16.4840367 L67.8346539,2.52171254 C67.8346539,2.29608563 67.9010024,2.07045872 68.0071599,1.87137615 L68.8033413,0.517614679 Z"></path>
                </g>
                <g transform="translate(159.103580, 5.972477)" fill="#00B3E3">
                    <path d="M0.119427208,0.597247706 C0.119427208,0.464525994 0.225584726,0.371620795 0.345011933,0.371620795 L7.29832936,0.371620795 C11.504821,0.371620795 13.7208592,2.402263 13.7208592,5.87957187 C13.7208592,8.69327217 12.274463,10.7637309 9.52763723,11.4538838 C9.38167064,11.4937003 9.30205251,11.6662385 9.38167064,11.7989602 L14.0526014,19.1650153 C14.1454893,19.3110092 14.0393317,19.5100917 13.8535561,19.5100917 L12.2479236,19.5100917 C12.1683055,19.5100917 12.101957,19.4702752 12.062148,19.4039144 L7.16563246,11.7989602 C7.12582339,11.7325994 7.04620525,11.6927829 6.9798568,11.6927829 L2.3221957,11.6927829 C2.18949881,11.6927829 2.09661098,11.7989602 2.09661098,11.9184098 L2.09661098,19.2844648 C2.09661098,19.4171865 1.99045346,19.5100917 1.87102625,19.5100917 L0.358281623,19.5100917 C0.225584726,19.5100917 0.132696897,19.4039144 0.132696897,19.2844648 L0.132696897,0.597247706 L0.119427208,0.597247706 Z M2.08334129,2.32262997 L2.08334129,9.7417737 C2.08334129,9.87449541 2.18949881,9.96740061 2.30892601,9.96740061 L7.3646778,9.96740061 C10.2574702,9.96740061 11.7304057,8.21547401 11.7304057,5.87957187 C11.7304057,3.54366972 10.2043914,2.09700306 7.3646778,2.09700306 L2.30892601,2.09700306 C2.18949881,2.09700306 2.08334129,2.18990826 2.08334129,2.32262997 Z" id="Shape"></path>
                    <path d="M19.758568,0.371620795 L34.9656325,0.371620795 C35.0983294,0.371620795 35.1912172,0.477798165 35.1912172,0.597247706 L35.1912172,1.80501529 C35.1912172,1.937737 35.0850597,2.0306422 34.9656325,2.0306422 L28.5829117,2.0306422 C28.4502148,2.0306422 28.357327,2.13681957 28.357327,2.25626911 L28.357327,19.2711927 C28.357327,19.4039144 28.2511695,19.4968196 28.1317422,19.4968196 L26.6189976,19.4968196 C26.4863007,19.4968196 26.3934129,19.3906422 26.3934129,19.2711927 L26.3934129,2.26954128 C26.3934129,2.13681957 26.2872554,2.04391437 26.1678282,2.04391437 L19.758568,2.04391437 C19.6258711,2.04391437 19.5329833,1.937737 19.5329833,1.81828746 L19.5329833,0.610519878 C19.5329833,0.464525994 19.6391408,0.371620795 19.758568,0.371620795 Z" id="Path"></path>
                    <path d="M42.3170406,14.1746789 C42.4364678,14.1746789 42.5426253,14.2675841 42.5426253,14.4003058 C42.6620525,16.7229358 44.6392363,18.1828746 47.7443437,18.1828746 C51.0484964,18.1828746 52.9460621,16.7096636 52.9460621,14.2543119 C52.9460621,8.54727829 40.844105,12.8076453 40.844105,5.42831804 C40.844105,2.3093578 43.5643914,0.053088685 47.6912649,0.053088685 C51.579284,0.053088685 54.3791885,1.88464832 54.4986158,5.10978593 C54.4986158,5.24250765 54.3924582,5.34868502 54.273031,5.34868502 L52.7602864,5.34868502 C52.6408592,5.34868502 52.5347017,5.25577982 52.5347017,5.1230581 C52.4152745,2.89333333 50.3982816,1.69883792 47.7045346,1.69883792 C44.9444391,1.69883792 42.8610979,3.01278287 42.8610979,5.25577982 C42.8610979,10.8168196 55.0161337,6.50336391 55.0161337,14.1614067 C55.0161337,17.5325382 52.348926,19.8153517 47.7576134,19.8153517 C43.3786158,19.8153517 40.6981384,17.7714373 40.5787112,14.4003058 C40.5787112,14.2675841 40.6848687,14.1614067 40.8042959,14.1614067 L42.3170406,14.1614067 L42.3170406,14.1746789 L42.3170406,14.1746789 Z" id="Path"></path>
                </g>
                <g transform="translate(135.483532, 6.237920)" fill="#00B3E3" id="Path">
                    <path d="M3.29088305,13.2190826 C3.2378043,13.1129052 3.11837709,13.0730887 3.01221957,13.1129052 L2.10988067,13.5243425 C2.05680191,13.5508869 2.01699284,13.5907034 2.00372315,13.643792 L0.0132696897,18.9393884 C-0.0398090692,19.0853823 0.0663484487,19.2446483 0.225584726,19.2446483 L1.71178998,19.2446483 C1.8046778,19.2446483 1.89756563,19.1782875 1.92410501,19.0986544 L3.70224344,14.2675841 C3.71551313,14.2144954 3.71551313,14.1614067 3.70224344,14.108318 L3.29088305,13.2190826 Z"></path>
                    <path d="M16.4942243,18.9393884 L9.46128878,0.252171254 C9.42147971,0.159266055 9.34186158,0.10617737 9.24897375,0.10617737 L7.25852029,0.10617737 C7.16563246,0.10617737 7.07274463,0.159266055 7.04620525,0.252171254 L3.38377088,9.95412844 C3.37050119,10.0072171 3.37050119,10.0603058 3.38377088,10.1133945 L3.79513126,11.00263 C3.84821002,11.1088073 3.96763723,11.1486239 4.06052506,11.1088073 L4.93632458,10.7106422 C4.98940334,10.6840979 5.02921241,10.6442813 5.0424821,10.5911927 L5.13536993,10.3390214 L5.13536993,10.3390214 L8.1475895,2.16336391 L8.25374702,2.16336391 L11.7569451,11.7325994 C11.8100239,11.8785933 11.7038663,12.0378593 11.5446301,12.0378593 L6.63484487,12.0378593 L5.944821,12.0378593 C5.89174224,12.0378593 5.82539379,12.0644037 5.78558473,12.1042202 L5.16190931,12.7280122 C5.06902148,12.8209174 5.06902148,12.9536391 5.16190931,13.0465443 L5.78558473,13.6703364 C5.82539379,13.7101529 5.87847255,13.7366972 5.944821,13.7366972 L6.51541766,13.7366972 L6.51541766,13.7366972 L12.3540811,13.7366972 C12.446969,13.7366972 12.5398568,13.8030581 12.5663962,13.8826911 L14.4905012,19.0986544 C14.5303103,19.1915596 14.6099284,19.2446483 14.7028162,19.2446483 L16.2686396,19.2446483 C16.4411456,19.2446483 16.5473031,19.0853823 16.4942243,18.9393884 Z"></path>
                </g>
            </g>
        </g>
    </g>
</svg>