<?xml version="1.0" encoding="UTF-8"?>
<svg width="410px" height="164px" viewBox="0 0 410 164" version="1.1" xmlns="http://www.w3.org/2000/svg" xmlns:xlink="http://www.w3.org/1999/xlink">
    <title>W992/1_Top Banner/Logo/Alice Copy</title>
    <g id="Symbols" stroke="none" stroke-width="1" fill="none" fill-rule="evenodd">
        <g id="20200904_logo-copy-3" transform="translate(100.000000, 0.000000)" fill-rule="nonzero">
            <g id="Group" transform="translate(0.000000, 61.587768)">
                <path d="M125.779475,5.64721713 C125.779475,2.57785933 123.293556,0.0902752294 120.226253,0.0902752294 C117.15895,0.0902752294 114.673031,2.57785933 114.673031,5.64721713 C114.673031,2.57785933 112.187112,0.0902752294 109.119809,0.0902752294 C106.042482,0.0902752294 103.566587,2.57785933 103.566587,5.64721713 C103.566587,6.83082569 103.93747,7.9341896 104.578998,8.84697248 L104.578998,8.84697248 L104.589021,8.85700306 C104.779475,9.12782875 105,9.37859327 105.220525,9.60929664 L114.683055,20.8234862 L124.145585,9.60929664 C125.147971,8.60623853 125.779475,7.19192661 125.779475,5.64721713" id="Path" fill="#FF0000"></path>
                <path d="M26.2725537,96.8552905 C26.2725537,99.9246483 28.7584726,102.412232 31.8257757,102.412232 C34.9031026,102.412232 37.3789976,99.9246483 37.3789976,96.8552905 C37.3789976,99.9246483 39.8649165,102.412232 42.9322196,102.412232 C45.9995227,102.412232 48.4854415,99.9246483 48.4854415,96.8552905 C48.4854415,95.6616514 48.1145585,94.568318 47.473031,93.6555352 L47.473031,93.6555352 L47.4630072,93.6455046 C47.2725537,93.3746789 47.0520286,93.1239144 46.8315036,92.893211 L37.3689737,81.6790214 L27.9064439,92.893211 C26.9040573,93.8962691 26.2725537,95.3005505 26.2725537,96.8552905" id="Path" fill="#FF0000"></path>
                <path d="M43.4835322,71.538104 L30.4725537,71.538104 L28.5680191,82.0702141 L17.5417661,82.0702141 L29.5603819,24.013211 L45.2176611,24.013211 L57.2362768,82.0702141 L45.3980907,82.0702141 L43.4835322,71.538104 Z M41.6591885,61.5877676 L36.9279236,35.6386544 L32.2868735,61.5877676 L41.6591885,61.5877676 L41.6591885,61.5877676 Z" id="Shape" fill="#FFFFFF"></path>
                <path d="M166.867303,44.1746789 L166.867303,39.9417737 C166.867303,29.1588991 160.822912,23.1907034 149.87685,23.1907034 C138.940811,23.1907034 132.806205,29.1588991 132.806205,39.9417737 L132.806205,48.4477064 L128.215274,53.0417125 L132.806205,57.6357187 L132.806205,66.1416514 C132.806205,76.924526 138.940811,82.8927217 149.87685,82.8927217 C160.822912,82.8927217 166.867303,76.924526 166.867303,66.1416514 L166.867303,60.2537003 L155.921241,60.2537003 L155.921241,66.5629358 C155.921241,70.795841 153.846301,73.1129052 150.117422,73.1129052 C146.478759,73.1129052 144.403819,70.7858104 144.403819,66.5629358 L144.403819,57.6256881 L148.984726,53.0417125 L144.403819,48.457737 L144.403819,39.5305199 C144.403819,35.2976147 146.478759,32.9805505 150.117422,32.9805505 C153.846301,32.9805505 155.921241,35.3076453 155.921241,39.5305199 L155.921241,44.1746789 L166.867303,44.1746789 L166.867303,44.1746789 Z" id="Path" fill="#FFFFFF"></path>
                <polygon id="Path" fill="#FFFFFF" points="125.047733 53.0417125 120.456802 48.457737 120.456802 24.0232416 108.859189 24.0232416 108.859189 48.457737 104.268258 53.0417125 108.859189 57.6357187 108.859189 82.0702141 120.456802 82.0702141 120.456802 57.6357187"></polygon>
                <polygon id="Path" fill="#FFFFFF" points="79.1885442 71.9493578 79.1885442 57.6457492 83.7894988 53.0417125 79.1885442 48.4477064 79.1885442 24.0232416 67.5909308 24.0232416 67.5909308 48.4677676 63.0100239 53.0417125 67.5909308 57.6256881 67.5909308 82.0702141 98.2539379 82.0702141 98.2539379 71.9493578"></polygon>
                <polygon id="Path" fill="#FFFFFF" points="209.959905 34.1440979 209.959905 24.0232416 178.384726 24.0232416 178.384726 48.0565138 173.402864 53.0417125 178.384726 58.0369419 178.384726 82.0702141 209.959905 82.0702141 209.959905 71.9493578 189.982339 71.9493578 189.982339 57.6858716 205.900239 57.6858716 205.900239 47.5750459 189.982339 47.5750459 189.982339 34.1440979"></polygon>
                <path d="M0,15.0559021 L0,6.10862385 C0,2.42740061 2.09498807,0.391192661 5.82386635,0.391192661 C9.5627685,0.391192661 11.6176611,2.42740061 11.6176611,6.10862385 L11.6176611,7.55302752 L7.88878282,7.55302752 L7.88878282,5.96819572 C7.88878282,4.52379205 7.18711217,3.73137615 5.90405728,3.73137615 C4.66109785,3.73137615 3.95942721,4.52379205 3.95942721,5.96819572 L3.95942721,15.1862997 C3.95942721,16.6307034 4.66109785,17.4231193 5.90405728,17.4231193 C7.17708831,17.4231193 7.88878282,16.6307034 7.88878282,15.1862997 L7.88878282,13.0297248 L11.627685,13.0297248 L11.627685,15.035841 C11.627685,18.7170642 9.5627685,20.753419 5.83389021,20.753419 C2.09498807,20.7733333 0,18.7371254 0,15.0559021" id="Path" fill="#FFFFFF"></path>
                <path d="M15.4066826,15.0559021 L15.4066826,0.692110092 L19.3661098,0.692110092 L19.3661098,15.2866055 C19.3661098,16.6407339 20.0477327,17.3228135 21.3708831,17.3228135 C22.7040573,17.3228135 23.3756563,16.6407339 23.3756563,15.2866055 L23.3756563,0.692110092 L27.1847255,0.692110092 L27.1847255,15.0559021 C27.1847255,18.6468502 25.1498807,20.7733333 21.2706444,20.7733333 C17.4214797,20.7733333 15.4066826,18.6568807 15.4066826,15.0559021" id="Path" fill="#FFFFFF"></path>
                <path d="M31.575179,0.692110092 L37.4291169,0.692110092 C41.3885442,0.692110092 43.2830549,2.30703364 43.2830549,5.72746177 L43.2830549,6.48978593 C43.2830549,8.58617737 42.4610979,9.88012232 40.7069212,10.5622018 L40.7069212,10.6424465 C42.5212411,11.1239144 43.3031026,12.5883792 43.3031026,15.4270336 L43.3031026,17.7541284 C43.3031026,18.8574924 43.3632458,19.6499083 43.7541766,20.5025076 L39.7245823,20.5025076 C39.4940334,19.9708869 39.3837709,19.68 39.3837709,17.7340673 L39.3837709,15.156208 C39.3837709,13.2604281 38.7322196,12.5783486 36.897852,12.5783486 L35.5446301,12.5783486 L35.5446301,20.4924771 L31.5852029,20.4924771 L31.575179,0.692110092 L31.575179,0.692110092 Z M36.9880668,9.11779817 C38.6319809,9.11779817 39.3336516,8.43571865 39.3336516,6.91107034 L39.3336516,6.14874618 C39.3336516,4.76452599 38.7422434,4.14262997 37.4090692,4.14262997 L35.5446301,4.14262997 L35.5446301,9.11779817 L36.9880668,9.11779817 Z" id="Shape" fill="#FFFFFF"></path>
                <rect id="Rectangle" fill="#FFFFFF" x="47.6434368" y="0.692110092" width="3.95942721" height="19.800367"></rect>
                <path d="M55.802864,15.0559021 L55.802864,6.10862385 C55.802864,2.51767584 57.9178998,0.391192661 61.7871122,0.391192661 C65.6563246,0.391192661 67.7813842,2.50764526 67.7813842,6.10862385 L67.7813842,15.0559021 C67.7813842,18.6468502 65.6663484,20.7733333 61.7871122,20.7733333 C57.9178998,20.7733333 55.802864,18.6568807 55.802864,15.0559021 M63.8319809,15.2063609 L63.8319809,5.98825688 C63.8319809,4.6541896 63.1303103,3.87180428 61.797136,3.87180428 C60.4639618,3.87180428 59.7622912,4.66422018 59.7622912,5.98825688 L59.7622912,15.2063609 C59.7622912,16.5404281 60.4639618,17.3228135 61.797136,17.3228135 C63.1303103,17.3228135 63.8319809,16.5303976 63.8319809,15.2063609" id="Shape" fill="#FFFFFF"></path>
                <path d="M71.8610979,15.0559021 L71.8610979,0.692110092 L75.8205251,0.692110092 L75.8205251,15.2866055 C75.8205251,16.6407339 76.502148,17.3228135 77.8252983,17.3228135 C79.1584726,17.3228135 79.8300716,16.6407339 79.8300716,15.2866055 L79.8300716,0.692110092 L83.6491647,0.692110092 L83.6491647,15.0559021 C83.6491647,18.6468502 81.6143198,20.7733333 77.7350835,20.7733333 C73.875895,20.7733333 71.8610979,18.6568807 71.8610979,15.0559021" id="Path" fill="#FFFFFF"></path>
                <path d="M87.378043,15.3367584 L87.378043,14.4640979 L91.1169451,14.4640979 L91.1169451,15.3367584 C91.1169451,16.5504587 91.7384248,17.4331498 93.15179,17.4331498 C94.3947494,17.4331498 95.2167064,16.6708257 95.2167064,15.3367584 C95.2167064,13.6415902 94.5350835,13.2203058 91.8587112,11.9163303 C88.4606205,10.271315 87.4782816,8.57614679 87.4782816,5.80770642 C87.4782816,2.58788991 89.5131265,0.411253823 93.3322196,0.411253823 C97.1412888,0.411253823 99.0458234,2.58788991 99.0458234,5.86788991 L99.0458234,6.43963303 L95.3169451,6.43963303 L95.3169451,5.90801223 C95.3169451,4.66422018 94.7455847,3.75143731 93.372315,3.75143731 C92.1494033,3.75143731 91.4477327,4.54385321 91.4477327,5.75755352 C91.4477327,7.28220183 92.2095465,7.74360856 94.8658711,9.00746177 C98.3341289,10.6725382 99.1961814,12.4278899 99.1961814,15.2665443 C99.1961814,18.6067278 97.1011933,20.7833639 93.2319809,20.7833639 C89.3326969,20.7733333 87.378043,18.5966972 87.378043,15.3367584" id="Path" fill="#FFFFFF"></path>
            </g>
            <g id="Group" transform="translate(24.057279, 0.000000)">
                <path d="M16.8701671,0.882691131 C16.5594272,0.341039755 15.978043,0 15.3465394,0 L11.8682578,0 C11.2367542,0 10.6553699,0.331009174 10.3446301,0.882691131 L0.330787589,18.2255657 C0.0200477327,18.7672171 0.0200477327,19.4392661 0.330787589,19.990948 L2.06491647,23.0101529 C2.37565632,23.5518043 2.95704057,23.892844 3.58854415,23.892844 L23.6162291,23.892844 C24.2477327,23.892844 24.8291169,23.5618349 25.1398568,23.0101529 L26.8840095,19.990948 C27.1947494,19.4492966 27.1947494,18.7772477 26.8840095,18.2255657 L16.8701671,0.882691131 Z M18.373747,19.9006728 C16.8701671,20.3721101 15.2663484,20.6329052 13.6023866,20.6329052 C11.9384248,20.6329052 10.3346062,20.3721101 8.83102625,19.9006728 C7.06682578,19.3489908 5.97422434,17.5535168 6.35513126,15.7480122 C7.04677804,12.4579817 8.76085919,9.53908257 11.1465394,7.34238532 C12.5398568,6.05847095 14.6649165,6.05847095 16.0582339,7.34238532 C18.4439141,9.53908257 20.1579952,12.4579817 20.849642,15.7480122 C21.2305489,17.5535168 20.1379475,19.3389602 18.373747,19.9006728 Z" id="Shape" fill="#00B3E3"></path>
                <g transform="translate(32.978520, 4.814679)" fill="#FFFFFF" id="Path">
                    <path d="M45.227685,2.13651376 L39.1732697,14.0428135 C39.073031,14.2333945 38.8825776,14.3537615 38.6620525,14.3537615 L36.6673031,14.3537615 C36.4568019,14.3537615 36.2563246,14.2333945 36.1560859,14.0428135 L30.1116945,2.13651376 C30.0114558,1.93590214 30.0214797,1.70519878 30.1317422,1.50458716 L30.7732697,0.391192661 C30.90358,0.170519878 31.1341289,0.0401223242 31.3847255,0.0401223242 L31.9661098,0.0401223242 C32.1164678,0.0401223242 32.2568019,0.120366972 32.326969,0.260795107 L37.4090692,10.3816514 C37.5193317,10.5922936 37.8200477,10.5922936 37.9202864,10.3816514 L43.0023866,0.260795107 C43.0725537,0.120366972 43.2128878,0.0401223242 43.3632458,0.0401223242 L43.9446301,0.0401223242 C44.1952267,0.0401223242 44.4257757,0.170519878 44.5560859,0.391192661 L45.2076372,1.51461774 C45.3178998,1.70519878 45.3279236,1.93590214 45.227685,2.13651376"></path>
                    <path d="M15.2563246,2.13651376 L9.21193317,14.052844 C9.11169451,14.2434251 8.92124105,14.363792 8.70071599,14.363792 L6.70596659,14.363792 C6.49546539,14.363792 6.29498807,14.2434251 6.1947494,14.052844 L0.150357995,2.14654434 C0.0501193317,1.94593272 0.0601431981,1.71522936 0.170405728,1.51461774 L0.821957041,0.391192661 C0.942243437,0.170519878 1.17279236,0.0401223242 1.42338902,0.0401223242 L2.01479714,0.0401223242 C2.16515513,0.0401223242 2.30548926,0.120366972 2.37565632,0.260795107 L7.45775656,10.3816514 C7.56801909,10.5922936 7.86873508,10.5922936 7.96897375,10.3816514 L13.051074,0.260795107 C13.1212411,0.120366972 13.2615752,0.0401223242 13.4119332,0.0401223242 L13.9933174,0.0401223242 C14.2439141,0.0401223242 14.474463,0.170519878 14.5947494,0.391192661 L15.2463007,1.51461774 C15.3565632,1.70519878 15.3565632,1.93590214 15.2563246,2.13651376"></path>
                    <path d="M23.926969,0.210642202 C23.8267303,0.110336391 23.6763723,0.0401223242 23.5159905,0.0401223242 L22.6138425,0.0401223242 C22.3632458,0.0401223242 22.1326969,0.170519878 22.0124105,0.391192661 L21.3708831,1.51461774 C21.3107399,1.61492355 21.2806683,1.72525994 21.2806683,1.84562691 L21.2806683,13.7820183 C21.2806683,14.1029969 21.5412888,14.363792 21.8620525,14.363792 L23.5360382,14.363792 C23.8568019,14.363792 24.1073986,14.1029969 24.1073986,13.7920489 L24.1073986,0.621896024 C24.0973747,0.461406728 24.0272076,0.310948012 23.926969,0.210642202"></path>
                    <path d="M51.973747,0.391192661 C52.0940334,0.170519878 52.3346062,0.0401223242 52.575179,0.0401223242 L61.2357995,0.0401223242 C61.4763723,0.0401223242 61.7069212,0.170519878 61.8272076,0.38116208 L62.4386635,1.43437309 C62.5288783,1.5848318 62.5689737,1.75535168 62.5689737,1.92587156 L62.5689737,2.18666667 C62.5689737,2.39730887 62.3885442,2.57785933 62.178043,2.57785933 L54.2792363,2.57785933 C54.1188544,2.57785933 53.9885442,2.70825688 53.9885442,2.86874618 L53.9885442,5.6070948 C53.9885442,5.7675841 54.1188544,5.89798165 54.2792363,5.89798165 L59.6319809,5.89798165 C59.8926014,5.89798165 60.1031026,6.10862385 60.1031026,6.36941896 L60.1031026,7.94422018 C60.1031026,8.20501529 59.8926014,8.41565749 59.6319809,8.41565749 L54.2792363,8.41565749 C54.1188544,8.41565749 53.9885442,8.54605505 53.9885442,8.70654434 L53.9885442,11.5251376 C53.9885442,11.6856269 54.1188544,11.8160245 54.2792363,11.8160245 L62.178043,11.8160245 C62.398568,11.8160245 62.5689737,11.9865443 62.5689737,12.2072171 L62.5689737,12.4680122 C62.5689737,12.6385321 62.5188544,12.809052 62.4386635,12.9595107 L61.8272076,14.0127217 C61.7069212,14.2233639 61.4763723,14.3537615 61.2357995,14.3537615 L52.575179,14.3537615 C52.3245823,14.3537615 52.0940334,14.2233639 51.973747,14.0026911 L51.372315,12.9595107 C51.2821002,12.809052 51.2420048,12.6385321 51.2420048,12.4579817 L51.2420048,1.9058104 C51.2420048,1.73529052 51.2921241,1.56477064 51.372315,1.41431193 L51.973747,0.391192661 Z"></path>
                </g>
                <g transform="translate(120.186158, 4.513761)" fill="#00B3E3">
                    <path d="M0.0902147971,0.451376147 C0.0902147971,0.351070336 0.170405728,0.280856269 0.260620525,0.280856269 L5.51312649,0.280856269 C8.69069212,0.280856269 10.3646778,1.81553517 10.3646778,4.4435474 C10.3646778,6.57003058 9.27207637,8.13480122 7.19713604,8.65639144 C7.08687351,8.68648318 7.02673031,8.81688073 7.08687351,8.91718654 L10.6152745,14.484159 C10.6854415,14.5944954 10.6052506,14.7449541 10.4649165,14.7449541 L9.25202864,14.7449541 C9.19188544,14.7449541 9.14176611,14.7148624 9.11169451,14.6647095 L5.41288783,8.91718654 C5.38281623,8.86703364 5.32267303,8.8369419 5.2725537,8.8369419 L1.75417661,8.8369419 C1.65393795,8.8369419 1.58377088,8.91718654 1.58377088,9.00746177 L1.58377088,14.5744343 C1.58377088,14.6747401 1.50357995,14.7449541 1.41336516,14.7449541 L0.270644391,14.7449541 C0.170405728,14.7449541 0.100238663,14.6647095 0.100238663,14.5744343 L0.100238663,0.451376147 L0.0902147971,0.451376147 Z M1.57374702,1.75535168 L1.57374702,7.36244648 C1.57374702,7.46275229 1.65393795,7.53296636 1.74415274,7.53296636 L5.56324582,7.53296636 C7.74844869,7.53296636 8.86109785,6.20892966 8.86109785,4.4435474 C8.86109785,2.67816514 7.70835322,1.5848318 5.56324582,1.5848318 L1.74415274,1.5848318 C1.65393795,1.5848318 1.57374702,1.65504587 1.57374702,1.75535168 Z" id="Shape"></path>
                    <path d="M14.925537,0.280856269 L26.4128878,0.280856269 C26.5131265,0.280856269 26.5832936,0.361100917 26.5832936,0.451376147 L26.5832936,1.36415902 C26.5832936,1.46446483 26.5031026,1.5346789 26.4128878,1.5346789 L21.5914081,1.5346789 C21.4911695,1.5346789 21.4210024,1.61492355 21.4210024,1.70519878 L21.4210024,14.5644037 C21.4210024,14.6647095 21.3408115,14.7349235 21.2505967,14.7349235 L20.1078759,14.7349235 C20.0076372,14.7349235 19.9374702,14.6546789 19.9374702,14.5644037 L19.9374702,1.71522936 C19.9374702,1.61492355 19.8572792,1.54470948 19.7670644,1.54470948 L14.925537,1.54470948 C14.8252983,1.54470948 14.7551313,1.46446483 14.7551313,1.3741896 L14.7551313,0.461406728 C14.7551313,0.351070336 14.8353222,0.280856269 14.925537,0.280856269 Z" id="Path"></path>
                    <path d="M31.9661098,10.7126606 C32.0563246,10.7126606 32.1365155,10.7828746 32.1365155,10.8831804 C32.2267303,12.6385321 33.7202864,13.741896 36.0658711,13.741896 C38.5618138,13.741896 39.9952267,12.6285015 39.9952267,10.772844 C39.9952267,6.45969419 30.8534606,9.6795107 30.8534606,4.10250765 C30.8534606,1.7453211 32.9083532,0.0401223242 36.0257757,0.0401223242 C38.9627685,0.0401223242 41.0778043,1.42434251 41.1680191,3.8617737 C41.1680191,3.96207951 41.0878282,4.04232416 40.9976134,4.04232416 L39.8548926,4.04232416 C39.7646778,4.04232416 39.6844869,3.97211009 39.6844869,3.87180428 C39.5942721,2.18666667 38.0706444,1.28391437 36.0357995,1.28391437 C33.9508353,1.28391437 32.3770883,2.2769419 32.3770883,3.97211009 C32.3770883,8.17492355 41.5589499,4.91498471 41.5589499,10.70263 C41.5589499,13.2503976 39.5441527,14.9756575 36.075895,14.9756575 C32.7680191,14.9756575 30.7431981,13.430948 30.6529833,10.8831804 C30.6529833,10.7828746 30.7331742,10.70263 30.823389,10.70263 L31.9661098,10.70263 L31.9661098,10.7126606 L31.9661098,10.7126606 Z" id="Path"></path>
                </g>
                <g transform="translate(102.343675, 4.714373)" fill="#00B3E3" id="Path">
                    <path d="M2.48591885,9.99045872 C2.44582339,9.91021407 2.35560859,9.88012232 2.27541766,9.91021407 L1.59379475,10.2211621 C1.55369928,10.2412232 1.52362768,10.271315 1.51360382,10.3114373 L0.0100238663,14.3136391 C-0.030071599,14.4239755 0.0501193317,14.5443425 0.170405728,14.5443425 L1.29307876,14.5443425 C1.36324582,14.5443425 1.43341289,14.4941896 1.45346062,14.4340061 L2.79665871,10.7828746 C2.80668258,10.7427523 2.80668258,10.70263 2.79665871,10.6625076 L2.48591885,9.99045872 Z"></path>
                    <path d="M12.4596659,14.3136391 L7.14701671,0.19058104 C7.11694511,0.120366972 7.05680191,0.0802446483 6.98663484,0.0802446483 L5.48305489,0.0802446483 C5.41288783,0.0802446483 5.34272076,0.120366972 5.32267303,0.19058104 L2.55608592,7.52293578 C2.54606205,7.5630581 2.54606205,7.60318043 2.55608592,7.64330275 L2.86682578,8.31535168 C2.90692124,8.39559633 2.99713604,8.42568807 3.0673031,8.39559633 L3.72887828,8.0946789 C3.76897375,8.07461774 3.79904535,8.04452599 3.80906921,8.00440367 L3.87923628,7.81382263 L3.87923628,7.81382263 L6.15465394,1.63498471 L6.23484487,1.63498471 L8.88114558,8.86703364 C8.92124105,8.97737003 8.84105012,9.097737 8.72076372,9.097737 L5.01193317,9.097737 L4.49069212,9.097737 C4.45059666,9.097737 4.40047733,9.11779817 4.37040573,9.14788991 L3.89928401,9.61932722 C3.82911695,9.68954128 3.82911695,9.78984709 3.89928401,9.86006116 L4.37040573,10.3314985 C4.40047733,10.3615902 4.44057279,10.3816514 4.49069212,10.3816514 L4.92171838,10.3816514 L4.92171838,10.3816514 L9.33221957,10.3816514 C9.40238663,10.3816514 9.4725537,10.4318043 9.49260143,10.4919878 L10.9460621,14.4340061 C10.9761337,14.5042202 11.0362768,14.5443425 11.1064439,14.5443425 L12.2892601,14.5443425 C12.4195704,14.5443425 12.4997613,14.4239755 12.4596659,14.3136391 Z"></path>
                </g>
            </g>
        </g>
    </g>
</svg>