<svg width="13" height="22" viewBox="0 0 13 22" fill="none" xmlns="http://www.w3.org/2000/svg">
<path d="M12.4516 12.3022L3.18121 21.4613C3.00834 21.6321 2.80311 21.7676 2.57725 21.86C2.35138 21.9524 2.1093 22 1.86482 22C1.37108 22 0.89756 21.8062 0.548431 21.4613C0.37556 21.2905 0.238431 21.0877 0.144874 20.8646C0.051317 20.6414 0.00316504 20.4022 0.00316504 20.1607C0.00316504 19.6729 0.199303 19.205 0.548431 18.8601L8.52094 11.0016L0.548431 3.14304C0.374652 2.97275 0.23672 2.77015 0.142591 2.54692C0.0484626 2.3237 0 2.08427 0 1.84245C0 1.60062 0.0484626 1.36119 0.142591 1.13797C0.23672 0.914743 0.374652 0.712143 0.548431 0.541851C0.720791 0.370157 0.925853 0.233877 1.15179 0.140879C1.37772 0.0478783 1.62006 0 1.86482 0C2.10958 0 2.35192 0.0478783 2.57785 0.140879C2.80379 0.233877 3.00885 0.370157 3.18121 0.541851L12.4516 9.70097C12.6253 9.87126 12.7633 10.0739 12.8574 10.2971C12.9515 10.5203 13 10.7597 13 11.0016C13 11.2434 12.9515 11.4828 12.8574 11.706C12.7633 11.9293 12.6253 12.1319 12.4516 12.3022Z" fill="white"/>
</svg>
