<svg width="64" height="64" viewBox="0 0 64 64" fill="none" xmlns="http://www.w3.org/2000/svg">
<g clip-path="url(#clip0_140_156)">
<path d="M62.4999 17.9319V45.1142C62.4999 47.4462 60.6051 49.341 58.2731 49.341H5.72038C3.38838 49.341 1.49364 47.4462 1.49364 45.1142V18.7269C1.49364 16.3916 3.38838 14.4968 5.72369 14.4968L59.0648 14.4968C60.9596 14.4968 62.4999 16.0371 62.4999 17.9319Z" stroke="#040000" stroke-width="0.993749" stroke-linecap="round" stroke-linejoin="round"/>
<path d="M24.3465 35.6902H18.5066L17.43 38.6681H15.585L20.4278 25.3552H22.4451L27.2681 38.6681H25.4231L24.3465 35.6902ZM23.8463 34.2692L21.4249 27.505L19.0035 34.2692H23.8463Z" fill="#231815"/>
<path d="M31.1305 37.2472H35.8177V38.6683H29.3815V25.2759H31.1305V37.2439V37.2472Z" fill="#231815"/>
<path d="M39.3918 25.2791V33.7524C39.3918 34.9449 39.6833 35.826 40.2663 36.4024C40.8493 36.9788 41.6608 37.267 42.6977 37.267C43.7345 37.267 44.5262 36.9788 45.1092 36.4024C45.6922 35.826 45.9837 34.9416 45.9837 33.7524V25.2791H47.7327V33.7325C47.7327 34.8455 47.5074 35.7863 47.0602 36.5482C46.613 37.31 46.0068 37.8765 45.245 38.2475C44.4831 38.6185 43.6285 38.804 42.6811 38.804C41.7337 38.804 40.8791 38.6185 40.1172 38.2475C39.3553 37.8765 38.7525 37.31 38.3119 36.5482C37.8714 35.7863 37.6494 34.8489 37.6494 33.7325V25.2791H39.3984H39.3918Z" fill="#231815"/>
</g>
<defs>
<clipPath id="clip0_140_156">
<rect width="62" height="35.8346" fill="white" transform="translate(1 14)"/>
</clipPath>
</defs>
</svg>
