<svg width="64" height="64" viewBox="0 0 64 64" fill="none" xmlns="http://www.w3.org/2000/svg">
<g clip-path="url(#clip0_144_209)">
<path d="M45.2253 1.40381H19.1945V9.2601H45.2253V1.40381Z" stroke="#040000" stroke-width="1.41216" stroke-linecap="round" stroke-linejoin="round"/>
<path d="M45.2253 55.4329H19.1945V63.2939H45.2253V55.4329Z" stroke="#040000" stroke-width="1.41216" stroke-linecap="round" stroke-linejoin="round"/>
<path d="M55.2939 19.0698V45.623C55.2939 48.2239 54.261 50.7184 52.4223 52.5579C50.5837 54.3975 48.0897 55.4315 45.4888 55.4328H18.9309C17.6417 55.4346 16.3648 55.1822 15.1732 54.69C13.9817 54.1978 12.8989 53.4755 11.9869 52.5643C11.0748 51.6531 10.3514 50.571 9.85805 49.38C9.3647 48.1889 9.11108 46.9122 9.1117 45.623V19.0698C9.11108 17.7818 9.36423 16.5062 9.8567 15.3161C10.3492 14.1259 11.0713 13.0445 11.9819 12.1335C12.8924 11.2225 13.9735 10.4999 15.1634 10.0068C16.3533 9.51379 17.6288 9.26001 18.9168 9.26001H45.4747C46.7637 9.25878 48.0404 9.51158 49.2316 10.004C50.4229 10.4964 51.5054 11.2188 52.4174 12.1299C53.3293 13.0409 54.0527 14.1228 54.5463 15.3136C55.0398 16.5044 55.2939 17.7807 55.2939 19.0698Z" stroke="#040000" stroke-width="1.41216" stroke-linecap="round" stroke-linejoin="round"/>
<path d="M31.7486 22.751L26.8954 32.4619H37.6796L31.9274 42.8883" stroke="#040000" stroke-width="1.41216" stroke-linecap="round" stroke-linejoin="round"/>
<path d="M32.3087 17.0364C35.6561 17.0373 38.9125 18.1261 41.5873 20.1387C44.262 22.1512 46.2103 24.9785 47.1385 28.1946C48.0667 31.4107 47.9246 34.8414 46.7335 37.9697C45.5424 41.098 43.367 43.7544 40.5349 45.5388C37.7028 47.3233 34.3675 48.1389 31.0315 47.863C27.6956 47.587 24.5397 46.2344 22.0393 44.0088C19.5389 41.7833 17.8295 38.8055 17.1687 35.524C16.5079 32.2425 16.9314 28.8351 18.3754 25.8153" stroke="#040000" stroke-width="1.41216" stroke-linecap="round" stroke-linejoin="round"/>
</g>
<defs>
<clipPath id="clip0_144_209">
<rect width="47.5802" height="63.3022" fill="white" transform="translate(8.41974 0.697754)"/>
</clipPath>
</defs>
</svg>
