<svg width="20" height="26" viewBox="0 0 20 26" fill="none" xmlns="http://www.w3.org/2000/svg">
<path d="M11.4816 0.628216C11.0886 0.225949 10.556 0 10.0007 0C9.44537 0 8.91275 0.225949 8.51983 0.628216L0.613973 8.72794C0.220853 9.13091 -5.85795e-09 9.67746 0 10.2474C5.85795e-09 10.8172 0.220853 11.3638 0.613973 11.7668C1.00709 12.1697 1.54028 12.3961 2.09623 12.3961C2.65219 12.3961 3.18538 12.1697 3.5785 11.7668L7.90514 7.33311V23.8519C7.90514 24.4216 8.12592 24.968 8.51891 25.3708C8.91191 25.7737 9.44492 26 10.0007 26C10.5565 26 11.0895 25.7737 11.4825 25.3708C11.8755 24.968 12.0963 24.4216 12.0963 23.8519V7.33311L16.4215 11.7668C16.6162 11.9663 16.8472 12.1246 17.1016 12.2326C17.3559 12.3405 17.6285 12.3961 17.9038 12.3961C18.179 12.3961 18.4516 12.3405 18.706 12.2326C18.9603 12.1246 19.1914 11.9663 19.386 11.7668C19.5807 11.5672 19.7351 11.3304 19.8404 11.0697C19.9458 10.809 20 10.5295 20 10.2474C20 9.96517 19.9458 9.68575 19.8404 9.42505C19.7351 9.16435 19.5807 8.92747 19.386 8.72794L11.4816 0.628216Z" fill="white"/>
</svg>
