<?xml version="1.0" encoding="utf-8"?>
<!-- Generator: Adobe Illustrator 24.3.0, SVG Export Plug-In . SVG Version: 6.00 Build 0)  -->
<svg version="1.1" id="Layer_1" xmlns="http://www.w3.org/2000/svg" xmlns:xlink="http://www.w3.org/1999/xlink" x="0px" y="0px"
	 viewBox="0 0 481.2 53.9" style="enable-background:new 0 0 481.2 53.9;" xml:space="preserve">
<style type="text/css">
	.st0{fill:#FFFFFF;}
</style>
<g>
	<path class="st0" d="M146.7,45c-8.5,0.1-16.5,0.1-18.7-0.1c-4.5-0.4-7.5-3.3-7.9-7.7c-0.2-2.9-0.2-5.2,0-7.5c0.4-4.2,4-8.3,7.9-8.5
		c1.4-0.1,5.2-0.1,12.1,0h20v-8.3h-32.4c-4.5,0.2-8.3,1.8-11.2,4.7c-2.8,2.8-4.4,7.3-4.7,11.8c-0.1,2.4-0.2,5.6,0,7.5
		c0.5,4.9,2,8.7,4.7,11.4c2.8,2.9,7.1,4.7,11.2,4.7h32.4v-8.3C160,44.9,151.2,44.9,146.7,45z M56.6,13.4v8.3h19.7V53h8.3V21.7h19.7
		v-8.3H56.6z M47.9,29c-0.1-4.5-1.6-8.3-4.7-11.4c-3.2-3.2-8-4.6-11.2-4.7c-2.8-0.2-13.6-0.1-16.2,0c-3.5,0.2-6.2,1.2-7.5,2.2V0H0
		v53.1h8.3c0,0-0.2-21.7,0-24.1c0.3-4.2,3.5-7.5,7.6-7.9c3.3-0.3,13.1-0.2,16.1,0c4.2,0.3,7.3,3.6,7.6,8c0.1,1.6,0,23.9,0,23.9h8.3
		V29z"/>
	<g>
		<path class="st0" d="M185.6,13h14c12.6,0,21.4,8.7,21.4,20v0.1c0,11.3-8.7,20.1-21.4,20.1h-14V13L185.6,13z M190.2,17.2V49h9.4
			c10.2,0,16.7-6.9,16.7-15.8v-0.1c0-8.9-6.5-15.9-16.7-15.9H190.2z M228,38.4c0-8.7,6-15.6,14.3-15.6c8.8,0,13.8,7,13.8,15.7
			c0,0.6,0,0.9-0.1,1.4h-23.6c0.6,6.4,5.2,10.1,10.5,10.1c4.1,0,7-1.7,9.4-4.2l2.8,2.5c-3,3.3-6.6,5.6-12.2,5.6
			C234.6,53.9,228,47.6,228,38.4L228,38.4z M251.6,36.7c-0.5-5.4-3.6-10.1-9.5-10.1c-5.2,0-9.1,4.3-9.7,10.1H251.6z M261.4,49.4
			l2.2-3.2c3.2,2.4,6.8,3.8,10.3,3.8c3.6,0,6.1-1.8,6.1-4.7v-0.1c0-3-3.5-4.1-7.4-5.2c-4.7-1.3-9.8-2.9-9.8-8.4v-0.1
			c0-5.1,4.3-8.5,10.1-8.5c3.6,0,7.6,1.3,10.7,3.3l-2,3.3c-2.8-1.8-5.9-2.9-8.8-2.9c-3.5,0-5.7,1.8-5.7,4.3v0.1
			c0,2.8,3.7,3.9,7.6,5.1c4.6,1.4,9.5,3.2,9.5,8.5v0.1c0,5.6-4.7,8.9-10.6,8.9C269.4,53.8,264.7,52.1,261.4,49.4L261.4,49.4z
			 M292.6,12.1h5.1V17h-5.1V12.1z M292.9,23.5h4.4v29.7h-4.4V23.5z M307.6,23.5h4.4v7.8c2.2-4.9,6.5-8.5,12.1-8.3v4.8h-0.3
			c-6.5,0-11.8,4.7-11.8,13.6v11.8h-4.4L307.6,23.5L307.6,23.5z M327.7,38.4c0-8.7,6-15.6,14.2-15.6c8.8,0,13.8,7,13.8,15.7
			c0,0.6,0,0.9-0.1,1.4H332c0.6,6.4,5.2,10.1,10.5,10.1c4.1,0,7-1.7,9.4-4.2l2.8,2.5c-3,3.3-6.6,5.6-12.2,5.6
			C334.4,53.9,327.7,47.6,327.7,38.4L327.7,38.4z M351.4,36.7c-0.5-5.4-3.6-10.1-9.5-10.1c-5.2,0-9.1,4.3-9.7,10.1H351.4z
			 M378.6,49.7l14.6-12.9c6.1-5.5,8.4-8.6,8.4-12.6c0-4.7-3.7-7.7-8.1-7.7c-4.6,0-7.6,2.4-10.8,6.9l-3.3-2.4
			c3.6-5.4,7.4-8.6,14.5-8.6c7.2,0,12.5,4.8,12.5,11.4v0.1c0,5.9-3.1,9.5-10.2,15.6L385.5,49h21.3v4.1h-28.1L378.6,49.7L378.6,49.7z
			 M413.9,33.2c0-11.4,6.7-20.9,17.1-20.9c10.3,0,16.9,9.4,16.9,20.7v0.1c0,11.3-6.7,20.8-17,20.8C420.4,53.9,413.9,44.5,413.9,33.2
			z M443.1,33.2c0-8.9-4.8-16.8-12.3-16.8s-12.2,7.7-12.2,16.5v0.2c0,8.8,4.8,16.7,12.4,16.7C438.5,49.7,443.1,42,443.1,33.2
			L443.1,33.2z"/>
	</g>
	<path class="st0" d="M464.4,12.1h4.4v12.3h12.4v4.3h-12.4V41h-4.4V28.7H452v-4.3h12.4V12.1z"/>
</g>
</svg>
