<?xml version="1.0" encoding="utf-8"?>
<!-- Generator: Adobe Illustrator 24.3.0, SVG Export Plug-In . SVG Version: 6.00 Build 0)  -->
<svg version="1.1" id="Layer_1" xmlns="http://www.w3.org/2000/svg" xmlns:xlink="http://www.w3.org/1999/xlink" x="0px" y="0px"
	 viewBox="0 0 135.6 38" style="enable-background:new 0 0 135.6 38;" xml:space="preserve">
<style type="text/css">
	.st0{fill:#FFFFFF;}
	.st1{enable-background:new    ;}
</style>
<g>
	<g>
		<g>
			<g>
				<path class="st0" d="M41.2,12.6c-2.4,0-4.6,0-5.2,0c-1.3-0.1-2.1-0.9-2.2-2.2c-0.1-0.8-0.1-1.5,0-2.1C33.9,7.1,34.9,6,36,5.9
					c0.4,0,1.5,0,3.4,0H45V3.6c0,0-4.5,0-5.8,0c-1.8,0-2.7,0-3.3,0c-1.3,0-2.3,0.5-3.1,1.3s-1.2,2-1.3,3.3c0,0.7,0,1.6,0,2.1
					c0.1,1.4,0.6,2.4,1.3,3.2c0.8,0.8,2,1.3,3.1,1.3c0.9,0,9.1,0,9.1,0v-2.3C44.9,12.6,42.4,12.6,41.2,12.6z"/>
				<path class="st0" d="M15.9,3.7V6c0,0,5.4,0,5.5,0c0,0.1,0,8.8,0,8.8h2.3c0,0,0-8.7,0-8.8c0.1,0,5.5,0,5.5,0V3.7H15.9z"/>
				<path class="st0" d="M13.4,8.1c0-1.2-0.5-2.3-1.3-3.2C11.2,4,9.9,3.7,9,3.6c-0.8,0-3.8,0-4.5,0c-1,0-1.8,0.3-2.1,0.6l0,0
					c0-0.3,0-4.2,0-4.2H0v14.9h2.3c0,0,0-6.1,0-6.8C2.4,7,3.3,6,4.5,5.9c0.9-0.1,3.7-0.1,4.5,0c1.2,0.1,2.1,1,2.1,2.2
					c0,0.5,0,6.7,0,6.7h2.3C13.4,14.9,13.5,8.7,13.4,8.1z"/>
			</g>
		</g>
	</g>
	<g>
		<g>
			<path class="st0" d="M52.1,3.6H56c3.5,0,6,2.4,6,5.6l0,0c0,3.2-2.5,5.6-6,5.6h-3.9V3.6z M53.4,4.8v8.9H56c2.8,0,4.7-1.9,4.7-4.4
				l0,0c0-2.5-1.8-4.5-4.7-4.5C56,4.8,53.4,4.8,53.4,4.8z"/>
			<path class="st0" d="M64,10.8L64,10.8c0-2.4,1.7-4.4,4-4.4c2.5,0,3.9,2,3.9,4.4c0,0.2,0,0.3,0,0.4h-6.6c0.2,1.8,1.4,2.8,2.9,2.8
				c1.1,0,1.9-0.5,2.6-1.2l0.8,0.7c-0.8,0.9-1.8,1.6-3.4,1.6C65.8,15.1,64,13.4,64,10.8z M70.6,10.3c-0.1-1.5-1-2.8-2.7-2.8
				c-1.4,0-2.6,1.2-2.7,2.8H70.6z"/>
			<path class="st0" d="M73.3,13.9L74,13c0.9,0.7,1.9,1.1,2.9,1.1s1.7-0.5,1.7-1.3l0,0c0-0.8-1-1.2-2.1-1.5
				c-1.3-0.4-2.8-0.8-2.8-2.4l0,0c0-1.4,1.2-2.4,2.8-2.4c1,0,2.1,0.3,3,0.9L79,8.3c-0.8-0.5-1.7-0.8-2.5-0.8c-1,0-1.6,0.5-1.6,1.2
				l0,0c0,0.8,1,1.1,2.1,1.4c1.3,0.4,2.7,0.9,2.7,2.4l0,0c0,1.6-1.3,2.5-3,2.5C75.6,15.1,74.3,14.6,73.3,13.9z"/>
			<path class="st0" d="M82.1,3.4h1.4v1.4h-1.4V3.4z M82.2,6.6h1.2v8.3h-1.2V6.6z"/>
			<path class="st0" d="M86.3,6.6h1.2v2.2c0.6-1.4,1.8-2.4,3.4-2.3v1.3h-0.1c-1.8,0-3.3,1.3-3.3,3.8v3.3h-1.2V6.6z"/>
			<path class="st0" d="M91.9,10.8L91.9,10.8c0-2.4,1.7-4.4,4-4.4c2.5,0,3.9,2,3.9,4.4c0,0.2,0,0.3,0,0.4h-6.6
				c0.2,1.8,1.4,2.8,2.9,2.8c1.1,0,1.9-0.5,2.6-1.2l0.8,0.7c-0.8,0.9-1.8,1.6-3.4,1.6C93.8,15.1,91.9,13.4,91.9,10.8z M98.6,10.3
				c-0.1-1.5-1-2.8-2.7-2.8c-1.4,0-2.6,1.2-2.7,2.8H98.6z"/>
			<path class="st0" d="M106.2,13.9l4.1-3.6c1.7-1.6,2.3-2.4,2.3-3.5c0-1.3-1.1-2.2-2.3-2.2c-1.3,0-2.1,0.7-3,1.9l-0.9-0.7
				c1-1.5,2.1-2.4,4.1-2.4s3.5,1.3,3.5,3.2l0,0c0,1.6-0.9,2.7-2.8,4.4l-3,2.7h6v1.2h-7.9C106.2,14.9,106.2,13.9,106.2,13.9z"/>
			<path class="st0" d="M116.1,9.3L116.1,9.3c0-3.2,1.9-5.9,4.8-5.9s4.7,2.6,4.7,5.8l0,0c0,3.2-1.9,5.8-4.8,5.8
				C117.9,15.1,116.1,12.5,116.1,9.3z M124.3,9.3L124.3,9.3c0-2.5-1.3-4.7-3.4-4.7s-3.4,2.2-3.4,4.6l0,0c0,2.5,1.3,4.7,3.5,4.7
				C123,14,124.3,11.8,124.3,9.3z"/>
			<path class="st0" d="M130.2,7.9h-3.3V6.7h3.3V3.4h1.2v3.3h3.3v1.2h-3.3v3.3h-1.2V7.9z"/>
		</g>
	</g>
</g>
<g>
	<g>
		<g>
			<g>
				<path class="st0" d="M41.2,12.6c-2.4,0-4.6,0-5.2,0c-1.3-0.1-2.1-0.9-2.2-2.2c-0.1-0.8-0.1-1.5,0-2.1C33.9,7.1,34.9,6,36,5.9
					c0.4,0,1.5,0,3.4,0H45V3.6c0,0-4.5,0-5.8,0c-1.8,0-2.7,0-3.3,0c-1.3,0-2.3,0.5-3.1,1.3s-1.2,2-1.3,3.3c0,0.7,0,1.6,0,2.1
					c0.1,1.4,0.6,2.4,1.3,3.2c0.8,0.8,2,1.3,3.1,1.3c0.9,0,9.1,0,9.1,0v-2.3C44.9,12.6,42.4,12.6,41.2,12.6z"/>
				<path class="st0" d="M15.9,3.7V6c0,0,5.4,0,5.5,0c0,0.1,0,8.8,0,8.8h2.3c0,0,0-8.7,0-8.8c0.1,0,5.5,0,5.5,0V3.7H15.9z"/>
				<path class="st0" d="M13.4,8.1c0-1.2-0.5-2.3-1.3-3.2C11.2,4,9.9,3.7,9,3.6c-0.8,0-3.8,0-4.5,0c-1,0-1.8,0.3-2.1,0.6l0,0
					c0-0.3,0-4.2,0-4.2H0v14.9h2.3c0,0,0-6.1,0-6.8C2.4,7,3.3,6,4.5,5.9c0.9-0.1,3.7-0.1,4.5,0c1.2,0.1,2.1,1,2.1,2.2
					c0,0.5,0,6.7,0,6.7h2.3C13.4,14.9,13.5,8.7,13.4,8.1z"/>
			</g>
		</g>
	</g>
	<g>
		<g>
			<path class="st0" d="M52.1,3.6H56c3.5,0,6,2.4,6,5.6l0,0c0,3.2-2.5,5.6-6,5.6h-3.9V3.6z M53.4,4.8v8.9H56c2.8,0,4.7-1.9,4.7-4.4
				l0,0c0-2.5-1.8-4.5-4.7-4.5C56,4.8,53.4,4.8,53.4,4.8z"/>
			<path class="st0" d="M64,10.8L64,10.8c0-2.4,1.7-4.4,4-4.4c2.5,0,3.9,2,3.9,4.4c0,0.2,0,0.3,0,0.4h-6.6c0.2,1.8,1.4,2.8,2.9,2.8
				c1.1,0,1.9-0.5,2.6-1.2l0.8,0.7c-0.8,0.9-1.8,1.6-3.4,1.6C65.8,15.1,64,13.4,64,10.8z M70.6,10.3c-0.1-1.5-1-2.8-2.7-2.8
				c-1.4,0-2.6,1.2-2.7,2.8H70.6z"/>
			<path class="st0" d="M73.3,13.9L74,13c0.9,0.7,1.9,1.1,2.9,1.1s1.7-0.5,1.7-1.3l0,0c0-0.8-1-1.2-2.1-1.5
				c-1.3-0.4-2.8-0.8-2.8-2.4l0,0c0-1.4,1.2-2.4,2.8-2.4c1,0,2.1,0.3,3,0.9L79,8.3c-0.8-0.5-1.7-0.8-2.5-0.8c-1,0-1.6,0.5-1.6,1.2
				l0,0c0,0.8,1,1.1,2.1,1.4c1.3,0.4,2.7,0.9,2.7,2.4l0,0c0,1.6-1.3,2.5-3,2.5C75.6,15.1,74.3,14.6,73.3,13.9z"/>
			<path class="st0" d="M82.1,3.4h1.4v1.4h-1.4V3.4z M82.2,6.6h1.2v8.3h-1.2V6.6z"/>
			<path class="st0" d="M86.3,6.6h1.2v2.2c0.6-1.4,1.8-2.4,3.4-2.3v1.3h-0.1c-1.8,0-3.3,1.3-3.3,3.8v3.3h-1.2V6.6z"/>
			<path class="st0" d="M91.9,10.8L91.9,10.8c0-2.4,1.7-4.4,4-4.4c2.5,0,3.9,2,3.9,4.4c0,0.2,0,0.3,0,0.4h-6.6
				c0.2,1.8,1.4,2.8,2.9,2.8c1.1,0,1.9-0.5,2.6-1.2l0.8,0.7c-0.8,0.9-1.8,1.6-3.4,1.6C93.8,15.1,91.9,13.4,91.9,10.8z M98.6,10.3
				c-0.1-1.5-1-2.8-2.7-2.8c-1.4,0-2.6,1.2-2.7,2.8H98.6z"/>
			<path class="st0" d="M106.2,13.9l4.1-3.6c1.7-1.6,2.3-2.4,2.3-3.5c0-1.3-1.1-2.2-2.3-2.2c-1.3,0-2.1,0.7-3,1.9l-0.9-0.7
				c1-1.5,2.1-2.4,4.1-2.4s3.5,1.3,3.5,3.2l0,0c0,1.6-0.9,2.7-2.8,4.4l-3,2.7h6v1.2h-7.9C106.2,14.9,106.2,13.9,106.2,13.9z"/>
			<path class="st0" d="M116.1,9.3L116.1,9.3c0-3.2,1.9-5.9,4.8-5.9s4.7,2.6,4.7,5.8l0,0c0,3.2-1.9,5.8-4.8,5.8
				C117.9,15.1,116.1,12.5,116.1,9.3z M124.3,9.3L124.3,9.3c0-2.5-1.3-4.7-3.4-4.7s-3.4,2.2-3.4,4.6l0,0c0,2.5,1.3,4.7,3.5,4.7
				C123,14,124.3,11.8,124.3,9.3z"/>
			<path class="st0" d="M130.2,7.9h-3.3V6.7h3.3V3.4h1.2v3.3h3.3v1.2h-3.3v3.3h-1.2V7.9z"/>
		</g>
	</g>
</g>
<g class="st1">
	<path class="st0" d="M31.7,33.8c-0.6,0.9-1.5,1.6-2.5,2.1c1.3,0.4,2.8,0.6,4.3,0.7c-0.2,0.2-0.4,0.6-0.5,0.9c-1.8-0.2-3.5-0.5-5-1
		c-1.5,0.6-3.3,0.9-5,1.1c-0.1-0.2-0.3-0.6-0.5-0.8c1.6-0.1,3.1-0.4,4.4-0.8c-0.7-0.3-1.4-0.7-1.9-1.2c-0.6,0.3-1.1,0.6-1.7,0.9
		c-0.1-0.2-0.5-0.5-0.6-0.6c0.6-0.2,1.2-0.5,1.7-0.8c-0.3-0.3-0.6-0.6-0.9-1l0.7-0.3c0.2,0.3,0.5,0.6,0.8,0.9
		c0.6-0.4,1.1-0.8,1.4-1.2c-0.5-0.1-0.7-0.3-0.7-0.9v-1.2h0.9v1.2c0,0.3,0.1,0.3,0.6,0.3h1.8c0.4,0,0.5-0.1,0.5-0.8
		c0.2,0.1,0.5,0.2,0.7,0.3c-0.1,1-0.3,1.2-1.1,1.2h-2l0.2,0.1c-0.2,0.2-0.4,0.5-0.7,0.7H31l0.2,0L31.7,33.8z M23.6,31.2h-0.9V29H25
		c-0.1-0.4-0.4-0.9-0.7-1.2l0.6-0.3c-0.5,0-1.1,0-1.6,0.1c0-0.2-0.1-0.5-0.2-0.7c3-0.1,6.8-0.3,8.8-0.7l0.6,0.6
		c-1.3,0.3-3,0.4-4.8,0.6c0.3,0.4,0.6,1,0.7,1.4L27.6,29c-0.1-0.4-0.4-1-0.7-1.4l0.7-0.3c-0.9,0.1-1.8,0.1-2.6,0.2
		c0.3,0.4,0.7,0.9,0.8,1.3L25.3,29H30c0.4-0.5,0.9-1.3,1.1-1.8l0.9,0.3c-0.3,0.5-0.7,1.1-1.1,1.5h2.3v2.2h-0.9v-1.5h-4.7
		c0.6,0.3,1.2,0.6,1.6,0.9l-0.5,0.5c-0.4-0.3-1.2-0.8-1.8-1.1l0.4-0.4h-3.5V31.2z M23.2,32.3c0.7-0.4,1.1-1.1,1.3-1.8l0.7,0.3
		c-0.3,0.8-0.7,1.6-1.4,2.1L23.2,32.3z M25.6,34.3c0.7,0.5,1.5,0.9,2.4,1.2c0.9-0.4,1.6-0.8,2.2-1.4h-4.4L25.6,34.3z M30.9,30.3
		c0.7,0.5,1.6,1.3,1.9,1.9l-0.7,0.5c-0.4-0.5-1.2-1.4-1.9-2L30.9,30.3z"/>
	<path class="st0" d="M41.9,29.6c1.6,0.7,3.3,1.7,4.3,2.4l-0.7,0.6c-1-0.8-3-1.9-4.7-2.7v2h-0.9v-2.4c-1.2,1.4-3,2.6-4.7,3.2
		c-0.1-0.2-0.4-0.6-0.6-0.7c1.5-0.5,3.2-1.4,4.2-2.5H35v-0.8h4.9v-1.2c-1.4,0.1-2.8,0.2-4,0.2c0-0.2-0.1-0.6-0.2-0.8
		c2.9-0.1,6.3-0.4,8.2-0.9l0.7,0.7c-1,0.2-2.3,0.4-3.7,0.6v1.3h4.9v0.8H41.9z M44.9,33.7c0,0,0,0.3,0,0.4c-0.2,1.8-0.4,2.6-0.7,2.9
		c-0.2,0.2-0.5,0.3-0.9,0.3c-0.3,0-1,0-1.8,0c0-0.3-0.1-0.6-0.3-0.9c0.7,0.1,1.5,0.1,1.7,0.1c0.2,0,0.4,0,0.5-0.1
		c0.2-0.2,0.4-0.7,0.5-1.9h-2.8c0.1-0.4,0.3-0.9,0.5-1.4h-2.2c-0.3,2-1.2,3.6-3.8,4.4c-0.1-0.2-0.3-0.6-0.5-0.8c2.3-0.7,3-2,3.3-3.7
		h-1.8v-0.8h6.1c-0.1,0.5-0.3,1-0.4,1.4H44.9z"/>
	<path class="st0" d="M59.9,26.8c0,4.6,0,9.7,0.7,9.7c0.1,0,0.2-0.8,0.2-1.9c0.2,0.2,0.4,0.5,0.6,0.6c-0.1,1.6-0.3,2.2-0.9,2.2
		c-1.5,0-1.5-4.4-1.5-9.8h-6.7v3.1c0,2-0.2,4.8-1.6,6.7c-0.1-0.2-0.5-0.4-0.7-0.5c1.3-1.8,1.5-4.3,1.5-6.2v-4H59.9z M57.6,34.2
		c0.6,0.8,1.3,2,1.5,2.7l-0.7,0.3c-0.1-0.3-0.2-0.6-0.4-0.9c-2.1,0.1-4.2,0.3-5.7,0.4l-0.1-0.8c0.8,0,1.8-0.1,2.9-0.2v-1.7H53v-3.4
		h2.2v-1.2h-2.3v-0.8h5.6v0.8H56v1.2h2.2v3.4H56v1.7l1.6-0.1c-0.2-0.4-0.4-0.7-0.7-1L57.6,34.2z M55.1,33.1v-1.9h-1.4v1.9H55.1z
		 M56,31.2v1.9h1.4v-1.9H56z"/>
	<path class="st0" d="M73.2,27.7c-0.5,1.2-1.3,2.2-2.3,3.1c0.9,0.6,2,1.1,3.1,1.3c-0.1,0.2-0.3,0.6-0.3,0.8
		c-1.3-0.4-2.4-0.9-3.4-1.7c-1.1,0.8-2.4,1.4-3.7,1.8c-0.1-0.2-0.3-0.6-0.5-0.8l0.1,0c-0.2-0.4-0.5-1-0.9-1.5v6.7h-0.9v-6.2
		c-0.4,1.4-1,2.8-1.5,3.6c-0.1-0.3-0.3-0.7-0.5-0.9c0.8-1,1.5-3,1.9-4.7h-1.6v-0.9h1.7v-2.4h0.9v2.4h1.4v0.9h-1.4v0.3
		c0.3,0.4,1.3,1.7,1.5,2l-0.4,0.5c1.1-0.3,2.2-0.8,3.2-1.5c-0.6-0.5-1-1-1.4-1.6c-0.3,0.4-0.7,0.8-1,1.2c-0.1-0.2-0.4-0.5-0.6-0.7
		c0.9-0.8,1.7-2.1,2.2-3.5l0.8,0.2c-0.1,0.4-0.3,0.7-0.5,1.1h3.4l0.2,0L73.2,27.7z M67.3,33h5.5v4.5h-0.9v-0.6h-3.7v0.6h-0.9V33z
		 M68.2,33.8V36h3.7v-2.2H68.2z M68.5,28.3c0.4,0.7,0.9,1.4,1.6,1.9c0.7-0.6,1.3-1.3,1.8-2h-3.3L68.5,28.3z"/>
	<path class="st0" d="M81,33.5c-0.1,0.8-0.5,1.5-1.1,2.1c1.6,0.7,3.7,0.9,6.5,1c-0.2,0.2-0.3,0.6-0.4,0.9c-2.9-0.1-5.1-0.4-6.8-1.3
		c-0.8,0.5-2,1-3.6,1.3c-0.1-0.2-0.3-0.6-0.5-0.8c1.5-0.3,2.5-0.6,3.3-1.1c-0.6-0.5-1.1-1-1.5-1.8l0.8-0.3c0.4,0.6,0.9,1.2,1.5,1.5
		c0.6-0.5,0.9-1,1-1.6h-3.7v-4.8h3.9v-1h-5v-0.8H86v0.8h-4.8v1h4.1v4.8H81z M77.2,30.7h3v-1.2h-3V30.7z M80.2,32.7
		c0-0.2,0-0.5,0-0.8v-0.5h-3v1.3H80.2z M84.3,31.4h-3.1v0.5c0,0.2,0,0.5,0,0.7h3.2V31.4z M81.1,29.5v1.2h3.1v-1.2H81.1z"/>
	<path class="st0" d="M93,28.9c-0.2,5.4-0.4,7.3-0.9,7.8c-0.2,0.3-0.5,0.4-0.8,0.5c-0.3,0-0.8,0-1.4,0c0-0.3-0.1-0.7-0.3-0.9
		c0.5,0,1,0.1,1.2,0.1c0.2,0,0.3,0,0.4-0.2c0.3-0.4,0.6-2.1,0.8-6.8h-1.8c-0.1,3.1-0.6,6.2-2.2,8.2c-0.2-0.2-0.5-0.5-0.7-0.6
		c1.5-1.7,1.9-4.6,2-7.5h-1.7v-0.9h1.7c0-0.8,0-1.5,0-2.2h0.9c0,0.7,0,1.5,0,2.2H93V28.9z M98.2,27.7v9.6h-0.9v-0.8h-2.4v0.9h-0.9
		v-9.6H98.2z M97.2,35.5v-6.9h-2.4v6.9H97.2z"/>
	<path class="st0" d="M104,26.8c-0.7,2.1-1.9,3.9-3.4,5.1c-0.2-0.2-0.5-0.5-0.8-0.7c1.5-1,2.6-2.7,3.2-4.6L104,26.8z M109.4,30.8
		c0,0,0,0.3,0,0.4c-0.2,3.8-0.3,5.3-0.8,5.7c-0.3,0.3-0.5,0.4-1,0.4c-0.4,0-1.2,0-2,0c0-0.3-0.1-0.7-0.3-0.9
		c0.8,0.1,1.6,0.1,1.9,0.1c0.3,0,0.4,0,0.5-0.2c0.3-0.3,0.5-1.6,0.6-4.7h-3.2c-0.3,2.5-1.1,4.7-4.3,5.9c-0.1-0.2-0.4-0.6-0.6-0.8
		c2.9-1,3.6-2.9,3.9-5.1h-2.5v-0.9H109.4z M107.8,26.3c0.6,2,2,3.7,3.5,4.6c-0.2,0.2-0.5,0.6-0.7,0.8c-1.5-1-2.8-2.7-3.5-4.6h-2.2
		v-0.9H107.8z"/>
</g>
</svg>
