<svg xmlns="http://www.w3.org/2000/svg" width="283" height="95" viewBox="0 0 283 95">
    <g fill="none" fill-rule="evenodd">
        <g>
            <g>
                <g fill="#55565A" fill-rule="nonzero">
                    <g>
                        <path d="M133.1 0L122.7 18.1 112.2 0zM0 64.2L0 44.8 11.1 64.2zM0 0h15.4c.3 0 .7.2 1 .6 5.2 9 32.1 55.5 36.7 63.6h-29c-.3 0-.7-.2-1-.6C16.6 52.4 6.4 34.7 0 23.5V0zM89.4 64.2H66c-.6 0-.9-.3-1-.6C54.4 45.2 38.4 17.2 28.3 0h29.2c.4 0 .8.2 1 .6 1.2 2 23.2 40.4 31 53.7-.1 3.6-.1 5.8-.1 9.9zM122.5 38.9c-5.3-9.2-14.9-25.8-22.1-38.3-.2-.3-.5-.6-.9-.6H70.4c5 8.5 23.5 40.8 31.2 54 .1.2.1.4.1.5v9.7h21V39.5c0-.3-.1-.5-.2-.6z" transform="translate(-648 -1997) translate(648 1997) translate(57 15)"/>
                    </g>
                    <g>
                        <path d="M3.5 2L0 2 0 0 9.6 0 9.6 2 6.1 2 6.1 9.8 3.6 9.8 3.6 2zM10.7 0L13.2 0 13.2 3.7 18.4 3.7 18.4 0 20.9 0 20.9 9.8 18.4 9.8 18.4 5.7 13.2 5.7 13.2 9.8 10.7 9.8zM22.4 0L30.8 0 30.8 1.8 24.8 1.8 24.8 3.9 30.3 3.9 30.3 5.5 24.8 5.5 24.8 7.8 30.9 7.8 30.9 9.6 22.4 9.6z" transform="translate(-648 -1997) translate(648 1997) translate(57 15) translate(126 29.9)"/>
                    </g>
                    <g>
                        <path d="M0 0L3 0 8.1 7.1 8.1 7.1 8.1 0 10.5 0 10.5 9.8 7.5 9.8 2.4 2.7 2.4 2.7 2.4 9.8 0 9.8zM11.9 0L20.3 0 20.3 1.8 14.3 1.8 14.3 3.9 19.8 3.9 19.8 5.5 14.3 5.5 14.3 7.8 20.4 7.8 20.4 9.6 11.9 9.6zM21 0L23.6 0 26.2 7.6 26.2 7.6 28.6 0 31.7 0 34.2 7.6 34.2 7.6 36.8 0 39.4 0 35.8 9.8 32.7 9.8 30.2 2.3 30.2 2.3 27.7 9.8 24.6 9.8z" transform="translate(-648 -1997) translate(648 1997) translate(57 15) translate(128.5 42.2)"/>
                    </g>
                    <g>
                        <path d="M8 9.9c-.3-.1-.5-.3-.7-.5-.2-.2-.4-.5-.5-.7l-.6-1.5c-.1-.3-.3-.5-.6-.7-.2-.2-.5-.3-.8-.3H2.5v3.6H0V0h6.3c.8 0 1.5.1 2 .4.6.2 1 .6 1.3 1 .3.5.5 1 .5 1.6 0 .5-.1.9-.3 1.2-.2.4-.5.7-.9.9-.4.3-.9.4-1.4.5.2.1.4.2.6.4.2.2.3.4.4.6L9 7.8c.1.1.2.3.3.3.1 0 .2.1.4.1.1 0 .3 0 .4-.1.1-.1.2-.2.4-.3l.6 1.1c-.2.3-.6.5-.9.6-.4.2-.8.2-1.2.2-.4.4-.7.4-1 .2zM5.9 4.6c.4 0 .7-.1 1-.2.3-.1.5-.3.6-.5.2-.2.2-.5.2-.7 0-.3-.1-.5-.2-.7-.2-.2-.4-.4-.6-.5-.3-.1-.6-.2-1-.2H2.5v2.8h3.4zM12.1.1L20.5.1 20.5 1.9 14.5 1.9 14.5 4 20 4 20 5.6 14.5 5.6 14.5 7.9 20.6 7.9 20.6 9.7 12.1 9.7zM25.5.1h2.9l4.2 9.8H30L29.2 8h-4.6l-.8 1.9h-2.6L25.5.1zm3.2 6.2L26.9 2l-1.8 4.3h3.6zM33.5.1L36 .1 36 7.9 41.1 7.9 41.1 9.9 33.5 9.9z" transform="translate(-648 -1997) translate(648 1997) translate(57 15) translate(128.4 54.3)"/>
                    </g>
                </g>
            </g>
        </g>
    </g>
</svg>
