<svg xmlns="http://www.w3.org/2000/svg" width="283" height="95" viewBox="0 0 283 95">
    <g fill="none" fill-rule="evenodd">
        <g>
            <g>
                <g fill="#55565A" fill-rule="nonzero">
                    <g>
                        <path d="M45.241 34.8c.1.2.4 0 .3-.2l-16.7-28.9-3.2-5.5c-.1-.2-.3-.2-.5-.2-.1 0-.3.1-.4.3l-4.6 15.2c-.7 2.4 1.1 4.8 3.5 4.8h4.6c2.6 0 5.2 1.1 6.9 3.1l10.1 11.4z" transform="translate(-306 -1843) translate(306 1843) translate(30 26) translate(0 .1)"/>
                        <path d="M17.141 16.5l3.5-11.8c.1-.2-.2-.3-.3-.1l-20.3 35c-.1.2 0 .4.1.6.1.1.3.2.5.1h.1l18-6.6c2.2-.8 3.1-3.3 1.9-5.3l-2.7-4.7c-1.2-2.2-1.5-4.8-.8-7.2" transform="translate(-306 -1843) translate(306 1843) translate(30 26) translate(0 .1)"/>
                        <path d="M42.241 42.9h5.4c.3 0 .4-.2.4-.3 0-.1.1-.3-.1-.5l-13.5-15.5c-1.7-1.9-4.7-1.6-6 .6l-2.5 4.5c-1.1 1.9-2.8 3.3-4.8 4l-18.8 6.9c-.2.1-.1.4.1.4l39.8-.1z" transform="translate(-306 -1843) translate(306 1843) translate(30 26) translate(0 .1)"/>
                    </g>
                    <g>
                        <path d="M20.5 2c-1.5 0-2.8.9-3.3 2.2L0 42.8h4.4l4.7-10.7h18.4c.5 0 .9-.3 1.1-.7l1.5-3.4H11l9.2-20.6c.1-.3.5-.3.7 0l15.6 35.4h4.4L23.8 4.2C23.2 2.9 21.9 2 20.5 2zM101.5 0C89.4 0 79.6 9.8 79.6 21.9c0 12.1 9.8 21.9 21.9 21.9 12.1 0 21.9-9.8 21.9-21.9 0-12.1-9.8-21.9-21.9-21.9zm17.9 21.9c0 9.9-8 17.9-17.9 17.9-9.9 0-17.9-8-17.9-17.9 0-9.9 8-17.9 17.9-17.9 9.9 0 17.9 8 17.9 17.9zM78.5 1h-4.8L61.5 19.2c-.2.4-.9.4-1.1 0L48.1 1h-4.8l13.8 20.4c.2.3.2.6 0 .9L43.3 42.7h4.8l12.3-18.2c.2-.4.9-.4 1.1 0l12.3 18.2h4.8L64.8 22.3c-.2-.3-.2-.6 0-.9L78.5 1zM162.5 1v35.3l-25.7-34c-.8-1-2.1-1.6-3.5-1.4-1.9.2-3.4 1.9-3.4 3.9v38h4V5l28.5 37.8h4V1h-3.9z" transform="translate(-306 -1843) translate(306 1843) translate(30 26) translate(56.441)"/>
                    </g>
                </g>
            </g>
        </g>
    </g>
</svg>
