<svg xmlns="http://www.w3.org/2000/svg" width="283" height="95" viewBox="0 0 283 95">
    <g fill="none" fill-rule="evenodd">
        <g>
            <g>
                <g fill="#55565A" fill-rule="nonzero" transform="translate(-648 -1843) translate(648 1843) translate(32 14)">
                    <g>
                        <path d="M30.3 15.401c-.1 7.6-4.7 15.3-15.1 15.3-10.4 0-15.2-7.4-15.2-15.2 0-7.8 5-15.5 15.2-15.5 10.1-.1 15.2 7.7 15.1 15.4zm-24.8.1c.1 4.8 2.7 10 9.7 10 7 0 9.6-5.2 9.6-10.1.1-5-2.7-10.5-9.6-10.5-6.9 0-9.8 5.7-9.7 10.6zM60.5 30.001h-6.6l-8.6-9.8H40v9.8h-5.6V.501h14c6.9 0 10.6 4.7 10.6 9.8 0 4-1.9 8.1-7.4 9.3l8.9 10.1v.3zM40 5.701v9.4h8.5c3.5 0 5.1-2.4 5.1-4.7 0-2.3-1.6-4.7-5.1-4.7H40zM78.9 9.201h4.9v20.7H79l-.3-3c-1.2 2.4-4.4 3.6-6.7 3.7-6.1 0-10.7-3.7-10.7-11 0-7.2 4.8-10.9 10.8-10.9 2.8 0 5.4 1.3 6.6 3.4l.2-2.9zm-12.5 10.4c0 4 2.7 6.3 6.1 6.3 8.1 0 8.1-12.6 0-12.6-3.3 0-6.1 2.3-6.1 6.3zM101.9 30.001v-11.1c0-2.7-1.4-5.2-4.3-5.2-2.8 0-4.4 2.5-4.4 5.2v11.1h-5.1v-20.8h4.8l.4 2.5c1.1-2.1 3.5-2.9 5.5-2.9 2.5 0 5 1 6.1 3.9 1.9-2.9 4.3-3.8 6.9-3.8 5.9 0 8.8 3.6 8.8 9.8v11.2h-5.1v-11.1c0-2.7-1.1-5.1-3.9-5.1s-4.5 2.4-4.5 5.1v11.1h-5.2v.1zM142.3 9.201h4.9v20.7h-4.8l-.3-3c-1.2 2.4-4.4 3.6-6.7 3.7-6.1 0-10.7-3.7-10.7-11 0-7.2 4.8-10.9 10.8-10.9 2.8 0 5.4 1.3 6.6 3.4l.2-2.9zm-12.5 10.4c0 4 2.7 6.3 6.1 6.3 8.1 0 8.1-12.6 0-12.6-3.3 0-6.1 2.3-6.1 6.3z" transform="translate(0 17.999)"/>
                    </g>
                    <g>
                        <path d="M45.5 40.4h3.9v-.2l-5.3-6c3.3-.7 4.4-3.1 4.4-5.5 0-3-2.2-5.8-6.3-5.8h-8.4v34.6l-2.3 2.3-28-28 9.3-9.3-1.1-2.5L0 31.6l31.6 31.6 2.3-2.3 3.3-3.3V34.5h3.2l5.1 5.9zm-8.3-14.5h5c2.1 0 3 1.4 3 2.8s-.9 2.8-3 2.8h-5v-5.6z" transform="translate(156.1 1.7)"/>
                        <path d="M31.8 0.1L31.6 0 14.9 16.7 12.4 19.2 13.5 21.7 21.1 40.4 24.5 40.4 31.8 22.8 28.1 22.8 22.8 36.5 16 19.2 31.6 3.6 59.6 31.6 37.9 53.3 37.9 56.9 63.3 31.6z" transform="translate(156.1 1.7)"/>
                    </g>
                    <ellipse cx="154.2" cy="33.3" rx="1" ry="33.3"/>
                </g>
            </g>
        </g>
    </g>
</svg>
