<svg xmlns="http://www.w3.org/2000/svg" width="144" height="61" viewBox="0 0 144 61">
    <g fill="none" fill-rule="evenodd">
        <g>
            <g>
                <g fill="#55565A" fill-rule="nonzero">
                    <g>
                        <path d="M69 0L63.6 9.4 58.2 0zM0 33.3L0 23.2 5.8 33.3zM0 0h8c.2 0 .4.1.5.3C11.2 5 25.1 29 27.5 33.2h-15c-.2 0-.4-.1-.5-.3-3.4-5.8-8.6-15-12-20.8V0zM46.4 33.3H34.3c-.3 0-.4-.2-.5-.3-5.5-9.6-13.8-24.1-19-33h15.1c.2 0 .4.1.5.3.6 1 12 20.9 16.1 27.8-.1 1.9-.1 3.1-.1 5.2zM63.5 20.2C60.7 15.4 55.8 6.9 52 .3c-.1-.1-.3-.3-.5-.3H36.4C39 4.4 48.6 21.1 52.5 28c.1.1.1.2.1.3v5h10.9V20.5c.1-.2 0-.3 0-.3z" transform="translate(-198 -1936) translate(198 1936) translate(30 14)"/>
                    </g>
                    <g>
                        <path d="M1.8 1L0 1 0 0 5 0 5 1 3.2 1 3.2 5 1.9 5 1.9 1zM5.5 0L6.8 0 6.8 1.9 9.5 1.9 9.5 0 10.8 0 10.8 5.1 9.5 5.1 9.5 3 6.8 3 6.8 5.1 5.5 5.1zM11.6 0L16 0 16 .9 12.9.9 12.9 2 15.7 2 15.7 2.8 12.9 2.8 12.9 4 16.1 4 16.1 5 11.6 5z" transform="translate(-198 -1936) translate(198 1936) translate(30 14) translate(65.3 15.5)"/>
                    </g>
                    <g>
                        <path d="M0 0L1.5 0 4.1 3.7 4.1 3.7 4.1 0 5.3 0 5.3 5.1 3.8 5.1 1.2 1.4 1.2 1.4 1.2 5.1 0 5.1zM6.2 0L10.6 0 10.6.9 7.5.9 7.5 2 10.3 2 10.3 2.8 7.5 2.8 7.5 4 10.7 4 10.7 5 6.3 5 6.3 0zM10.9 0L12.2 0 13.5 4 13.5 4 14.8 0 16.4 0 17.7 4 17.7 4 19 0 20.3 0 18.5 5.1 16.9 5.1 15.6 1.2 15.6 1.2 14.3 5.1 12.7 5.1z" transform="translate(-198 -1936) translate(198 1936) translate(30 14) translate(66.6 21.9)"/>
                    </g>
                    <g>
                        <path d="M4.1 5.1c-.1-.1-.3-.2-.4-.3-.1-.1-.2-.2-.2-.4l-.3-.8c-.1-.2-.2-.3-.3-.4-.1-.1-.3-.1-.4-.1H1.3V5H0V0h3.3c.4 0 .8.1 1.1.2.3.1.5.3.7.5.2.2.2.5.2.8 0 .2-.1.5-.2.6-.1.2-.3.3-.5.5-.2.1-.4.2-.7.3.1 0 .2.1.3.2.1.1.1.2.2.3l.3.6c0 .1.1.1.1.2s.1.1.2.1.1 0 .2-.1c.1 0 .1-.1.2-.2l.3.6c-.1.1-.3.3-.5.3-.2.1-.4.1-.6.1-.2.2-.4.2-.5.1zM3 2.3c.2 0 .4 0 .5-.1.1-.1.3-.1.3-.2.1-.1.1-.2.1-.4 0-.1 0-.3-.1-.4L3.5.9C3.4.8 3.2.8 3 .8H1.3v1.4H3v.1zM6.2 0L10.6 0 10.6 1 7.5 1 7.5 2.1 10.3 2.1 10.3 2.9 7.5 2.9 7.5 4.1 10.7 4.1 10.7 5.1 6.3 5.1 6.3 0zM13.2 0h1.5l2.2 5.1h-1.4l-.4-1h-2.4l-.4 1H11L13.2 0zm1.6 3.2L13.9 1 13 3.2h1.8zM17.3 0L18.6 0 18.6 4 21.2 4 21.2 5 17.3 5z" transform="translate(-198 -1936) translate(198 1936) translate(30 14) translate(66.6 28.2)"/>
                    </g>
                </g>
            </g>
        </g>
    </g>
</svg>
