<svg xmlns="http://www.w3.org/2000/svg" width="144" height="61" viewBox="0 0 144 61">
    <g fill="none" fill-rule="evenodd">
        <g>
            <g>
                <g fill="#55565A" fill-rule="nonzero">
                    <g>
                        <path d="M20.844 15.9c.1.1.2 0 .1-.1l-7.6-13.2-1.4-2.5c-.1-.1-.2-.1-.2-.1-.1 0-.1 0-.2.1L9.444 7c-.3 1.1.5 2.2 1.6 2.2h2.1c1.2 0 2.4.5 3.1 1.4l4.6 5.3z" transform="translate(-18 -1768) translate(18 1768) translate(21 21)"/>
                        <path d="M7.944 7.6l1.6-5.4c0-.1-.1-.2-.2-.1l-9.3 16c-.1.1 0 .2 0 .3 0 .1.1.1.2.1l8.2-3c1-.4 1.4-1.5.9-2.4l-1.2-2.1c-.3-1.1-.5-2.3-.2-3.4" transform="translate(-18 -1768) translate(18 1768) translate(21 21)"/>
                        <path d="M19.444 19.6h2.5c.1 0 .2-.1.2-.1v-.2l-6.2-7.1c-.8-.9-2.2-.7-2.7.3l-1.2 2c-.5.8-1.3 1.5-2.2 1.8l-8.6 3.2c-.1 0-.1.2 0 .2l18.2-.1z" transform="translate(-18 -1768) translate(18 1768) translate(21 21)"/>
                    </g>
                    <g>
                        <path d="M9.3.9c-.7 0-1.3.4-1.5 1L0 19.5h2l2.2-4.9h8.4c.2 0 .4-.1.5-.3l.7-1.6H5l4.2-9.4c.1-.1.2-.1.3 0l7.2 16.2h2L10.9 1.9c-.3-.6-.9-1-1.6-1zM46.3 0c-5.5 0-10 4.5-10 10s4.5 10 10 10 10-4.5 10-10-4.5-10-10-10zm8.2 10c0 4.5-3.7 8.2-8.2 8.2-4.5 0-8.2-3.7-8.2-8.2 0-4.5 3.7-8.2 8.2-8.2 4.5 0 8.2 3.7 8.2 8.2zM35.8.5h-2.2L28 8.8c-.1.2-.4.2-.5 0L21.9.5h-2.2L26 9.8c.1.1.1.3 0 .4l-6.2 9.3H22l5.6-8.3c.1-.2.4-.2.5 0l5.6 8.3h2.2l-6.3-9.3c-.1-.1-.1-.3 0-.4L35.8.5zM74.2.5v16.1L62.5 1.1c-.4-.5-1-.7-1.6-.6-.9.1-1.5.9-1.5 1.8v17.2h1.8V2.3l12.9 17.2h1.8V.5h-1.7z" transform="translate(-18 -1768) translate(18 1768) translate(21 21) translate(25.944)"/>
                    </g>
                </g>
            </g>
        </g>
    </g>
</svg>
