<svg xmlns="http://www.w3.org/2000/svg" width="144" height="61" viewBox="0 0 144 61">
    <g fill="none" fill-rule="evenodd">
        <g>
            <g>
                <g fill="#55565A" fill-rule="nonzero" transform="translate(-198 -1768) translate(198 1768) translate(15 13)">
                    <g>
                        <path d="M15.7 8.002c0 3.9-2.5 7.9-7.8 7.9s-7.9-3.9-7.9-7.9 2.6-8 7.9-8c5.2-.1 7.8 4 7.8 8zm-12.9 0c.1 2.5 1.4 5.2 5 5.2s5-2.7 5-5.2c0-2.6-1.4-5.5-5-5.5s-5 3-5 5.5zM31.3 15.502h-3.4l-4.5-5.1h-2.8v5.1h-2.8V.202h7.3c3.6 0 5.5 2.4 5.5 5.1 0 2.1-1 4.2-3.9 4.8l4.6 5.2v.2zm-10.6-12.6v4.9h4.4c1.8 0 2.6-1.2 2.6-2.4s-.8-2.4-2.6-2.4h-4.4v-.1zM40.8 4.802h2.6v10.8h-2.5l-.1-1.6c-.6 1.3-2.3 1.9-3.5 1.9-3.2 0-5.5-1.9-5.5-5.7 0-3.7 2.5-5.6 5.6-5.6 1.4 0 2.8.7 3.4 1.7v-1.5zm-6.4 5.3c0 2 1.4 3.3 3.2 3.3 4.2 0 4.2-6.5 0-6.5-1.8 0-3.2 1.2-3.2 3.2zM52.8 15.502v-5.8c0-1.4-.7-2.7-2.2-2.7-1.4 0-2.3 1.3-2.3 2.7v5.8h-2.7v-10.8h2.5l.2 1.3c.6-1.1 1.8-1.5 2.8-1.5 1.3 0 2.6.5 3.2 2 1-1.5 2.2-2 3.6-2 3.1 0 4.6 1.9 4.6 5.1v5.8h-2.7v-5.8c0-1.4-.6-2.6-2-2.6s-2.3 1.2-2.3 2.7v5.8h-2.7zM73.7 4.802h2.6v10.8h-2.5l-.1-1.6c-.6 1.3-2.3 1.9-3.5 1.9-3.2 0-5.5-1.9-5.5-5.7 0-3.7 2.5-5.6 5.6-5.6 1.4 0 2.8.7 3.4 1.7v-1.5zm-6.5 5.3c0 2 1.4 3.3 3.2 3.3 4.2 0 4.2-6.5 0-6.5-1.7 0-3.2 1.2-3.2 3.2z" transform="translate(0 9.298)"/>
                    </g>
                    <g>
                        <path d="M23.6 20.9h2v-.1l-2.8-3.1c1.7-.4 2.3-1.6 2.3-2.9 0-1.6-1.1-3-3.3-3h-4.3v17.9l-1.2 1.2L1.9 16.4l4.8-4.8-.5-1.3L0 16.4l16.4 16.4 1.2-1.2 1.7-1.7v-12H21l2.6 3zm-4.3-7.5h2.6c1.1 0 1.6.7 1.6 1.5 0 .7-.5 1.5-1.6 1.5h-2.6v-3z" transform="translate(80.8 .8)"/>
                        <path d="M16.5 0.1L16.4 0 7.8 8.7 6.5 10 7 11.3 11 21 12.8 21 16.5 11.8 14.6 11.8 11.9 18.9 8.3 10 16.4 1.9 30.9 16.4 19.7 27.6 19.7 29.5 32.8 16.4z" transform="translate(80.8 .8)"/>
                    </g>
                    <ellipse cx="79.9" cy="17.2" rx="1" ry="17.2"/>
                </g>
            </g>
        </g>
    </g>
</svg>
