<svg xmlns="http://www.w3.org/2000/svg" xmlns:xlink="http://www.w3.org/1999/xlink" width="155" height="155" viewBox="0 0 155 155">
    <defs>
        <path id="h0lwzm9owa" d="M0 155L155 155 155 0 0 0z"/>
    </defs>
    <g fill="none" fill-rule="evenodd">
        <g>
            <g transform="translate(-420 -15867) translate(420 15867)">
                <mask id="acmby6lsmb" fill="#fff">
                    <use xlink:href="#h0lwzm9owa"/>
                </mask>
                <path fill="#000" d="M36.084 94.55c.305 3.297 1.726 6.393 4.03 8.772 1.27 1.271 4.944 4.2 11.935 4.2 4.341.238 8.59-1.308 11.764-4.277 3.953-3.951 4.65-8.105 4.65-14.4 0-5.874-.806-10.602-4.774-14.57-2.66-2.39-6.163-3.62-9.734-3.425-2.69-.053-5.32.81-7.455 2.45-.642.612-1.588.783-2.403.434-.809-.361-1.33-1.162-1.333-2.046V58.7c0-1.215.972-2.207 2.186-2.232H67.16V50.98H37.2v29.698H43.6c1.71-3.225 5.146-5.154 8.789-4.929 6.37 0 9.61 4.402 9.61 13.096 0 3.736-.372 7.907-3.1 10.573-1.826 1.764-4.297 2.706-6.836 2.602-3.487 0-7.75-1.348-9.3-7.47h-6.68zm15.965 17.406c-5.545.206-10.951-1.763-15.066-5.487-4.294-4.277-5.208-9.3-5.58-13.95-.044-.62.169-1.23.589-1.688.42-.453 1.01-.712 1.627-.713h11.036c1.125-.002 2.077.835 2.217 1.951.604 4.852 2.852 5.535 5.177 5.535 1.38.098 2.742-.384 3.75-1.334 1.21-1.208 1.721-3.426 1.721-7.425 0-8.649-3.363-8.649-5.161-8.649-2.32-.274-4.505 1.147-5.193 3.38-.291.926-1.151 1.554-2.123 1.55H34.89c-1.224 0-2.216-.993-2.216-2.217V48.793c-.034-1.23.937-2.258 2.17-2.292l.046-.002h34.488c1.226.01 2.216 1.006 2.216 2.232v9.937c0 1.223-.992 2.217-2.216 2.217H47.135v6.834c2.181-.887 4.514-1.34 6.867-1.332 6.727 0 10.71 2.556 12.865 4.65 5.347 5.348 6.091 11.67 6.091 17.701 0 7.13-1.007 12.54-5.998 17.53-2.542 2.665-7.192 5.688-14.911 5.688zM118.466 107.013h8.572L107.46 73.919c-.474-.805-.394-1.822.202-2.54l17.05-20.399h-8.587L95.48 76.493c-.785.95-2.192 1.084-3.142.298-.512-.422-.808-1.047-.811-1.71v-24.1h-7.362v55.97h7.362V91.063c0-.52.18-1.024.512-1.426l7.75-9.3c.472-.555 1.18-.85 1.908-.79.727.06 1.376.479 1.736 1.116l15.033 26.35zm12.4 4.431h-13.764c-.8.005-1.54-.42-1.937-1.114l-13.95-24.8-5.24 6.2v17.36c-.009 1.226-1.004 2.216-2.23 2.216H81.948c-1.228 0-2.223-.99-2.232-2.216V48.638c.057-1.192 1.039-2.131 2.232-2.139h11.797c1.23.01 2.221 1.003 2.23 2.232V68.82l17.36-21.45c.416-.541 1.056-.862 1.738-.87h14.352c1.232.008 2.227 1.012 2.22 2.244-.002.518-.184 1.017-.515 1.414L112.08 73.02l20.693 35.076c.626 1.054.279 2.413-.775 3.038-.341.203-.732.31-1.132.31zM28.845 77.903H15.5c-.685-.001-1.239-.556-1.239-1.241.002-.684.555-1.239 1.239-1.239h13.283c.685 0 1.24.557 1.239 1.242-.002.683-.555 1.237-1.239 1.238h.062z" mask="url(#acmby6lsmb)"/>
                <path fill="#000" d="M139.64 77.903h-13.284c-.685 0-1.24-.553-1.242-1.238-.001-.685.553-1.242 1.239-1.242h13.286c.685 0 1.24.557 1.239 1.242 0 .683-.555 1.237-1.239 1.238M77.608 29.186c-.685 0-1.24-.554-1.24-1.24V14.664c0-.685.554-1.24 1.239-1.242.685-.001 1.24.554 1.241 1.239V27.9c.027.684-.508 1.26-1.192 1.287h-.048M77.608 139.903c-.685 0-1.24-.555-1.24-1.24V125.38c.002-.685.558-1.24 1.242-1.239.683.002 1.237.554 1.238 1.239v13.283c0 .685-.555 1.24-1.24 1.24" mask="url(#acmby6lsmb)"/>
            </g>
        </g>
    </g>
</svg>
