<svg xmlns="http://www.w3.org/2000/svg" xmlns:xlink="http://www.w3.org/1999/xlink" width="155" height="155" viewBox="0 0 155 155">
    <defs>
        <path id="3t7h612s0a" d="M0 155L155 155 155 0 0 0z"/>
    </defs>
    <g fill="none" fill-rule="evenodd">
        <g>
            <g transform="translate(-729 -16162) translate(729 16162)">
                <mask id="vkg7kxk51b" fill="#fff">
                    <use xlink:href="#3t7h612s0a"/>
                </mask>
                <path fill="#000" d="M83.05 78.445v13.47l1.24.62c10.793 5.573 15.025 18.84 9.451 29.634-5.572 10.793-18.839 15.024-29.633 9.454-7.316-3.78-11.908-11.325-11.904-19.558-.057-8.25 4.568-15.818 11.935-19.53l1.24-.62v-62.93c-.01-4.785 3.864-8.671 8.65-8.68h.03c4.814.076 8.747 3.872 8.99 8.68v4.913h4.65v-4.913c.003-7.448-6.032-13.487-13.479-13.492-7.447-.003-13.488 6.033-13.49 13.48v60.153c-12.756 7.355-17.133 23.656-9.778 36.413 4.763 8.258 13.573 13.345 23.107 13.34 14.762-.03 26.767-11.9 26.97-26.66-.003-9.524-5.084-18.325-13.33-23.093v-10.68h-4.65z" mask="url(#vkg7kxk51b)"/>
                <path fill="#000" d="M74.214 15.655c-7.358.008-13.32 5.972-13.33 13.33v60.233h-.078c-12.703 7.273-17.105 23.469-9.833 36.17 4.737 8.275 13.553 13.366 23.086 13.337 14.672-.04 26.602-11.834 26.815-26.505.034-9.478-5.028-18.245-13.253-22.956h-.076V78.602h-4.341v13.221l1.162.573c10.869 5.616 15.127 18.979 9.511 29.847-5.616 10.866-18.98 15.124-29.847 9.508-7.36-3.804-11.984-11.399-11.981-19.685-.067-8.313 4.597-15.942 12.028-19.67l1.147-.573V28.985c.01-4.876 3.959-8.827 8.835-8.835 4.895.074 8.894 3.93 9.145 8.82v4.773h4.341v-4.758c-.009-7.358-5.973-13.322-13.331-13.33m-.155 123.38c-14.809.01-26.823-11.988-26.834-26.796-.006-9.562 5.081-18.405 13.349-23.207V28.985c0-7.533 6.107-13.64 13.64-13.64s13.64 6.107 13.64 13.64V34.1h-4.959v-5.115c-.246-4.723-4.107-8.45-8.836-8.525-4.704.008-8.516 3.82-8.525 8.525v63.023l-1.318.666c-7.325 3.676-11.924 11.196-11.857 19.391-.02 12.07 9.75 21.872 21.82 21.89 12.07.02 21.87-9.749 21.89-21.819.012-8.195-4.559-15.707-11.842-19.462l-1.332-.666V78.29h4.959v10.742c8.294 4.797 13.383 13.67 13.33 23.25-.245 14.816-12.306 26.713-27.125 26.753" mask="url(#vkg7kxk51b)"/>
                <path fill="#000" d="M84.134 112.065c0 5.565-4.51 10.075-10.075 10.075-5.564 0-10.075-4.51-10.075-10.075 0-5.564 4.511-10.075 10.075-10.075 5.556-.009 10.066 4.49 10.075 10.043v.032zm-10.075-12.4c-1.25.027-2.284-.967-2.309-2.216v-.062c-8.117 1.283-13.657 8.905-12.372 17.022 1.283 8.117 8.905 13.655 17.022 12.372 8.116-1.283 13.655-8.905 12.372-17.022-1.007-6.37-6.003-11.365-12.372-12.372.026 1.232-.95 2.252-2.182 2.28-.053.001-.106.001-.159-.002z" mask="url(#vkg7kxk51b)"/>
                <path fill="#000" d="M74.059 102.207c-5.478 0-9.92 4.44-9.92 9.92 0 5.479 4.442 9.92 9.92 9.92 5.479 0 9.92-4.441 9.92-9.92.026-5.487-4.402-9.956-9.888-9.982h-.032v.062zm0 20.15c-5.65 0-10.23-4.58-10.23-10.23s4.58-10.23 10.23-10.23 10.23 4.58 10.23 10.23c-.042 5.622-4.608 10.16-10.23 10.168v.062zm-2.465-24.8c-8.033 1.365-13.44 8.985-12.074 17.019 1.364 8.035 8.985 13.441 17.019 12.076 8.035-1.366 13.441-8.986 12.076-17.02-1.053-6.18-5.895-11.024-12.076-12.075-.01.58-.244 1.136-.651 1.55-.482.486-1.144.756-1.83.744-1.303.018-2.39-.992-2.464-2.294zM74.06 127.1c-8.296.047-15.057-6.64-15.105-14.934-.042-7.457 5.392-13.815 12.764-14.936h.17v.186c-.007 1.164.93 2.114 2.093 2.124h.062c.583-.008 1.138-.24 1.55-.651.397-.414.6-.978.558-1.55v-.186h.186c8.255.801 14.3 8.142 13.5 16.399-.777 8.015-7.737 13.992-15.778 13.548z" mask="url(#vkg7kxk51b)"/>
                <path fill="#000" d="M71.734 97.34c1.539-.27 3.112-.27 4.65 0 .007-.066.007-.135 0-.201V85.25c0-1.285-1.04-2.325-2.325-2.325-1.284 0-2.325 1.04-2.325 2.325v12.09z" mask="url(#vkg7kxk51b)"/>
                <path fill="#000" d="M74.059 83.08c-1.172-.026-2.144.904-2.17 2.075V97.2c.719-.105 1.444-.162 2.17-.17.727.006 1.452.064 2.17.17V85.25c.026-1.172-.904-2.144-2.076-2.17h-.094zm2.495 14.57h-.186c-1.537-.273-3.112-.273-4.65 0h-.17v-12.4c0-1.369 1.111-2.48 2.48-2.48 1.37 0 2.48 1.111 2.48 2.48v11.935c.015.04.015.084 0 .124v.341h.046z" mask="url(#vkg7kxk51b)"/>
                <path fill="#000" d="M71.75 97.387c-.01 1.25.996 2.27 2.247 2.279h.062c1.232.05 2.272-.905 2.323-2.138.002-.046.004-.094.002-.14-1.538-.272-3.112-.272-4.65 0h.016z" mask="url(#vkg7kxk51b)"/>
                <path fill="#000" d="M71.905 97.51c.065 1.136 1.016 2.02 2.154 2 .581-.007 1.138-.24 1.55-.652.346-.364.544-.844.558-1.348-1.432-.226-2.892-.226-4.324 0h.062zm2.154 2.31c-1.336.026-2.438-1.036-2.464-2.37v-.203h.14c1.538-.264 3.11-.264 4.65 0h.123v.14c.044.614-.156 1.222-.558 1.69-.497.502-1.184.773-1.89.742zM102.827 53.738c-.856 0-1.55-.694-1.55-1.55V26.923c0-.855.694-1.55 1.55-1.55.857 0 1.55.695 1.55 1.55v25.265c0 .856-.693 1.55-1.55 1.55" mask="url(#vkg7kxk51b)"/>
                <path fill="#000" d="M102.827 36.44c-.406 0-.797-.162-1.085-.449l-4-3.983c-.607-.608-.607-1.594 0-2.201.608-.608 1.594-.608 2.203 0l2.882 2.898 2.898-2.898c.61-.608 1.594-.608 2.201 0 .61.607.61 1.593 0 2.2l-3.999 3.984c-.293.29-.688.451-1.1.45" mask="url(#vkg7kxk51b)"/>
                <path fill="#000" d="M102.827 45.756c-.406-.002-.797-.163-1.085-.45l-6.65-6.65c-.607-.602-.612-1.583-.01-2.19l.01-.01c.605-.602 1.581-.602 2.186 0l5.549 5.564 5.564-5.564c.605-.602 1.581-.602 2.186 0 .609.603.612 1.584.009 2.192l-.01.009-6.649 6.65c-.293.29-.688.45-1.1.449M99.386 55.8c-.271.001-.54-.067-.775-.202l-21.886-12.71c-.744-.424-1.003-1.37-.58-2.114.004-.003.005-.006.007-.01.43-.739 1.38-.99 2.119-.56l.004.003 21.886 12.632c.736.437.98 1.388.543 2.124-.276.466-.775.753-1.318.76v.077z" mask="url(#vkg7kxk51b)"/>
                <path fill="#000" d="M78.957 48.546c-.856.112-1.64-.493-1.752-1.348-.111-.856.493-1.64 1.349-1.752l3.954-1.054-1.056-3.952c-.193-.834.324-1.668 1.158-1.862.794-.184 1.595.276 1.835 1.056l1.456 5.456c.107.397.051.821-.155 1.178-.205.35-.538.606-.93.713l-5.456 1.457c-.127.059-.264.096-.403.108" mask="url(#vkg7kxk51b)"/>
                <path fill="#000" d="M83.39 54.25c-.721.025-1.363-.451-1.55-1.147-.244-.822.226-1.683 1.046-1.927.032-.01.067-.018.1-.026l7.58-2.03-2.03-7.58c-.225-.826.262-1.677 1.088-1.904l.012-.003c.826-.217 1.671.276 1.891 1.1l2.434 9.084c.228.824-.258 1.678-1.082 1.906h-.003l-9.083 2.434-.403.093zM77.5 72.354c-.856.006-1.555-.683-1.56-1.539-.004-.561.297-1.082.785-1.36l21.886-12.632c.758-.397 1.696-.104 2.093.654.372.715.137 1.595-.543 2.028L78.275 72.137c-.234.14-.502.214-.775.217" mask="url(#vkg7kxk51b)"/>
                <path fill="#000" d="M82.955 73.811c-.133.023-.27.023-.403 0-.824-.22-1.316-1.065-1.1-1.891l1.055-3.953-3.952-1.053c-.825-.233-1.304-1.089-1.071-1.913.004-.019.01-.037.015-.056.227-.818 1.071-1.304 1.891-1.085l5.458 1.457c.39.107.724.363.928.713.206.356.262.78.157 1.178l-1.459 5.456c-.184.685-.809 1.156-1.519 1.147" mask="url(#vkg7kxk51b)"/>
                <path fill="#000" d="M90.04 72.85c-.134.015-.27.015-.404 0-.828-.219-1.32-1.065-1.103-1.894 0-.005.001-.008.003-.013l2.03-7.58-7.58-2.138c-.833-.194-1.35-1.028-1.157-1.862.194-.834 1.027-1.351 1.861-1.158.034.01.069.017.103.028l9.083 2.434c.818.226 1.303 1.07 1.085 1.89l-2.434 9.084c-.158.697-.772 1.198-1.488 1.209M102.827 86.97c-.856 0-1.55-.693-1.55-1.55V60.155c0-.855.694-1.55 1.55-1.55.857 0 1.55.695 1.55 1.55V85.42c0 .857-.693 1.55-1.55 1.55" mask="url(#vkg7kxk51b)"/>
                <path fill="#000" d="M106.826 82.988c-.412.001-.808-.162-1.1-.45l-2.9-2.9-2.88 2.9c-.61.608-1.596.608-2.203 0-.608-.609-.608-1.593 0-2.2l3.999-3.984c.604-.602 1.58-.602 2.185 0l4 3.983c.608.603.61 1.584.009 2.192l-.01.01c-.293.287-.688.45-1.1.449" mask="url(#vkg7kxk51b)"/>
                <path fill="#000" d="M109.476 76.337c-.407-.001-.796-.162-1.085-.45l-5.564-5.548-5.55 5.61c-.604.602-1.58.602-2.185 0-.607-.602-.612-1.583-.009-2.19l.01-.01 6.649-6.65c.604-.601 1.58-.601 2.185 0l6.65 6.65c.609.603.61 1.584.01 2.192-.295.296-.694.461-1.11.458v-.062zM128.17 72.354c-.274-.003-.54-.077-.775-.217L105.51 59.505c-.724-.46-.938-1.419-.477-2.14.432-.68 1.313-.915 2.027-.542l21.886 12.633c.744.421 1.005 1.367.584 2.112-.277.49-.798.79-1.359.786" mask="url(#vkg7kxk51b)"/>
                <path fill="#000" d="M122.713 73.811c-.72.025-1.362-.451-1.55-1.147l-1.455-5.456c-.219-.822.263-1.665 1.083-1.891l5.456-1.457c.822-.219 1.665.267 1.891 1.085.227.826-.257 1.679-1.082 1.907h-.003l-3.952 1.053 1.054 3.953c.215.826-.276 1.67-1.1 1.891-.11.037-.225.059-.342.062" mask="url(#vkg7kxk51b)"/>
                <path fill="#000" d="M115.63 72.85c-.721.025-1.363-.451-1.55-1.147l-2.433-9.083c-.218-.822.267-1.665 1.085-1.891l9.082-2.434c.824-.228 1.679.258 1.906 1.084l.002.001c.223.826-.262 1.679-1.088 1.904l-.013.003-7.58 2.03 2.031 7.58c.224.826-.262 1.678-1.088 1.903l-.012.003c-.113.027-.228.042-.343.047M106.3 55.8c-.858 0-1.55-.695-1.55-1.55 0-.547.289-1.054.759-1.333l21.886-12.633c.737-.432 1.688-.184 2.122.554v.004c.43.741.178 1.69-.563 2.12-.003 0-.006.002-.01.004L107.06 55.52c-.224.158-.485.254-.76.279" mask="url(#vkg7kxk51b)"/>
                <path fill="#000" d="M126.713 48.546c-.134.022-.27.022-.403 0l-5.41-1.519c-.818-.226-1.304-1.07-1.085-1.89l1.457-5.457c.251-.818 1.118-1.278 1.936-1.027.78.238 1.24 1.04 1.055 1.833l-1.053 3.953 3.952 1.054c.857.111 1.459.894 1.349 1.751-.112.856-.896 1.46-1.752 1.349l-.046-.047z" mask="url(#vkg7kxk51b)"/>
                <path fill="#000" d="M122.279 54.25h-.403l-9.083-2.434c-.825-.226-1.311-1.078-1.085-1.903l.001-.003 2.432-9.083c.22-.825 1.067-1.318 1.893-1.1.828.218 1.32 1.066 1.104 1.893-.002.004-.004.008-.004.013l-2.032 7.58 7.581 1.937c.827.218 1.321 1.066 1.104 1.894l-.003.012c-.166.698-.787 1.192-1.505 1.194" mask="url(#vkg7kxk51b)"/>
            </g>
        </g>
    </g>
</svg>
