<svg xmlns="http://www.w3.org/2000/svg" xmlns:xlink="http://www.w3.org/1999/xlink" width="155" height="155" viewBox="0 0 155 155">
    <defs>
        <path id="953tdvbh7a" d="M0 155L155 155 155 0 0 0z"/>
    </defs>
    <g fill="none" fill-rule="evenodd">
        <g>
            <g transform="translate(-420 -16162) translate(420 16162)">
                <path fill="#000" d="M42.16 64.17c-7.362 0-13.33 5.969-13.33 13.33 0 7.362 5.968 13.33 13.33 13.33 7.363 0 13.33-5.968 13.33-13.33-.009-7.358-5.972-13.321-13.33-13.33m0 29.14c-8.73 0-15.81-7.08-15.81-15.81 0-8.731 7.08-15.81 15.81-15.81 8.731 0 15.81 7.079 15.81 15.81-.017 8.725-7.086 15.793-15.81 15.81"/>
                <path fill="#000" d="M42.16 56.807c-11.428 0-20.692 9.265-20.692 20.693 0 11.43 9.264 20.692 20.692 20.692S62.853 88.93 62.853 77.5c-.017-11.42-9.272-20.676-20.693-20.693m0 46.5c-14.253 0-25.807-11.554-25.807-25.807 0-14.253 11.554-25.808 25.807-25.808 14.253 0 25.808 11.555 25.808 25.808-.017 14.246-11.562 25.79-25.808 25.807"/>
                <path fill="#000" d="M42.16 71.3c-3.424 0-6.2 2.776-6.2 6.2 0 3.424 2.776 6.2 6.2 6.2 3.424 0 6.2-2.776 6.2-6.2 0-3.424-2.776-6.2-6.2-6.2m0 14.88c-4.794 0-8.68-3.886-8.68-8.68s3.886-8.68 8.68-8.68 8.68 3.886 8.68 8.68-3.886 8.68-8.68 8.68M112.996 56.807c-11.429 0-20.694 9.265-20.694 20.693 0 11.43 9.265 20.692 20.694 20.692 11.428 0 20.692-9.263 20.692-20.692-.017-11.42-9.272-20.676-20.692-20.693m0 46.5c-14.254 0-25.808-11.554-25.808-25.807 0-14.253 11.554-25.808 25.808-25.808 14.252 0 25.806 11.555 25.806 25.808-.016 14.246-11.562 25.79-25.806 25.807"/>
                <path fill="#000" d="M112.996 64.48c-7.363 0-13.332 5.969-13.332 13.33 0 7.362 5.97 13.33 13.332 13.33 7.36 0 13.33-5.968 13.33-13.33-.01-7.358-5.973-13.322-13.33-13.33m0 29.14c-8.733 0-15.81-7.079-15.81-15.81 0-8.731 7.077-15.81 15.81-15.81 8.73 0 15.808 7.079 15.808 15.81-.017 8.725-7.085 15.793-15.808 15.81"/>
                <path fill="#000" d="M112.996 71.61c-3.426 0-6.2 2.776-6.2 6.2 0 3.424 2.774 6.2 6.2 6.2 3.424 0 6.2-2.776 6.2-6.2 0-3.424-2.776-6.2-6.2-6.2m0 14.88c-4.795 0-8.682-3.887-8.682-8.68 0-4.794 3.887-8.68 8.682-8.68 4.794 0 8.68 3.886 8.68 8.68 0 4.793-3.886 8.68-8.68 8.68"/>
                <mask id="9j8qcafiob" fill="#fff">
                    <use xlink:href="#953tdvbh7a"/>
                </mask>
                <path fill="#000" d="M10.23 78.74L144.77 78.74 144.77 76.26 10.23 76.26z" mask="url(#9j8qcafiob)"/>
                <path fill="#000" d="M76.26 139.5L78.74 139.5 78.74 15.5 76.26 15.5zM21.002 35.96L15.887 35.96 15.887 15.578 39.37 15.578 39.37 20.693 21.002 20.693zM139.423 35.96L134.308 35.96 134.308 20.693 116.095 20.693 116.095 15.578 139.423 15.578zM39.215 139.422L15.732 139.422 15.732 119.041 20.847 119.041 20.847 134.307 39.215 134.307zM139.267 139.422L115.939 139.422 115.939 134.307 134.152 134.307 134.152 119.041 139.267 119.041z" mask="url(#9j8qcafiob)"/>
                <path fill="#000" d="M10.23 78.74L144.77 78.74 144.77 76.26 10.23 76.26z" mask="url(#9j8qcafiob)"/>
                <path fill="#000" d="M76.26 139.5L78.74 139.5 78.74 15.5 76.26 15.5zM21.002 35.96L15.887 35.96 15.887 15.578 39.37 15.578 39.37 20.693 21.002 20.693zM139.423 35.96L134.308 35.96 134.308 20.693 116.095 20.693 116.095 15.578 139.423 15.578zM39.215 139.422L15.732 139.422 15.732 119.041 20.847 119.041 20.847 134.307 39.215 134.307zM139.267 139.422L115.939 139.422 115.939 134.307 134.152 134.307 134.152 119.041 139.267 119.041z" mask="url(#9j8qcafiob)"/>
            </g>
        </g>
    </g>
</svg>
