<svg xmlns="http://www.w3.org/2000/svg" xmlns:xlink="http://www.w3.org/1999/xlink" width="155" height="155" viewBox="0 0 155 155">
    <defs>
        <path id="f9rxu8zvja" d="M0 154.616L154.616 154.616 154.616 0 0 0z"/>
    </defs>
    <g fill="none" fill-rule="evenodd">
        <g>
            <g transform="translate(-1038 -15867) translate(1038 15867)">
                <mask id="fahi5kldzb" fill="#fff">
                    <use xlink:href="#f9rxu8zvja"/>
                </mask>
                <path fill="#000" d="M131.973 127.662H23.693c-4.633 0-8.495-4.788-8.495-9.422v-6.178c-.015-1.349 1.063-2.453 2.41-2.472H60.61c.645.027 1.255.305 1.698.773l3.09 3.243H89.03c1.365.002 2.471 1.111 2.468 2.475-.001 1.364-1.106 2.467-2.468 2.47H64.473c-.646-.028-1.256-.306-1.7-.773l-3.088-3.245H19.988v3.707c0 2.008 1.7 4.634 3.706 4.634h108.279c2.008 0 3.705-2.626 3.705-4.634v-3.707H95.056c-1.365.002-2.472-1.103-2.476-2.468-.001-1.364 1.103-2.472 2.469-2.475H137.996c1.348-.017 2.454 1.062 2.472 2.41v6.24c0 4.634-3.707 9.422-8.495 9.422" mask="url(#fahi5kldzb)"/>
                <path fill="#000" d="M17.67 109.822c-1.228 0-2.224.997-2.224 2.225v6.194c0 4.247 3.599 9.267 8.264 9.267h108.278c4.726 0 8.263-4.85 8.263-9.267v-6.179c.01-1.23-.98-2.23-2.209-2.24H95.056c-1.238 0-2.24 1.003-2.24 2.24 0 1.237 1.002 2.24 2.24 2.24h40.87v3.939c0 2.193-1.822 4.865-3.938 4.865H23.694c-2.131 0-3.938-2.672-3.938-4.865v-3.94h40.02l3.09 3.244c.405.424.959.674 1.544.696h24.56c1.236 0 2.24-1.003 2.24-2.24 0-1.237-1.004-2.24-2.24-2.24H65.29l-3.088-3.244c-.408-.42-.961-.668-1.545-.695H17.67zm114.302 18.072H23.694c-4.124 0-8.727-4.124-8.727-9.653v-6.179c-.017-1.477 1.165-2.686 2.641-2.703H60.61c.703.026 1.37.326 1.854.834l3.09 3.182h23.478c1.493 0 2.703 1.21 2.703 2.703 0 1.494-1.21 2.703-2.703 2.703h-24.56c-.707-.03-1.374-.327-1.869-.834l-3.089-3.182H20.219v3.476c0 1.946 1.637 4.402 3.475 4.402h108.278c1.838 0 3.475-2.456 3.475-4.402v-3.476H95.056c-1.494 0-2.703-1.21-2.703-2.703 0-1.494 1.209-2.703 2.703-2.703h42.94c1.475-.019 2.686 1.165 2.703 2.641V118.241c.114 5.023-3.716 9.261-8.727 9.653zM122.24 41.473H23.17c-1.364 0-2.472-1.106-2.472-2.471 0-1.366 1.108-2.472 2.472-2.472h99.01c1.319.051 2.35 1.153 2.317 2.472.086 1.277-.88 2.38-2.157 2.466-.032.003-.066.005-.098.005" mask="url(#fahi5kldzb)"/>
                <path fill="#000" d="M23.17 36.762c-1.238 0-2.24 1.004-2.239 2.241 0 1.236 1.003 2.237 2.238 2.239h99.01c1.153.003 2.087-.929 2.092-2.08 0-.053-.003-.108-.006-.16.035-1.191-.895-2.19-2.086-2.24H23.17zm99.071 4.943H23.17c-1.492 0-2.703-1.21-2.703-2.703 0-1.494 1.211-2.703 2.703-2.703h99.01c1.45.042 2.59 1.251 2.549 2.7v.003c.086 1.404-.984 2.613-2.39 2.698l-.097.005z" mask="url(#fahi5kldzb)"/>
                <path fill="#000" d="M134.597 97.698V34.059c.01-4.77-3.849-8.642-8.619-8.65H29.254c-4.768-.009-8.64 3.85-8.65 8.62V64.952h4.943V34.059c.034-2.119 1.744-3.829 3.862-3.861h96.693c2.12.032 3.83 1.742 3.862 3.861v63.639c-.017 1.347 1.06 2.454 2.41 2.471h.063c1.13.084 2.116-.766 2.2-1.897.013-.193 0-.386-.04-.574" mask="url(#fahi5kldzb)"/>
                <path fill="#000" d="M29.348 29.965h96.693c2.247.033 4.06 1.848 4.093 4.094v63.64c-.017 1.218.958 2.22 2.178 2.238h.062c.624.02 1.22-.25 1.622-.726.35-.433.465-1.01.309-1.545V34.059c-.01-4.645-3.772-8.41-8.419-8.419h-96.63c-4.65 0-8.42 3.77-8.42 8.419v30.66h4.48V34.06c.025-2.228 1.806-4.035 4.032-4.094m103.088 70.437c-1.477.006-2.679-1.182-2.688-2.659V34.058c-.032-1.99-1.64-3.595-3.63-3.63h-96.77c-1.994.025-3.605 1.636-3.63 3.63v31.125h-5.406V34.059c.007-4.902 3.98-8.873 8.881-8.882h96.693c4.903.01 8.873 3.98 8.882 8.882v63.607c.16.64.019 1.317-.386 1.84-.482.574-1.196.902-1.946.896" mask="url(#fahi5kldzb)"/>
                <path fill="#000" d="M77.123 93.881h-7.26c-1.28 0-2.317-1.036-2.317-2.316 0-1.28 1.037-2.317 2.317-2.317h7.26c.603 0 1.7-1.545 1.7-4.17s-1.283-4.17-1.7-4.17h-7.26c-1.28 0-2.317-1.038-2.317-2.318s1.037-2.317 2.317-2.317h7.26c3.553 0 6.333 3.877 6.333 8.806 0 4.925-2.72 8.802-6.333 8.802M16.435 90.561h6.734V79.593h-6.796l.062 10.968zm9.113 4.634h-11.43c-1.28 0-2.317-1.038-2.317-2.317V77.231c0-1.279 1.036-2.317 2.317-2.317h11.43c1.254.034 2.255 1.062 2.255 2.317v15.601c.025 1.273-.98 2.33-2.255 2.363z" mask="url(#fahi5kldzb)"/>
                <path fill="#000" d="M27.803 95.844h34.831c2.693.01 4.886-2.158 4.912-4.852V78.9c-.066-2.627-2.25-4.701-4.876-4.635l-.036.002h-34.83v21.578zm34.831 4.634h-37.07c-1.28 0-2.317-1.038-2.317-2.317V71.995c0-1.28 1.037-2.317 2.316-2.317h37.071c5.186-.086 9.46 4.049 9.544 9.235.002.01.002.022.002.033V91.04c-.05 5.233-4.313 9.447-9.546 9.438zM94.051 100.015c3.491-.019 6.318-2.844 6.335-6.335-.074-3.466-2.867-6.257-6.335-6.331H81.078v-4.481h12.973c5.972 0 10.813 4.84 10.813 10.812 0 5.973-4.841 10.813-10.813 10.813H74.513v-4.478h19.538z" mask="url(#fahi5kldzb)"/>
            </g>
        </g>
    </g>
</svg>
