<svg xmlns="http://www.w3.org/2000/svg" xmlns:xlink="http://www.w3.org/1999/xlink" width="155" height="155" viewBox="0 0 155 155">
    <defs>
        <path id="fr5t8nprsa" d="M0 155L155 155 155 0 0 0z"/>
    </defs>
    <g fill="none" fill-rule="evenodd">
        <g>
            <g transform="translate(-729 -15867) translate(729 15867)">
                <mask id="b5xig3ugrb" fill="#fff">
                    <use xlink:href="#fr5t8nprsa"/>
                </mask>
                <path fill="#000" d="M53.305 101.99c-.675 0-1.322-.268-1.798-.744-12.341-12.352-12.341-32.365 0-44.717 1.052-.943 2.669-.856 3.611.197.871.97.871 2.442 0 3.414-10.34 10.359-10.34 27.136 0 37.493.994 1.006.984 2.626-.022 3.618-.475.473-1.12.738-1.791.74" mask="url(#b5xig3ugrb)"/>
                <path fill="#000" d="M59.086 96.225c-.652-.017-1.274-.284-1.736-.744-9.13-9.03-9.21-23.75-.181-32.88l.181-.183c.99-.997 2.598-1.003 3.595-.016l.017.016c.995.998.995 2.613 0 3.613-3.49 3.43-5.453 8.123-5.44 13.018-.002 4.815 1.929 9.429 5.362 12.805 1.01.986 1.03 2.605.042 3.616-.484.494-1.149.773-1.84.77v-.015z" mask="url(#b5xig3ugrb)"/>
                <path fill="#000" d="M65.301 90.008c-.69.002-1.35-.279-1.829-.775-5.648-5.747-5.648-14.96 0-20.708.99-.997 2.598-1.004 3.596-.017l.016.017c.995.998.995 2.613 0 3.612-3.688 3.75-3.688 9.766 0 13.516.996 1.004.996 2.624 0 3.627-.48.46-1.118.72-1.783.728M80.073 60.156c-.096.02-.178.074-.232.154-.21.413-.306.873-.28 1.334v36.363c-.026.461.07.922.28 1.332.028.052.071.097.124.124h.108c.408-.044.799-.195 1.13-.433l18.354-11.61c.406-.264.88-.403 1.364-.403h6.696V72.85c.014-.051.014-.104 0-.155h-6.588c-.482-.002-.953-.136-1.364-.387L81.203 60.605c-.328-.246-.719-.401-1.13-.45zm0 44.454c-1.853.006-3.577-.958-4.541-2.543-.744-1.22-1.12-2.63-1.085-4.06V61.643c-.033-1.427.338-2.834 1.07-4.06.469-.734 1.106-1.346 1.86-1.783 2.103-1.099 4.648-.899 6.556.512l17.84 11.284h5.844c1.424.01 2.779.616 3.735 1.673.902.986 1.4 2.276 1.395 3.612v13.95c.002 1.33-.496 2.613-1.395 3.596-.953 1.062-2.31 1.67-3.735 1.674h-5.952L83.933 103.37c-1.091.723-2.352 1.145-3.658 1.224l-.202.016z" mask="url(#b5xig3ugrb)"/>
                <path fill="#000" d="M134.416 77.5c-.758 42.423-46.981 70.912-84.816 49.6-36.456-20.507-38.394-74.028-3.41-97.123 21.498-14.198 49.818-11.64 69.176 5.022 2.263 1.953 5.565-1.333 3.286-3.286-17.932-15.5-42.873-20.15-64.914-11.005-19.987 8.458-34.097 26.754-37.2 48.236-6.432 46.22 41.185 83.343 84.446 65.456 22.902-9.678 37.866-32.037 38.082-56.9 0-2.992-4.65-2.992-4.65 0" mask="url(#b5xig3ugrb)"/>
                <path fill="#000" d="M35.65 77.5c.419-18.817 12.602-35.557 31-40.455 22.31-6.039 45.293 7.153 51.33 29.462 3.926 14.504-.225 29.999-10.875 40.598-15.655 15.717-40.719 15.872-57.505 1.69-2.279-1.938-5.611 1.348-3.317 3.318 27.807 23.496 72.276 8.787 77.33-28.274 4.743-34.797-31-62.697-63.55-49.491C42.61 41.618 31.177 58.596 31 77.5c-.078 3.1 4.65 3.1 4.65 0" mask="url(#b5xig3ugrb)"/>
            </g>
        </g>
    </g>
</svg>
