<?xml version="1.0" encoding="UTF-8"?>
<svg width="155px" height="155px" viewBox="0 0 155 155" version="1.1" xmlns="http://www.w3.org/2000/svg" xmlns:xlink="http://www.w3.org/1999/xlink">
    <title>0D6E39B7-7782-476F-B1B7-F80D9ED1C3D6</title>
    <defs>
        <polygon id="path-1" points="0 155 155 155 155 0 0 0"></polygon>
    </defs>
    <g id="Page-1" stroke="none" stroke-width="1" fill="none" fill-rule="evenodd">
        <g id="W1920" transform="translate(-1347.000000, -15867.000000)">
            <g id="counter-balance" transform="translate(1347.000000, 15867.000000)">
                <mask id="mask-2" fill="white">
                    <use xlink:href="#path-1"></use>
                </mask>
                <g id="Clip-16" opacity="0"></g>
                <polygon id="Fill-15" fill="#000000" opacity="0" mask="url(#mask-2)" points="0 155 155 155 155 0 0 0"></polygon>
                <path d="M36.192345,71.76531 C34.780295,71.76531 33.634845,70.61986 33.634845,69.20781 L33.634845,36.19281 C33.634845,34.78076 34.778745,33.6337584 36.190795,33.6337584 C37.602845,33.63221 38.748295,34.77611 38.749845,36.18971 L38.749845,36.19281 L38.749845,69.20781 C38.749845,70.61986 37.604395,71.76531 36.192345,71.76531" id="Fill-1" fill="#000000" mask="url(#mask-2)"></path>
                <path d="M49.367345,52.08 C48.685345,52.08465 48.029695,51.81185 47.553845,51.3205 L36.192345,39.835 L24.830845,51.3205 C23.891545,52.37605 22.274895,52.4706 21.220895,51.5313 C20.165345,50.59355 20.070795,48.9769 21.008545,47.92135 C21.070545,47.8516 21.135645,47.7865 21.203845,47.7245 L34.378845,34.3945 C35.395645,33.4304 36.989045,33.4304 38.005845,34.3945 L51.180845,47.7245 C52.182145,48.70875 52.197645,50.31765 51.213395,51.31895 C50.726695,51.81495 50.060195,52.0893 49.367345,52.08" id="Fill-3" fill="#000000" mask="url(#mask-2)"></path>
                <path d="M115.3975,71.76531 C113.98545,71.76531 112.84,70.61986 112.84,69.20781 L112.84,36.19281 C112.84,34.78076 113.98545,33.63531 115.3975,33.63531 C116.80955,33.63531 117.955,34.78076 117.955,36.19281 L117.955,69.20781 C117.955,70.61986 116.80955,71.76531 115.3975,71.76531" id="Fill-5" fill="#000000" mask="url(#mask-2)"></path>
                <path d="M115.3975,71.765336 C114.7155,71.76841 114.05985,71.49406 113.584,71.00581 L100.409,57.67581 C99.47125,56.62026 99.56425,55.00361 100.62135,54.06586 C101.5963,53.19786 103.0688,53.20406 104.036,54.07981 L115.3975,65.58081 L126.759,54.07981 C127.8068,53.13276 129.42345,53.21336 130.3705,54.26116 C131.2478,55.22836 131.25245,56.69931 130.386,57.67581 L117.211,71.00581 C116.73515,71.49406 116.0795,71.76841 115.3975,71.765336" id="Fill-7" fill="#000000" mask="url(#mask-2)"></path>
                <path d="M137.00512,99.04469 L18.21157,99.04469 C16.79952,99.04469 15.65562,97.89924 15.65562,96.48719 C15.65717,95.07359 16.80107,93.93124 18.21157,93.9296884 L137.00512,93.9296884 C138.41717,93.92814 139.562622,95.07204 139.562622,96.48719 C139.56417,97.89924 138.42027,99.04469 137.00822,99.04469 L137.00512,99.04469 Z" id="Fill-9" fill="#000000" mask="url(#mask-2)"></path>
                <path d="M126.71219,85.18862 C125.85659,85.29867 125.07229,84.69572 124.96069,83.84012 C124.85064,82.98297 125.45359,82.19867 126.30919,82.08862 L134.89619,79.80857 C135.72234,79.58382 136.57329,80.07052 136.79959,80.89667 C136.80114,80.90132 136.80269,80.90597 136.80269,80.90907 C137.01969,81.73522 136.52679,82.58152 135.70219,82.80162 L127.11519,85.08012 L126.71219,85.18862 Z M111.21219,89.28062 C110.35659,89.39222 109.57229,88.78772 109.46069,87.93212 C109.35064,87.07652 109.95204,86.29222 110.80919,86.18062 L119.39619,83.90212 C120.22234,83.67582 121.07329,84.16407 121.29959,84.98867 C121.30114,84.99332 121.30269,84.99797 121.30269,85.00262 C121.51814,85.83032 121.02059,86.67662 120.19289,86.89207 C120.18979,86.89207 120.18824,86.89362 120.18669,86.89362 L111.61519,89.17057 L111.21219,89.28062 Z M95.71219,93.38812 C94.85659,93.49817 94.07229,92.89522 93.96069,92.03962 C93.85064,91.18247 94.45359,90.39817 95.30919,90.28812 L103.89619,88.00807 C104.72544,87.79107 105.57639,88.28707 105.79494,89.11632 C106.01349,89.94712 105.51749,90.79807 104.68669,91.01662 L96.11519,93.27962 C95.91679,93.36797 95.69669,93.40672 95.48124,93.38812 L95.71219,93.38812 Z M80.21219,97.48012 C79.35659,97.59017 78.57229,96.98722 78.46069,96.13162 C78.34909,95.27602 78.95359,94.49017 79.80919,94.38012 L88.27219,92.14657 C89.09834,91.92337 89.95084,92.40852 90.17559,93.23467 C90.17714,93.23932 90.17869,93.24397 90.18024,93.24707 C90.40344,94.07322 89.91829,94.92572 89.09214,95.15202 C89.08749,95.15202 89.08284,95.15357 89.07819,95.15512 L80.49274,97.41812 C80.34239,97.46772 80.18274,97.48787 80.02619,97.48012 L80.21219,97.48012 Z M64.71219,101.57057 C63.85659,101.68372 63.07229,101.07922 62.96069,100.22207 C62.84909,99.36647 63.45359,98.58372 64.30919,98.47057 L72.77219,96.24012 C73.62314,96.14557 74.38884,96.76092 74.48184,97.61187 C74.55624,98.28457 74.18269,98.92782 73.56269,99.20062 L65.02219,101.52562 L64.71219,101.57057 Z M49.21219,105.66412 C48.35659,105.77417 47.57229,105.17122 47.46069,104.31562 C47.34909,103.45847 47.95359,102.67417 48.80919,102.56412 L57.27219,100.34607 C58.08594,100.07792 58.96169,100.51967 59.23139,101.33187 C59.49954,102.14407 59.05934,103.02137 58.24714,103.29107 C58.18669,103.30967 58.12469,103.32517 58.06269,103.33912 L49.52219,105.61762 L49.21219,105.66412 Z M33.71219,109.75612 C32.99144,109.77937 32.34974,109.30507 32.16219,108.60757 C31.93744,107.78297 32.42414,106.93047 33.25029,106.70572 C33.25494,106.70417 33.25959,106.70262 33.26269,106.70262 L41.84969,104.43962 C42.66189,104.16992 43.53919,104.61012 43.80889,105.42387 C44.07704,106.23607 43.63684,107.11337 42.82309,107.38152 C42.76419,107.40167 42.70219,107.41872 42.64019,107.43112 L34.02219,109.70807 L33.71219,109.75612 Z M18.21219,113.84657 C17.35659,113.95972 16.57229,113.35522 16.46069,112.49962 C16.34909,111.64247 16.95359,110.85972 17.80919,110.74657 L26.39619,108.50062 C27.22234,108.27587 28.07484,108.76257 28.29959,109.58717 C28.30114,109.59182 28.30114,109.59647 28.30269,109.60112 C28.57549,110.41177 28.13839,111.29062 27.32774,111.56497 C27.28589,111.57737 27.24559,111.58977 27.20219,111.60062 L18.61519,113.87912 L18.21219,113.84657 Z" id="Fill-11" fill="#000000" mask="url(#mask-2)"></path>
                <path d="M77.88719,104.31531 C70.56809,104.31531 64.63469,110.24871 64.63469,117.56781 C64.63469,124.88536 70.56809,130.82031 77.88719,130.82031 C85.20784,130.82031 91.13969,124.88536 91.13969,117.56781 C91.12264,110.25491 85.20009,104.33236 77.88719,104.31531 M77.88719,135.93376 C67.74399,135.93376 59.51969,127.71256 59.51969,117.56781 C59.51969,107.42306 67.74399,99.20031 77.88719,99.20031 C88.03194,99.20031 96.25624,107.42306 96.25624,117.56781 C96.24694,127.70791 88.02884,135.92756 77.88719,135.93376" id="Fill-13" fill="#000000" mask="url(#mask-2)"></path>
            </g>
        </g>
    </g>
</svg>