<svg xmlns="http://www.w3.org/2000/svg" xmlns:xlink="http://www.w3.org/1999/xlink" width="154" height="154" viewBox="0 0 154 154">
    <defs>
        <path id="4ir6uc46sa" d="M0 153.619L153.619 153.619 153.619 0 0 0z"/>
    </defs>
    <g fill="none" fill-rule="evenodd">
        <g>
            <g transform="translate(-1038 -16162) translate(1038 16162)">
                <mask id="83w778hbwb" fill="#fff">
                    <use xlink:href="#4ir6uc46sa"/>
                </mask>
                <path fill="#000" d="M31.537 75.72c-.203 0-.405-.032-.599-.092-5.673-1.55-9.019-7.406-7.469-13.08 1.177-4.31 4.92-7.428 9.372-7.807 3.327-.205 6.567 1.11 8.81 3.576.98.783 1.138 2.213.355 3.192-.784.98-2.213 1.139-3.192.356-.172-.138-.322-.299-.448-.479-1.307-1.416-3.187-2.16-5.11-2.025-3.364.316-5.864 3.258-5.633 6.63.244 2.527 2.02 4.645 4.466 5.325 1.19.354 1.873 1.599 1.535 2.793-.284.924-1.12 1.57-2.087 1.611" mask="url(#83w778hbwb)"/>
                <path fill="#000" d="M33.762 84.16c-10.33-.084-18.64-8.526-18.555-18.859.077-9.619 7.44-17.611 17.02-18.478 5.532-.458 10.984 1.547 14.902 5.478.992.992.992 2.6 0 3.591-.991.992-2.6.992-3.59 0-2.855-2.872-6.829-4.349-10.866-4.036-7.51.64-13.079 7.245-12.439 14.756.64 7.509 7.247 13.078 14.756 12.438 1.398-.021 2.55 1.096 2.57 2.494.02 1.262-.893 2.344-2.14 2.54-.551.055-1.104.083-1.658.077" mask="url(#83w778hbwb)"/>
                <path fill="#000" d="M59.928 71.438c.92-.767 1.381.154 1.841.768 1.116.891 2.052 1.984 2.763 3.223-.52 1.519-1.136 3.006-1.842 4.45-.46.767-1.227.307-1.534-.155-1.415-1.628-2.416-3.577-2.916-5.677-.46-1.227.92-1.841 1.688-2.609m45.427 9.976c-1.534 8.285-4.452 16.267-5.833 24.554-.407 2.437-.663 4.897-.767 7.366 0 1.382-.614 1.842-1.84 1.687H83.103c-4.452 0-8.903-.152-13.353 0-1.688 0-2.149-.459-2.149-2.147 0-4.297 0-4.297-4.143-5.832-5.534-1.746-10.198-5.532-13.045-10.589-1.194-2.05-1.83-4.38-1.842-6.754.085-6.7-2.076-13.238-6.138-18.568-.46-.613-1.535-1.38-.92-2.301.613-.921 1.687-.768 2.608-.768 1.93.048 3.76.878 5.064 2.302 2.856 2.661 5.108 5.907 6.6 9.515 1.687 3.53 4.296 5.216 7.52 5.064 1.54.039 2.944-.876 3.529-2.302l2.762-6.906c.636-1.158.307-2.607-.767-3.376-2.149-1.995-4.144-4.143-6.292-6.292-1.688-1.688-2.763-1.535-4.45.154-2.763 3.069-2.763 3.069-6.14.46-.473-.41-.988-.769-1.534-1.074-1.074-.614-1.074-1.228-.614-2.302 2.149-4.45 6.139-7.06 9.822-9.822.92-.614 1.688-.153 2.455.307 3.223 1.841 6.6 3.53 9.822 5.371 1.228.768 2.456 1.228 3.683.154.901-.933.877-2.42-.056-3.32-.079-.077-.162-.147-.25-.21-.5-.597-.723-1.378-.614-2.149V29.39c-.094-1.06.118-2.127.613-3.07.458-1.233 1.603-2.077 2.916-2.148 1.234-.123 2.408.557 2.916 1.688.645 1.345 1.01 2.807 1.074 4.297.768 10.59 1.535 21.025 2.302 31.614.155 1.535.614 2.916 2.457 2.762 1.84-.153 2.454-1.534 2.147-3.222-1.841-10.436 1.382-20.411 2.61-30.693.143-.92.455-1.804.92-2.61.85-1.466 2.727-1.968 4.194-1.118.412.238.761.568 1.024.965.767 1.122 1.096 2.488.92 3.837-.767 10.589-1.38 21.025-2.148 31.614 0 .598 0 1.212-.092 1.841h4.604c.23-3.315.4-6.69.798-9.975.399-3.284 1.076-6.445 1.688-9.668.23-1.254.7-2.453 1.381-3.53.336-.855 1.265-1.32 2.149-1.074 1.074.307 1.074 1.228 1.074 2.148-.522 7.32-.612 14.733-1.043 22.1h4.358c.445-7.674.537-15.347.982-23.02.307-4.297-3.683-6.906-8.134-5.679-1.534.46-1.841.154-1.534-1.38.486-2.44.434-4.953-.154-7.367-1.065-4.251-5.376-6.832-9.625-5.767-2.448.613-4.458 2.355-5.413 4.693-.308.613-.462 1.38-.922 2.302-.327-1.623-.789-3.214-1.38-4.758-1.137-2.968-4.037-4.882-7.214-4.757-3.358-.028-6.37 2.062-7.52 5.217-.565 1.732-.824 3.55-.767 5.372v19.95c0 1.842-.46 2.302-2.149 1.381-1.688-.92-3.836-1.841-5.831-2.762-1.385-.675-3.024-.559-4.297.307-4.451 3.07-8.901 5.985-11.357 10.896-.882 2.18-2.88 3.71-5.218 3.99-4.91.921-6.292 4.911-3.683 9.055.46.767 1.074 1.534 1.535 2.302 2.785 3.904 4.335 8.555 4.45 13.351-.035 3.926.97 7.792 2.916 11.202 3.175 5.405 8.186 9.488 14.119 11.51 2.609 1.075 2.916 2.456.767 4.298-.747.652-1.145 1.619-1.074 2.607v13.045c0 2.15.92 3.07 3.07 3.07h39.286c2.15 0 3.07-.92 3.07-3.07v-12.966c0-.768 0-1.688-.614-1.997-2.763-1.38-1.688-3.682-1.535-5.83.614-7.366 3.07-14.426 4.911-21.485 1.004-3.863 1.768-7.784 2.287-11.74h-4.42c-.184 1.442-.445 2.868-.72 4.297" mask="url(#83w778hbwb)"/>
                <path fill="#000" d="M60.005 71.53c-.193.186-.399.36-.614.522-.706.567-1.366 1.09-1.043 1.949.495 2.087 1.485 4.024 2.885 5.647.18.292.486.484.829.522.224-.015.423-.15.521-.353.511-.988.947-2.015 1.305-3.07.169-.429.322-.874.506-1.32-.522-.972-1.23-1.833-2.087-2.531l-.63-.614c-.065-.072-.127-.149-.183-.23-.246-.369-.522-.737-.86-.783-.238-.005-.466.09-.629.26zm2.057 8.932c-.41-.037-.779-.266-.998-.614-1.426-1.636-2.432-3.596-2.931-5.71-.384-1.012.414-1.641 1.105-2.194l.614-.522c.22-.214.521-.325.828-.306.445 0 .752.49 1.029.874l.153.215c.184.2.399.4.614.599.895.727 1.631 1.631 2.164 2.655v.092c-.184.445-.353.905-.522 1.35-.36 1.056-.803 2.081-1.32 3.07-.141.271-.416.446-.721.46l-.015.03zm-1.934-32.228c-.866.03-1.708.291-2.44.752l-.583.383c-4.313 2.978-8.395 5.786-10.743 10.451-.898 2.22-2.933 3.773-5.31 4.052-1.915.213-3.6 1.363-4.496 3.07-.708 1.959-.372 4.143.89 5.8.23.384.506.768.767 1.151.26.384.537.768.767 1.151 2.81 3.918 4.373 8.594 4.482 13.413-.045 3.906.957 7.753 2.9 11.142 3.154 5.388 8.144 9.458 14.057 11.464 1.382.567 2.118 1.229 2.241 1.98.123.751-.353 1.534-1.443 2.516-.738.657-1.114 1.627-1.012 2.61v13.045c0 2.07.874 2.96 2.946 2.96h39.287c2.072 0 2.947-.89 2.947-2.96V118.17c0-.723 0-1.535-.537-1.89-2.302-1.15-2.026-2.946-1.765-4.604 0-.43.138-.844.169-1.273.641-5.557 1.814-11.04 3.497-16.375.477-1.687.968-3.42 1.414-5.126.971-3.786 1.71-7.63 2.21-11.51h-4.206c-.23 1.612-.46 2.947-.705 4.19-.722 3.944-1.782 7.888-2.809 11.679-1.12 4.205-2.287 8.534-3.07 12.875-.403 2.434-.66 4.888-.767 7.351.08.56-.1 1.125-.49 1.535-.438.333-1.006.442-1.535.292H69.627c-1.626-.214-2.102-.691-2.102-2.44 0-4.22 0-4.22-4.067-5.725-5.563-1.748-10.25-5.55-13.106-10.635-1.194-2.073-1.828-4.421-1.841-6.814.062-6.679-2.097-13.19-6.14-18.508l-.337-.383c-.506-.553-1.12-1.243-.583-2.041.573-.685 1.473-1.003 2.348-.83h.353c1.95.058 3.797.906 5.11 2.349 2.853 2.672 5.112 5.913 6.63 9.516 1.535 3.283 3.99 5.002 7.014 5.002h.399c1.496.056 2.866-.835 3.422-2.226l2.762-6.906c.61-1.11.293-2.5-.736-3.238-1.428-1.335-2.763-2.7-4.19-4.159-.69-.706-1.381-1.427-2.102-2.148-.505-.642-1.245-1.056-2.057-1.151h-.092c-.85.163-1.613.626-2.148 1.304-2.794 3.07-2.855 3.07-6.293.476-.333-.314-.704-.59-1.105-.813l-.414-.261c-1.15-.645-1.12-1.366-.66-2.44 1.934-4.006 5.372-6.538 8.686-8.993l1.182-.875c.982-.66 1.796-.169 2.578.292 1.535.936 3.284 1.826 4.911 2.7 1.627.875 3.3 1.765 4.911 2.67 1.136.722 2.348 1.229 3.545.17.852-.875.833-2.273-.041-3.125-.083-.08-.172-.155-.266-.22-.51-.593-.75-1.373-.66-2.15V29.389c-.084-1.062.134-2.125.63-3.069.487-1.283 1.697-2.147 3.069-2.195 1.286-.125 2.514.568 3.07 1.735.633 1.327.998 2.767 1.073 4.235v.108c.389 5.29.772 10.558 1.151 15.807.384 5.263.768 10.512 1.151 15.807.154 1.396.52 2.808 2.333 2.67.66.003 1.288-.283 1.719-.783.413-.7.512-1.54.276-2.317-1.32-7.474 0-14.856 1.228-22.007.506-2.84 1.028-5.786 1.381-8.717.133-.938.451-1.84.935-2.655.524-.964 1.5-1.599 2.595-1.688h.09c1.084.035 2.075.612 2.641 1.535.788 1.143 1.122 2.538.936 3.913-.383 5.295-.72 10.635-1.074 15.807-.353 5.172-.69 10.512-1.074 15.807 0 .552 0 1.12-.077 1.719h4.435l.261-2.18c.17-2.578.338-5.233.66-7.796.46-3.222 1.074-6.506 1.688-9.668.232-1.27.706-2.484 1.397-3.576.351-.907 1.337-1.393 2.271-1.12 1.166.322 1.166 1.35 1.166 2.256-.306 4.113-.46 8.333-.613 12.415-.123 3.07-.246 6.385-.43 9.577h4.128c.215-3.73.353-7.52.476-11.203.123-3.684.276-7.812.506-11.71.19-1.75-.512-3.482-1.872-4.604-1.759-1.316-4.045-1.7-6.139-1.028-.859.261-1.304.276-1.534 0-.23-.276-.292-.675-.108-1.535.471-2.423.418-4.918-.153-7.32-.85-3.356-3.8-5.756-7.26-5.908h-.475c-3.15.027-5.979 1.936-7.182 4.85-.138.35-.252.708-.338 1.073-.156.472-.34.934-.552 1.382l-.138.276-.077-.292c-.092-.353-.169-.675-.245-.997-.267-1.28-.647-2.532-1.136-3.745-1.14-2.896-3.996-4.746-7.106-4.604-3.311-.035-6.284 2.028-7.412 5.141-.562 1.718-.816 3.52-.752 5.326v19.95c0 1.074-.169 1.627-.537 1.857-.368.23-.92.092-1.796-.368-1.32-.745-2.684-1.41-4.082-1.995l-1.734-.768c-.539-.327-1.15-.517-1.78-.552zm42.31 86.094H63.151c-2.21 0-3.192-.996-3.192-3.192V118.17c-.07-1.027.344-2.028 1.12-2.703 1.013-.86 1.535-1.64 1.366-2.285-.169-.645-.813-1.274-2.102-1.813-5.965-2.047-11-6.17-14.18-11.615-1.953-3.433-2.962-7.32-2.932-11.266-.1-4.774-1.642-9.406-4.42-13.29-.23-.384-.506-.768-.767-1.136-.26-.368-.537-.783-.767-1.166-1.29-1.725-1.636-3.983-.92-6.016.906-1.766 2.631-2.968 4.603-3.208 2.296-.277 4.26-1.783 5.126-3.928 2.363-4.727 6.476-7.55 10.82-10.543l.582-.4c1.302-.894 2.987-1.017 4.405-.322l1.734.783c1.409.585 2.782 1.25 4.113 1.995.767.414 1.258.537 1.534.368.277-.168.415-.69.415-1.657v-19.95c-.03-1.86.276-3.711.905-5.464 1.167-3.221 4.248-5.348 7.673-5.294 3.225-.126 6.17 1.818 7.32 4.834.495 1.221.874 2.484 1.136 3.775 0 .23.108.46.17.69.159-.35.295-.707.414-1.074.105-.317.228-.63.368-.936 1.782-4.077 6.531-5.937 10.609-4.156 2.222.972 3.89 2.893 4.538 5.23.595 2.43.648 4.962.153 7.413-.153.767-.138 1.182 0 1.335.139.153.599.138 1.35-.077 2.165-.68 4.522-.28 6.339 1.075 1.392 1.154 2.118 2.926 1.934 4.726-.23 3.898-.353 7.873-.491 11.71-.139 3.836-.261 7.535-.476 11.295v.122h-4.604V65.1c.2-3.238.322-6.523.445-9.7.153-4.081.307-8.286.614-12.415 0-.89 0-1.734-.998-2.025-.997-.292-1.442.076-2.025 1.028-.667 1.068-1.128 2.248-1.366 3.483-.599 3.177-1.23 6.446-1.688 9.669-.309 2.547-.476 5.202-.645 7.78 0 .722-.092 1.458-.153 2.195v.107h-4.82v-1.964c.4-5.31.737-10.65 1.089-15.822.354-5.172.692-10.513 1.076-15.807.17-1.321-.152-2.66-.906-3.76-.57-.82-1.502-1.314-2.501-1.32-1.04.055-1.983.632-2.502 1.535-.436.812-.723 1.696-.844 2.609-.337 2.931-.86 5.877-1.366 8.732-1.258 7.12-2.549 14.487-1.243 21.93.237.844.103 1.748-.368 2.486-.473.542-1.154.855-1.872.86-2.026.184-2.44-1.443-2.579-2.855-.379-5.288-.762-10.558-1.15-15.807-.384-5.264-.768-10.512-1.152-15.807v-.122c-.073-1.432-.434-2.836-1.058-4.129-.453-1.098-1.561-1.786-2.748-1.703-1.272.074-2.38.893-2.823 2.087-.493.944-.7 2.01-.599 3.07v24.278c-.107.74.098 1.49.568 2.071 1.093.788 1.343 2.313.554 3.406-.07.098-.147.192-.232.278-1.335 1.166-2.624.613-3.836-.139-1.535-.905-3.284-1.81-4.896-2.67-1.611-.86-3.3-1.765-4.926-2.7-.752-.446-1.535-.876-2.333-.308l-1.166.875c-3.3 2.44-6.707 4.957-8.61 8.9-.445 1.014-.46 1.536.568 2.165l.415.245c.41.234.793.518 1.135.844 3.284 2.533 3.284 2.533 5.97-.46.577-.729 1.401-1.22 2.317-1.381.909.057 1.748.505 2.302 1.228.722.72 1.428 1.427 2.118 2.148 1.412 1.443 2.747 2.808 4.174 4.128 1.11.806 1.452 2.31.799 3.515l-2.763 6.906c-.603 1.46-2.043 2.4-3.622 2.363h-.46c-3.07 0-5.617-1.765-7.228-5.141-1.486-3.611-3.731-6.862-6.584-9.53-1.28-1.41-3.083-2.233-4.988-2.272h-.353c-.813 0-1.657 0-2.163.722-.507.72.076 1.227.567 1.764.13.126.249.266.353.415 4.056 5.357 6.217 11.912 6.139 18.632.01 2.356.638 4.67 1.826 6.707 2.829 5.033 7.472 8.8 12.983 10.526 4.175 1.534 4.22 1.534 4.22 5.939 0 1.534.415 2.04 2.026 2.04 2.962-.107 5.986 0 8.901 0h18.263c.689.24 1.44-.126 1.679-.816.078-.23.092-.478.04-.718.107-2.515.379-5.023.813-7.503.807-4.346 1.832-8.649 3.07-12.892 1.012-3.806 2.071-7.674 2.808-11.662.244-1.274.475-2.641.706-4.299v-.107h4.604v.138c-.5 3.936-1.248 7.837-2.241 11.68-.445 1.702-.936 3.436-1.412 5.126-1.677 5.324-2.85 10.798-3.499 16.343-.029.426-.081.853-.155 1.273-.26 1.734-.52 3.361 1.628 4.437.691.336.691 1.318.691 2.1v13.045c.015 2.258-.967 3.254-3.177 3.254z" mask="url(#83w778hbwb)"/>
                <path fill="#000" d="M135.126 73.663H76.809c-1.398 0-2.532-1.132-2.534-2.53 0-1.398 1.133-2.533 2.531-2.534h58.32c1.398 0 2.532 1.132 2.534 2.53 0 1.399-1.133 2.534-2.531 2.534h-.003z" mask="url(#83w778hbwb)"/>
                <path fill="#000" d="M121.929 86.709c-.679.001-1.328-.277-1.796-.768-.987-.979-.994-2.573-.017-3.559.005-.006.01-.012.017-.017l11.372-11.249-11.357-11.264c-1.045-.93-1.138-2.53-.21-3.576.93-1.045 2.53-1.138 3.576-.208.067.06.133.124.195.193l13.198 13.045c.991.973 1.005 2.567.03 3.558l-.03.033-13.198 13.044c-.468.482-1.11.758-1.78.768" mask="url(#83w778hbwb)"/>
            </g>
        </g>
    </g>
</svg>
