<svg xmlns="http://www.w3.org/2000/svg" xmlns:xlink="http://www.w3.org/1999/xlink" width="155" height="155" viewBox="0 0 155 155">
    <defs>
        <path id="cngtpqqtza" d="M0 155L155 155 155 0 0 0z"/>
    </defs>
    <g fill="none" fill-rule="evenodd">
        <g>
            <g transform="translate(-1347 -16162) translate(1347 16162)">
                <mask id="yey6imt3mb" fill="#fff">
                    <use xlink:href="#cngtpqqtza"/>
                </mask>
                <path fill="#000" d="M100.114 49.678c-1.412 0-2.556-1.146-2.556-2.558V19.406c0-1.412 1.144-2.557 2.556-2.557 1.412 0 2.558 1.145 2.558 2.557V47.12c0 1.412-1.146 2.558-2.558 2.558" mask="url(#yey6imt3mb)"/>
                <path fill="#000" d="M89.684 32.55c-1.422-.014-2.561-1.178-2.549-2.6.008-.655.264-1.283.718-1.756l10.433-10.586c1.018-.975 2.623-.975 3.641 0l10.433 10.586c1.043.954 1.116 2.57.163 3.613-.953 1.044-2.57 1.116-3.613.163-.068-.062-.133-.127-.194-.195l-8.602-8.727-8.663 8.742c-.47.472-1.102.743-1.767.76M125.334 54.979c-1.412 0-2.558-1.146-2.558-2.558V19.406c0-1.412 1.146-2.557 2.558-2.557s2.556 1.145 2.556 2.557v33.015c0 1.412-1.144 2.558-2.556 2.558" mask="url(#yey6imt3mb)"/>
                <path fill="#000" d="M125.334 54.979c-.69-.002-1.349-.28-1.83-.775L113.15 43.633c-.994-1.01-.98-2.635.03-3.627 1.011-.994 2.634-.98 3.628.03l8.602 8.743 8.603-8.742c.987-1.01 2.608-1.028 3.619-.04 1.009.99 1.028 2.61.039 3.62L127.1 54.25c-.472.465-1.106.727-1.767.729M87.126 124.326c-.258.003-.514-.032-.76-.108-1.372-.419-2.148-1.867-1.736-3.24l1.674-5.533c.048-.193.127-.377.233-.543l1.751-3.1c4.139-7.255 6.123-12.107 6.123-20.15V66.124c-.518-2.051-2.6-3.294-4.649-2.776-1.365.344-2.432 1.41-2.776 2.776v11.02c0 1.437-1.166 2.603-2.604 2.603-1.438 0-2.604-1.166-2.604-2.603V62.45c-.516-2.05-2.598-3.294-4.648-2.776-1.366.344-2.432 1.41-2.776 2.776v14.694c.111 1.434-.962 2.686-2.397 2.796-1.432.112-2.686-.96-2.796-2.394-.01-.135-.01-.269 0-.402V58.775c-.5-2.054-2.571-3.314-4.625-2.813-1.39.338-2.477 1.423-2.815 2.813v18.37c.112 1.433-.961 2.685-2.396 2.795-1.433.112-2.685-.96-2.797-2.394-.01-.135-.01-.269 0-.402V40.41c-.27-1.804-1.903-3.083-3.72-2.915-1.813-.166-3.439 1.112-3.704 2.915v49.599c0 1.438-1.166 2.605-2.604 2.605-1.438 0-2.604-1.167-2.604-2.605v-8.601l-3.209 5.61c.171 10.308 4.232 17.05 12.06 26.227l.34.138c1.02.375 1.698 1.348 1.69 2.435v5.487c-.11 1.433-1.364 2.506-2.796 2.394-1.28-.099-2.297-1.116-2.397-2.394v-3.813c-.125-.107-.244-.22-.356-.341-8.696-10.2-13.748-18.431-13.748-30.816.004-.456.12-.902.34-1.302l8.076-14.088V40.41c.234-4.695 4.218-8.317 8.913-8.106 4.694-.211 8.678 3.411 8.912 8.106V51.4c1.181-.482 2.444-.73 3.72-.73 3.394-.066 6.536 1.788 8.122 4.79 1.389-.739 2.939-1.122 4.51-1.115 3.395-.065 6.537 1.787 8.123 4.788 1.382-.74 2.926-1.123 4.495-1.115 4.691-.203 8.67 3.416 8.912 8.107v25.573c0 9.16-2.294 14.85-6.804 22.723l-1.55 2.807-1.55 5.255c-.343 1.125-1.397 1.88-2.573 1.844" mask="url(#yey6imt3mb)"/>
                <path fill="#000" d="M47.554 122.093c-.737.611-1.131 1.541-1.054 2.496v12.508c0 2.062.946 2.945 3.178 2.945h40.625c2.232 0 3.176-.883 3.176-2.945V124.59c0-.729 0-1.55-.634-1.907-.503-.221-.953-.55-1.317-.96h-43.57c-.128.131-.263.255-.404.371" mask="url(#yey6imt3mb)"/>
                <path fill="#000" d="M48.05 121.845l-.294.264c-.824.55-1.3 1.49-1.256 2.481v12.507c0 2.017.883 2.837 3.1 2.837h40.703c2.17 0 3.1-.82 3.1-2.837V124.59c0-.73 0-1.55-.574-1.813-.499-.217-.948-.533-1.317-.932H48.05zm42.253 18.321H49.6c-2.279 0-3.302-.945-3.302-3.1V124.59c-.07-1.004.366-1.976 1.163-2.588l.279-.25.14-.138h43.694c.353.395.786.715 1.271.929.713.325.713 1.255.713 2.015v12.508c.046 2.155-.977 3.1-3.255 3.1zM57.21 25.568l3.051-7.812c.42-1.076 1.634-1.607 2.71-1.187 1.077.42 1.609 1.633 1.188 2.71l-3.05 7.811c-.42 1.076-1.634 1.609-2.71 1.189-1.077-.422-1.608-1.635-1.188-2.711M67.673 37.2c.467 1.057 1.702 1.536 2.76 1.07l7.75-3.364c1.056-.467 1.538-1.697 1.083-2.76-.457-1.06-1.69-1.546-2.75-1.087l-.008.003-7.75 3.363c-1.065.467-1.551 1.71-1.085 2.775M42.811 27.466c.467 1.057 1.702 1.536 2.76 1.07 1.06-.46 1.546-1.691 1.087-2.752-.001-.003-.003-.004-.003-.007l-3.363-7.673c-.46-1.06-1.691-1.548-2.752-1.088l-.007.003c-1.06.459-1.549 1.691-1.088 2.751.001.004.001.007.003.008l3.363 7.688zM24.976 33.215c.42-1.077 1.634-1.609 2.711-1.189l7.81 3.05c1.076.42 1.61 1.634 1.188 2.712-.42 1.075-1.634 1.607-2.71 1.187l-7.811-3.049c-1.076-.422-1.608-1.635-1.188-2.71M35.867 53.382c1.06-.46 1.547-1.691 1.088-2.752l-.003-.007c-.483-1.039-1.714-1.496-2.759-1.023l-7.75 3.363c-1.057.467-1.536 1.702-1.07 2.76.473 1.05 1.698 1.53 2.76 1.084l7.734-3.425z" mask="url(#yey6imt3mb)"/>
            </g>
        </g>
    </g>
</svg>
