<svg width="450" height="48" fill="none" xmlns="http://www.w3.org/2000/svg"><g clip-path="url(#a)"><path d="M33.055 1.732A3.465 3.465 0 0 0 30.053 0H23.19a3.469 3.469 0 0 0-3.003 1.735L.465 35.885a3.468 3.468 0 0 0 0 3.467l3.428 5.934a3.469 3.469 0 0 0 3.003 1.735h39.457a3.473 3.473 0 0 0 3.002-1.732l3.428-5.937a3.474 3.474 0 0 0 0-3.47L33.055 1.732ZM36.03 39.18a31.258 31.258 0 0 1-9.411 1.44c-3.28 0-6.434-.504-9.404-1.44-3.475-1.095-5.62-4.62-4.872-8.184a31.202 31.202 0 0 1 9.433-16.558 7.14 7.14 0 0 1 9.682 0 31.208 31.208 0 0 1 9.436 16.558c.75 3.564-1.397 7.09-4.867 8.184h.003Z" fill="#00B2E3"/><path d="m153.899 13.689-11.921 23.45a1.131 1.131 0 0 1-1.008.615h-3.931a1.14 1.14 0 0 1-1.009-.616l-11.917-23.45a1.318 1.318 0 0 1 .029-1.242l1.274-2.2a1.387 1.387 0 0 1 1.199-.69h1.156a.78.78 0 0 1 .709.439l10.017 19.928a.568.568 0 0 0 1.015 0l10.013-19.928a.783.783 0 0 1 .716-.44h1.149c.493 0 .95.263 1.199.692l1.274 2.207c.22.378.231.842.033 1.235m-59.033 0-11.92 23.45c-.191.374-.58.615-1.009.615h-3.931c-.425 0-.81-.238-1.008-.616l-11.918-23.45a1.32 1.32 0 0 1 .03-1.242l1.274-2.203a1.375 1.375 0 0 1 1.191-.688h1.16a.78.78 0 0 1 .709.44l10.016 19.928a.568.568 0 0 0 1.016 0L90.485 9.995c.13-.274.41-.44.717-.44h1.152c.49 0 .947.263 1.192.688l1.278 2.21c.22.379.23.843.032 1.236m17.081-3.799a1.149 1.149 0 0 0-.811-.335h-1.782c-.493 0-.947.263-1.191.692l-1.271 2.207a1.319 1.319 0 0 0-.173.648v23.51c0 .63.511 1.142 1.141 1.142h3.291c.626 0 1.134-.508 1.134-1.134V10.7c0-.316-.13-.6-.335-.81m55.252.353a1.38 1.38 0 0 1 1.195-.688h17.07c.482 0 .929.256 1.17.674l1.202 2.066c.17.296.263.634.263.976v.515a.778.778 0 0 1-.777.774h-15.561a.57.57 0 0 0-.569.569v5.397a.57.57 0 0 0 .569.569h10.545a.942.942 0 0 1 .929.936v3.103a.939.939 0 0 1-.936.936h-10.538a.57.57 0 0 0-.569.57v5.544a.57.57 0 0 0 .569.569h15.564c.429 0 .778.346.778.767v.518c0 .346-.09.68-.263.976l-1.202 2.07a1.352 1.352 0 0 1-1.171.673h-17.069c-.493 0-.947-.262-1.195-.687l-1.189-2.049a1.965 1.965 0 0 1-.262-.98V13.268c0-.342.093-.676.262-.975l1.189-2.049h-.004Z" fill="#fff"/><path d="M221.367 22.744v1.89a.338.338 0 0 1-.338.338H210.03a.337.337 0 0 1-.238-.097l-.943-.943a.335.335 0 0 1 0-.479l.946-.947a.33.33 0 0 1 .238-.097h10.996c.187 0 .338.151.338.338v-.003Zm1.019-13.329h-17.865a.339.339 0 0 0-.339.338v10.46c0 .09.036.176.101.237l1.142 1.142a.336.336 0 0 0 .478 0l1.127-1.127a.329.329 0 0 0 .098-.238v-7.91c0-.187.151-.338.338-.338h14.92a.339.339 0 0 0 .339-.339V9.753a.339.339 0 0 0-.339-.338Zm-15.284 17.577a.331.331 0 0 0-.075-.122l-1.127-1.127a.324.324 0 0 0-.245-.097.338.338 0 0 0-.245.097l-1.127 1.127a.331.331 0 0 0-.075.122.324.324 0 0 0-.029.13v10.434c0 .187.151.338.338.338h2.269a.338.338 0 0 0 .338-.338v-2.564h.004v-7.867a.364.364 0 0 0-.026-.13v-.003Zm37.7-18.002c7.993 0 13.664 6.254 13.664 14.7 0 8.447-5.674 14.701-13.664 14.701-7.989 0-13.663-6.254-13.663-14.7 0-8.447 5.508-14.7 13.663-14.7Zm0 26.704c6.294 0 10.6-5.134 10.6-12.007 0-6.873-4.306-12.007-10.6-12.007-6.293 0-10.599 5.134-10.599 12.007 0 6.873 4.263 12.007 10.599 12.007ZM282.56 8.99c6.369 0 10.502 3.572 11.863 8.807a.342.342 0 0 1-.335.425h-2.329a.338.338 0 0 1-.324-.245c-1.206-3.99-4.166-6.297-8.872-6.297-6.336 0-10.477 5.134-10.477 12.007 0 6.873 4.141 12.007 10.351 12.007 4.911 0 7.756-2.308 8.994-6.3a.339.339 0 0 1 .324-.242h2.33c.223 0 .392.213.334.429-1.404 5.231-5.613 8.807-11.982 8.807-7.993 0-13.415-6.254-13.415-14.701 0-8.447 5.426-14.7 13.541-14.7h-.003v.003Zm23.86.454h2.257c.187 0 .342.155.342.342V26.71c0 5.84 2.816 8.987 8.159 8.987 5.343 0 8.158-3.147 8.158-8.987V9.786c0-.187.155-.342.342-.342h2.258c.187 0 .342.155.342.342V26.71c0 8.281-4.555 11.677-11.097 11.677s-11.096-3.396-11.096-11.677V9.786c0-.187.155-.342.342-.342h-.007Zm35.885 20.536c.183 0 .331.148.342.332.176 3.453 3.118 5.63 7.733 5.63 4.929 0 7.745-2.195 7.745-5.839 0-8.49-18.013-2.153-18.013-13.127 0-4.637 4.058-7.993 10.186-7.993 5.782 0 9.944 2.722 10.138 7.514a.344.344 0 0 1-.345.353h-2.258a.348.348 0 0 1-.342-.331c-.187-3.31-3.186-5.091-7.193-5.091-4.008 0-7.205 1.947-7.205 5.3 0 8.28 18.096 1.864 18.096 13.249 0 5.012-3.975 8.407-10.809 8.407-6.833 0-10.498-3.046-10.675-8.054a.345.345 0 0 1 .346-.353h2.257-.003v.004Z" fill="#00B2E3"/><path d="M376.275 19.914c-.026-.105-.054-.184-.054-.234 0-.209.129-.313.417-.313h1.124c.417 0 .522.054.651.471l4.782 15.288 4.705-15.288c.13-.417.234-.471.652-.471h1.073c.288 0 .417.104.417.313 0 .05-.025.13-.05.234l-5.541 17.483c-.13.418-.263.577-.68.577h-1.282c-.418 0-.547-.159-.681-.577l-5.541-17.483h.008Zm18.84 17.534c0 .417-.129.522-.547.522h-.994c-.417 0-.55-.105-.55-.522v-17.56c0-.417.129-.521.55-.521h.994c.418 0 .547.104.547.522v17.559Zm9.801-.915c2.405 0 3.787-1.177 3.787-3.265 0-1.595-.864-2.719-2.588-3.32l-3.37-1.123c-2.456-.835-3.683-2.376-3.683-4.652v-.13c0-3.24 2.196-5.094 6.063-5.094 2.196 0 3.578.522 4.597 1.75.548.651.94 1.7.94 2.51 0 .392-.13.496-.576.496h-.915c-.442 0-.522-.05-.601-.443-.263-1.7-1.49-2.534-3.658-2.534-2.376 0-3.762 1.177-3.762 3.16 0 1.7.68 2.485 2.848 3.19l3.37 1.124c2.3.81 3.503 2.48 3.503 4.86v.13c0 3.161-2.301 5.2-5.88 5.2-2.167 0-3.787-.498-4.86-1.517-.756-.73-1.358-1.987-1.358-2.901 0-.393.13-.497.577-.497h.914c.418 0 .522.05.601.443.393 1.699 1.775 2.613 4.051 2.613Zm11.683.915c0 .417-.13.522-.547.522h-.994c-.418 0-.551-.105-.551-.522v-17.56c0-.417.13-.521.551-.521h.994c.417 0 .547.104.547.522v17.559Zm16.515-14.949c.418 1.073.576 1.987.576 4.025v4.025c0 2.117-.158 3.082-.576 4.155-.968 2.456-2.952 3.684-5.959 3.684-3.006 0-4.99-1.178-5.958-3.504-.418-1.073-.576-2.038-.576-4.075v-4.026c0-2.117.158-3.082.576-4.155.968-2.455 2.952-3.683 5.958-3.683 3.007 0 4.991 1.178 5.959 3.554Zm-10.347 3.841v4.652c0 3.892 1.332 5.567 4.388 5.567 3.057 0 4.389-1.675 4.389-5.567V26.34c0-3.892-1.332-5.566-4.389-5.566-3.056 0-4.388 1.674-4.388 5.566Zm16.986-3.449v14.557c0 .417-.129.522-.547.522h-.94c-.417 0-.547-.105-.547-.522v-17.56c0-.417.13-.521.547-.521h1.282c.392 0 .522.104.731.496l7.683 14.582V19.89c0-.418.13-.522.551-.522h.94c.417 0 .547.104.547.522v17.559c0 .417-.13.522-.547.522h-1.282c-.392 0-.522-.105-.731-.497l-7.683-14.582h-.004Z" fill="#fff"/></g><defs><clipPath id="a"><path fill="#fff" d="M0 0h450v47.021H0z"/></clipPath></defs></svg>