<svg id="圖層_1" data-name="圖層 1" xmlns="http://www.w3.org/2000/svg" viewBox="0 0 863.12 107.11"><defs><style>.cls-1{fill:#fff;}</style></defs><title>未命名-1</title><path class="cls-1" d="M1,54.36A57,57,0,0,1,4.31,34.82a47.52,47.52,0,0,1,9.28-15.77A42.38,42.38,0,0,1,28,8.58,45.15,45.15,0,0,1,46.67,4.81a46.2,46.2,0,0,1,15,2.31,39,39,0,0,1,11.87,6.35,35.59,35.59,0,0,1,8.51,9.84,43.5,43.5,0,0,1,5,12.63H76.82q-2.94-10.47-10.4-16.26T46.67,13.89A33.76,33.76,0,0,0,32.15,17,32.37,32.37,0,0,0,21,25.47a39.07,39.07,0,0,0-7.12,12.84,49.5,49.5,0,0,0-2.51,16,49,49,0,0,0,2.51,15.91A39,39,0,0,0,21,83.12,33.57,33.57,0,0,0,32,91.7a32,32,0,0,0,14.24,3.14q12.7,0,20.1-5.79T76.82,72.79H87a45.18,45.18,0,0,1-5.1,12.7,35.29,35.29,0,0,1-8.58,9.77,40.1,40.1,0,0,1-12,6.35,46.85,46.85,0,0,1-15.07,2.3,44.23,44.23,0,0,1-18.42-3.77A42.5,42.5,0,0,1,13.52,89.82,46.54,46.54,0,0,1,4.31,74.18,57.76,57.76,0,0,1,1,54.36Z"/><path class="cls-1" d="M108.78,54.36a57.08,57.08,0,0,1,3.35-19.75,46.22,46.22,0,0,1,9.42-15.7A43.76,43.76,0,0,1,136.14,8.58a46.4,46.4,0,0,1,19-3.77,45.71,45.71,0,0,1,18.7,3.77,44.56,44.56,0,0,1,14.66,10.33A46.68,46.68,0,0,1,198,34.61a56,56,0,0,1,3.42,19.75A55.7,55.7,0,0,1,198,74.18a46.81,46.81,0,0,1-9.56,15.64,44.53,44.53,0,0,1-14.66,10.32,45.55,45.55,0,0,1-18.7,3.77,46.38,46.38,0,0,1-18.91-3.77,43.52,43.52,0,0,1-14.66-10.32,46.34,46.34,0,0,1-9.42-15.64A56.83,56.83,0,0,1,108.78,54.36Zm10.33,0a48.41,48.41,0,0,0,2.58,16A38.56,38.56,0,0,0,129,83.26a33.66,33.66,0,0,0,11.37,8.51,36.87,36.87,0,0,0,29.46,0,33.76,33.76,0,0,0,11.37-8.51,38.74,38.74,0,0,0,7.33-12.85,48.41,48.41,0,0,0,2.58-16,48.45,48.45,0,0,0-2.58-16,38.79,38.79,0,0,0-7.33-12.84A33.63,33.63,0,0,0,169.85,17a36.87,36.87,0,0,0-29.46,0A33.53,33.53,0,0,0,129,25.47a38.61,38.61,0,0,0-7.33,12.84A48.45,48.45,0,0,0,119.11,54.36Z"/><path class="cls-1" d="M233.84,74.74q0,9.92,7,15.43t19.12,5.51q12.57,0,19.34-5.24T286,76a14.05,14.05,0,0,0-1.88-7.61,15.52,15.52,0,0,0-5-5,26.82,26.82,0,0,0-7.4-3.08c-2.84-.74-5.79-1.39-8.87-2l-6.28-1.12a111.67,111.67,0,0,1-11.44-2.51,37.69,37.69,0,0,1-10-4.26,20.8,20.8,0,0,1-7-7.18q-2.66-4.47-2.65-11.59a24.13,24.13,0,0,1,2.44-10.82,24.81,24.81,0,0,1,6.91-8.51,33.66,33.66,0,0,1,10.75-5.58,45.74,45.74,0,0,1,14.09-2,49.6,49.6,0,0,1,13.82,1.82,32.93,32.93,0,0,1,10.82,5.23,23.67,23.67,0,0,1,7.05,8.52,26.36,26.36,0,0,1,2.51,11.79H284a18,18,0,0,0-1.81-8.3,17,17,0,0,0-5.1-6,22.87,22.87,0,0,0-7.74-3.63,39.93,39.93,0,0,0-19.27,0,23.53,23.53,0,0,0-7.67,3.49,17.45,17.45,0,0,0-5.1,5.66,15.14,15.14,0,0,0-1.88,7.53,13.33,13.33,0,0,0,2,7.61,15.58,15.58,0,0,0,5.38,4.89,29.88,29.88,0,0,0,7.81,2.93c3,.7,6.1,1.32,9.35,1.88l6.28,1.12q5.59,1.11,11,2.65a33.72,33.72,0,0,1,9.7,4.4,21.52,21.52,0,0,1,6.84,7.46,23.83,23.83,0,0,1,2.58,11.73,26.84,26.84,0,0,1-2.44,11.51,25.16,25.16,0,0,1-7.12,9,33.21,33.21,0,0,1-11.44,5.79,53.93,53.93,0,0,1-15.43,2q-16.89,0-26.45-7.6t-9.56-21.57Z"/><path class="cls-1" d="M326.38,6.35h12L375.65,89h.28L412.78,6.35h12v96h-9.91l.84-80.4h-.42l-35.87,80.4h-7.68L335.87,23.24h-.42l.84,79.14h-9.91Z"/><path class="cls-1" d="M453,54.36a56.84,56.84,0,0,1,3.35-19.75,46.22,46.22,0,0,1,9.42-15.7A43.82,43.82,0,0,1,480.33,8.58a46.49,46.49,0,0,1,19-3.77A45.74,45.74,0,0,1,518,8.58a44.56,44.56,0,0,1,14.66,10.33,46.68,46.68,0,0,1,9.56,15.7,56,56,0,0,1,3.42,19.75,55.7,55.7,0,0,1-3.42,19.82,46.81,46.81,0,0,1-9.56,15.64A44.53,44.53,0,0,1,518,100.14a45.58,45.58,0,0,1-18.7,3.77,46.46,46.46,0,0,1-18.92-3.77,43.58,43.58,0,0,1-14.65-10.32,46.34,46.34,0,0,1-9.42-15.64A56.6,56.6,0,0,1,453,54.36Zm10.33,0a48.41,48.41,0,0,0,2.58,16,38.56,38.56,0,0,0,7.33,12.85,33.66,33.66,0,0,0,11.37,8.51,36.85,36.85,0,0,0,29.45,0,33.8,33.8,0,0,0,11.38-8.51,38.91,38.91,0,0,0,7.33-12.85,48.41,48.41,0,0,0,2.58-16,48.45,48.45,0,0,0-2.58-16,39,39,0,0,0-7.33-12.84A33.67,33.67,0,0,0,514,17a36.85,36.85,0,0,0-29.45,0,33.53,33.53,0,0,0-11.37,8.51,38.61,38.61,0,0,0-7.33,12.84A48.45,48.45,0,0,0,463.31,54.36Z"/><path class="cls-1" d="M578,74.74q0,9.92,7,15.43t19.12,5.51q12.57,0,19.33-5.24T630.24,76a14.14,14.14,0,0,0-1.88-7.61,15.46,15.46,0,0,0-5-5,26.75,26.75,0,0,0-7.39-3.08q-4.26-1.11-8.87-2l-6.28-1.12a111.08,111.08,0,0,1-11.44-2.51,37.55,37.55,0,0,1-10-4.26,20.62,20.62,0,0,1-7-7.18q-2.66-4.47-2.65-11.59a24.13,24.13,0,0,1,2.44-10.82A24.7,24.7,0,0,1,579,12.42a33.55,33.55,0,0,1,10.75-5.58,45.74,45.74,0,0,1,14.09-2,49.65,49.65,0,0,1,13.82,1.82,33,33,0,0,1,10.82,5.23,23.67,23.67,0,0,1,7,8.52,26.36,26.36,0,0,1,2.51,11.79h-9.91a18,18,0,0,0-1.82-8.3,17,17,0,0,0-5.09-6,22.83,22.83,0,0,0-7.75-3.63,39.89,39.89,0,0,0-19.26,0,23.59,23.59,0,0,0-7.68,3.49,17.42,17.42,0,0,0-5.09,5.66,15,15,0,0,0-1.88,7.53,13.33,13.33,0,0,0,2,7.61A15.64,15.64,0,0,0,587,43.41a30.09,30.09,0,0,0,7.82,2.93c3,.7,6.09,1.32,9.35,1.88l6.28,1.12q5.58,1.11,11,2.65a33.72,33.72,0,0,1,9.7,4.4A21.52,21.52,0,0,1,638,63.85a23.83,23.83,0,0,1,2.58,11.73,26.84,26.84,0,0,1-2.44,11.51,25.16,25.16,0,0,1-7.12,9,33.17,33.17,0,0,1-11.45,5.79,53.81,53.81,0,0,1-15.42,2q-16.89,0-26.45-7.6t-9.56-21.57Z"/><path class="cls-1" d="M710.93,3.44c2.12,0,2.68.28,4,2.54l21,35.21L757.14,6c1.27-2.26,1.83-2.54,3.94-2.54h6.34c1.41,0,2.12.57,2.12,1.69a1.84,1.84,0,0,1-.43,1.27L741.93,50.92l28.73,49.86a1.87,1.87,0,0,1,.43,1.27c0,1.13-.71,1.69-2.12,1.69h-6.9c-2.11,0-2.68-.28-3.94-2.53L735.59,61.06l-22.82,40.15c-1.27,2.25-1.84,2.53-3.95,2.53h-6.34c-1.41,0-2.11-.56-2.11-1.69a1.9,1.9,0,0,1,.42-1.27L729.53,51.2,702.34,6.4a5.85,5.85,0,0,1-.42-1.27c0-1.12.7-1.69,2.11-1.69Z"/><path class="cls-1" d="M804.47,61.34v39.58c0,2.26-.7,2.82-3,2.82h-5.08c-2.25,0-3-.56-3-2.82V6.26c0-2.25.7-2.82,3-2.82h28.18c21,0,32.12,7.47,32.12,27.89V34c0,14.65-7,23.24-19.59,26.2l23,40.71a3.31,3.31,0,0,1,.42,1.27c0,1-.85,1.55-2.54,1.55h-6.9c-2.11,0-2.82-.42-4.08-2.82l-21.7-39.58Zm0-9.58H825c17.61,0,20-8,20-17.75V31.9C845,21.33,842.65,13,825,13H804.47Z"/></svg>