<?xml version="1.0" encoding="utf-8"?>
<!-- Generator: Adobe Illustrator 24.0.2, SVG Export Plug-In . SVG Version: 6.00 Build 0)  -->
<svg version="1.1" xmlns="http://www.w3.org/2000/svg" xmlns:xlink="http://www.w3.org/1999/xlink" x="0px" y="0px"
	 viewBox="0 0 648 107.7" style="enable-background:new 0 0 648 107.7;" xml:space="preserve">
<style type="text/css">
	.st0{fill:#FFFFFF;}
</style>
<g id="圖層_1">
	<title>未命名-1</title>
	<path class="st0" d="M25.6,6.7h35.7c5.3,0,10,0.7,14.1,2.2c4.1,1.5,7.5,3.6,10.3,6.2c2.8,2.7,4.9,5.8,6.4,9.5
		c1.4,3.7,2.2,7.8,2.2,12.3c0,4.5-0.7,8.6-2.2,12.4c-1.4,3.8-3.6,7-6.4,9.8c-2.8,2.8-6.2,4.9-10.3,6.5c-4.1,1.6-8.8,2.4-14.1,2.4
		H35.5v35h-9.9V6.7z M35.5,15.4v44h26.2c3.7,0,7-0.6,9.8-1.8c2.8-1.2,5.2-2.8,7.1-4.8c1.9-2,3.3-4.4,4.3-7.1
		c0.9-2.8,1.4-5.7,1.4-8.8c0-6.3-1.9-11.4-5.7-15.5c-3.8-4.1-9.4-6.1-16.9-6.1H35.5z"/>
	<path class="st0" d="M121.6,6.7h36.1c10.6,0,18.7,2.4,24.1,7.3c5.5,4.9,8.2,11.7,8.2,20.4c0,7.4-1.9,13.6-5.7,18.5
		c-3.8,5-9.5,8.3-16.9,9.9l25.5,40.2h-10.8l-25.3-39.3h-25.2V103h-9.9V6.7z M131.5,15.4V55h26.6c7.3,0,12.8-2,16.5-5.9
		c3.7-3.9,5.5-8.8,5.5-14.7c0-5.9-1.9-10.5-5.6-13.9c-3.7-3.4-9.2-5.1-16.4-5.1H131.5z"/>
	<path class="st0" d="M212,54.9c0-7.1,1.1-13.7,3.4-19.8c2.2-6.1,5.4-11.4,9.5-15.8c4.1-4.4,8.9-7.8,14.6-10.4
		c5.7-2.5,12-3.8,19-3.8c6.8,0,13.1,1.3,18.8,3.8c5.7,2.5,10.6,6,14.7,10.4c4.1,4.4,7.3,9.6,9.6,15.8c2.3,6.1,3.4,12.7,3.4,19.8
		c0,7.2-1.1,13.8-3.4,19.9c-2.3,6.1-5.5,11.3-9.6,15.7c-4.1,4.4-9,7.8-14.7,10.4c-5.7,2.5-11.9,3.8-18.8,3.8c-6.9,0-13.2-1.3-19-3.8
		c-5.7-2.5-10.6-6-14.7-10.4c-4.1-4.4-7.2-9.6-9.5-15.7C213.2,68.7,212,62.1,212,54.9z M222.4,54.9c0,5.8,0.9,11.2,2.6,16.1
		c1.7,4.9,4.2,9.2,7.4,12.9c3.2,3.6,7,6.5,11.4,8.5c4.4,2.1,9.4,3.1,14.8,3.1c5.4,0,10.3-1,14.8-3.1c4.4-2.1,8.2-4.9,11.4-8.5
		c3.2-3.6,5.6-7.9,7.3-12.9c1.7-4.9,2.6-10.3,2.6-16.1c0-5.8-0.9-11.2-2.6-16.1c-1.7-4.9-4.2-9.2-7.3-12.9c-3.2-3.6-7-6.5-11.4-8.5
		c-4.4-2.1-9.4-3.1-14.8-3.1c-5.4,0-10.3,1-14.8,3.1c-4.4,2.1-8.2,4.9-11.4,8.5c-3.2,3.6-5.6,7.9-7.4,12.9
		C223.3,43.7,222.4,49.1,222.4,54.9z"/>
	<path class="st0" d="M371.4,6.7h63.8v8.7h-53.9v34.2h43.3v8.7h-43.3v36.1h55v8.7h-65V6.7z"/>
	<path class="st0" d="M488.8,64.7l-34.6-58h11.2l28.3,47.7h0.4l29.3-47.7h10.4l-35,57.3V103h-9.9V64.7z"/>
	<path class="st0" d="M556.7,6.7h63.8v8.7h-53.9v34.2h43.3v8.7h-43.3v36.1h55v8.7h-65V6.7z"/>
</g>
<g id="圖層_2">
</g>
</svg>
