<svg id="圖層_1" data-name="圖層 1" xmlns="http://www.w3.org/2000/svg" viewBox="0 0 648.04 107.72"><defs><style>.cls-1{fill:#fff;}</style></defs><title>未命名-1</title><path class="cls-1" d="M1,54.84A57,57,0,0,1,4.31,35.3a47.57,47.57,0,0,1,9.28-15.78A42.48,42.48,0,0,1,28,9.06,45,45,0,0,1,46.67,5.29a46.2,46.2,0,0,1,15,2.3,39.21,39.21,0,0,1,11.87,6.35,35.59,35.59,0,0,1,8.51,9.84,43.61,43.61,0,0,1,5,12.63H76.82q-2.94-10.47-10.4-16.26T46.67,14.36a33.91,33.91,0,0,0-14.52,3.07A32.62,32.62,0,0,0,21,25.94a39,39,0,0,0-7.12,12.85,49.46,49.46,0,0,0-2.51,16.05,49,49,0,0,0,2.51,15.91A39.07,39.07,0,0,0,21,83.59a33.57,33.57,0,0,0,11,8.58,31.9,31.9,0,0,0,14.24,3.15q12.7,0,20.1-5.8T76.82,73.26H87A45.06,45.06,0,0,1,81.91,86a35.15,35.15,0,0,1-8.58,9.77,39.88,39.88,0,0,1-12,6.35,46.85,46.85,0,0,1-15.07,2.31,44.39,44.39,0,0,1-18.42-3.77A42.39,42.39,0,0,1,13.52,90.29,46.4,46.4,0,0,1,4.31,74.66,57.84,57.84,0,0,1,1,54.84Z"/><path class="cls-1" d="M108.78,54.84a57,57,0,0,1,3.35-19.75,46.17,46.17,0,0,1,9.42-15.71A43.73,43.73,0,0,1,136.14,9.06a46.24,46.24,0,0,1,19-3.77,45.55,45.55,0,0,1,18.7,3.77,44.53,44.53,0,0,1,14.66,10.32A46.63,46.63,0,0,1,198,35.09a55.91,55.91,0,0,1,3.42,19.75A55.78,55.78,0,0,1,198,74.66a46.66,46.66,0,0,1-9.56,15.63,44.41,44.41,0,0,1-14.66,10.33,45.71,45.71,0,0,1-18.7,3.77,46.54,46.54,0,0,1-18.91-3.77,43.41,43.41,0,0,1-14.66-10.33,46.2,46.2,0,0,1-9.42-15.63A56.91,56.91,0,0,1,108.78,54.84Zm10.33,0a48.41,48.41,0,0,0,2.58,16A38.61,38.61,0,0,0,129,83.73a33.53,33.53,0,0,0,11.37,8.51,36.76,36.76,0,0,0,29.46,0,33.63,33.63,0,0,0,11.37-8.51,38.79,38.79,0,0,0,7.33-12.84,48.41,48.41,0,0,0,2.58-16,48.41,48.41,0,0,0-2.58-16.05,38.74,38.74,0,0,0-7.33-12.85,33.89,33.89,0,0,0-11.37-8.51,36.87,36.87,0,0,0-29.46,0A33.79,33.79,0,0,0,129,25.94a38.56,38.56,0,0,0-7.33,12.85A48.41,48.41,0,0,0,119.11,54.84Z"/><path class="cls-1" d="M233.84,75.22q0,9.9,7,15.42t19.12,5.51q12.57,0,19.34-5.23T286,76.47a14.08,14.08,0,0,0-1.88-7.61,15.52,15.52,0,0,0-5-5,27.12,27.12,0,0,0-7.4-3.07c-2.84-.74-5.79-1.4-8.87-2l-6.28-1.12a114.39,114.39,0,0,1-11.44-2.51,38.36,38.36,0,0,1-10-4.26,20.91,20.91,0,0,1-7-7.19q-2.66-4.47-2.65-11.58a24.1,24.1,0,0,1,2.44-10.82,24.94,24.94,0,0,1,6.91-8.52,33.66,33.66,0,0,1,10.75-5.58,45.75,45.75,0,0,1,14.09-2A49.61,49.61,0,0,1,273.48,7.1a32.94,32.94,0,0,1,10.82,5.24,23.64,23.64,0,0,1,7.05,8.51,26.42,26.42,0,0,1,2.51,11.79H284a18,18,0,0,0-1.81-8.3,17.09,17.09,0,0,0-5.1-6,22.5,22.5,0,0,0-7.74-3.63,39.6,39.6,0,0,0-19.27,0,23.12,23.12,0,0,0-7.67,3.49,17.42,17.42,0,0,0-5.1,5.65,15.17,15.17,0,0,0-1.88,7.54,13.33,13.33,0,0,0,2,7.61,15.56,15.56,0,0,0,5.38,4.88,29.53,29.53,0,0,0,7.81,2.93q4.47,1,9.35,1.89l6.28,1.11q5.59,1.13,11,2.65a34,34,0,0,1,9.7,4.4,21.55,21.55,0,0,1,6.84,7.47,23.79,23.79,0,0,1,2.58,11.72,26.88,26.88,0,0,1-2.44,11.52,25,25,0,0,1-7.12,9,33,33,0,0,1-11.44,5.79,53.91,53.91,0,0,1-15.43,2q-16.89,0-26.45-7.61t-9.56-21.56Z"/><path class="cls-1" d="M326.38,6.82h12l37.27,82.63h.28L412.78,6.82h12v96h-9.91l.84-80.39h-.42l-35.87,80.39h-7.68L335.87,23.71h-.42l.84,79.14h-9.91Z"/><path class="cls-1" d="M453,54.84a56.8,56.8,0,0,1,3.35-19.75,46.17,46.17,0,0,1,9.42-15.71A43.79,43.79,0,0,1,480.33,9.06a46.32,46.32,0,0,1,19-3.77A45.58,45.58,0,0,1,518,9.06a44.53,44.53,0,0,1,14.66,10.32,46.63,46.63,0,0,1,9.56,15.71,55.91,55.91,0,0,1,3.42,19.75,55.78,55.78,0,0,1-3.42,19.82,46.66,46.66,0,0,1-9.56,15.63A44.41,44.41,0,0,1,518,100.62a45.74,45.74,0,0,1-18.7,3.77,46.62,46.62,0,0,1-18.92-3.77,43.47,43.47,0,0,1-14.65-10.33,46.2,46.2,0,0,1-9.42-15.63A56.68,56.68,0,0,1,453,54.84Zm10.33,0a48.41,48.41,0,0,0,2.58,16,38.61,38.61,0,0,0,7.33,12.84,33.53,33.53,0,0,0,11.37,8.51,36.74,36.74,0,0,0,29.45,0,33.67,33.67,0,0,0,11.38-8.51,39,39,0,0,0,7.33-12.84,48.41,48.41,0,0,0,2.58-16,48.41,48.41,0,0,0-2.58-16.05,38.91,38.91,0,0,0-7.33-12.85A33.93,33.93,0,0,0,514,17.43a36.85,36.85,0,0,0-29.45,0,33.79,33.79,0,0,0-11.37,8.51,38.56,38.56,0,0,0-7.33,12.85A48.41,48.41,0,0,0,463.31,54.84Z"/><path class="cls-1" d="M578,75.22q0,9.9,7,15.42t19.12,5.51q12.57,0,19.33-5.23t6.77-14.45a14.16,14.16,0,0,0-1.88-7.61,15.46,15.46,0,0,0-5-5,27.05,27.05,0,0,0-7.39-3.07c-2.84-.74-5.8-1.4-8.87-2l-6.28-1.12a113.78,113.78,0,0,1-11.44-2.51,38.21,38.21,0,0,1-10-4.26,20.74,20.74,0,0,1-7-7.19q-2.66-4.47-2.65-11.58a24.1,24.1,0,0,1,2.44-10.82A24.83,24.83,0,0,1,579,12.89a33.55,33.55,0,0,1,10.75-5.58,45.75,45.75,0,0,1,14.09-2A49.66,49.66,0,0,1,617.68,7.1a33,33,0,0,1,10.82,5.24,23.64,23.64,0,0,1,7,8.51,26.42,26.42,0,0,1,2.51,11.79h-9.91a18,18,0,0,0-1.82-8.3,17.06,17.06,0,0,0-5.09-6,22.46,22.46,0,0,0-7.75-3.63,39.56,39.56,0,0,0-19.26,0,23.18,23.18,0,0,0-7.68,3.49,17.39,17.39,0,0,0-5.09,5.65,15.07,15.07,0,0,0-1.88,7.54,13.33,13.33,0,0,0,2,7.61A15.61,15.61,0,0,0,587,43.88a29.74,29.74,0,0,0,7.82,2.93c3,.7,6.09,1.33,9.35,1.89l6.28,1.11q5.58,1.13,11,2.65a34,34,0,0,1,9.7,4.4A21.55,21.55,0,0,1,638,64.33a23.79,23.79,0,0,1,2.58,11.72,26.88,26.88,0,0,1-2.44,11.52,25,25,0,0,1-7.12,9,33,33,0,0,1-11.45,5.79,53.79,53.79,0,0,1-15.42,2q-16.89,0-26.45-7.61t-9.56-21.56Z"/></svg>