<svg id="圖層_1" data-name="圖層 1" xmlns="http://www.w3.org/2000/svg" viewBox="0 0 1071.61 107.72"><defs><style>.cls-1{fill:#fff;}</style></defs><title>未命名-1</title><path class="cls-1" d="M1,54.12A57,57,0,0,1,4.31,34.58a47.42,47.42,0,0,1,9.28-15.77A42.38,42.38,0,0,1,28,8.34,45,45,0,0,1,46.67,4.57a46.47,46.47,0,0,1,15,2.3,39.21,39.21,0,0,1,11.87,6.35,35.59,35.59,0,0,1,8.51,9.84,43.72,43.72,0,0,1,5,12.63H76.82q-2.94-10.45-10.4-16.26T46.67,13.64a33.91,33.91,0,0,0-14.52,3.07A32.52,32.52,0,0,0,21,25.23a39.07,39.07,0,0,0-7.12,12.84,49.46,49.46,0,0,0-2.51,16A49,49,0,0,0,13.87,70,39.07,39.07,0,0,0,21,82.87a33.73,33.73,0,0,0,11,8.59A32,32,0,0,0,46.25,94.6q12.7,0,20.1-5.8T76.82,72.54H87a45.06,45.06,0,0,1-5.1,12.7A35.15,35.15,0,0,1,73.33,95a39.9,39.9,0,0,1-12,6.36,47.13,47.13,0,0,1-15.07,2.3A44.39,44.39,0,0,1,27.83,99.9,42.39,42.39,0,0,1,13.52,89.57,46.4,46.4,0,0,1,4.31,73.94,57.84,57.84,0,0,1,1,54.12Z"/><path class="cls-1" d="M108.78,54.12a57,57,0,0,1,3.35-19.75,46.13,46.13,0,0,1,9.42-15.7A43.62,43.62,0,0,1,136.14,8.34a46.24,46.24,0,0,1,19-3.77,45.55,45.55,0,0,1,18.7,3.77,44.41,44.41,0,0,1,14.66,10.33A46.59,46.59,0,0,1,198,34.37a55.91,55.91,0,0,1,3.42,19.75A55.78,55.78,0,0,1,198,73.94a46.66,46.66,0,0,1-9.56,15.63A44.41,44.41,0,0,1,173.82,99.9a45.71,45.71,0,0,1-18.7,3.77,46.54,46.54,0,0,1-18.91-3.77,43.41,43.41,0,0,1-14.66-10.33,46.2,46.2,0,0,1-9.42-15.63A56.91,56.91,0,0,1,108.78,54.12Zm10.33,0a48.41,48.41,0,0,0,2.58,16.05A38.61,38.61,0,0,0,129,83a33.69,33.69,0,0,0,11.37,8.52,36.87,36.87,0,0,0,29.46,0A33.79,33.79,0,0,0,181.22,83a38.79,38.79,0,0,0,7.33-12.84,48.41,48.41,0,0,0,2.58-16.05,48.41,48.41,0,0,0-2.58-16,38.79,38.79,0,0,0-7.33-12.84,33.79,33.79,0,0,0-11.37-8.52,36.87,36.87,0,0,0-29.46,0A33.69,33.69,0,0,0,129,25.23a38.61,38.61,0,0,0-7.33,12.84A48.41,48.41,0,0,0,119.11,54.12Z"/><path class="cls-1" d="M233.84,74.5q0,9.91,7,15.42t19.12,5.51q12.57,0,19.34-5.23T286,75.75a14,14,0,0,0-1.88-7.6,15.65,15.65,0,0,0-5-5,27.12,27.12,0,0,0-7.4-3.07c-2.84-.74-5.79-1.4-8.87-1.95l-6.28-1.12a114.39,114.39,0,0,1-11.44-2.51,38.36,38.36,0,0,1-10-4.26,20.83,20.83,0,0,1-7-7.19q-2.66-4.47-2.65-11.58a24.1,24.1,0,0,1,2.44-10.82,24.81,24.81,0,0,1,6.91-8.51,33.47,33.47,0,0,1,10.75-5.59,45.75,45.75,0,0,1,14.09-2,49.61,49.61,0,0,1,13.82,1.81,32.94,32.94,0,0,1,10.82,5.24,23.72,23.72,0,0,1,7.05,8.51,26.44,26.44,0,0,1,2.51,11.8H284a18,18,0,0,0-1.81-8.31,17.09,17.09,0,0,0-5.1-6A22.5,22.5,0,0,0,269.3,14,39.6,39.6,0,0,0,250,14a23.12,23.12,0,0,0-7.67,3.49,17.42,17.42,0,0,0-5.1,5.65,15.2,15.2,0,0,0-1.88,7.54,13.33,13.33,0,0,0,2,7.61,15.46,15.46,0,0,0,5.38,4.88,29.19,29.19,0,0,0,7.81,2.93q4.47,1,9.35,1.89l6.28,1.11q5.59,1.13,11,2.66a33.71,33.71,0,0,1,9.7,4.39,21.55,21.55,0,0,1,6.84,7.47,23.79,23.79,0,0,1,2.58,11.72,26.88,26.88,0,0,1-2.44,11.52,25,25,0,0,1-7.12,9,33.23,33.23,0,0,1-11.44,5.8,54.28,54.28,0,0,1-15.43,2q-16.89,0-26.45-7.61T223.93,74.5Z"/><path class="cls-1" d="M326.38,6.1h12l37.27,82.63h.28L412.78,6.1h12v96h-9.91l.84-80.39h-.42l-35.87,80.39h-7.68L335.87,23h-.42l.84,79.14h-9.91Z"/><path class="cls-1" d="M453,54.12a56.8,56.8,0,0,1,3.35-19.75,46.13,46.13,0,0,1,9.42-15.7A43.68,43.68,0,0,1,480.33,8.34a46.32,46.32,0,0,1,19-3.77A45.58,45.58,0,0,1,518,8.34a44.41,44.41,0,0,1,14.66,10.33,46.59,46.59,0,0,1,9.56,15.7,55.91,55.91,0,0,1,3.42,19.75,55.78,55.78,0,0,1-3.42,19.82,46.66,46.66,0,0,1-9.56,15.63A44.41,44.41,0,0,1,518,99.9a45.74,45.74,0,0,1-18.7,3.77A46.62,46.62,0,0,1,480.4,99.9a43.47,43.47,0,0,1-14.65-10.33,46.2,46.2,0,0,1-9.42-15.63A56.68,56.68,0,0,1,453,54.12Zm10.33,0a48.41,48.41,0,0,0,2.58,16.05A38.61,38.61,0,0,0,473.22,83a33.69,33.69,0,0,0,11.37,8.52,36.85,36.85,0,0,0,29.45,0A33.83,33.83,0,0,0,525.42,83a39,39,0,0,0,7.33-12.84,48.41,48.41,0,0,0,2.58-16.05,48.41,48.41,0,0,0-2.58-16,39,39,0,0,0-7.33-12.84A33.83,33.83,0,0,0,514,16.71a36.85,36.85,0,0,0-29.45,0,33.69,33.69,0,0,0-11.37,8.52,38.61,38.61,0,0,0-7.33,12.84A48.41,48.41,0,0,0,463.31,54.12Z"/><path class="cls-1" d="M578,74.5q0,9.91,7,15.42t19.12,5.51q12.57,0,19.33-5.23t6.77-14.45a14.1,14.1,0,0,0-1.88-7.6,15.59,15.59,0,0,0-5-5,27.05,27.05,0,0,0-7.39-3.07c-2.84-.74-5.8-1.4-8.87-1.95l-6.28-1.12a113.78,113.78,0,0,1-11.44-2.51,38.21,38.21,0,0,1-10-4.26,20.65,20.65,0,0,1-7-7.19q-2.66-4.47-2.65-11.58a24.1,24.1,0,0,1,2.44-10.82A24.7,24.7,0,0,1,579,12.18a33.37,33.37,0,0,1,10.75-5.59,45.75,45.75,0,0,1,14.09-2,49.66,49.66,0,0,1,13.82,1.81,33,33,0,0,1,10.82,5.24,23.72,23.72,0,0,1,7,8.51,26.44,26.44,0,0,1,2.51,11.8h-9.91a18,18,0,0,0-1.82-8.31,17.06,17.06,0,0,0-5.09-6A22.46,22.46,0,0,0,613.49,14a39.56,39.56,0,0,0-19.26,0,23.18,23.18,0,0,0-7.68,3.49,17.39,17.39,0,0,0-5.09,5.65,15.1,15.1,0,0,0-1.88,7.54,13.33,13.33,0,0,0,2,7.61A15.51,15.51,0,0,0,587,43.16a29.39,29.39,0,0,0,7.82,2.93c3,.7,6.09,1.33,9.35,1.89l6.28,1.11q5.58,1.13,11,2.66a33.71,33.71,0,0,1,9.7,4.39A21.55,21.55,0,0,1,638,63.61a23.79,23.79,0,0,1,2.58,11.72,26.88,26.88,0,0,1-2.44,11.52,25,25,0,0,1-7.12,9,33.19,33.19,0,0,1-11.45,5.8,54.16,54.16,0,0,1-15.42,2q-16.89,0-26.45-7.61T568.13,74.5Z"/><path class="cls-1" d="M767,100.68c0,2.25-.7,2.82-3,2.82H711.36c-2.26,0-3-.57-3-2.82V6c0-2.25.7-2.81,3-2.81h52.12c2.25,0,3,.56,3,2.81v4c0,2.25-.71,2.82-3,2.82H719.67V47.15h40.15c2.25,0,2.95.56,2.95,2.82v3.94c0,2.25-.7,2.82-2.95,2.82H719.67V93.92H764c2.26,0,3,.56,3,2.81Z"/><path class="cls-1" d="M850.25,100.68c0,2.25-.7,2.82-3,2.82H797.85c-2.25,0-3-.57-3-2.82V6c0-2.25.71-2.81,3-2.81h5.35c2.26,0,3,.56,3,2.81V93.92H847.3c2.25,0,3,.56,3,2.81Z"/><path class="cls-1" d="M885.33,100.68c0,2.25-.7,2.82-3,2.82H877c-2.25,0-3-.57-3-2.82V6c0-2.25.71-2.81,3-2.81h5.35c2.26,0,3,.56,3,2.81Z"/><path class="cls-1" d="M938.16,12.78h-27c-2.25,0-3-.57-3-2.82V6c0-2.25.71-2.81,3-2.81h65.36c2.26,0,3,.56,3,2.81v4c0,2.25-.7,2.82-3,2.82h-27v87.9c0,2.25-.71,2.82-3,2.82h-5.35c-2.26,0-3-.57-3-2.82Z"/><path class="cls-1" d="M1060.86,100.68c0,2.25-.71,2.82-3,2.82h-52.69c-2.25,0-3-.57-3-2.82V6c0-2.25.71-2.81,3-2.81h52.12c2.26,0,3,.56,3,2.81v4c0,2.25-.7,2.82-3,2.82h-43.81V47.15h40.15c2.26,0,3,.56,3,2.82v3.94c0,2.25-.7,2.82-3,2.82h-40.15V93.92h44.38c2.25,0,3,.56,3,2.81Z"/></svg>