<svg id="圖層_1" data-name="圖層 1" xmlns="http://www.w3.org/2000/svg" viewBox="0 0 1033.62 107.72"><defs><style>.cls-1{fill:#fff;}</style></defs><title>未命名-1</title><path class="cls-1" d="M1,54.55A57,57,0,0,1,4.31,35a47.57,47.57,0,0,1,9.28-15.78A42.48,42.48,0,0,1,28,8.77,45,45,0,0,1,46.67,5a46.47,46.47,0,0,1,15,2.3,39.21,39.21,0,0,1,11.87,6.35,35.59,35.59,0,0,1,8.51,9.84,43.61,43.61,0,0,1,5,12.63H76.82q-2.94-10.47-10.4-16.26T46.67,14.07a33.91,33.91,0,0,0-14.52,3.07A32.52,32.52,0,0,0,21,25.66,39,39,0,0,0,13.87,38.5a49.46,49.46,0,0,0-2.51,16,49,49,0,0,0,2.51,15.91A39.07,39.07,0,0,0,21,83.3a33.73,33.73,0,0,0,11,8.59A32,32,0,0,0,46.25,95q12.7,0,20.1-5.8T76.82,73H87a45.06,45.06,0,0,1-5.1,12.7,35.15,35.15,0,0,1-8.58,9.77,40.12,40.12,0,0,1-12,6.36,47.13,47.13,0,0,1-15.07,2.3,44.39,44.39,0,0,1-18.42-3.77A42.39,42.39,0,0,1,13.52,90,46.4,46.4,0,0,1,4.31,74.37,57.84,57.84,0,0,1,1,54.55Z"/><path class="cls-1" d="M108.78,54.55a57,57,0,0,1,3.35-19.75,46.17,46.17,0,0,1,9.42-15.71A43.73,43.73,0,0,1,136.14,8.77a46.24,46.24,0,0,1,19-3.77,45.55,45.55,0,0,1,18.7,3.77,44.53,44.53,0,0,1,14.66,10.32A46.63,46.63,0,0,1,198,34.8a55.91,55.91,0,0,1,3.42,19.75A55.78,55.78,0,0,1,198,74.37,46.66,46.66,0,0,1,188.48,90a44.41,44.41,0,0,1-14.66,10.33,45.71,45.71,0,0,1-18.7,3.77,46.54,46.54,0,0,1-18.91-3.77A43.41,43.41,0,0,1,121.55,90a46.2,46.2,0,0,1-9.42-15.63A56.91,56.91,0,0,1,108.78,54.55Zm10.33,0a48.41,48.41,0,0,0,2.58,16A38.61,38.61,0,0,0,129,83.44,33.53,33.53,0,0,0,140.39,92a36.76,36.76,0,0,0,29.46,0,33.63,33.63,0,0,0,11.37-8.51,38.79,38.79,0,0,0,7.33-12.84,48.41,48.41,0,0,0,2.58-16,48.41,48.41,0,0,0-2.58-16,38.69,38.69,0,0,0-7.33-12.84,33.79,33.79,0,0,0-11.37-8.52,36.87,36.87,0,0,0-29.46,0A33.69,33.69,0,0,0,129,25.66a38.52,38.52,0,0,0-7.33,12.84A48.41,48.41,0,0,0,119.11,54.55Z"/><path class="cls-1" d="M233.84,74.93q0,9.9,7,15.42t19.12,5.51q12.57,0,19.34-5.23T286,76.18a14,14,0,0,0-1.88-7.6,15.55,15.55,0,0,0-5-5,27.12,27.12,0,0,0-7.4-3.07c-2.84-.74-5.79-1.4-8.87-1.95l-6.28-1.12A114.39,114.39,0,0,1,245.15,55a38.36,38.36,0,0,1-10-4.26,20.91,20.91,0,0,1-7-7.19q-2.66-4.47-2.65-11.58a24.1,24.1,0,0,1,2.44-10.82,24.94,24.94,0,0,1,6.91-8.52A33.66,33.66,0,0,1,245.57,7a45.75,45.75,0,0,1,14.09-2,49.61,49.61,0,0,1,13.82,1.81,32.94,32.94,0,0,1,10.82,5.24,23.64,23.64,0,0,1,7.05,8.51,26.44,26.44,0,0,1,2.51,11.8H284a18,18,0,0,0-1.81-8.31,17.09,17.09,0,0,0-5.1-6,22.5,22.5,0,0,0-7.74-3.63,39.6,39.6,0,0,0-19.27,0,23.12,23.12,0,0,0-7.67,3.49,17.42,17.42,0,0,0-5.1,5.65,15.17,15.17,0,0,0-1.88,7.54,13.33,13.33,0,0,0,2,7.61,15.56,15.56,0,0,0,5.38,4.88,29.53,29.53,0,0,0,7.81,2.93q4.47,1,9.35,1.89l6.28,1.11q5.59,1.13,11,2.66a33.71,33.71,0,0,1,9.7,4.39A21.55,21.55,0,0,1,293.79,64a23.79,23.79,0,0,1,2.58,11.72,26.88,26.88,0,0,1-2.44,11.52,25,25,0,0,1-7.12,9,33,33,0,0,1-11.44,5.79,53.91,53.91,0,0,1-15.43,2q-16.89,0-26.45-7.61t-9.56-21.56Z"/><path class="cls-1" d="M326.38,6.53h12l37.27,82.63h.28L412.78,6.53h12v96h-9.91l.84-80.39h-.42l-35.87,80.39h-7.68L335.87,23.42h-.42l.84,79.14h-9.91Z"/><path class="cls-1" d="M453,54.55a56.8,56.8,0,0,1,3.35-19.75,46.17,46.17,0,0,1,9.42-15.71A43.79,43.79,0,0,1,480.33,8.77a46.32,46.32,0,0,1,19-3.77A45.58,45.58,0,0,1,518,8.77a44.53,44.53,0,0,1,14.66,10.32,46.63,46.63,0,0,1,9.56,15.71,55.91,55.91,0,0,1,3.42,19.75,55.78,55.78,0,0,1-3.42,19.82A46.66,46.66,0,0,1,532.68,90,44.41,44.41,0,0,1,518,100.33a45.74,45.74,0,0,1-18.7,3.77,46.62,46.62,0,0,1-18.92-3.77A43.47,43.47,0,0,1,465.75,90a46.2,46.2,0,0,1-9.42-15.63A56.68,56.68,0,0,1,453,54.55Zm10.33,0a48.41,48.41,0,0,0,2.58,16,38.61,38.61,0,0,0,7.33,12.84A33.53,33.53,0,0,0,484.59,92,36.74,36.74,0,0,0,514,92a33.67,33.67,0,0,0,11.38-8.51,39,39,0,0,0,7.33-12.84,48.41,48.41,0,0,0,2.58-16,48.41,48.41,0,0,0-2.58-16,38.86,38.86,0,0,0-7.33-12.84A33.83,33.83,0,0,0,514,17.14a36.85,36.85,0,0,0-29.45,0,33.69,33.69,0,0,0-11.37,8.52,38.52,38.52,0,0,0-7.33,12.84A48.41,48.41,0,0,0,463.31,54.55Z"/><path class="cls-1" d="M578,74.93q0,9.9,7,15.42t19.12,5.51q12.57,0,19.33-5.23t6.77-14.45a14.1,14.1,0,0,0-1.88-7.6,15.49,15.49,0,0,0-5-5,27.05,27.05,0,0,0-7.39-3.07c-2.84-.74-5.8-1.4-8.87-1.95l-6.28-1.12A113.78,113.78,0,0,1,589.35,55a38.21,38.21,0,0,1-10-4.26,20.74,20.74,0,0,1-7-7.19q-2.66-4.47-2.65-11.58a24.1,24.1,0,0,1,2.44-10.82A24.83,24.83,0,0,1,579,12.6,33.55,33.55,0,0,1,589.77,7a45.75,45.75,0,0,1,14.09-2,49.66,49.66,0,0,1,13.82,1.81,33,33,0,0,1,10.82,5.24,23.64,23.64,0,0,1,7,8.51,26.44,26.44,0,0,1,2.51,11.8h-9.91a18,18,0,0,0-1.82-8.31,17.06,17.06,0,0,0-5.09-6,22.46,22.46,0,0,0-7.75-3.63,39.56,39.56,0,0,0-19.26,0,23.18,23.18,0,0,0-7.68,3.49,17.39,17.39,0,0,0-5.09,5.65,15.07,15.07,0,0,0-1.88,7.54,13.33,13.33,0,0,0,2,7.61A15.61,15.61,0,0,0,587,43.59a29.74,29.74,0,0,0,7.82,2.93c3,.7,6.09,1.33,9.35,1.89l6.28,1.11q5.58,1.13,11,2.66a33.71,33.71,0,0,1,9.7,4.39A21.55,21.55,0,0,1,638,64a23.79,23.79,0,0,1,2.58,11.72,26.88,26.88,0,0,1-2.44,11.52,25,25,0,0,1-7.12,9,33,33,0,0,1-11.45,5.79,53.79,53.79,0,0,1-15.42,2q-16.89,0-26.45-7.61t-9.56-21.56Z"/><path class="cls-1" d="M719.39,64.34v36.77c0,2.25-.71,2.82-3,2.82h-5.07c-2.26,0-3-.57-3-2.82V6.44c0-2.25.7-2.81,3-2.81h27.47c22.39,0,32.11,8.87,32.11,29.3v2.81c0,19-10.7,28.6-32.11,28.6Zm0-9.58h19.86c14.51,0,20-5.07,20-19V33.49c0-14.79-5.35-20.28-20-20.28H719.39Z"/><path class="cls-1" d="M850.68,101.11c0,2.25-.71,2.82-3,2.82H798.27c-2.25,0-2.95-.57-2.95-2.82V6.44c0-2.25.7-2.81,2.95-2.81h5.36c2.25,0,3,.56,3,2.81V94.35h41.13c2.25,0,3,.56,3,2.81Z"/><path class="cls-1" d="M949.14,101a6.39,6.39,0,0,1,.29,1.27c0,1.12-.71,1.69-2.26,1.69h-6.34c-2.39,0-2.81-.29-3.52-2.4L929,76.46H888.43l-8.17,25.07c-.7,2.11-1.13,2.4-3.52,2.4h-5.92c-1.55,0-2.25-.57-2.25-1.69a7,7,0,0,1,.28-1.27L901.11,6.73c.7-2.26,1.41-3.1,3.66-3.1h9c2.25,0,3,1,3.66,3.1ZM891.67,66.59h34.09l-16.9-51.83Z"/><path class="cls-1" d="M961.26,3.63c2.26,0,2.82.28,3.81,2.39L989,54.48,1012.54,6c1-2.11,1.55-2.39,3.8-2.39H1022c1.69,0,2.53.56,2.53,1.69a3.2,3.2,0,0,1-.42,1.41L994.22,65.89v35.22c0,2.25-.7,2.82-3,2.82h-5.36c-2.25,0-2.95-.57-2.95-2.82V65.89L953,6.73a3.2,3.2,0,0,1-.42-1.41c0-1.13.84-1.69,2.53-1.69Z"/></svg>