<svg xmlns="http://www.w3.org/2000/svg" viewBox="0 0 141.4 20.4"><path d="M78.2 4c3.4 0 5.8 2.7 5.8 6.3s-2.4 6.3-5.8 6.3c-3.5 0-5.8-2.7-5.8-6.3S74.7 4 78.2 4zm0 11.4c2.7 0 4.5-2.2 4.5-5.1s-1.8-5.1-4.5-5.1-4.5 2.2-4.5 5.1 1.8 5.1 4.5 5.1zM88.3 13c.1 0 .1.1.1.1.1 1.5 1.3 2.4 3.3 2.4 2.1 0 3.3-.9 3.3-2.5 0-3.6-7.7-.9-7.7-5.6 0-2 1.7-3.4 4.3-3.4 2.5 0 4.2 1.2 4.3 3.2 0 .1-.1.1-.1.1h-1c-.1 0-.1-.1-.1-.1-.1-1.4-1.4-2.2-3.1-2.2s-3.1.8-3.1 2.3c0 3.5 7.7.8 7.7 5.6 0 2.1-1.7 3.6-4.6 3.6-2.8 0-4.5-1.3-4.5-3.4 0-.1.1-.1.1-.1h1.1zm12.4-8.8h1.3c.1 0 .1 0 .1.1l4.7 10.4 4.6-10.4c0-.1.1-.1.1-.1h1.3c.1 0 .1.1.1.1v11.8c0 .1-.1.1-.1.1h-1c-.1 0-.1-.1-.1-.1l.1-10h-.1l-4.5 10.1c0 .1-.1.1-.1.1h-.7c-.1 0-.1 0-.1-.1l-4.5-9.9h-.1l.1 9.8c0 .1-.1.1-.1.1h-1c-.1 0-.1-.1-.1-.1V4.4c0-.1 0-.2.1-.2zm22-.2c3.4 0 5.8 2.7 5.8 6.3s-2.4 6.3-5.8 6.3c-3.5 0-5.8-2.7-5.8-6.3s2.4-6.3 5.8-6.3zm0 11.4c2.7 0 4.5-2.2 4.5-5.1s-1.8-5.1-4.5-5.1-4.5 2.2-4.5 5.1 1.8 5.1 4.5 5.1zm10.2-2.4c.1 0 .1.1.1.1.1 1.5 1.3 2.4 3.3 2.4 2.1 0 3.3-.9 3.3-2.5 0-3.6-7.7-.9-7.7-5.6 0-2 1.7-3.4 4.3-3.4 2.5 0 4.2 1.2 4.3 3.2 0 .1-.1.1-.1.1h-1c-.1 0-.1-.1-.1-.1-.1-1.4-1.4-2.2-3.1-2.2-1.7 0-3.1.8-3.1 2.3 0 3.5 7.7.8 7.7 5.6 0 2.1-1.7 3.6-4.6 3.6-2.8 0-4.5-1.3-4.5-3.4 0-.1.1-.1.1-.1h1.1zM38.4 6.1l-5.1 10c-.1.2-.2.3-.4.3h-1.7c-.2 0-.3-.1-.4-.3l-5.1-10c-.1-.2-.1-.4 0-.5l.5-.9c.1-.2.3-.3.5-.3h.5c.1 0 .2.1.3.2l4.3 8.5c.1.2.3.2.4 0l4.3-8.5c.1-.1.2-.2.3-.2h.5c.2 0 .4.1.5.3l.5.9c.1.1.2.3.1.5m-25.2 0l-5.1 10c-.1.2-.2.3-.4.3H6c-.2 0-.3-.1-.4-.3L.5 6.1c-.1-.2-.1-.4 0-.5l.5-.9c.1-.2.3-.3.5-.3H2c.1 0 .2.1.3.2l4.3 8.5c.1.2.3.2.4 0l4.4-8.6c.1-.1.2-.2.3-.2h.5c.2 0 .4.1.5.3l.5.9c.1.2.1.4 0 .6m7.3-1.7c-.1-.1-.2-.1-.3-.1h-.8c-.2 0-.4.1-.5.3l-.5.9c0 .1-.1.2-.1.3v10c0 .3.2.5.5.5h1.4c.3 0 .5-.2.5-.5v-11c0-.2-.1-.3-.2-.4m23.5.2c.1-.2.3-.3.5-.3h7.3c.2 0 .4.1.5.3l.5.9c.1.1.1.3.1.4v.2c0 .2-.1.3-.3.3H46c-.1 0-.2.1-.2.2V9c0 .1.1.2.2.2h4.4c.2 0 .4.2.4.4v1.3c0 .2-.2.4-.4.4h-4.5c-.1 0-.2.1-.2.2v2.4c0 .1.1.2.2.2h6.6c.2 0 .3.1.3.3v.2c0 .1 0 .3-.1.4l-.4 1c-.1.2-.3.3-.5.3h-7.3c-.2 0-.4-.1-.5-.3l-.5-.9c0-.1-.1-.2-.1-.4V5.9c0-.1 0-.3.1-.4l.5-.9zm25.1 8h-1c-.1 0-.1 0-.1.1-.4 1.4-1.3 2.3-2.8 2.6h-.1l-.3.4c-.1.1 0 .2 0 .3l.4.3h.1c2-.4 3.4-1.8 3.8-3.7.1.1.1 0 0 0zm-5.9-7.4l.3-.4c.1-.1 0-.2 0-.3l-.4-.3H63c-2.7.6-4.5 3-4.5 6.1s1.8 5.6 4.5 6.1h.1l.4-.3c.1-.1.1-.2 0-.3l-.3-.4-.1-.1c-2.1-.5-3.4-2.5-3.4-5s1.3-4.5 3.4-5c.1 0 .1-.1.1-.1zm1.8 0c1.5.4 2.5 1.3 2.9 2.7 0 .1.1.1.1.1h1c.1 0 .2-.1.1-.2-.4-1.9-1.7-3.2-3.7-3.6h-.1l-.4.3c-.1.1-.1.2 0 .3l.1.4z" fill="#fff"/></svg>